<svg width="16" height="16" viewBox="0 0 16 16" fill="none" xmlns="http://www.w3.org/2000/svg">
<path d="M4.00065 7.33203C4.00065 7.15522 4.07089 6.98565 4.19591 6.86063C4.32094 6.7356 4.49051 6.66536 4.66732 6.66536C4.84413 6.66536 5.0137 6.7356 5.13872 6.86063C5.26375 6.98565 5.33398 7.15522 5.33398 7.33203C5.33398 7.50884 5.26375 7.67841 5.13872 7.80344C5.0137 7.92846 4.84413 7.9987 4.66732 7.9987C4.49051 7.9987 4.32094 7.92846 4.19591 7.80344C4.07089 7.67841 4.00065 7.50884 4.00065 7.33203ZM4.66732 9.33203C4.49051 9.33203 4.32094 9.40227 4.19591 9.52729C4.07089 9.65232 4.00065 9.82189 4.00065 9.9987C4.00065 10.1755 4.07089 10.3451 4.19591 10.4701C4.32094 10.5951 4.49051 10.6654 4.66732 10.6654C4.84413 10.6654 5.0137 10.5951 5.13872 10.4701C5.26375 10.3451 5.33398 10.1755 5.33398 9.9987C5.33398 9.82189 5.26375 9.65232 5.13872 9.52729C5.0137 9.40227 4.84413 9.33203 4.66732 9.33203ZM6.66732 7.33203C6.66732 7.15522 6.73756 6.98565 6.86258 6.86063C6.9876 6.7356 7.15717 6.66536 7.33398 6.66536C7.5108 6.66536 7.68036 6.7356 7.80539 6.86063C7.93041 6.98565 8.00065 7.15522 8.00065 7.33203C8.00065 7.50884 7.93041 7.67841 7.80539 7.80344C7.68036 7.92846 7.5108 7.9987 7.33398 7.9987C7.15717 7.9987 6.9876 7.92846 6.86258 7.80344C6.73756 7.67841 6.66732 7.50884 6.66732 7.33203ZM7.33398 9.33203C7.15717 9.33203 6.9876 9.40227 6.86258 9.52729C6.73756 9.65232 6.66732 9.82189 6.66732 9.9987C6.66732 10.1755 6.73756 10.3451 6.86258 10.4701C6.9876 10.5951 7.15717 10.6654 7.33398 10.6654C7.5108 10.6654 7.68036 10.5951 7.80539 10.4701C7.93041 10.3451 8.00065 10.1755 8.00065 9.9987C8.00065 9.82189 7.93041 9.65232 7.80539 9.52729C7.68036 9.40227 7.5108 9.33203 7.33398 9.33203ZM9.33398 7.33203C9.33398 7.15522 9.40422 6.98565 9.52925 6.86063C9.65427 6.7356 9.82384 6.66536 10.0007 6.66536C10.1775 6.66536 10.347 6.7356 10.4721 6.86063C10.5971 6.98565 10.6673 7.15522 10.6673 7.33203C10.6673 7.50884 10.5971 7.67841 10.4721 7.80344C10.347 7.92846 10.1775 7.9987 10.0007 7.9987C9.82384 7.9987 9.65427 7.92846 9.52925 7.80344C9.40422 7.67841 9.33398 7.50884 9.33398 7.33203ZM1.33398 4.66536C1.33398 3.78131 1.68517 2.93346 2.3103 2.30834C2.93542 1.68322 3.78326 1.33203 4.66732 1.33203H11.334C12.218 1.33203 13.0659 1.68322 13.691 2.30834C14.3161 2.93346 14.6673 3.78131 14.6673 4.66536V11.332C14.6673 12.2161 14.3161 13.0639 13.691 13.6891C13.0659 14.3142 12.218 14.6654 11.334 14.6654H4.66732C3.78326 14.6654 2.93542 14.3142 2.3103 13.6891C1.68517 13.0639 1.33398 12.2161 1.33398 11.332V4.66536ZM4.66732 2.66536C4.25355 2.66515 3.8499 2.79327 3.512 3.03207C3.17409 3.27087 2.91857 3.60859 2.78065 3.9987H13.2207C13.0827 3.60859 12.8272 3.27087 12.4893 3.03207C12.1514 2.79327 11.7478 2.66515 11.334 2.66536H4.66732ZM13.334 5.33203H2.66732V11.332C2.66732 11.8625 2.87803 12.3712 3.2531 12.7462C3.62818 13.1213 4.13688 13.332 4.66732 13.332H11.334C11.8644 13.332 12.3731 13.1213 12.7482 12.7462C13.1233 12.3712 13.334 11.8625 13.334 11.332V5.33203Z" fill="black"/>
</svg>
