<svg width="14" height="14" viewBox="0 0 14 14" fill="none" xmlns="http://www.w3.org/2000/svg">
<path fill-rule="evenodd" clip-rule="evenodd" d="M4.59375 5.80967C4.4197 5.80967 4.25278 5.74053 4.12971 5.61746C4.00664 5.49439 3.9375 5.32747 3.9375 5.15342V4.4998C3.5894 4.4998 3.25556 4.63808 3.00942 4.88422C2.76328 5.13036 2.625 5.4642 2.625 5.8123V6.6873H11.375V5.8123C11.375 5.4642 11.2367 5.13036 10.9906 4.88422C10.7444 4.63808 10.4106 4.4998 10.0625 4.4998V5.15605C10.0625 5.3301 9.99336 5.49701 9.87029 5.62009C9.74722 5.74316 9.5803 5.8123 9.40625 5.8123C9.2322 5.8123 9.06528 5.74316 8.94221 5.62009C8.81914 5.49701 8.75 5.3301 8.75 5.15605V4.4998H5.25V5.15342C5.25 5.32747 5.18086 5.49439 5.05779 5.61746C4.93472 5.74053 4.7678 5.80967 4.59375 5.80967ZM8.75 3.1873H5.25V2.5293C5.25 2.35525 5.18086 2.18833 5.05779 2.06526C4.93472 1.94219 4.7678 1.87305 4.59375 1.87305C4.4197 1.87305 4.25278 1.94219 4.12971 2.06526C4.00664 2.18833 3.9375 2.35525 3.9375 2.5293V3.1873C3.24131 3.1873 2.57363 3.46386 2.08134 3.95614C1.58906 4.44842 1.3125 5.1161 1.3125 5.8123V11.0623C1.3125 11.7585 1.58906 12.4262 2.08134 12.9185C2.57363 13.4107 3.24131 13.6873 3.9375 13.6873H10.0625C10.7587 13.6873 11.4264 13.4107 11.9187 12.9185C12.4109 12.4262 12.6875 11.7585 12.6875 11.0623V5.8123C12.6875 5.1161 12.4109 4.44842 11.9187 3.95614C11.4264 3.46386 10.7587 3.1873 10.0625 3.1873V2.53105C10.0625 2.357 9.99336 2.19008 9.87029 2.06701C9.74722 1.94394 9.5803 1.8748 9.40625 1.8748C9.2322 1.8748 9.06528 1.94394 8.94221 2.06701C8.81914 2.19008 8.75 2.357 8.75 2.53105V3.1873ZM2.625 7.9998V11.0623C2.625 11.4104 2.76328 11.7442 3.00942 11.9904C3.25556 12.2365 3.5894 12.3748 3.9375 12.3748H10.0625C10.4106 12.3748 10.7444 12.2365 10.9906 11.9904C11.2367 11.7442 11.375 11.4104 11.375 11.0623V7.9998H2.625Z" fill="black"/>
</svg>
