<svg width="24" height="24" viewBox="0 0 24 24" fill="none" xmlns="http://www.w3.org/2000/svg">
<path fill-rule="evenodd" clip-rule="evenodd" d="M1.5 1.5V3.5H3.5V1.5H1.5ZM0.666667 0C0.298477 0 0 0.298477 0 0.666667V4.33333C0 4.70152 0.298477 5 0.666667 5H4.33333C4.70152 5 5 4.70152 5 4.33333V0.666667C5 0.298477 4.70152 0 4.33333 0H0.666667Z" fill="black"/>
<path fill-rule="evenodd" clip-rule="evenodd" d="M1.5 7.5V9.5H3.5V7.5H1.5ZM0.666667 6C0.298477 6 0 6.29848 0 6.66667V10.3333C0 10.7015 0.298477 11 0.666667 11H4.33333C4.70152 11 5 10.7015 5 10.3333V6.66667C5 6.29848 4.70152 6 4.33333 6H0.666667Z" fill="black"/>
<path fill-rule="evenodd" clip-rule="evenodd" d="M1.5 13.5V15.5H3.5V13.5H1.5ZM0.666667 12C0.298477 12 0 12.2985 0 12.6667V16.3333C0 16.7015 0.298477 17 0.666667 17H4.33333C4.70152 17 5 16.7015 5 16.3333V12.6667C5 12.2985 4.70152 12 4.33333 12H0.666667Z" fill="black"/>
<path fill-rule="evenodd" clip-rule="evenodd" d="M1.5 19.5V21.5H3.5V19.5H1.5ZM0.666667 18C0.298477 18 0 18.2985 0 18.6667V22.3333C0 22.7015 0.298477 23 0.666667 23H4.33333C4.70152 23 5 22.7015 5 22.3333V18.6667C5 18.2985 4.70152 18 4.33333 18H0.666667Z" fill="black"/>
<path fill-rule="evenodd" clip-rule="evenodd" d="M7.5 1.5V3.5H9.5V1.5H7.5ZM6.66667 0C6.29848 0 6 0.298477 6 0.666667V4.33333C6 4.70152 6.29848 5 6.66667 5H10.3333C10.7015 5 11 4.70152 11 4.33333V0.666667C11 0.298477 10.7015 0 10.3333 0H6.66667Z" fill="black"/>
<path fill-rule="evenodd" clip-rule="evenodd" d="M7.5 7.5V9.5H9.5V7.5H7.5ZM6.66667 6C6.29848 6 6 6.29848 6 6.66667V10.3333C6 10.7015 6.29848 11 6.66667 11H10.3333C10.7015 11 11 10.7015 11 10.3333V6.66667C11 6.29848 10.7015 6 10.3333 6H6.66667Z" fill="black"/>
<path fill-rule="evenodd" clip-rule="evenodd" d="M7.5 13.5V15.5H9.5V13.5H7.5ZM6.66667 12C6.29848 12 6 12.2985 6 12.6667V16.3333C6 16.7015 6.29848 17 6.66667 17H10.3333C10.7015 17 11 16.7015 11 16.3333V12.6667C11 12.2985 10.7015 12 10.3333 12H6.66667Z" fill="black"/>
<path fill-rule="evenodd" clip-rule="evenodd" d="M7.5 19.5V21.5H9.5V19.5H7.5ZM6.66667 18C6.29848 18 6 18.2985 6 18.6667V22.3333C6 22.7015 6.29848 23 6.66667 23H10.3333C10.7015 23 11 22.7015 11 22.3333V18.6667C11 18.2985 10.7015 18 10.3333 18H6.66667Z" fill="black"/>
<path fill-rule="evenodd" clip-rule="evenodd" d="M13.5 1.5V3.5H15.5V1.5H13.5ZM12.6667 0C12.2985 0 12 0.298477 12 0.666667V4.33333C12 4.70152 12.2985 5 12.6667 5H16.3333C16.7015 5 17 4.70152 17 4.33333V0.666667C17 0.298477 16.7015 0 16.3333 0H12.6667Z" fill="black"/>
<path fill-rule="evenodd" clip-rule="evenodd" d="M13.5 7.5V9.5H15.5V7.5H13.5ZM12.6667 6C12.2985 6 12 6.29848 12 6.66667V10.3333C12 10.7015 12.2985 11 12.6667 11H16.3333C16.7015 11 17 10.7015 17 10.3333V6.66667C17 6.29848 16.7015 6 16.3333 6H12.6667Z" fill="black"/>
<path fill-rule="evenodd" clip-rule="evenodd" d="M13.5 13.5V15.5H15.5V13.5H13.5ZM12.6667 12C12.2985 12 12 12.2985 12 12.6667V16.3333C12 16.7015 12.2985 17 12.6667 17H16.3333C16.7015 17 17 16.7015 17 16.3333V12.6667C17 12.2985 16.7015 12 16.3333 12H12.6667Z" fill="black"/>
<path fill-rule="evenodd" clip-rule="evenodd" d="M13.5 19.5V21.5H15.5V19.5H13.5ZM12.6667 18C12.2985 18 12 18.2985 12 18.6667V22.3333C12 22.7015 12.2985 23 12.6667 23H16.3333C16.7015 23 17 22.7015 17 22.3333V18.6667C17 18.2985 16.7015 18 16.3333 18H12.6667Z" fill="black"/>
<path fill-rule="evenodd" clip-rule="evenodd" d="M19.5 1.5V3.5H21.5V1.5H19.5ZM18.6667 0C18.2985 0 18 0.298477 18 0.666667V4.33333C18 4.70152 18.2985 5 18.6667 5H22.3333C22.7015 5 23 4.70152 23 4.33333V0.666667C23 0.298477 22.7015 0 22.3333 0H18.6667Z" fill="black"/>
<path fill-rule="evenodd" clip-rule="evenodd" d="M19.5 7.5V9.5H21.5V7.5H19.5ZM18.6667 6C18.2985 6 18 6.29848 18 6.66667V10.3333C18 10.7015 18.2985 11 18.6667 11H22.3333C22.7015 11 23 10.7015 23 10.3333V6.66667C23 6.29848 22.7015 6 22.3333 6H18.6667Z" fill="black"/>
<path fill-rule="evenodd" clip-rule="evenodd" d="M19.5 13.5V15.5H21.5V13.5H19.5ZM18.6667 12C18.2985 12 18 12.2985 18 12.6667V16.3333C18 16.7015 18.2985 17 18.6667 17H22.3333C22.7015 17 23 16.7015 23 16.3333V12.6667C23 12.2985 22.7015 12 22.3333 12H18.6667Z" fill="black"/>
<path fill-rule="evenodd" clip-rule="evenodd" d="M19.5 19.5V21.5H21.5V19.5H19.5ZM18.6667 18C18.2985 18 18 18.2985 18 18.6667V22.3333C18 22.7015 18.2985 23 18.6667 23H22.3333C22.7015 23 23 22.7015 23 22.3333V18.6667C23 18.2985 22.7015 18 22.3333 18H18.6667Z" fill="black"/>
</svg>
