<svg width="24" height="24" viewBox="0 0 24 24" fill="none" xmlns="http://www.w3.org/2000/svg">
<g clip-path="url(#clip0_4720_12368)">
<path d="M23.1299 0H0.920904C0.676665 0 0.442429 0.0970237 0.269726 0.269727C0.0970235 0.44243 0 0.676665 0 0.920904V10.1299C0 10.3742 0.0970235 10.6084 0.269726 10.7811C0.442429 10.9538 0.676665 11.0508 0.920904 11.0508H23.1299C23.3742 11.0508 23.6084 10.9538 23.7811 10.7811C23.9538 10.6084 24.0508 10.3742 24.0508 10.1299V0.920904C24.0508 0.676665 23.9538 0.44243 23.7811 0.269727C23.6084 0.0970237 23.3742 0 23.1299 0ZM22.209 9.20904H1.84181V1.84181H22.209V9.20904ZM23.1299 12.8927H0.920904C0.676665 12.8927 0.442429 12.9897 0.269726 13.1624C0.0970235 13.3351 0 13.5693 0 13.8136V23.0226C0 23.2668 0.0970235 23.5011 0.269726 23.6738C0.442429 23.8465 0.676665 23.9435 0.920904 23.9435H23.1299C23.3742 23.9435 23.6084 23.8465 23.7811 23.6738C23.9538 23.5011 24.0508 23.2668 24.0508 23.0226V13.8136C24.0508 13.5693 23.9538 13.3351 23.7811 13.1624C23.6084 12.9897 23.3742 12.8927 23.1299 12.8927ZM22.209 22.1017H1.84181V14.7345H22.209V22.1017Z" fill="black"/>
</g>
<defs>
<clipPath id="clip0_4720_12368">
<rect width="24" height="24" fill="white"/>
</clipPath>
</defs>
</svg>
