<svg width="24" height="24" viewBox="0 0 24 24" fill="none" xmlns="http://www.w3.org/2000/svg">
<g clip-path="url(#clip0_4720_12281)">
<path d="M10.1299 9.53675e-07H0.920904C0.676665 9.53675e-07 0.442429 0.0970247 0.269726 0.269728C0.0970235 0.442431 0 0.676666 0 0.920905V10.1299C0 10.3742 0.0970235 10.6084 0.269726 10.7811C0.442429 10.9538 0.676665 11.0508 0.920904 11.0508H10.1299C10.3742 11.0508 10.6084 10.9538 10.7811 10.7811C10.9538 10.6084 11.0508 10.3742 11.0508 10.1299V0.920905C11.0508 0.676666 10.9538 0.442431 10.7811 0.269728C10.6084 0.0970247 10.3742 9.53675e-07 10.1299 9.53675e-07ZM9.20904 9.20904H1.84181V1.84181H9.20904V9.20904ZM10.1299 12.8927H0.920904C0.676665 12.8927 0.442429 12.9897 0.269726 13.1624C0.0970235 13.3351 0 13.5693 0 13.8136V23.0226C0 23.2668 0.0970235 23.5011 0.269726 23.6738C0.442429 23.8465 0.676665 23.9435 0.920904 23.9435H10.1299C10.3742 23.9435 10.6084 23.8465 10.7811 23.6738C10.9538 23.5011 11.0508 23.2668 11.0508 23.0226V13.8136C11.0508 13.5693 10.9538 13.3351 10.7811 13.1624C10.6084 12.9897 10.3742 12.8927 10.1299 12.8927ZM9.20904 22.1017H1.84181V14.7345H9.20904V22.1017ZM23.0226 12.8927H13.8136C13.5693 12.8927 13.3351 12.9897 13.1624 13.1624C12.9897 13.3351 12.8927 13.5693 12.8927 13.8136V23.0226C12.8927 23.2668 12.9897 23.5011 13.1624 23.6738C13.3351 23.8465 13.5693 23.9435 13.8136 23.9435H23.0226C23.2668 23.9435 23.5011 23.8465 23.6738 23.6738C23.8465 23.5011 23.9435 23.2668 23.9435 23.0226V13.8136C23.9435 13.5693 23.8465 13.3351 23.6738 13.1624C23.5011 12.9897 23.2668 12.8927 23.0226 12.8927ZM22.1017 22.1017H14.7345V14.7345H22.1017V22.1017Z" fill="black"/>
<path fill-rule="evenodd" clip-rule="evenodd" d="M14.8 1.8V9.2H22.2V1.8H14.8ZM13.8 0C13.3582 0 13 0.358172 13 0.8V10.2C13 10.6418 13.3582 11 13.8 11H23.2C23.6418 11 24 10.6418 24 10.2V0.8C24 0.358172 23.6418 0 23.2 0H13.8Z" fill="black"/>
</g>
<defs>
<clipPath id="clip0_4720_12281">
<rect width="24" height="24" fill="white"/>
</clipPath>
</defs>
</svg>
