<svg width="12" height="12" viewBox="0 0 12 12" fill="none" xmlns="http://www.w3.org/2000/svg">
<path d="M11 10.4128C11 10.5686 10.9415 10.7179 10.8373 10.828C10.7331 10.9381 10.5918 11 10.4444 11H1.55556C1.40821 11 1.26691 10.9381 1.16272 10.828C1.05853 10.7179 1 10.5686 1 10.4128V4.24159C0.999941 4.15211 1.01923 4.0638 1.0564 3.98341C1.09356 3.90301 1.14762 3.83266 1.21444 3.77772L5.65889 0.123715C5.75641 0.043533 5.87644 0 6 0C6.12356 0 6.24359 0.043533 6.34111 0.123715L10.7856 3.77772C10.8524 3.83266 10.9064 3.90301 10.9436 3.98341C10.9808 4.0638 11.0001 4.15211 11 4.24159V10.4128ZM9.88889 9.82564V4.52813L6 1.33154L2.11111 4.52813V9.82564H9.88889Z" fill="black"/>
</svg>
