<svg width="24" height="24" viewBox="0 0 24 24" fill="none" xmlns="http://www.w3.org/2000/svg">
<path d="M21.3469 2.65143C21.0115 2.31606 20.5085 2.31606 20.1731 2.65143L15.7294 7.0951V4.07676C15.7294 3.5737 15.3941 3.23833 14.891 3.23833C14.388 3.23833 14.0526 3.5737 14.0526 4.07676V9.10733C14.0526 9.19117 14.0526 9.35885 14.1364 9.4427C14.2203 9.61038 14.388 9.77807 14.5556 9.86191C14.6395 9.94575 14.8072 9.94575 14.891 9.94575H19.9216C20.4246 9.94575 20.76 9.61038 20.76 9.10733C20.76 8.60427 20.4246 8.2689 19.9216 8.2689H16.9032L21.3469 3.82523C21.6823 3.48986 21.6823 2.9868 21.3469 2.65143Z" fill="black"/>
<path d="M18.2447 21.5999C18.1609 21.5999 18.077 21.5999 17.9932 21.5999C15.3102 21.2645 12.6273 20.3423 10.3635 18.9169C8.26743 17.5754 6.42289 15.7309 5.08141 13.6348C3.57224 11.3711 2.64997 8.68811 2.39844 6.00514C2.39844 5.3344 2.56612 4.66366 2.98534 4.1606C3.40455 3.65754 3.99145 3.32217 4.66219 3.23833C4.74604 3.23833 4.82988 3.23833 4.91372 3.23833H7.429C8.68665 3.23833 9.7766 4.1606 9.94429 5.41824C10.0281 6.17283 10.1958 6.92741 10.4473 7.59816C10.7827 8.52043 10.5312 9.52654 9.86045 10.2811L9.27355 10.868C10.2797 12.3772 11.5373 13.7187 13.1303 14.7248L13.7172 14.1379C14.388 13.4672 15.4779 13.2156 16.4002 13.551C17.0709 13.8025 17.8255 13.9702 18.5801 14.0541C19.8377 14.2217 20.76 15.3117 20.76 16.5693V19.0846C20.76 19.7554 20.5085 20.4261 20.0054 20.8453C19.5024 21.2645 18.9155 21.5999 18.2447 21.5999ZM7.429 4.91519H4.91372C4.66219 4.91519 4.41066 5.08287 4.24298 5.25056C4.15914 5.41824 4.07529 5.58593 4.07529 5.83746C4.32682 8.2689 5.16525 10.6165 6.50673 12.7126C7.76438 14.641 9.35739 16.3178 11.2858 17.4916C13.3818 18.8331 15.7294 19.6715 18.1609 19.923C18.4963 19.923 18.6639 19.8392 18.8316 19.6715C18.9993 19.5038 19.0832 19.3361 19.0832 19.0846V16.5693C19.0832 16.1501 18.7478 15.8148 18.3286 15.7309C17.4901 15.6471 16.6517 15.3955 15.8133 15.0602C15.4779 14.9763 15.1425 14.9763 14.891 15.2279L13.8011 16.3178C13.5495 16.5693 13.1303 16.6532 12.7949 16.4855C10.5312 15.2278 8.68665 13.3833 7.429 11.1196C7.34516 10.7842 7.42901 10.365 7.68053 10.1134L8.77049 9.02348C8.93818 8.8558 9.02202 8.43658 8.93817 8.18506C8.6028 7.34663 8.43512 6.5082 8.26743 5.66977C8.26743 5.25056 7.84822 4.91519 7.429 4.91519Z" fill="black"/>
</svg>
