<svg width="24" height="24" viewBox="0 0 24 24" fill="none" xmlns="http://www.w3.org/2000/svg">
    <path d="M4 21.6806V6.37347H7.98077V5.82679C7.98077 4.76403 8.36785 3.86055 9.14202 3.11633C9.91618 2.37211 10.856 2 11.9615 2C13.0671 2 14.0069 2.37211 14.7811 3.11633C15.5552 3.86055 15.9423 4.76403 15.9423 5.82679V6.37347H19.9231V21.6806H4ZM5.13736 20.5873H18.7857V7.46684H15.9423V10.7469H14.8049V7.46684H9.11813V10.7469H7.98077V7.46684H5.13736V20.5873ZM9.11813 6.37347H14.8049V5.82679C14.8049 5.05706 14.5312 4.40905 13.9838 3.88278C13.4363 3.35651 12.7622 3.09337 11.9615 3.09337C11.1608 3.09337 10.4868 3.35651 9.93931 3.88278C9.39186 4.40905 9.11813 5.05706 9.11813 5.82679V6.37347Z" fill="black" />
</svg>