<svg width="24" height="24" viewBox="0 0 24 24" fill="none" xmlns="http://www.w3.org/2000/svg">
<path fill-rule="evenodd" clip-rule="evenodd" d="M4.9684 15.7179C5.84357 14.874 7.03055 14.3999 8.26823 14.3999H15.7349C16.9726 14.3999 18.1596 14.874 19.0347 15.7179C19.9099 16.5618 20.4016 17.7064 20.4016 18.8999V20.6999C20.4016 21.197 19.9837 21.5999 19.4682 21.5999C18.9528 21.5999 18.5349 21.197 18.5349 20.6999V18.8999C18.5349 18.1838 18.2399 17.4971 17.7148 16.9907C17.1897 16.4844 16.4775 16.1999 15.7349 16.1999H8.26823C7.52562 16.1999 6.81343 16.4844 6.28833 16.9907C5.76323 17.4971 5.46823 18.1838 5.46823 18.8999V20.6999C5.46823 21.197 5.05036 21.5999 4.5349 21.5999C4.01943 21.5999 3.60156 21.197 3.60156 20.6999V18.8999C3.60156 17.7064 4.09323 16.5618 4.9684 15.7179Z" fill="black"/>
<path fill-rule="evenodd" clip-rule="evenodd" d="M12.0031 4.3199C10.4125 4.3199 9.12313 5.60932 9.12313 7.1999C9.12313 8.79048 10.4125 10.0799 12.0031 10.0799C13.5937 10.0799 14.8831 8.79048 14.8831 7.1999C14.8831 5.60932 13.5937 4.3199 12.0031 4.3199ZM7.20312 7.1999C7.20312 4.54894 9.35216 2.3999 12.0031 2.3999C14.6541 2.3999 16.8031 4.54894 16.8031 7.1999C16.8031 9.85087 14.6541 11.9999 12.0031 11.9999C9.35216 11.9999 7.20312 9.85087 7.20312 7.1999Z" fill="black"/>
</svg>
