<svg width="24" height="24" viewBox="0 0 24 24" fill="none" xmlns="http://www.w3.org/2000/svg">
<path fill-rule="evenodd" clip-rule="evenodd" d="M8 14.5C7.07173 14.5 6.18151 14.8687 5.52514 15.5251L5.52511 15.5252C4.86875 16.1815 4.5 17.0717 4.5 18C4.5 18.3978 4.65803 18.7793 4.93935 19.0607L4.93936 19.0607C5.22065 19.342 5.60217 19.5 6 19.5H18C18.3978 19.5 18.7793 19.342 19.0606 19.0606C19.342 18.7793 19.5 18.3978 19.5 18C19.5 17.0717 19.1313 16.1815 18.4749 15.5252L18.4748 15.5251C17.8185 14.8687 16.9283 14.5 16 14.5H8ZM4.81803 14.818C5.66195 13.9741 6.80654 13.5 8 13.5H16C17.1935 13.5 18.338 13.9741 19.1819 14.818C20.0259 15.6619 20.5 16.8065 20.5 18C20.5 18.663 20.2366 19.2989 19.7678 19.7678C19.2989 20.2366 18.663 20.5 18 20.5H6C5.33697 20.5 4.70107 20.2366 4.23222 19.7677L4.58579 19.4142L4.23223 19.7677C4.23223 19.7677 4.23222 19.7677 4.23222 19.7677C3.76339 19.2989 3.5 18.663 3.5 18C3.5 16.8065 3.9741 15.6619 4.818 14.8181L5.17157 15.1716L4.81803 14.818ZM4.81803 14.818C4.81802 14.818 4.81801 14.8181 4.818 14.8181C4.81801 14.8181 4.81802 14.818 4.81803 14.818Z" fill="black"/>
<path fill-rule="evenodd" clip-rule="evenodd" d="M8.5 7C8.5 5.06701 10.067 3.5 12 3.5C13.933 3.5 15.5 5.06701 15.5 7C15.5 8.93299 13.933 10.5 12 10.5C10.067 10.5 8.5 8.93299 8.5 7ZM12 4.5C10.6192 4.5 9.5 5.61929 9.5 7C9.5 8.38071 10.6192 9.5 12 9.5C13.3808 9.5 14.5 8.38071 14.5 7C14.5 5.61929 13.3808 4.5 12 4.5Z" fill="black"/>
</svg>
