<svg width="24" height="24" viewBox="0 0 24 24" fill="none" xmlns="http://www.w3.org/2000/svg">
<path d="M19.4856 20.1545L13.2236 13.8925C12.7236 14.3185 12.1486 14.6482 11.4986 14.8815C10.8486 15.1149 10.1953 15.2315 9.53859 15.2315C7.93726 15.2315 6.58193 14.6772 5.47259 13.5685C4.36326 12.4599 3.80859 11.1049 3.80859 9.50353C3.80859 7.9022 4.36259 6.54653 5.47059 5.43653C6.57859 4.32653 7.93326 3.77087 9.53459 3.76953C11.1359 3.7682 12.4919 4.32287 13.6026 5.43353C14.7133 6.5442 15.2686 7.89987 15.2686 9.50053C15.2686 10.1952 15.1456 10.8675 14.8996 11.5175C14.6536 12.1675 14.3303 12.7235 13.9296 13.1855L20.1916 19.4465L19.4856 20.1545ZM9.53959 14.2305C10.8663 14.2305 11.9863 13.7739 12.8996 12.8605C13.8129 11.9472 14.2696 10.8269 14.2696 9.49953C14.2696 8.1722 13.8129 7.0522 12.8996 6.13953C11.9863 5.22687 10.8663 4.7702 9.53959 4.76953C8.21293 4.76887 7.09259 5.22553 6.17859 6.13953C5.26459 7.05353 4.80793 8.17353 4.80859 9.49953C4.80926 10.8255 5.26593 11.9455 6.17859 12.8595C7.09126 13.7735 8.21126 14.2302 9.53859 14.2295" fill="black"/>
</svg>
