<svg width="24" height="24" viewBox="0 0 24 24" fill="none" xmlns="http://www.w3.org/2000/svg">
<path fill-rule="evenodd" clip-rule="evenodd" d="M14.3207 2.86973C15.0647 2.55955 15.8621 2.3999 16.6673 2.3999C17.4726 2.3999 18.27 2.55955 19.0139 2.86973C19.7577 3.17985 20.4335 3.63437 21.0027 4.20732C21.5721 4.78009 22.0241 5.46044 22.3323 6.20888C22.6406 6.95747 22.7992 7.75983 22.7992 8.57013C22.7992 9.38044 22.6406 10.1828 22.3323 10.9314C22.0241 11.6799 21.5723 12.36 21.0029 12.9328C21.0028 12.9328 21.0029 12.9327 21.0029 12.9328L12.6658 21.3219C12.2975 21.6926 11.7004 21.6926 11.3321 21.3219L2.99506 12.9328C1.8452 11.7757 1.19922 10.2064 1.19922 8.57013C1.19922 6.93382 1.8452 5.36453 2.99506 4.20748C4.14492 3.05043 5.70446 2.40041 7.33061 2.40041C8.95675 2.40041 10.5163 3.05043 11.6662 4.20748L11.999 4.54238L12.3316 4.20764C12.3316 4.20769 12.3317 4.20759 12.3316 4.20764C12.9009 3.63461 13.5769 3.17988 14.3207 2.86973ZM16.6673 4.2979C16.1098 4.2979 15.5578 4.40843 15.0428 4.62317C14.5277 4.8379 14.0598 5.15265 13.6657 5.54941L12.6658 6.55551C12.2975 6.92612 11.7004 6.92612 11.3321 6.55551L10.3324 5.54957C9.53628 4.74847 8.4565 4.29841 7.33061 4.29841C6.20471 4.29841 5.12494 4.74847 4.32881 5.54957C3.53268 6.35067 3.08542 7.4372 3.08542 8.57013C3.08542 9.70307 3.53268 10.7896 4.32881 11.5907L11.999 19.3088L19.6691 11.5907C20.0634 11.1941 20.3764 10.7231 20.5898 10.2048C20.8032 9.68659 20.913 9.13111 20.913 8.57013C20.913 8.00916 20.8032 7.45367 20.5898 6.93542C20.3764 6.41717 20.0636 5.9463 19.6693 5.54973C19.2752 5.15296 18.8069 4.8379 18.2919 4.62317C17.7768 4.40843 17.2248 4.2979 16.6673 4.2979Z" fill="black"/>
</svg>
