<svg width="24" height="24" viewBox="0 0 24 24" fill="none" xmlns="http://www.w3.org/2000/svg">
<path fill-rule="evenodd" clip-rule="evenodd" d="M10.7946 1.09082C9.24697 1.09095 7.72179 1.46118 6.34632 2.17061C4.97086 2.88004 3.785 3.9081 2.88768 5.16902C1.99036 6.42994 1.4076 7.88716 1.18802 9.4191C0.968448 10.951 1.11842 12.5133 1.62543 13.9755C2.13244 15.4377 2.98178 16.7574 4.10259 17.8246C5.22341 18.8918 6.58319 19.6755 8.0685 20.1103C9.55381 20.5452 11.1216 20.6185 12.641 20.3242C14.1604 20.0299 15.5874 19.3766 16.803 18.4187L20.9729 22.5885C21.1883 22.7965 21.4767 22.9116 21.7761 22.909C22.0755 22.9064 22.3619 22.7863 22.5736 22.5746C22.7853 22.3629 22.9054 22.0765 22.908 21.7771C22.9106 21.4778 22.7955 21.1893 22.5875 20.974L18.4175 16.8042C19.5456 15.3731 20.2481 13.6533 20.4444 11.8416C20.6407 10.03 20.323 8.19964 19.5276 6.56011C18.7323 4.92058 17.4914 3.53809 15.9469 2.57085C14.4025 1.60361 12.617 1.0907 10.7946 1.09082ZM3.37269 10.7961C3.37269 8.82771 4.15464 6.93999 5.54652 5.54816C6.93841 4.15633 8.8262 3.37441 10.7946 3.37441C12.763 3.37441 14.6508 4.15633 16.0427 5.54816C17.4346 6.93999 18.2166 8.82771 18.2166 10.7961C18.2166 12.7644 17.4346 14.6521 16.0427 16.044C14.6508 17.4358 12.763 18.2177 10.7946 18.2177C8.8262 18.2177 6.93841 17.4358 5.54652 16.044C4.15464 14.6521 3.37269 12.7644 3.37269 10.7961Z" fill="black"/>
</svg>
