<svg width="24" height="24" viewBox="0 0 24 24" fill="none" xmlns="http://www.w3.org/2000/svg">
<g clip-path="url(#clip0_5050_12647)">
<mask id="mask0_5050_12647" style="mask-type:luminance" maskUnits="userSpaceOnUse" x="0" y="0" width="24" height="24">
<path d="M24 0H0V24H24V0Z" fill="white"/>
</mask>
<g mask="url(#mask0_5050_12647)">
<path d="M5 21V7H8.5V6.5C8.5 5.528 8.84033 4.70167 9.521 4.021C10.2017 3.34033 11.028 3 12 3C12.972 3 13.7983 3.34033 14.479 4.021C15.1597 4.70167 15.5 5.528 15.5 6.5V7H19V21H5ZM6 20H18V8H15.5V11H14.5V8H9.5V11H8.5V8H6V20ZM9.5 7H14.5V6.5C14.5 5.796 14.2593 5.20333 13.778 4.722C13.2967 4.24067 12.704 4 12 4C11.296 4 10.7033 4.24067 10.222 4.722C9.74067 5.20333 9.5 5.796 9.5 6.5V7Z" fill="black"/>
</g>
</g>
<defs>
<clipPath id="clip0_5050_12647">
<rect width="24" height="24" fill="white"/>
</clipPath>
</defs>
</svg>
