<svg width="24" height="24" viewBox="0 0 24 24" fill="none" xmlns="http://www.w3.org/2000/svg">
<path fill-rule="evenodd" clip-rule="evenodd" d="M6.06616 2.53867C6.23098 2.31391 6.48965 2.18164 6.76435 2.18164H17.2371C17.5118 2.18164 17.7704 2.31391 17.9353 2.53867L20.5534 6.10891C20.6667 6.26341 20.728 6.45133 20.728 6.64445V19.1403C20.728 19.8505 20.4521 20.5316 19.9611 21.0337C19.4701 21.5359 18.8042 21.818 18.1098 21.818H5.89162C5.19723 21.818 4.53129 21.5359 4.04029 21.0337C3.54928 20.5316 3.27344 19.8505 3.27344 19.1403V6.64445C3.27344 6.45133 3.33468 6.26341 3.44798 6.10891L6.06616 2.53867ZM7.20071 3.96676L5.01889 6.94197V19.1403C5.01889 19.377 5.11084 19.6041 5.27451 19.7715C5.43818 19.9388 5.66016 20.0329 5.89162 20.0329H18.1098C18.3413 20.0329 18.5632 19.9388 18.7269 19.7715C18.8906 19.6041 18.9825 19.377 18.9825 19.1403V6.94197L16.8007 3.96676H7.20071Z" fill="black"/>
<path fill-rule="evenodd" clip-rule="evenodd" d="M3.27344 6.64445C3.27344 6.1515 3.66417 5.75189 4.14616 5.75189H19.8553C20.3372 5.75189 20.728 6.1515 20.728 6.64445C20.728 7.1374 20.3372 7.53701 19.8553 7.53701H4.14616C3.66417 7.53701 3.27344 7.1374 3.27344 6.64445Z" fill="black"/>
<path fill-rule="evenodd" clip-rule="evenodd" d="M8.5098 9.32214C8.9918 9.32214 9.38253 9.72175 9.38253 10.2147C9.38253 10.9249 9.65837 11.6059 10.1494 12.1081C10.6404 12.6103 11.3063 12.8924 12.0007 12.8924C12.6951 12.8924 13.361 12.6103 13.852 12.1081C14.343 11.6059 14.6189 10.9249 14.6189 10.2147C14.6189 9.72175 15.0096 9.32214 15.4916 9.32214C15.9736 9.32214 16.3643 9.72175 16.3643 10.2147C16.3643 11.3983 15.9046 12.5334 15.0863 13.3704C14.2679 14.2073 13.158 14.6775 12.0007 14.6775C10.8434 14.6775 9.73349 14.2073 8.91515 13.3704C8.09681 12.5334 7.63707 11.3983 7.63707 10.2147C7.63707 9.72175 8.02781 9.32214 8.5098 9.32214Z" fill="black"/>
</svg>
