<svg width="18" height="14" viewBox="0 0 18 14" fill="none" xmlns="http://www.w3.org/2000/svg">
<mask id="mask0_4888_16532" style="mask-type:luminance" maskUnits="userSpaceOnUse" x="0" y="0" width="18" height="14">
<path d="M16.7143 0H1.28571C0.575634 0 0 0.626801 0 1.4V12.6C0 13.3732 0.575634 14 1.28571 14H16.7143C17.4244 14 18 13.3732 18 12.6V1.4C18 0.626801 17.4244 0 16.7143 0Z" fill="white"/>
</mask>
<g mask="url(#mask0_4888_16532)">
<path d="M16.7143 0H1.28571C0.575634 0 0 0.626801 0 1.4V12.6C0 13.3732 0.575634 14 1.28571 14H16.7143C17.4244 14 18 13.3732 18 12.6V1.4C18 0.626801 17.4244 0 16.7143 0Z" fill="white"/>
<mask id="mask1_4888_16532" style="mask-type:alpha" maskUnits="userSpaceOnUse" x="0" y="0" width="18" height="14">
<path d="M16.7143 0H1.28571C0.575634 0 0 0.626801 0 1.4V12.6C0 13.3732 0.575634 14 1.28571 14H16.7143C17.4244 14 18 13.3732 18 12.6V1.4C18 0.626801 17.4244 0 16.7143 0Z" fill="white"/>
</mask>
<g mask="url(#mask1_4888_16532)">
<path d="M18 0H0V14H18V0Z" fill="#30C6E0"/>
<path fill-rule="evenodd" clip-rule="evenodd" d="M9.00112 9.80117C10.4213 9.80117 11.5725 8.54754 11.5725 7.00117C11.5725 5.45477 10.4213 4.20117 9.00112 4.20117C7.58098 4.20117 6.42969 5.45477 6.42969 7.00117C6.42969 8.54754 7.58098 9.80117 9.00112 9.80117Z" fill="#FFCD4B"/>
<path fill-rule="evenodd" clip-rule="evenodd" d="M7.95043 12.0034L8.99944 10.2983L10.0485 12.0034L10.3142 9.97154L11.9388 11.0122L11.3686 9.05601L13.2469 9.22604L11.9536 7.73301L13.7137 6.99878L11.9536 6.26456L13.2469 4.7715L11.3686 4.94155L11.9388 2.98538L10.3142 4.026L10.0485 1.99414L8.99944 3.69924L7.95043 1.99414L7.68467 4.026L6.06014 2.98538L6.63038 4.94155L4.75202 4.7715L6.04523 6.26456L4.28516 6.99878L6.04523 7.73301L4.75202 9.22604L6.63038 9.05601L6.06014 11.0122L7.68467 9.97154L7.95043 12.0034ZM11.9995 6.99878C11.9995 8.80289 10.6563 10.2655 8.99944 10.2655C7.3426 10.2655 5.99944 8.80289 5.99944 6.99878C5.99944 5.19465 7.3426 3.73211 8.99944 3.73211C10.6563 3.73211 11.9995 5.19465 11.9995 6.99878Z" fill="#FFCD4B"/>
<path fill-rule="evenodd" clip-rule="evenodd" d="M0.855469 1.16693C0.855469 1.03806 0.951409 0.933594 1.06975 0.933594H1.49833C1.61667 0.933594 1.71261 1.03806 1.71261 1.16693V1.63359C1.71261 1.76246 1.61667 1.86693 1.49833 1.86693H1.06975C0.951409 1.86693 0.855469 1.76246 0.855469 1.63359V1.16693ZM0.855469 3.03359C0.855469 2.90473 0.951409 2.80026 1.06975 2.80026H1.49833C1.61667 2.80026 1.71261 2.90473 1.71261 3.03359V3.50026C1.71261 3.62913 1.61667 3.73359 1.49833 3.73359H1.06975C0.951409 3.73359 0.855469 3.62913 0.855469 3.50026V3.03359ZM1.06975 4.66693C0.951409 4.66693 0.855469 4.7714 0.855469 4.90026V5.36693C0.855469 5.49579 0.951409 5.60026 1.06975 5.60026H1.49833C1.61667 5.60026 1.71261 5.49579 1.71261 5.36693V4.90026C1.71261 4.7714 1.61667 4.66693 1.49833 4.66693H1.06975ZM0.855469 6.76693C0.855469 6.63806 0.951409 6.53359 1.06975 6.53359H1.49833C1.61667 6.53359 1.71261 6.63806 1.71261 6.76693V7.23357C1.71261 7.36244 1.61667 7.46695 1.49833 7.46695H1.06975C0.951409 7.46695 0.855469 7.36244 0.855469 7.23357V6.76693ZM1.06975 8.40026C0.951409 8.40026 0.855469 8.5047 0.855469 8.63357V9.10026C0.855469 9.22913 0.951409 9.33357 1.06975 9.33357H1.49833C1.61667 9.33357 1.71261 9.22913 1.71261 9.10026V8.63357C1.71261 8.5047 1.61667 8.40026 1.49833 8.40026H1.06975ZM0.855469 10.5003C0.855469 10.3714 0.951409 10.2669 1.06975 10.2669H1.49833C1.61667 10.2669 1.71261 10.3714 1.71261 10.5003V10.9669C1.71261 11.0958 1.61667 11.2003 1.49833 11.2003H1.06975C0.951409 11.2003 0.855469 11.0958 0.855469 10.9669V10.5003ZM1.06975 12.1336C0.951409 12.1336 0.855469 12.2381 0.855469 12.3669V12.8336C0.855469 12.9624 0.951409 13.0669 1.06975 13.0669H1.49833C1.61667 13.0669 1.71261 12.9624 1.71261 12.8336V12.3669C1.71261 12.2381 1.61667 12.1336 1.49833 12.1336H1.06975ZM1.71261 11.4336C1.71261 11.3047 1.80855 11.2003 1.92689 11.2003H2.35547C2.47382 11.2003 2.56975 11.3047 2.56975 11.4336V11.9003C2.56975 12.0291 2.47382 12.1336 2.35547 12.1336H1.9269C1.80855 12.1336 1.71261 12.0291 1.71261 11.9003V11.4336ZM1.92689 9.33357C1.80855 9.33357 1.71261 9.43808 1.71261 9.56695V10.0336C1.71261 10.1624 1.80855 10.2669 1.9269 10.2669H2.35547C2.47382 10.2669 2.56975 10.1624 2.56975 10.0336V9.56695C2.56975 9.43808 2.47382 9.33357 2.35547 9.33357H1.92689ZM1.71261 7.70026C1.71261 7.57139 1.80855 7.46695 1.92689 7.46695H2.35547C2.47382 7.46695 2.56975 7.57139 2.56975 7.70026V8.16695C2.56975 8.29582 2.47382 8.40026 2.35547 8.40026H1.9269C1.80855 8.40026 1.71261 8.29582 1.71261 8.16695V7.70026ZM1.92689 5.60026C1.80855 5.60026 1.71261 5.70473 1.71261 5.83359V6.30026C1.71261 6.42913 1.80855 6.53359 1.9269 6.53359H2.35547C2.47382 6.53359 2.56975 6.42913 2.56975 6.30026V5.83359C2.56975 5.70473 2.47382 5.60026 2.35547 5.60026H1.92689ZM1.71261 3.96693C1.71261 3.83806 1.80855 3.73359 1.92689 3.73359H2.35547C2.47382 3.73359 2.56975 3.83806 2.56975 3.96693V4.43359C2.56975 4.56246 2.47382 4.66693 2.35547 4.66693H1.9269C1.80855 4.66693 1.71261 4.56246 1.71261 4.43359V3.96693ZM1.92689 1.86693C1.80855 1.86693 1.71261 1.9714 1.71261 2.10026V2.56693C1.71261 2.69579 1.80855 2.80026 1.9269 2.80026H2.35547C2.47382 2.80026 2.56975 2.69579 2.56975 2.56693V2.10026C2.56975 1.9714 2.47382 1.86693 2.35547 1.86693H1.92689Z" fill="#FFCD4B"/>
</g>
</g>
</svg>
