<svg width="12" height="12" viewBox="0 0 12 12" fill="none" xmlns="http://www.w3.org/2000/svg">
<path fill-rule="evenodd" clip-rule="evenodd" d="M1.86707 1.86902C2.16712 1.56896 2.57409 1.40039 2.99844 1.40039H8.99844C9.42278 1.40039 9.82975 1.56896 10.1298 1.86902C10.4299 2.16908 10.5984 2.57604 10.5984 3.00039V9.00039C10.5984 9.42474 10.4299 9.8317 10.1298 10.1318C9.82975 10.4318 9.42278 10.6004 8.99844 10.6004H2.99844C2.57409 10.6004 2.16712 10.4318 1.86707 10.1318C1.56701 9.8317 1.39844 9.42474 1.39844 9.00039V3.00039C1.39844 2.57604 1.56701 2.16908 1.86707 1.86902ZM2.99844 2.60039C2.89235 2.60039 2.79061 2.64253 2.71559 2.71755C2.64058 2.79256 2.59844 2.8943 2.59844 3.00039V9.00039C2.59844 9.10648 2.64058 9.20822 2.71559 9.28323C2.79061 9.35825 2.89235 9.40039 2.99844 9.40039H8.99844C9.10452 9.40039 9.20626 9.35825 9.28128 9.28323C9.35629 9.20822 9.39844 9.10648 9.39844 9.00039V3.00039C9.39844 2.8943 9.35629 2.79256 9.28128 2.71755C9.20626 2.64253 9.10452 2.60039 8.99844 2.60039H2.99844ZM4.89844 4.00039C4.89844 3.66902 5.16707 3.40039 5.49844 3.40039H7.99844C8.32981 3.40039 8.59844 3.66902 8.59844 4.00039C8.59844 4.33176 8.32981 4.60039 7.99844 4.60039H5.49844C5.16707 4.60039 4.89844 4.33176 4.89844 4.00039ZM4.89844 6.00039C4.89844 5.66902 5.16707 5.40039 5.49844 5.40039H7.99844C8.32981 5.40039 8.59844 5.66902 8.59844 6.00039C8.59844 6.33176 8.32981 6.60039 7.99844 6.60039H5.49844C5.16707 6.60039 4.89844 6.33176 4.89844 6.00039ZM4.89844 8.00039C4.89844 7.66902 5.16707 7.40039 5.49844 7.40039H7.99844C8.32981 7.40039 8.59844 7.66902 8.59844 8.00039C8.59844 8.33176 8.32981 8.60039 7.99844 8.60039H5.49844C5.16707 8.60039 4.89844 8.33176 4.89844 8.00039Z" fill="black"/>
</svg>
