<svg width="22" height="22" viewBox="0 0 22 22" fill="none" xmlns="http://www.w3.org/2000/svg">
<path fill-rule="evenodd" clip-rule="evenodd" d="M11.2265 19.2216C12.2808 18.265 13.2565 17.2252 14.1442 16.1123C16.0142 13.7629 17.1518 11.4465 17.2288 9.38671C17.2593 8.5496 17.1207 7.71494 16.8214 6.93259C16.5221 6.15024 16.0681 5.43624 15.4867 4.83325C14.9053 4.23026 14.2082 3.75064 13.4373 3.42306C12.6663 3.09548 11.8373 2.92664 10.9996 2.92664C10.162 2.92664 9.3329 3.09548 8.56195 3.42306C7.791 3.75064 7.09399 4.23026 6.51254 4.83325C5.9311 5.43624 5.47716 6.15024 5.17784 6.93259C4.87851 7.71494 4.73995 8.5496 4.77041 9.38671C4.84833 11.4465 5.98683 13.7629 7.85591 16.1123C8.74367 17.2252 9.71939 18.265 10.7737 19.2216C10.8751 19.3133 10.9506 19.3799 11.0001 19.4215L11.2265 19.2216ZM10.3236 20.2895C10.3236 20.2895 3.66675 14.6832 3.66675 9.16671C3.66675 7.22179 4.43937 5.35652 5.81463 3.98126C7.1899 2.60599 9.05516 1.83337 11.0001 1.83337C12.945 1.83337 14.8103 2.60599 16.1855 3.98126C17.5608 5.35652 18.3334 7.22179 18.3334 9.16671C18.3334 14.6832 11.6766 20.2895 11.6766 20.2895C11.3062 20.6305 10.6967 20.6269 10.3236 20.2895ZM11.0001 11.7334C11.6808 11.7334 12.3336 11.463 12.815 10.9816C13.2963 10.5003 13.5667 9.84743 13.5667 9.16671C13.5667 8.48599 13.2963 7.83314 12.815 7.3518C12.3336 6.87046 11.6808 6.60004 11.0001 6.60004C10.3194 6.60004 9.66652 6.87046 9.18517 7.3518C8.70383 7.83314 8.43341 8.48599 8.43341 9.16671C8.43341 9.84743 8.70383 10.5003 9.18517 10.9816C9.66652 11.463 10.3194 11.7334 11.0001 11.7334ZM11.0001 12.8334C10.0276 12.8334 9.09499 12.4471 8.40736 11.7594C7.71972 11.0718 7.33342 10.1392 7.33342 9.16671C7.33342 8.19425 7.71972 7.26162 8.40736 6.57398C9.09499 5.88635 10.0276 5.50004 11.0001 5.50004C11.9725 5.50004 12.9052 5.88635 13.5928 6.57398C14.2804 7.26162 14.6667 8.19425 14.6667 9.16671C14.6667 10.1392 14.2804 11.0718 13.5928 11.7594C12.9052 12.4471 11.9725 12.8334 11.0001 12.8334Z" fill="black"/>
</svg>
