<svg width="255" height="38" viewBox="0 0 255 38" fill="none" xmlns="http://www.w3.org/2000/svg">
<path d="M124.369 25.5206V18.6631C124.369 12.584 124.369 11.494 124.291 10.2464C124.214 8.92126 123.9 8.29807 122.612 8.02587C122.3 7.94827 121.636 7.90887 121.285 7.90887C121.129 7.90887 120.973 7.83127 120.973 7.67488C120.973 7.44088 121.168 7.36328 121.598 7.36328C123.355 7.36328 125.659 7.48028 125.893 7.48028C126.244 7.48028 128.509 7.36328 129.681 7.36328C130.11 7.36328 130.305 7.44088 130.305 7.67488C130.305 7.83127 130.15 7.90887 129.994 7.90887C129.72 7.90887 129.486 7.94827 129.017 8.02587C127.963 8.22047 127.651 8.88306 127.573 10.2464C127.495 11.4928 127.495 12.584 127.495 18.6631V21.0007H127.651C128.314 20.2605 135.383 13.0902 136.787 11.5716C137.88 10.441 138.896 9.42865 138.896 8.76606C138.896 8.29807 138.7 8.06527 138.388 7.94827C138.193 7.87067 138.037 7.79187 138.037 7.63667C138.037 7.44207 138.233 7.36448 138.506 7.36448C139.287 7.36448 140.497 7.48147 141.435 7.48147C141.631 7.48147 144.207 7.36448 145.183 7.36448C145.613 7.36448 145.769 7.44207 145.769 7.63667C145.769 7.83127 145.691 7.90887 145.378 7.90887C144.792 7.90887 143.972 8.10347 143.191 8.45447C141.59 9.15526 140.731 10.1294 138.974 11.8056C137.997 12.7404 131.204 19.3651 130.383 20.3393C131.398 21.4699 139.52 29.8471 141.121 31.3275C144.4 34.3671 145.065 34.9902 146.938 35.7698C147.953 36.1984 149.085 36.276 149.358 36.276C149.632 36.276 149.866 36.3536 149.866 36.51C149.866 36.7046 149.67 36.8216 149.007 36.8216H147.016C145.923 36.8216 145.181 36.8216 144.322 36.744C142.253 36.5494 141.277 35.6922 139.597 34.3671C137.84 32.9249 129.563 24.002 127.688 21.7038H127.493V25.523C127.493 29.2633 127.493 32.3423 127.688 33.9779C127.806 35.1084 128.04 35.9656 129.212 36.1208C129.759 36.1984 130.383 36.2772 130.735 36.2772C130.969 36.2772 131.047 36.3942 131.047 36.5112C131.047 36.7058 130.851 36.8228 130.422 36.8228C128.509 36.8228 126.244 36.7058 125.931 36.7058C125.618 36.7058 123.354 36.8228 122.183 36.8228C121.753 36.8228 121.558 36.7452 121.558 36.5112C121.558 36.3942 121.636 36.2772 121.87 36.2772C122.221 36.2772 122.69 36.1996 123.042 36.1208C123.823 35.9644 124.018 35.1072 124.174 33.9779C124.369 32.3411 124.369 29.2633 124.369 25.523V25.5206Z" fill="black"/>
<path d="M151.151 20.9612C151.151 30.0404 157.117 35.8844 163.147 35.8844C165.413 35.8844 173.174 33.8584 173.174 22.5192C173.174 12.1708 166.225 8.14159 161.928 8.14159C156.281 8.14159 151.151 12.4275 151.151 20.9612ZM147.441 22.0524C147.441 15.7405 152.424 6.81641 162.326 6.81641C170.487 6.81641 176.922 12.3499 176.922 21.428C176.922 30.506 170.754 37.3647 161.968 37.3647C152.018 37.3647 147.443 29.0651 147.443 22.0512L147.441 22.0524Z" fill="black"/>
<path d="M184.513 12.1172L192.01 32.0677C194.274 26.8458 199.506 13.2478 200.365 10.4422C200.561 9.85724 200.716 9.31285 200.716 8.96185C200.716 8.65026 200.599 8.26106 200.209 8.06527C199.74 7.90887 199.155 7.90887 198.725 7.90887C198.492 7.90887 198.296 7.86947 198.296 7.67488C198.296 7.44088 198.53 7.36328 199.155 7.36328C200.716 7.36328 202.513 7.48028 202.981 7.48028C203.215 7.48028 204.894 7.36328 206.026 7.36328C206.456 7.36328 206.69 7.44089 206.69 7.63548C206.69 7.83008 206.534 7.90768 206.221 7.90768C205.947 7.90768 205.088 7.90768 204.346 8.37567C203.839 8.72666 203.253 9.38925 202.199 12.0384C201.77 13.1296 199.817 17.8047 197.826 22.598C195.444 28.2868 193.687 32.4951 192.789 34.4041C191.697 36.7416 191.54 37.366 191.15 37.366C190.681 37.366 190.486 36.8204 189.744 34.9497L180.177 11.0642C179.319 8.88186 178.733 8.45327 177.366 8.06407C176.781 7.90768 176.116 7.90768 175.882 7.90768C175.648 7.90768 175.57 7.79068 175.57 7.63548C175.57 7.40149 175.961 7.36328 176.585 7.36328C178.46 7.36328 180.685 7.48028 181.154 7.48028C181.545 7.48028 183.301 7.36328 184.784 7.36328C185.487 7.36328 185.839 7.44089 185.839 7.63548C185.839 7.83008 185.721 7.90768 185.448 7.90768C185.018 7.90768 184.315 7.94708 183.964 8.10228C183.535 8.29687 183.457 8.60847 183.457 8.88187C183.457 9.38806 183.926 10.5962 184.511 12.116L184.513 12.1172Z" fill="black"/>
<path d="M248.519 0.349798C248.792 0.738994 249.066 1.28458 249.495 2.06417C249.691 2.41516 249.495 2.53216 249.339 2.53216C249.222 2.53216 248.832 2.45456 248.168 2.53216C246.254 2.72676 243.521 3.62334 242.233 4.16893C241.959 4.28593 241.725 4.36353 241.647 4.36353C241.569 4.36353 241.452 4.28593 241.452 4.12954C241.452 4.01254 241.53 3.93494 241.725 3.81794C243.131 2.84376 246.762 0.661394 247.035 0.506193C247.699 0.116996 247.934 0 248.128 0C248.246 0 248.324 0.0776008 248.519 0.350993V0.349798ZM246.177 37.3664C240.32 37.3664 236.376 35.9242 233.291 33.1581C229.503 29.7675 228.566 25.3264 228.566 21.6243C228.566 19.0133 229.465 14.4552 232.94 10.987C235.282 8.64947 238.836 6.8181 244.849 6.8181C246.41 6.8181 248.597 6.93509 250.51 7.28608C251.994 7.55828 253.244 7.79228 254.492 7.87108C254.922 7.91047 255 8.06568 255 8.29967C255 8.61127 254.882 9.07926 254.804 10.482C254.726 11.7678 254.726 13.9108 254.687 14.4958C254.647 15.0808 254.569 15.3136 254.335 15.3136C254.062 15.3136 254.023 15.0414 254.023 14.4958C254.023 12.976 253.398 11.3786 252.384 10.5214C251.017 9.35265 248.01 8.30086 244.574 8.30086C239.381 8.30086 236.96 9.82064 235.594 11.1458C232.744 13.8738 232.08 17.3407 232.08 21.3163C232.08 28.7587 237.819 35.578 246.175 35.578C249.104 35.578 251.407 35.227 252.969 33.6297C253.789 32.7725 254.047 31.0581 254.164 30.3561C254.242 29.9275 254.319 29.7711 254.555 29.7711C254.75 29.7711 254.828 30.0433 254.828 30.3561C254.828 30.6283 254.679 34.3806 254.343 35.344C254.054 36.1738 254.032 36.1618 253.329 36.4746C251.767 37.0978 248.675 37.3712 246.175 37.3712L246.177 37.3664Z" fill="black"/>
<path d="M90.5374 25.5666V18.7091C90.5374 12.63 90.5374 11.54 90.4595 10.2924C90.3815 8.96723 90.0684 8.34404 88.7803 8.07184C88.4684 7.99424 87.8039 7.95485 87.4525 7.95485C87.2965 7.95485 87.1406 7.87725 87.1406 7.72085C87.1406 7.48686 87.3361 7.40926 87.7655 7.40926C88.6639 7.40926 89.7182 7.40925 90.577 7.44865L92.1783 7.52625C92.4517 7.52625 103.093 7.52625 103.991 7.48685C104.734 7.44746 105.358 7.36986 105.671 7.29225C105.866 7.25286 106.022 7.09766 106.218 7.09766C106.335 7.09766 106.374 7.25405 106.374 7.44865C106.374 7.72085 106.178 8.18884 106.062 9.28002C106.022 9.66922 105.944 11.3836 105.866 11.8516C105.827 12.0462 105.749 12.2802 105.593 12.2802C105.359 12.2802 105.281 12.0856 105.281 11.774C105.281 11.5018 105.241 10.8392 105.047 10.3712C104.774 9.74802 104.384 9.28002 102.275 9.04603C101.612 8.96843 94.4836 8.92903 94.0542 8.92903C93.8982 8.92903 93.8203 9.04603 93.8203 9.31823V20.0725C93.8203 20.3447 93.8599 20.4617 94.0542 20.4617C94.5615 20.4617 100.032 20.4617 100.931 20.3841C101.867 20.3065 102.414 20.2277 102.766 19.8385C103.039 19.5269 103.195 19.3323 103.351 19.3323C103.469 19.3323 103.546 19.4099 103.546 19.6439C103.546 19.8779 103.351 20.5405 103.235 21.8262C103.157 22.6058 103.079 24.0468 103.079 24.3202C103.079 24.6318 103.079 25.0604 102.805 25.0604C102.61 25.0604 102.532 24.904 102.532 24.7094C102.532 24.3202 102.532 23.9298 102.376 23.4236C102.22 22.878 101.868 22.2154 100.345 22.0602C99.2909 21.9432 94.757 21.8656 94.0937 21.8656C93.8982 21.8656 93.8203 21.9826 93.8203 22.1378V25.5666C93.8203 26.8917 93.7807 31.4117 93.8203 32.2295C93.8203 35.4242 96.0716 35.4242 101.221 35.4242C102.236 35.4242 103.954 35.4242 104.969 34.9956C105.984 34.567 106.453 33.7874 106.726 32.1901C106.804 31.7615 106.882 31.6051 107.078 31.6051C107.312 31.6051 107.312 31.9167 107.312 32.1901C107.312 32.5017 107 35.1508 106.804 35.9698C106.531 36.9834 106.219 36.9834 104.696 36.9834C101.768 36.9834 96.7481 36.9058 95.226 36.8664C93.7027 36.7888 92.766 36.7494 92.1807 36.7494C92.1027 36.7494 91.4382 36.7494 90.619 36.7888C89.8382 36.7888 88.9398 36.8664 88.3545 36.8664C87.9251 36.8664 87.7295 36.7888 87.7295 36.5548C87.7295 36.4378 87.8075 36.3208 88.0414 36.3208C88.3928 36.3208 88.8618 36.2432 89.2132 36.1644C89.9941 36.008 90.1896 35.1508 90.3455 34.0214C90.541 32.3847 90.541 29.3069 90.541 25.5666H90.5374Z" fill="black"/>
<path d="M9.73102 25.576H18.3118C18.5073 25.576 18.5073 25.459 18.4677 25.3038L14.1341 13.1635C13.9386 12.5785 13.7431 12.5785 13.5488 13.1635L9.61348 25.3038C9.53551 25.4984 9.61348 25.576 9.73102 25.576ZM4.76416 32.5684L13.628 8.37134C14.097 7.08556 14.2529 6.85156 14.4868 6.85156C14.7207 6.85156 14.8778 7.04616 15.3456 8.25434C15.9309 9.73472 22.0612 25.8279 24.4433 31.7506C25.849 35.2187 26.9813 35.8419 27.8017 36.0759C28.387 36.2705 28.9736 36.3099 29.3634 36.3099C29.5973 36.3099 29.7544 36.3493 29.7544 36.5439C29.7544 36.7779 29.403 36.8555 28.9736 36.8555C28.3882 36.8555 25.5372 36.8555 22.8433 36.7779C22.1008 36.7385 21.6714 36.7385 21.6714 36.5057C21.6714 36.3493 21.7889 36.2717 21.9449 36.2335C22.1788 36.1559 22.4139 35.8049 22.1788 35.1817L19.1718 27.2151C19.0938 27.0587 19.0159 26.9811 18.8203 26.9811H9.30162C9.10612 26.9811 8.98977 27.0981 8.91061 27.2927L7.06707 32.5707C6.71564 33.5449 6.52013 34.4797 6.52013 35.1817C6.52013 35.9613 7.34055 36.3123 8.00383 36.3123H8.39485C8.66832 36.3123 8.78587 36.3899 8.78587 36.5463C8.78587 36.7803 8.55198 36.8579 8.20054 36.8579C7.26378 36.8579 5.58457 36.7409 5.15517 36.7409C4.72578 36.7409 2.57759 36.8579 0.742451 36.8579C0.235089 36.8579 0 36.7803 0 36.5463C0 36.3899 0.155927 36.3123 0.351435 36.3123C0.624906 36.3123 1.17185 36.2729 1.4837 36.2347C3.27926 36.0007 4.06129 34.5203 4.76296 32.5719L4.76416 32.5684Z" fill="black"/>
<path d="M34.131 12.8874L34.6384 31.5521C34.7163 34.7468 35.1074 35.7604 36.1617 36.072C36.9041 36.2666 37.7629 36.306 38.1143 36.306C38.3099 36.306 38.4262 36.3836 38.4262 36.54C38.4262 36.774 38.1923 36.8516 37.7233 36.8516C35.4972 36.8516 33.9355 36.7346 33.5841 36.7346C33.2326 36.7346 31.593 36.8516 29.8358 36.8516C29.4448 36.8516 29.2109 36.8122 29.2109 36.54C29.2109 36.3836 29.3285 36.306 29.5228 36.306C29.8346 36.306 30.5375 36.2666 31.124 36.072C32.1004 35.7998 32.2959 34.6692 32.2959 31.1235L32.3355 8.79603C32.3355 7.27625 32.453 6.84766 32.7649 6.84766C33.0767 6.84766 33.7412 7.70484 34.131 8.09404C34.7163 8.75663 45.1742 21.4592 45.1742 21.4592C45.1742 21.4592 52.5472 30.3427 53.5463 31.6297L53.1169 11.8356C53.0773 9.30341 52.805 8.44503 51.5936 8.13344C50.8907 7.97704 49.9924 7.93884 49.6805 7.93884C49.407 7.93884 49.3687 7.82184 49.3687 7.66664C49.3687 7.43264 49.6805 7.39444 50.1495 7.39444C51.9067 7.39444 53.7802 7.51144 54.2108 7.51144C54.6414 7.51144 55.9284 7.39444 57.5296 7.39444C57.959 7.39444 58.2325 7.43384 58.2325 7.66664C58.2325 7.82303 58.0766 7.93884 57.8031 7.93884C57.6076 7.93884 57.3341 7.93884 56.8663 8.05584C55.5781 8.32803 55.4222 9.18522 55.4222 11.524L55.3442 34.3576C55.3442 36.9292 55.2663 37.1238 54.9928 37.1238C54.681 37.1238 54.212 36.6952 52.1429 34.6298C51.8383 34.2406 43.2 24.0702 43.2 24.0702C43.2 24.0702 35.382 14.2901 34.1322 12.8874H34.131Z" fill="black"/>
<path d="M74.1885 9.06942V25.5518C74.1885 29.2921 74.1885 32.371 74.384 34.0066C74.5016 35.1372 74.7355 35.9944 75.9073 36.1496C76.4542 36.2272 77.313 36.306 77.6645 36.306C77.8984 36.306 77.9763 36.423 77.9763 36.54C77.9763 36.7346 77.7808 36.8516 77.3514 36.8516C75.2044 36.8516 72.7444 36.7346 72.5489 36.7346C72.3534 36.7346 69.8933 36.8516 68.7227 36.8516C68.2933 36.8516 68.0978 36.774 68.0978 36.54C68.0978 36.423 68.1757 36.306 68.4096 36.306C68.7611 36.306 69.23 36.2284 69.5815 36.1496C70.3623 35.9932 70.5578 35.136 70.7138 34.0066C70.9093 32.3699 70.9093 29.2921 70.9093 25.5518V9.06942L65.1304 9.14702C62.7099 9.18642 61.772 9.45862 61.1482 10.3934C60.7188 11.056 60.6013 11.3282 60.485 11.6016C60.3674 11.9132 60.2511 11.9908 60.0939 11.9908C59.9764 11.9908 59.8984 11.8738 59.8984 11.6398C59.8984 11.2506 60.6793 7.89944 60.7572 7.58785C60.8352 7.35385 60.9911 6.84766 61.1482 6.84766C61.4217 6.84766 61.8115 7.23685 62.8658 7.31564C63.9981 7.43264 65.4818 7.51024 65.9508 7.51024H80.5923C81.8421 7.51024 82.7393 7.43264 83.3642 7.31564C83.9495 7.23804 84.301 7.12105 84.4569 7.12105C84.6524 7.12105 84.6524 7.35505 84.6524 7.58904C84.6524 8.75782 84.5348 11.4464 84.5348 11.875C84.5348 12.226 84.4173 12.3812 84.2614 12.3812C84.0659 12.3812 83.9879 12.2642 83.9495 11.7186L83.9099 11.29C83.7924 10.1212 82.8556 9.22462 79.1074 9.14702L74.1873 9.06942H74.1885Z" fill="black"/>
<path d="M210.103 25.576H218.684C218.88 25.576 218.88 25.459 218.84 25.3038L214.506 13.1635C214.311 12.5785 214.115 12.5785 213.921 13.1635L209.986 25.3038C209.908 25.4984 209.986 25.576 210.103 25.576ZM205.136 32.5684L214 8.37134C214.469 7.08556 214.625 6.85156 214.859 6.85156C215.093 6.85156 215.25 7.04616 215.718 8.25434C216.303 9.73472 222.434 25.8279 224.816 31.7506C226.221 35.2187 227.354 35.8419 228.174 36.0759C228.759 36.2705 229.346 36.3099 229.736 36.3099C229.97 36.3099 230.127 36.3493 230.127 36.5439C230.127 36.7779 229.775 36.8555 229.346 36.8555C228.761 36.8555 225.909 36.8555 223.216 36.7779C222.474 36.7385 222.044 36.7385 222.044 36.5057C222.044 36.3493 222.161 36.2717 222.317 36.2335C222.551 36.1559 222.786 35.8049 222.551 35.1817L219.544 27.2151C219.466 27.0587 219.388 26.9811 219.193 26.9811H209.674C209.478 26.9811 209.362 27.0981 209.283 27.2927L207.439 32.5707C207.088 33.5449 206.892 34.4797 206.892 35.1817C206.892 35.9613 207.713 36.3123 208.376 36.3123H208.767C209.041 36.3123 209.157 36.3899 209.157 36.5463C209.157 36.7803 208.923 36.8579 208.572 36.8579C207.635 36.8579 205.956 36.7409 205.526 36.7409C205.097 36.7409 202.949 36.8579 201.114 36.8579C200.606 36.8579 200.371 36.7803 200.371 36.5463C200.371 36.3899 200.527 36.3123 200.723 36.3123C200.996 36.3123 201.543 36.2729 201.855 36.2347C203.65 36.0007 204.432 34.5203 205.134 32.5719L205.136 32.5684Z" fill="black"/>
</svg>
