<svg width="368" height="474" viewBox="0 0 368 474" fill="none" xmlns="http://www.w3.org/2000/svg">
<path d="M357.58 429.02L363.83 462.17C359.18 462.17 352.78 469.05 350.45 473.38C348.7 471.53 344.64 470.29 339.98 469.06C335.33 467.83 330.67 467.11 326.6 467.11C319.04 467.11 307.4 469.06 302.75 473.38C299.26 467.82 289.94 462.17 282.38 462.79L279.73 429.03H286.06L286.45 430.7C288.2 436.87 290.53 438.1 293.44 436.87C295.76 435.64 295.76 433.79 294.6 426.38L270.16 256.7H269L255.62 302.98V428.86C255.62 435.03 256.2 436.88 259.11 436.88C261.44 436.88 263.18 435.65 263.18 429.48V429.04H269.14L272.49 462.19C265.51 462.19 257.36 468.47 255.04 473.4C252.71 471.55 248.06 469.7 243.4 469.08C239.32 467.85 234.08 467.13 230.01 467.13C221.29 467.13 211.97 469.7 207.32 473.4C205 467.84 195.11 460.96 189.87 460.96L193.25 429.05H199.32C199.65 432.97 201.18 435.05 203.25 435.05C206.16 435.05 206.74 430.73 206.74 424.55V356.02C225.44 347.77 240.95 332.95 250.75 313.08C252.85 308.84 252.35 303.79 249.48 300.04C241.1 289.11 241.13 277.38 249.56 262C250.41 260.46 250.77 258.8 250.92 257.12C253.27 254.58 254.59 251.18 254.25 247.59C253.47 239.43 250.26 233.81 246.83 229.98C247.01 229.78 247.19 229.57 247.36 229.35C253.42 221.61 255.36 210.41 252.16 201.46C250.88 197.85 247.99 195.04 244.35 193.84C240.44 192.56 236.98 191.66 233.79 191.06C231.67 168.79 220.91 152.36 206.73 142.33V41.96C206.73 33.94 206.31 32.7 203.4 32.7C200.49 32.7 199.17 34.55 199.17 43.19V43.85H193.17L190.43 8.64C196.83 8.64 207.3 4.32 210.21 0C212.53 1.85 216.02 3.09 220.1 4.32C224.76 5.55 229.41 6.17 233.48 6.17C241.05 6.17 253.84 3.7 259.08 0C261.41 4.93 269.55 9.26 275.37 8.64L271.6 43.85H264.84C264.68 39.93 263.04 37.64 260.83 37.64C257.34 37.64 255.59 41.96 255.59 49.98V209.8H257.34L306.79 45.66C307.95 40.72 307.95 37.64 305.63 36.41C303.31 35.17 300.97 35.79 299.23 41.35L298.51 43.85H292.85L300.39 8.64C308.54 8.64 317.85 4.32 320.17 0C321.92 1.24 324.24 2.47 326.57 3.71C329.48 4.94 332.39 6.18 334.72 6.18C339.95 6.18 346.93 2.47 349.84 0.01C352.75 3.72 360.9 8.65 367.3 8.65L356.11 43.86H350.1C350.77 40.86 350.15 38.82 348.11 38.27C345.78 37.65 343.45 38.89 341.13 46.91L305.64 166.61C307.39 186.35 312.04 205.48 324.25 222.14C319.02 225.23 316.69 232.63 317.85 236.95C319.6 243.74 323.09 246.2 327.74 248.67C323.09 254.22 319.6 264.71 323.09 286.92L344.03 431.93C344.62 437.49 346.36 439.34 348.69 439.34C350.44 439.34 351.02 437.49 351.02 433.17V429.03H357.57L357.58 429.02ZM157.76 429.02L161.15 462.17C156.5 462.17 150.1 467.11 148.94 473.38C146.61 470.92 141.96 469.68 137.89 468.45C133.23 467.82 128.58 467.11 124.5 467.11C116.36 467.11 105.89 469.06 100.65 473.38C98.91 467.11 89.6 462.79 83.78 462.79L83 429.03H88.17L88.43 431.94C89.01 434.41 90.17 437.5 92.5 437.5C94.83 437.5 95.41 433.18 94.83 428.86L90.76 366.54C89.6 360.37 86.11 353.58 79.7 353.58H61.09C55.27 353.58 51.78 359.75 51.78 366.54L47.71 430.09C47.71 435.03 49.45 438.11 51.78 438.11C54.11 438.11 55.85 434.41 56.43 431.33L56.55 429.03H61.66V463.41C56.42 463.41 50.03 467.11 48.28 473.39C45.95 470.93 43.04 469.69 39.55 468.46C36.06 467.83 32.57 467.12 29.66 467.12C23.84 467.12 18.02 469.07 13.37 473.39C11.62 467.12 4.05999 462.18 -0.0100098 462.18L2.24999 429.03H7.54999V430.08C7.54999 434.4 8.70999 436.87 12.21 436.87C15.71 436.87 16.28 432.55 16.28 430.08L25.01 295.57C27.33 264.1 22.68 254.23 18.61 247.44C21.52 244.98 25.01 240.04 25.01 235.1C25.01 230.78 22.68 225.84 19.2 222.14C25.6 214.74 31.41 206.72 34.32 166.61L47.12 10.49C52.36 9.25 55.85 5.55 57.01 0C58.76 1.85 62.83 3.09 66.9 4.32C71.55 5.55 76.79 6.17 80.28 6.17C88.43 6.17 98.9 3.7 102.39 0C104.14 6.17 107.63 9.26 111.7 10.49L123.1 156.08C116.28 165.31 111.51 176.93 110.16 190.88C107.62 191.32 104.59 191.97 100.94 192.96C97.35 193.94 94.39 196.46 92.88 199.86C88.59 209.41 90.04 220.96 96.56 229.31C96.74 229.53 96.92 229.76 97.12 229.97C92.83 234.72 90.33 240.6 89.68 247.56C89.35 251.14 90.66 254.54 93 257.08C93.15 258.76 93.51 260.43 94.37 261.98C102.82 277.34 102.84 289.07 94.46 300.01C91.59 303.76 91.09 308.82 93.19 313.05C103.02 332.98 118.6 347.83 137.41 356.07L142.54 429.47C142.54 434.41 144.29 437.49 147.19 437.49C149.52 437.49 151.27 433.17 151.27 430.08V429.03H157.77L157.76 429.02ZM83.77 287.55C82.61 269.65 76.79 253.61 73.3 247.44C76.79 243.74 78.53 240.04 77.96 235.1C77.96 230.17 76.21 225.84 72.72 222.14C75.62 218.44 76.21 198.08 76.21 190.67L73.89 130.82C73.89 124.65 72.73 122.18 70.98 122.18C69.23 122.18 68.65 124.64 68.65 130.82L65.75 190.67C65.75 203.01 68.07 218.44 70.98 222.14C68.07 225.23 65.75 228.93 65.75 235.1C65.75 240.65 66.91 244.98 70.4 247.44C65.75 252.38 59.93 271.51 58.77 287.55C58.19 303.59 61.68 308.53 70.99 308.53C81.46 308.53 84.95 304.21 83.79 287.55H83.77ZM194.54 231.22C194.81 230.71 194.19 228.97 193.78 227.82C193.31 226.5 192.82 225.15 192.69 223.83C192.5 221.76 192.91 220.16 193.93 219.04C195.42 217.4 197.86 217.21 199.57 217.21C201.05 217.21 202.7 217.38 204.37 217.56L206.24 217.74C207.27 217.83 208.29 217.9 209.25 217.9C210.78 217.9 211.93 217.72 212.79 217.37C214.44 216.68 216.04 214.67 217.57 211.39C219.06 208.2 220.07 204.61 220.56 202.66C217.07 202.78 213.26 204.18 208.89 205.8C206.76 206.59 204.5 207.41 202.1 208.16C197.83 209.49 192.51 210.41 186.29 210.92C182.06 211.26 177.14 211.42 171.61 211.42C166.71 211.42 161.86 211.26 157.68 210.92C151.44 210.41 146.13 209.48 141.87 208.16C139.48 207.41 137.24 206.58 135.11 205.8C131.03 204.3 127.43 202.97 123.44 202.73C123.94 204.69 124.94 208.23 126.42 211.4C127.95 214.67 129.55 216.68 131.2 217.38C132.05 217.74 133.21 217.91 134.73 217.91C135.69 217.91 136.71 217.84 137.74 217.75L139.61 217.57C141.28 217.39 142.93 217.22 144.41 217.22C146.12 217.22 148.56 217.41 150.05 219.05C151.07 220.16 151.48 221.77 151.29 223.84C151.17 225.17 150.67 226.54 150.2 227.86C149.8 229.01 149.18 230.74 149.44 231.24C149.66 231.66 150.64 232.11 152.76 232.11C153.86 232.11 155.22 231.99 156.91 231.72C162.33 230.83 167.08 230.39 171.92 230.36C176.73 230.39 181.71 230.84 187.12 231.72C188.8 232 190.16 232.11 191.27 232.11C193.39 232.11 194.37 231.66 194.59 231.23L194.54 231.22ZM142 204.45C142.39 201.06 142.81 197.78 143.42 194.94C145.38 185.75 148.57 179.29 152.48 175.07C157.92 169.17 164.92 166.14 171.96 165.98C179 166.13 186.02 169.16 191.48 175.07C195.39 179.3 198.56 185.75 200.53 194.94C201.14 197.79 201.57 201.06 201.94 204.45C218.61 197.27 221.77 200.64 221.77 199.08C221.71 163.6 196.84 143.52 172.1 143.23C147.36 142.94 171.97 143.23 171.97 143.23H171.85C147.1 143.51 122.23 163.59 122.17 199.08C122.17 200.64 125.33 197.27 141.99 204.45H142ZM172.11 351C201.18 350.68 226.37 334.46 239.64 307.57C223.65 286.7 233.3 265.84 238.69 256.01C234.04 258.72 227.21 264.02 225.43 272.47C224.18 278.48 223.15 288.23 225.27 301.19C216.91 322.77 192.19 330.54 171.85 330.61C151.58 330.47 127 322.68 118.61 300.52C120.8 288.19 119.76 278.46 118.5 272.46C116.74 264 109.91 258.7 105.24 255.99C110.65 265.82 120.29 286.69 104.31 307.55C117.58 334.45 142.78 350.67 171.98 350.98H172.1L172.11 351ZM172.1 324.68C195.83 324.46 214.82 314.55 220.42 300.26C219.3 296.65 217.26 271.93 224.32 262.45C230.45 254.18 233.37 252.79 239.79 249.75L241.91 248.74C241.01 239.18 235 235.72 231.67 233.78C229.84 232.6 228.62 229.85 228.77 227.22C228.92 224.77 230.18 222.86 232.31 221.82C233.06 221.45 233.93 221.26 234.89 221.26C235.74 221.26 236.64 221.4 237.62 221.68C241.26 217.04 242.18 210.32 240.5 205.63C232.9 203.13 228.55 202.6 225.54 202.59C225.03 204.41 223.73 208.71 221.49 213.46C219.55 217.57 217.74 220.36 214.71 221.57C213.58 222.01 212.25 222.22 210.65 222.22C209.51 222.22 208.27 222.11 206.97 221.92C204.85 221.62 203.05 221.48 201.58 221.48C198.77 221.48 197.9 222 197.69 222.15C196.9 222.77 197.51 224.3 198.44 226.4C199.02 227.73 199.58 228.99 199.58 230.12C199.58 232.7 198.51 237.03 191.36 237.03C188.98 237.03 186.49 236.57 184.69 236.22C180.48 235.41 176.24 235 171.87 234.97C167.72 235 163.48 235.42 159.28 236.22C157.49 236.57 154.99 237.03 152.6 237.03C150.21 237.03 148.43 236.59 147.06 235.7C145.28 234.52 144.38 232.65 144.38 230.12C144.38 228.99 144.94 227.73 145.53 226.4C146.46 224.31 147.06 222.78 146.28 222.16C146.07 222 145.2 221.49 142.39 221.49C140.91 221.49 139.12 221.63 137.01 221.93C135.68 222.12 134.44 222.23 133.3 222.23C131.7 222.23 130.38 222.02 129.25 221.57C126.22 220.37 124.47 217.69 122.46 213.47C119.71 207.63 118.38 202.49 118.04 202.49C118.03 202.49 118 202.5 117.99 202.54C116.09 202.54 111.67 202.94 104.21 204.97C101.82 210.29 102.72 217.04 106.36 221.69C107.05 221.49 108.04 221.27 109.08 221.27C110.04 221.27 110.91 221.46 111.67 221.83C113.82 222.87 115.08 224.79 115.21 227.25C115.37 229.88 114.14 232.63 111.55 234.25C108.94 235.74 102.96 239.19 102.06 248.75L104.18 249.76C110.59 252.8 113.51 254.18 119.66 262.46C126.75 271.99 124.68 296.68 123.53 299.47C129.15 314.57 148.14 324.47 172 324.69H172.11L172.1 324.68ZM171.85 256.92H171.97C176.82 257.37 180.13 260.86 180.02 265.42C179.92 269.54 178.3 271 176.23 273.09L177.05 274.3C177.67 274.81 179.56 276.36 177.05 279.82C176.52 280.4 176.18 280.78 176 282.55C175.9 283.44 176.1 284.38 176.29 285.29C176.54 286.45 176.8 287.67 176.44 288.84C176.04 290.11 175.28 291.45 172.67 291.71H171.32C168.71 291.44 167.95 290.11 167.55 288.84C167.19 287.66 167.44 286.44 167.7 285.26C167.88 284.36 168.09 283.42 167.99 282.54C167.81 280.78 167.46 280.39 166.23 278.96C164.4 276.35 166.31 274.79 167.1 274.15V272.28C165.67 271 164.06 269.53 163.96 265.43C163.85 260.84 166.98 257.43 171.74 256.94H171.85V256.92Z" fill="black"/>
</svg>
