<svg width="396" height="25" viewBox="0 0 396 25" fill="none" xmlns="http://www.w3.org/2000/svg">
<g clip-path="url(#clip0_5352_655)">
<mask id="mask0_5352_655" style="mask-type:luminance" maskUnits="userSpaceOnUse" x="0" y="0" width="396" height="25">
<path d="M396 0H0V25H396V0Z" fill="white"/>
</mask>
<g mask="url(#mask0_5352_655)">
<path d="M20.8847 23.8062C20.6175 23.877 20.3109 23.9085 19.9651 23.9085C19.4227 23.9085 19.0454 23.6962 18.8489 23.2795C18.6524 22.8628 18.5345 22.3046 18.4952 21.6048C18.4559 20.9051 18.4323 20.1504 18.4245 19.3248C18.4166 18.4993 18.3301 17.6738 18.1729 16.8404C18.0157 16.007 17.717 15.2444 17.269 14.5525C16.821 13.8528 16.145 13.2945 15.2489 12.8779C14.4943 12.5241 13.4882 12.3275 12.2856 12.2725C13.4175 12.1939 14.4314 12.0209 15.3039 11.7457C16.538 11.3526 17.4812 10.7315 18.1336 9.8745C18.7782 9.01753 19.1083 7.89323 19.1083 6.50163C19.1083 5.11003 18.7624 3.96214 18.0707 3.05013C17.379 2.14599 16.4122 1.46986 15.1624 1.02958C13.9127 0.589302 12.4585 0.369141 10.8 0.369141H0V0.998127H3.45065V23.8534H0V24.4824H10.5092V23.8534H7.05851V12.587H10.462C11.4445 12.587 12.2148 12.7599 12.7729 13.098C13.331 13.4439 13.7319 13.8999 13.9834 14.4739C14.2349 15.0478 14.3921 15.6925 14.4629 16.408C14.5336 17.1234 14.5729 17.8625 14.5808 18.6251C14.5886 19.3877 14.6279 20.1268 14.6908 20.8422C14.7537 21.5577 14.9109 22.2024 15.1624 22.7763C15.414 23.3502 15.8148 23.8063 16.3651 24.1443C16.9153 24.4824 17.6777 24.6475 18.6524 24.6475C19.3677 24.6475 20.0122 24.5925 20.5782 24.4824C21.1441 24.3802 21.5607 24.2544 21.8122 24.1129L21.5843 23.5232C21.3956 23.649 21.152 23.7355 20.8847 23.8062ZM10.5721 1.00597C11.6017 1.00597 12.4742 1.21826 13.1817 1.63496C13.8969 2.05165 14.4314 2.67277 14.8009 3.48257C15.1703 4.29237 15.3511 5.30658 15.3511 6.50163C15.3511 7.70454 15.1703 8.70302 14.8009 9.51282C14.4314 10.3227 13.8891 10.9281 13.1817 11.3447C12.6629 11.6435 12.0655 11.8322 11.3817 11.9108H7.05066V0.998127H10.5721V1.00597Z" fill="black"/>
<path d="M33.1328 1.00684H36.6856V23.8621H33.1328V24.4911H44.1214V23.8621H40.262V1.00684H44.1214V0.385742H33.1328V1.00684Z" fill="black"/>
<path d="M74.375 20.2133C73.9977 20.9759 73.5023 21.6363 72.8735 22.2102C72.2447 22.7842 71.5139 23.2323 70.665 23.5547C69.8161 23.877 68.8648 24.0343 67.8036 24.0343C66.4674 24.0343 65.3356 23.7119 64.416 23.0594C63.4963 22.4068 62.7573 21.5341 62.1993 20.4255C61.6412 19.317 61.2403 18.0669 60.9888 16.691C60.7373 15.3073 60.6115 13.8921 60.6115 12.4297C60.6115 10.9752 60.7373 9.55218 60.9888 8.16844C61.2403 6.7847 61.649 5.54247 62.1993 4.43391C62.7495 3.32534 63.4963 2.44478 64.416 1.80008C65.3356 1.15538 66.4674 0.825187 67.8036 0.825187C68.9591 0.825187 70.0438 1.08462 71.0421 1.59566C72.0403 2.1067 72.8737 2.8379 73.5418 3.78136C74.2099 4.72482 74.6186 5.83336 74.7836 7.10703H75.4282V0.369169H74.8702L72.9442 2.10672C72.2368 1.45416 71.4194 0.950967 70.4761 0.589308C69.5329 0.227649 68.5426 0.0546875 67.4972 0.0546875C65.257 0.0546875 63.3076 0.589321 61.649 1.65857C59.9905 2.72782 58.7014 4.19805 57.7818 6.05351C56.87 7.90898 56.4062 10.0396 56.4062 12.4219C56.4062 14.8041 56.8621 16.919 57.7818 18.7902C58.7014 20.6535 59.9827 22.1237 61.649 23.193C63.3076 24.2622 65.257 24.7969 67.4972 24.7969C68.7077 24.7969 69.8161 24.6003 70.83 24.2151C71.844 23.8298 72.7084 23.2952 73.4237 22.6269L75.1923 24.4745H75.7504V17.7367H75.1058C74.9879 18.633 74.7523 19.4506 74.375 20.2133Z" fill="black"/>
<path d="M101.734 1.00684H104.87V11.8959H94.8091V1.00684H97.9297V0.385742H88.3008V1.00684H91.2091V23.8621H88.3008V24.4911H97.9297V23.8621H94.8091V12.918H104.87V23.8621H101.734V24.4911H111.347V23.8621H108.454V1.00684H111.347V0.385742H101.734V1.00684Z" fill="black"/>
<path d="M135.251 0H133.844L125.41 23.8616H122.816V24.4906H129.906V23.8616H126.503L128.908 16.9665H137.177L139.402 23.8616H136.234V24.4906H146.051V23.8616H143.544L135.251 0ZM129.215 16.0781L133.2 4.66227L136.886 16.0781H129.215Z" fill="black"/>
<path d="M322.705 0.0078125H321.298L312.863 23.8852H310.27V24.5142H317.36V23.8852H313.956L316.456 16.7149H324.536L326.855 23.8852H323.687V24.5142H333.505V23.8852H330.997L322.705 0.0078125ZM316.66 16.0938L320.645 4.67793L324.332 16.0938H316.66Z" fill="black"/>
<path d="M178.412 23.8062C178.145 23.877 177.838 23.9085 177.5 23.9085C176.95 23.9085 176.581 23.6962 176.384 23.2795C176.188 22.8628 176.07 22.3046 176.03 21.6048C175.991 20.9051 175.967 20.1504 175.96 19.3248C175.952 18.4993 175.865 17.6738 175.708 16.8404C175.551 16.007 175.252 15.2444 174.804 14.5525C174.356 13.8528 173.688 13.2945 172.792 12.8779C172.037 12.5241 171.039 12.3275 169.829 12.2725C170.96 12.1939 171.967 12.0209 172.839 11.7457C174.073 11.3526 175.016 10.7315 175.669 9.8745C176.313 9.01753 176.643 7.89323 176.643 6.50163C176.643 5.11003 176.298 3.96214 175.606 3.05013C174.914 2.14599 173.947 1.46986 172.698 1.02958C171.448 0.589302 169.994 0.369141 168.335 0.369141H157.543V0.998127H160.994V23.8534H157.543V24.4824H168.052V23.8534H164.601V12.587H168.005C168.988 12.587 169.758 12.7599 170.316 13.098C170.874 13.4361 171.275 13.8999 171.534 14.4739C171.786 15.0478 171.943 15.6925 172.014 16.408C172.084 17.1234 172.124 17.8625 172.132 18.6251C172.139 19.3877 172.179 20.1268 172.242 20.8422C172.305 21.5577 172.462 22.2024 172.713 22.7763C172.965 23.3502 173.366 23.8063 173.916 24.1443C174.466 24.4824 175.229 24.6475 176.203 24.6475C176.919 24.6475 177.563 24.5925 178.129 24.4824C178.695 24.3802 179.112 24.2544 179.363 24.1129L179.135 23.5232C178.923 23.649 178.679 23.7355 178.412 23.8062ZM168.099 1.00597C169.129 1.00597 169.994 1.21826 170.709 1.63496C171.424 2.05165 171.959 2.67277 172.328 3.48257C172.698 4.29237 172.878 5.30658 172.878 6.50163C172.878 7.70454 172.698 8.70302 172.328 9.51282C171.959 10.3227 171.416 10.9281 170.709 11.3447C170.206 11.6356 169.632 11.8165 168.98 11.903H164.578V1.00597H168.099Z" fill="black"/>
<path d="M206.298 1.9503C204.545 0.904636 202.454 0.385742 200.026 0.385742H190.656V1.01471H193.565V23.87H190.656V24.499H200.026C201.771 24.499 203.366 24.2002 204.797 23.6027C206.227 23.0052 207.469 22.1639 208.515 21.0789C209.56 19.994 210.362 18.7203 210.928 17.2501C211.494 15.7798 211.769 14.1838 211.769 12.4463C211.769 10.1348 211.297 8.06706 210.346 6.2509C209.395 4.43474 208.051 2.99597 206.298 1.9503ZM207.155 16.7311C206.896 18.0992 206.471 19.3257 205.889 20.3949C205.308 21.4642 204.53 22.3133 203.571 22.9344C202.612 23.5555 201.425 23.87 200.01 23.87H197.149V1.01471H200.01C201.354 1.01471 202.494 1.32919 203.445 1.9503C204.388 2.57141 205.166 3.42053 205.764 4.48979C206.361 5.55904 206.809 6.78554 207.092 8.15355C207.383 9.52157 207.532 10.9525 207.532 12.4463C207.54 13.9244 207.414 15.3553 207.155 16.7311Z" fill="black"/>
<path d="M298.244 23.7828C297.977 23.8535 297.67 23.885 297.325 23.885C296.782 23.885 296.405 23.6727 296.208 23.256C296.012 22.8393 295.894 22.2811 295.855 21.5814C295.815 20.8816 295.792 20.1269 295.784 19.3013C295.776 18.4758 295.69 17.6503 295.532 16.8169C295.375 15.9835 295.077 15.2209 294.628 14.529C294.18 13.8293 293.504 13.2711 292.608 12.8544C291.846 12.5006 290.848 12.304 289.637 12.249C290.769 12.1704 291.783 11.9974 292.656 11.7222C293.89 11.3291 294.833 10.708 295.485 9.85104C296.13 8.99407 296.46 7.8698 296.46 6.4782C296.46 5.0866 296.114 3.93871 295.422 3.0267C294.731 2.12256 293.764 1.4464 292.514 1.00612C291.264 0.565841 289.81 0.345703 288.152 0.345703H277.352V0.97469H280.81V23.83H277.352V24.4589H287.861V23.83H284.402V12.5635H287.806C288.788 12.5635 289.566 12.7364 290.117 13.0745C290.675 13.4204 291.076 13.8765 291.327 14.4504C291.579 15.0243 291.744 15.669 291.807 16.3845C291.877 17.0999 291.917 17.839 291.925 18.6016C291.932 19.3642 291.972 20.1033 292.035 20.8187C292.097 21.5342 292.255 22.1789 292.506 22.7528C292.758 23.3268 293.159 23.7828 293.709 24.1208C294.259 24.4589 295.021 24.624 295.996 24.624C296.711 24.624 297.356 24.569 297.922 24.4589C298.488 24.3567 298.904 24.2309 299.156 24.0894L298.928 23.4997C298.755 23.6255 298.511 23.712 298.244 23.7828ZM287.932 0.982536C288.961 0.982536 289.834 1.19483 290.541 1.61153C291.256 2.02822 291.799 2.64933 292.16 3.45914C292.53 4.26894 292.718 5.28315 292.718 6.4782C292.718 7.68111 292.53 8.67959 292.16 9.48939C291.791 10.2992 291.249 10.9046 290.541 11.3213C289.999 11.6358 289.37 11.8244 288.647 11.9031H284.41V0.982536H287.932Z" fill="black"/>
<path d="M395.354 17.2335C395.322 18.2555 395.212 19.1676 395.031 19.9852C394.851 20.795 394.544 21.4947 394.104 22.0687C393.672 22.6426 393.058 23.0829 392.28 23.3895C391.494 23.6961 390.488 23.8455 389.246 23.8455H384.797V0.990291H387.674V0.361328H378.289V0.990291H381.197V23.8455H378.289V24.4745H395.998V17.2413H395.354V17.2335Z" fill="black"/>
<path d="M360.134 0.353516V0.982478H362.736C362.728 1.55642 362.72 2.74362 362.72 3.35687V15.9914C362.72 17.9727 362.61 19.3485 362.382 20.1347C362.162 20.9209 361.777 21.5892 361.243 22.1396C360.763 22.6506 360.189 23.028 359.537 23.2796C359.254 23.3897 359.16 23.4054 358.853 23.5154C358.712 23.5548 358.287 23.6648 358.138 23.6963C357.65 23.8221 357.092 23.8692 356.699 23.885C355.575 23.9479 354.978 23.9715 354.271 23.5941C353.563 23.2167 353.021 22.6978 352.636 22.0374C352.25 21.3691 351.983 20.5907 351.834 19.6945C351.684 18.7982 351.606 17.8154 351.606 16.754V0.990348H354.821V0.361386H345.113V0.990348H348.006V17.0763C348.006 19.8517 348.666 21.8565 349.979 23.083C351.291 24.3174 353.374 24.9307 356.22 24.9307C357.069 24.9307 357.462 24.9857 358.169 24.8442C358.287 24.8206 358.444 24.7891 358.515 24.7813C359.167 24.6555 359.765 24.4825 360.291 24.2466C361.408 23.7435 362.28 22.9808 362.925 21.9588C363.302 21.377 363.569 20.693 363.719 19.8989C363.821 19.38 363.884 18.6173 363.923 17.6582C363.931 17.4537 363.97 17.2808 363.97 17.0685V0.982478H366.729V0.644412V0.361386V0.353516H360.134Z" fill="black"/>
<path d="M252.212 9.68627C251.544 9.68627 250.954 9.86711 250.451 10.2366C249.94 10.6062 249.437 11.2194 248.926 12.0843C248.612 12.6032 248.132 13.5545 247.551 14.9697C246.985 16.3377 246.442 17.3755 246.018 18.2796C245.381 17.2654 244.776 16.0468 244.187 14.6316C243.597 13.2164 243.039 11.6204 242.512 9.85924C244.666 9.16737 246.364 8.27896 247.59 7.19398C248.816 6.109 249.429 4.96898 249.429 3.76607C249.429 2.69682 249.005 1.84772 248.164 1.22661C247.323 0.605503 246.167 0.291016 244.705 0.291016C242.827 0.291016 241.349 0.841363 240.272 1.9342C239.195 3.02704 238.653 4.52083 238.653 6.41561C238.653 7.01313 238.7 7.64999 238.802 8.32613C238.897 9.00228 239.054 9.72558 239.258 10.4961C236.837 11.4553 234.935 12.6739 233.559 14.152C232.184 15.6379 231.492 17.1789 231.492 18.7749C231.492 20.481 232.074 21.8648 233.237 22.9261C234.4 23.9875 235.91 24.5143 237.765 24.5143C238.904 24.5143 240.013 24.3099 241.082 23.8932C242.151 23.4765 243.251 22.8318 244.383 21.9591C244.98 22.8004 245.656 23.4372 246.403 23.8696C247.15 24.302 247.952 24.5143 248.808 24.5143C249.838 24.5143 250.781 24.2313 251.646 23.6573C252.511 23.0834 253.289 22.2343 253.98 21.1021L253.273 20.6147C252.919 21.2122 252.487 21.6682 251.984 21.9827C251.481 22.2972 250.931 22.4466 250.333 22.4466C249.689 22.4466 249.021 22.1557 248.337 21.5739C247.653 20.9921 246.922 19.9307 246.364 18.9007C246.969 17.4541 247.559 16.0075 248.407 14.0655C249.5 11.5732 250.404 10.5197 250.915 10.3624C251.096 10.3074 251.3 10.2524 251.528 10.4647C251.732 10.6533 251.685 11.1251 251.685 11.2194C251.685 11.2509 251.669 11.3452 251.654 11.5024C251.63 11.6597 251.622 11.8012 251.622 11.927C251.622 12.4695 251.748 12.8862 252 13.1771C252.251 13.468 252.621 13.6174 253.108 13.6174C253.603 13.6174 253.988 13.4601 254.255 13.1378C254.523 12.8233 254.664 12.3673 254.664 11.7776C254.664 11.188 254.428 10.6848 253.965 10.2759C253.501 9.89068 252.911 9.68627 252.212 9.68627ZM241.876 1.57252C242.394 0.951416 243.542 0.676249 244.477 0.770595C245.711 0.888527 245.908 1.20302 246.301 1.63543C246.694 2.06785 246.796 2.87764 246.796 3.68744C246.796 4.74883 246.403 5.76306 245.617 6.72225C244.831 7.68143 243.534 8.47551 242.104 9.13593C241.852 8.15316 241.64 7.35908 241.514 6.64362C241.388 5.92816 241.278 5.24416 241.278 4.70167C241.286 3.56952 241.357 2.18577 241.876 1.57252ZM241.813 22.8475C241.09 23.1699 239.761 23.5001 239.148 23.5001C237.796 23.5001 236.546 22.8161 235.697 21.7783C234.849 20.7326 234.338 19.1916 234.338 17.4934C234.338 16.1097 234.589 14.8439 235.359 13.7589C236.122 12.6739 238.071 11.8562 239.463 11.2823C239.989 13.1928 240.626 15.0011 241.357 16.6915C242.088 18.3818 243.125 20.1351 244.029 21.4953C243.298 22.1006 242.536 22.5252 241.813 22.8475Z" fill="black"/>
</g>
</g>
<defs>
<clipPath id="clip0_5352_655">
<rect width="396" height="25" fill="white"/>
</clipPath>
</defs>
</svg>
