<svg width="18" height="18" viewBox="0 0 18 18" fill="none" xmlns="http://www.w3.org/2000/svg">
<path fill-rule="evenodd" clip-rule="evenodd" d="M11.3017 3.84375C11.2441 4.41328 11.128 4.97488 10.9557 5.51975L11.7199 6.28388C11.973 6.53704 12.0389 6.9224 11.8841 7.24524C10.9112 9.27468 9.27468 10.9112 7.24524 11.8841C6.9223 12.0389 6.53683 11.973 6.28368 11.7197L5.52017 10.9557C4.97514 11.1278 4.4134 11.2436 3.84375 11.301V12C3.84375 13.2691 4.83609 14.0469 5.76102 13.812C7.70119 13.3144 9.47203 12.3047 10.8883 10.8883C12.2967 9.47995 13.3031 7.72098 13.8036 5.79355C13.8059 5.78298 13.8084 5.77242 13.8111 5.76186C14.0466 4.83669 13.268 3.84375 12 3.84375H11.3017ZM15.4563 6.13845C15.4535 6.15216 15.4503 6.16587 15.4468 6.17958C14.8741 8.41289 13.7119 10.4513 12.0816 12.0816C10.4513 13.7119 8.41289 14.8741 6.17958 15.4468L6.17814 15.4472C3.89181 16.0292 2.15625 14.0455 2.15625 12V11.25C2.15625 10.3511 2.87459 9.70201 3.66529 9.62294C4.27128 9.5627 4.86662 9.41954 5.43369 9.19755C5.74597 9.07531 6.10101 9.14961 6.33807 9.38683L7.03884 10.0881C8.30922 9.3622 9.36233 8.30906 10.0882 7.03865L9.38663 6.33712C9.14948 6.09998 9.0753 5.7449 9.19767 5.43265C9.41988 4.86561 9.56321 4.27076 9.62367 3.66475C9.70214 2.87199 10.3528 2.15625 11.25 2.15625H12C14.0322 2.15625 16.0054 3.87175 15.4563 6.13845Z" fill="black"/>
</svg>
