<svg width="28" height="28" viewBox="0 0 28 28" fill="none" xmlns="http://www.w3.org/2000/svg">
<path d="M14.6223 7.0025C10.2305 7.0025 7.94839 9.82704 8.00089 12.9065C8.02588 14.3363 8.85075 16.1185 10.1305 16.6834C10.3255 16.7684 10.428 16.7309 10.468 16.5535C10.5005 16.4185 10.6605 15.7561 10.7304 15.4486C10.7439 15.3995 10.744 15.3477 10.7308 15.2985C10.7176 15.2493 10.6916 15.2045 10.6555 15.1687C10.1577 14.5322 9.8789 13.7519 9.86058 12.944C9.82559 10.7944 11.5003 8.70972 14.3849 8.70972C16.8844 8.70972 18.6642 10.342 18.7067 12.6766C18.7491 15.3137 17.3944 17.1434 15.5847 17.1434C14.5848 17.1434 13.8349 16.3535 14.0449 15.3786C14.3124 14.2213 14.8473 12.969 14.8323 12.1292C14.8198 11.3793 14.3874 10.7544 13.52 10.7544C12.4977 10.7544 11.6953 11.7692 11.7203 13.124C11.7234 13.6247 11.836 14.1187 12.0502 14.5713C12.0502 14.5713 11.1129 18.6606 10.9429 19.4205C10.6505 20.7103 11.0429 22.8024 11.0779 22.9874C11.0802 23.0092 11.0892 23.0297 11.1035 23.0462C11.1178 23.0628 11.1369 23.0745 11.1581 23.08C11.1792 23.0854 11.2016 23.0842 11.2221 23.0766C11.2426 23.069 11.2603 23.0553 11.2729 23.0374C11.3703 22.9099 12.5551 21.1627 12.8776 19.9004C12.9926 19.443 13.47 17.5808 13.47 17.5808C13.8149 18.1882 14.7923 18.7006 15.8221 18.7006C18.8916 18.7006 21.0588 15.996 20.9988 12.6341C20.9413 9.41211 18.1542 7 14.6248 7" fill="black"/>
<path d="M24.5 14C24.5 8.20101 19.799 3.5 14 3.5C8.20101 3.5 3.5 8.20101 3.5 14C3.5 19.799 8.20101 24.5 14 24.5V26C7.37258 26 2 20.6274 2 14C2 7.37258 7.37258 2 14 2C20.6274 2 26 7.37258 26 14C26 20.6274 20.6274 26 14 26V24.5C19.799 24.5 24.5 19.799 24.5 14Z" fill="black"/>
</svg>
