<svg width="12" height="12" viewBox="0 0 12 12" fill="none" xmlns="http://www.w3.org/2000/svg">
<g opacity="0.3">
<path d="M9.97607 8.55633C9.97607 9.33799 9.33799 9.97607 8.55633 9.97607C7.77468 9.97607 7.14457 9.33799 7.14457 8.55633C7.14457 7.77468 7.77468 7.14457 8.55633 7.14457C9.33799 7.14457 9.97607 7.77468 9.97607 8.55633ZM3.19641 10L2 8.80359L8.80359 2L10 3.19641L3.19641 10ZM2.03988 3.45962C2.03988 2.66999 2.66999 2.03988 3.45962 2.03988C4.24128 2.03988 4.87139 2.66999 4.87139 3.45962C4.87139 4.24128 4.24128 4.87139 3.45962 4.87139C2.66999 4.87139 2.03988 4.24128 2.03988 3.45962Z" fill="black"/>
</g>
</svg>
