<svg width="24" height="24" viewBox="0 0 24 24" fill="none" xmlns="http://www.w3.org/2000/svg">
<path d="M5.62 18.3657L4.46302 19.5503V3.3976C4.46302 3.15462 4.36874 2.92159 4.20094 2.74978C4.03313 2.57797 3.80553 2.48145 3.56822 2.48145C3.3309 2.48145 3.1033 2.57797 2.93549 2.74978C2.76769 2.92159 2.67341 3.15462 2.67341 3.3976V19.5503L1.51643 18.3657C1.34767 18.1988 1.12164 18.1064 0.887027 18.1085C0.652413 18.1106 0.427985 18.207 0.262082 18.3768C0.096178 18.5467 0.00207256 18.7765 3.38259e-05 19.0167C-0.00200491 19.2569 0.0881861 19.4883 0.251182 19.6611L2.93559 22.4096C3.10339 22.5813 3.33095 22.6778 3.56822 22.6778C3.80548 22.6778 4.03304 22.5813 4.20084 22.4096L6.88525 19.6611C7.04824 19.4883 7.13844 19.2569 7.1364 19.0167C7.13436 18.7765 7.04025 18.5467 6.87435 18.3768C6.70845 18.207 6.48402 18.1106 6.2494 18.1085C6.01479 18.1064 5.78876 18.1988 5.62 18.3657ZM9.68316 16.2649H20.4208C20.6581 16.2649 20.8857 16.1684 21.0535 15.9966C21.2213 15.8248 21.3156 15.5918 21.3156 15.3488C21.3156 15.1058 21.2213 14.8728 21.0535 14.701C20.8857 14.5292 20.6581 14.4326 20.4208 14.4326H9.68316C9.44584 14.4326 9.21825 14.5292 9.05044 14.701C8.88263 14.8728 8.78836 15.1058 8.78836 15.3488C8.78836 15.5918 8.88263 15.8248 9.05044 15.9966C9.21825 16.1684 9.44584 16.2649 9.68316 16.2649ZM23.1052 19.9295H9.68316C9.44584 19.9295 9.21825 20.0261 9.05044 20.1979C8.88263 20.3697 8.78836 20.6027 8.78836 20.8457C8.78836 21.0887 8.88263 21.3217 9.05044 21.4935C9.21825 21.6653 9.44584 21.7618 9.68316 21.7618H23.1052C23.3425 21.7618 23.5701 21.6653 23.7379 21.4935C23.9057 21.3217 24 21.0887 24 20.8457C24 20.6027 23.9057 20.3697 23.7379 20.1979C23.5701 20.0261 23.3425 19.9295 23.1052 19.9295ZM9.68316 10.768H17.7364C17.9737 10.768 18.2013 10.6715 18.3691 10.4997C18.5369 10.3279 18.6312 10.0949 18.6312 9.85188C18.6312 9.6089 18.5369 9.37587 18.3691 9.20406C18.2013 9.03225 17.9737 8.93573 17.7364 8.93573H9.68316C9.44584 8.93573 9.21825 9.03225 9.05044 9.20406C8.88263 9.37587 8.78836 9.6089 8.78836 9.85188C8.78836 10.0949 8.88263 10.3279 9.05044 10.4997C9.21825 10.6715 9.44584 10.768 9.68316 10.768ZM9.68316 5.27112H14.1572C14.3945 5.27112 14.6221 5.1746 14.7899 5.00279C14.9577 4.83098 15.052 4.59795 15.052 4.35497C15.052 4.112 14.9577 3.87897 14.7899 3.70716C14.6221 3.53535 14.3945 3.43882 14.1572 3.43882H9.68316C9.44584 3.43882 9.21825 3.53535 9.05044 3.70716C8.88263 3.87897 8.78836 4.112 8.78836 4.35497C8.78836 4.59795 8.88263 4.83098 9.05044 5.00279C9.21825 5.1746 9.44584 5.27112 9.68316 5.27112Z" fill="black"/>
</svg>
