<svg width="14" height="14" viewBox="0 0 14 14" fill="none" xmlns="http://www.w3.org/2000/svg">
<path d="M12.1116 2.00114C11.9634 2.01236 11.818 2.04783 11.6809 2.1062H11.6791C11.5475 2.15943 10.922 2.42797 9.97097 2.83502L6.56311 4.29972C4.11778 5.3503 1.71399 6.38488 1.71399 6.38488L1.74262 6.37357C1.74262 6.37357 1.57689 6.42916 1.40377 6.55024C1.29658 6.61938 1.20449 6.71031 1.13324 6.81736C1.0483 6.94456 0.979979 7.13913 1.00537 7.3403C1.04692 7.68045 1.26297 7.88444 1.41808 7.99703C1.57504 8.11104 1.72461 8.16428 1.72461 8.16428H1.7283L3.98251 8.93927C4.08362 9.27046 4.66944 11.236 4.81024 11.6887C4.89334 11.9591 4.97413 12.1283 5.07523 12.2573C5.12355 12.3233 5.18187 12.3784 5.25019 12.4227C5.28568 12.4445 5.32388 12.4613 5.36375 12.4726L5.34067 12.467C5.3476 12.4689 5.35314 12.4745 5.35822 12.4764C5.37668 12.4816 5.38915 12.4835 5.41269 12.4872C5.76954 12.5975 6.05622 12.3713 6.05622 12.3713L6.07238 12.3582L7.4033 11.1215L9.63397 12.8679L9.68475 12.89C10.1496 13.0983 10.6205 12.9824 10.8693 12.7779C11.12 12.572 11.2174 12.3087 11.2174 12.3087L11.2336 12.2663L12.9573 3.25431C13.0063 3.03194 13.0187 2.82371 12.9647 2.6216C12.9093 2.41691 12.7806 2.24089 12.6042 2.12834C12.4562 2.03647 12.2846 1.99215 12.1116 2.00114ZM12.065 2.96693C12.0631 2.99661 12.0687 2.99331 12.0558 3.05032V3.0555L10.3481 11.9737C10.3407 11.9864 10.3283 12.0142 10.2941 12.042C10.2581 12.0712 10.2295 12.0896 10.0795 12.0288L7.35113 9.89422L5.70306 11.4272L6.0493 9.17059L10.5069 4.93054C10.6907 4.75623 10.6293 4.71948 10.6293 4.71948C10.6422 4.50559 10.3518 4.65682 10.3518 4.65682L4.73084 8.21045L4.72899 8.20103L2.03484 7.27529V7.2734L2.02791 7.27199L2.04176 7.26633L2.05653 7.2588L2.07084 7.25361C2.07084 7.25361 4.47647 6.21904 6.92181 5.16845C8.14609 4.64222 9.3796 4.11221 10.3283 3.70328C10.8909 3.4616 11.4541 3.22133 12.0179 2.98247C12.0558 2.9674 12.0377 2.96693 12.065 2.96693Z" fill="black"/>
</svg>
