<svg width="12" height="12" viewBox="0 0 12 12" fill="none" xmlns="http://www.w3.org/2000/svg">
<path d="M3.13333 5.3135C3.4 3.94208 4.6 2.9135 6 2.9135C7 2.9135 7.8 3.3935 8.33333 4.14779L9.46667 2.77636C8.66667 1.81636 7.4 1.19922 6 1.19922C3.66667 1.19922 1.73333 2.98208 1.4 5.3135H0L2.33333 8.05636L4.66667 5.3135H3.13333ZM9.66667 3.94208L7.33333 6.68493H8.86667C8.53333 8.05636 7.4 9.08493 6 9.08493C5 9.08493 4.2 8.60493 3.66667 7.85065L2.53333 9.1535C3.33333 10.1821 4.6 10.7992 6 10.7992C8.33333 10.7992 10.2667 9.01636 10.6 6.68493H12L9.66667 3.94208Z" fill="black"/>
</svg>
