<svg width="67" height="67" viewBox="0 0 67 67" fill="none" xmlns="http://www.w3.org/2000/svg">
    <path d="M50.1579 54.4286C51.0253 54.4286 51.8572 54.084 52.4706 53.4706C53.084 52.8572 53.4286 52.0253 53.4286 51.1579V43.5263C53.4286 42.6589 53.084 41.827 52.4706 41.2136C51.8572 40.6002 51.0253 40.2556 50.1579 40.2556C47.6068 40.2556 45.0992 39.8632 42.7007 39.0564C42.1273 38.8754 41.5153 38.8549 40.931 38.9971C40.3467 39.1393 39.8126 39.4388 39.3865 39.8632L36.2466 43.003C30.8222 40.0429 26.3639 35.5846 23.4038 30.1601L26.5218 27.0421C27.4158 26.1917 27.7429 24.9271 27.3504 23.706C26.5654 21.3293 26.1729 18.8218 26.1729 16.2707C26.1729 15.4032 25.8283 14.5713 25.215 13.958C24.6016 13.3446 23.7697 13 22.9023 13H15.2707C14.4032 13 13.5713 13.3446 12.958 13.958C12.3446 14.5713 12 15.4032 12 16.2707C12 37.312 29.1165 54.4286 50.1579 54.4286ZM15.2707 15.1805H22.9023C23.1914 15.1805 23.4687 15.2953 23.6732 15.4998C23.8776 15.7042 23.9925 15.9815 23.9925 16.2707C23.9925 19.0617 24.4286 21.7872 25.2789 24.382C25.388 24.6872 25.3662 25.1233 25.0173 25.4722L20.7218 29.7459C24.3195 36.7887 29.5962 42.0654 36.6609 45.7068L40.9128 41.4113C41.218 41.106 41.6323 41.0188 42.0248 41.1278C44.6414 42 47.3669 42.4361 50.1579 42.4361C50.447 42.4361 50.7243 42.5509 50.9288 42.7554C51.1333 42.9599 51.2481 43.2372 51.2481 43.5263V51.1579C51.2481 51.447 51.1333 51.7243 50.9288 51.9288C50.7243 52.1333 50.447 52.2481 50.1579 52.2481C30.3158 52.2481 14.1805 36.1128 14.1805 16.2707C14.1805 15.9815 14.2953 15.7042 14.4998 15.4998C14.7042 15.2953 14.9815 15.1805 15.2707 15.1805Z" fill="black" />
</svg>