<svg width="67" height="67" viewBox="0 0 67 67" fill="none" xmlns="http://www.w3.org/2000/svg">
<path d="M51.5884 15C52.5574 15 53.4605 15.4317 54.0015 16.2959C54.5287 17.1381 54.6414 18.2767 54.3189 19.5918L54.3199 19.5928L47.0796 53.4844L47.0806 53.4854C46.8061 54.7926 46.2258 55.8254 45.2242 56.2744C44.2269 56.7214 43.087 56.4658 41.9869 55.8564C41.9591 55.8411 41.9324 55.8235 41.9068 55.8047L24.6451 43.1416V43.1426C24.4813 43.0259 24.347 42.8715 24.2544 42.6924C24.1619 42.5133 24.1138 42.3142 24.1138 42.1123C24.1138 41.9107 24.1621 41.7121 24.2544 41.5332L24.3316 41.4033C24.4013 41.3006 24.487 41.2101 24.5835 41.1318L42.9576 24.6494L19.0044 39.6611L19.0035 39.6602C18.8346 39.7676 18.6443 39.8367 18.4458 39.8613C18.2493 39.8857 18.0501 39.866 17.8619 39.8047V39.8057L7.23588 36.4678V36.4668C6.58873 36.2778 6.03105 36.0078 5.63139 35.6387C5.21451 35.2536 4.94562 34.7319 5.00932 34.127C5.06975 33.5534 5.41386 33.0639 5.86283 32.6719C6.31767 32.2748 6.94331 31.9204 7.71537 31.6143L7.72416 31.6104L50.233 15.3242C50.6474 15.1349 51.0938 15.0246 51.5494 15.001L51.5884 15ZM51.607 16.501C51.338 16.5174 51.0748 16.5844 50.8316 16.6992C50.8147 16.7072 50.7973 16.714 50.7798 16.7207L8.26713 33.0078L8.26811 33.0088C7.59396 33.2761 7.13414 33.553 6.84916 33.8018C6.55858 34.0555 6.50761 34.2263 6.50151 34.2842C6.4987 34.3108 6.49211 34.3922 6.64897 34.5371C6.79843 34.6751 7.06403 34.834 7.481 34.9736L7.6685 35.0322L7.6851 35.0371L18.2583 38.3584L43.2369 22.7051L43.2466 22.6992L43.522 22.5479C43.7972 22.4106 44.0721 22.3152 44.3326 22.2617C44.6653 22.1935 45.0328 22.1817 45.3589 22.293C45.5263 22.3501 45.7192 22.4528 45.8716 22.6338C46.0343 22.827 46.1165 23.0706 46.106 23.3252C46.0872 23.7764 45.7899 24.1263 45.523 24.3623L45.524 24.3633L25.7544 42.0957L42.7447 54.5596C43.6515 55.055 44.2466 55.0686 44.6109 54.9053C44.9748 54.742 45.3813 54.2801 45.6128 53.1777V53.1748L52.8531 19.2793C52.8548 19.2711 52.8569 19.263 52.8589 19.2549C53.1257 18.1834 52.978 17.488 52.73 17.0918C52.4954 16.7172 52.108 16.5061 51.607 16.501Z" fill="black"/>
</svg>
