<svg width="67" height="67" viewBox="0 0 67 67" fill="none" xmlns="http://www.w3.org/2000/svg">
<path d="M50.8374 13.25C51.8064 13.25 52.7095 13.6817 53.2505 14.5459C53.7777 15.3881 53.8904 16.5267 53.5679 17.8418L53.5689 17.8428L46.3287 51.7344L46.3296 51.7354C46.0552 53.0426 45.4748 54.0754 44.4732 54.5244C43.4759 54.9714 42.336 54.7158 41.2359 54.1064C41.2081 54.0911 41.1814 54.0735 41.1558 54.0547L23.8941 41.3916C23.73 41.2747 23.5967 41.1205 23.5044 40.9424L23.5035 40.9414C23.4112 40.7625 23.3628 40.5639 23.3628 40.3623C23.3629 40.1607 23.4119 39.9614 23.5044 39.7822C23.5847 39.6272 23.697 39.4917 23.8326 39.3818L42.2066 22.8994L18.2535 37.9111L18.2525 37.9102C18.0834 38.0178 17.8936 38.0866 17.6958 38.1113C17.4985 38.1359 17.2988 38.1159 17.1109 38.0547V38.0557L6.4849 34.7178V34.7168C5.83774 34.5278 5.28008 34.2578 4.88041 33.8887C4.46352 33.5036 4.19465 32.9819 4.25834 32.377C4.31878 31.8034 4.66289 31.3139 5.11186 30.9219C5.56669 30.5248 6.19232 30.1704 6.96439 29.8643L6.97318 29.8604L49.4683 13.5791C49.8864 13.3862 50.3379 13.2748 50.7984 13.251L50.8374 13.25ZM50.856 14.751C50.5871 14.7674 50.3239 14.8344 50.0806 14.9492C50.0637 14.9572 50.0463 14.964 50.0288 14.9707L7.51615 31.2578L7.51713 31.2588C6.84299 31.5261 6.38316 31.803 6.09818 32.0518C5.80763 32.3055 5.75663 32.4763 5.75053 32.5342C5.74773 32.5608 5.74113 32.6422 5.89799 32.7871C6.06872 32.9448 6.39114 33.129 6.91752 33.2812C6.923 33.2828 6.92868 33.2854 6.93412 33.2871L17.5074 36.6084L42.4849 20.9561L42.4956 20.9492C42.8612 20.7282 43.2333 20.5831 43.5806 20.5117C43.9135 20.4434 44.2816 20.4317 44.6079 20.543C44.7754 20.6001 44.9682 20.7028 45.1206 20.8838C45.2833 21.077 45.3655 21.3206 45.355 21.5752C45.3362 22.0264 45.0389 22.3763 44.772 22.6123L44.773 22.6133L25.0035 40.3457L41.9937 52.8096C42.9005 53.3049 43.4956 53.3186 43.8599 53.1553C44.2238 52.992 44.6304 52.5301 44.8619 51.4277V51.4248L52.1021 17.5293L52.1079 17.5049C52.3748 16.4334 52.227 15.738 51.979 15.3418C51.7444 14.9672 51.357 14.7561 50.856 14.751Z" fill="black"/>
</svg>
