<svg width="67" height="67" viewBox="0 0 67 67" fill="none" xmlns="http://www.w3.org/2000/svg">
<path d="M33.5078 11.25L34.2383 11.2617C37.889 11.3799 41.4655 12.3561 44.6738 14.1152C55.9369 20.2906 60.0564 34.4211 53.8789 45.6787C47.7435 56.8596 33.7549 60.9966 22.5313 55.0039L12.1641 56.6904C11.9262 56.729 11.6841 56.6508 11.5137 56.4805C11.3431 56.3099 11.265 56.0672 11.3037 55.8291L12.9902 45.4668C11.1962 42.106 10.2533 38.3559 10.25 34.5439C10.236 21.6927 20.6489 11.2642 33.5059 11.25H33.5078ZM33.5059 12.75C21.4773 12.7642 11.737 22.5207 11.75 34.542C11.7531 38.1902 12.6741 41.7795 14.4287 44.9785C14.5092 45.1252 14.5386 45.2948 14.5117 45.46L12.9512 55.042L22.5401 53.4834L22.6641 53.4736C22.788 53.4743 22.9107 53.5053 23.0205 53.5654C33.5568 59.3415 46.7856 55.488 52.5645 44.957C58.343 34.426 54.4889 21.2076 43.9522 15.4307C40.7507 13.6754 37.1575 12.7535 33.5059 12.75ZM28.3877 21.4736C28.8636 21.4738 29.3203 21.6625 29.6572 21.999C29.9944 22.3358 30.1845 22.7932 30.1846 23.2695C30.1846 23.2756 30.1838 23.2821 30.1836 23.2881C30.1516 24.5855 30.3696 25.8775 30.8252 27.0928C31.0577 27.6032 31.131 28.1701 31.0342 28.7197L30.9805 28.9629C30.8147 29.5754 30.4412 30.1084 29.9287 30.4795L28.2139 32.1514C29.0312 33.6374 30.0469 35.0058 31.2334 36.2188L31.499 36.4854L31.5147 36.501C32.7816 37.8213 34.2349 38.9476 35.8272 39.8457L37.5244 38.1074L37.5313 38.1006C38.0757 37.5565 38.5841 37.1649 39.1797 37.0293C39.633 36.9262 40.0595 36.9907 40.4639 37.1055L40.8613 37.2324L40.8789 37.2383C41.9443 37.6379 43.0687 37.8552 44.2041 37.8818H44.7451C45.2049 37.9035 45.6401 38.0965 45.9658 38.4219C46.2914 38.7474 46.4843 39.1826 46.5059 39.6426C46.5064 39.6542 46.5068 39.6661 46.5069 39.6777V45.8096C46.5069 45.8211 46.5064 45.8332 46.5059 45.8447C46.4843 46.3048 46.2914 46.7408 45.9658 47.0664C45.6402 47.3917 45.2045 47.5841 44.7442 47.6055C44.7218 47.6065 44.6992 47.6064 44.6768 47.6055C38.3319 47.3291 32.3172 44.7001 27.8067 40.2314L27.8027 40.2275C23.3243 35.7236 20.692 29.7086 20.4238 23.3643C20.4233 23.3516 20.4237 23.3388 20.4238 23.3262C20.428 22.8451 20.617 22.3839 20.9522 22.0391C21.2874 21.6942 21.743 21.4916 22.2236 21.4736H28.3877ZM22.2725 22.9736C22.18 22.9789 22.0929 23.0186 22.0283 23.085C21.9638 23.1513 21.9267 23.2392 21.9238 23.3311C22.1831 29.2883 24.6573 34.9351 28.8623 39.166C33.0966 43.361 38.7394 45.8333 44.6944 46.1045C44.7739 46.0963 44.8482 46.0618 44.9053 46.0049C44.9653 45.9448 45.0014 45.8655 45.0069 45.7812V39.7061C45.0012 39.6219 44.9652 39.5424 44.9053 39.4824C44.8438 39.4212 44.7618 39.385 44.6748 39.3809C43.2035 39.4103 41.7398 39.1623 40.3613 38.6465C39.8626 38.4741 39.6664 38.4563 39.5127 38.4912C39.3496 38.5283 39.0941 38.6602 38.5918 39.1621L38.5908 39.1611L36.5039 41.3008C36.2722 41.538 35.9118 41.5947 35.6182 41.4404C33.6906 40.4276 31.939 39.11 30.4317 37.5391V37.5381C28.8924 36.023 27.6049 34.2718 26.6201 32.3496C26.4702 32.0568 26.5291 31.7004 26.7647 31.4707L28.9102 29.3779L29.0156 29.293C29.2692 29.1223 29.4525 28.8658 29.5322 28.5713C29.612 28.2765 29.583 27.9625 29.4502 27.6875C29.4403 27.6671 29.4308 27.6462 29.4229 27.625C28.9004 26.2337 28.6503 24.7551 28.6846 23.2695L28.6787 23.2119C28.6711 23.174 28.6563 23.1377 28.6348 23.1055L28.5977 23.0605C28.5423 23.0052 28.4665 22.9738 28.3877 22.9736H22.2725Z" fill="black"/>
</svg>
