<svg width="14" height="14" viewBox="0 0 14 14" fill="none" xmlns="http://www.w3.org/2000/svg">
<path fill-rule="evenodd" clip-rule="evenodd" d="M1.21447 6.87621C1.21447 3.6286 3.85321 1 7.10716 1C8.67331 1 10.1574 1.6169 11.2689 2.72502C12.385 3.83764 12.9588 5.31666 12.9997 6.82662L13 6.83807C13 10.0857 10.3611 12.7143 7.10716 12.7143C6.17378 12.7143 5.27877 12.4946 4.45818 12.0927L1 13L1.91126 9.63858C1.46971 8.80985 1.21447 7.84503 1.21447 6.87621ZM7.10716 1.84491C4.31687 1.84491 2.05902 4.09799 2.05902 6.87621C2.05902 7.75302 2.30604 8.63436 2.7299 9.37387L2.81692 9.52569L2.19698 11.8125L4.55658 11.1934L4.70125 11.269C5.4475 11.6587 6.26064 11.8694 7.10716 11.8694C9.89553 11.8694 12.1522 9.61938 12.1553 6.84378C12.1184 5.53356 11.6211 4.26895 10.6728 3.32349C9.71855 2.37215 8.44836 1.84491 7.10716 1.84491ZM5.3531 4.78154H5.15617C5.14128 4.78154 5.13033 4.78156 5.11966 4.78176C5.11094 4.78193 5.10397 4.78221 5.09816 4.78258C5.06798 4.82179 5.04183 4.85262 5.01757 4.88121C4.96665 4.94124 4.92412 4.99138 4.87035 5.08837C4.80239 5.21098 4.73684 5.38882 4.73684 5.65579C4.73684 5.90366 4.82904 6.16763 4.94739 6.39518C5.06105 6.61372 5.17391 6.75224 5.1855 6.76646L5.18646 6.76766L5.2161 6.79721L5.23937 6.832C5.24134 6.83495 5.24373 6.83856 5.24655 6.8428C5.36097 7.01505 6.16905 8.23158 7.38386 8.7362L7.39726 8.74177L7.41024 8.74825C7.60148 8.84357 7.75368 8.89743 7.90544 8.95113C7.97401 8.9754 8.04249 8.99963 8.11444 9.02764C8.35239 9.08287 8.58911 9.08116 8.75943 9.05286L8.76909 9.05126C8.81766 9.04434 8.95877 8.99376 9.11353 8.89225C9.18515 8.84528 9.24608 8.79607 9.29071 8.75044C9.31269 8.72797 9.32826 8.70887 9.33864 8.69394C9.34919 8.67877 9.35151 8.67247 9.35151 8.67247C9.39238 8.56383 9.41261 8.46496 9.42019 8.38682C9.40426 8.37885 9.38667 8.37007 9.36713 8.36033L9.34364 8.34862L9.32178 8.3341V8.3341C9.32022 8.33313 9.30857 8.32595 9.28207 8.31116C9.25596 8.29659 9.22235 8.27846 9.18281 8.2576C9.10388 8.21598 9.00644 8.16623 8.90808 8.1172C8.80969 8.06816 8.71235 8.02081 8.63365 7.98385C8.62147 7.97813 8.60988 7.97273 8.59893 7.96767C8.54818 8.03932 8.49305 8.10869 8.44727 8.16448C8.35652 8.27505 8.26059 8.38216 8.20858 8.43401C8.15042 8.49199 8.0392 8.59136 7.86872 8.62535C7.69529 8.65993 7.53921 8.61237 7.41615 8.55102C7.39854 8.54225 7.37416 8.53126 7.34365 8.51751C7.15344 8.43177 6.7254 8.23882 6.22082 7.80764L6.21614 7.80364L6.21158 7.7995C5.76511 7.39486 5.47083 6.94915 5.36281 6.74241C5.32082 6.67307 5.28796 6.59006 5.27865 6.49487C5.268 6.38605 5.29092 6.29002 5.32521 6.21311C5.37845 6.09368 5.47103 6.0033 5.50219 5.97288L5.50319 5.97191C5.50481 5.96995 5.50749 5.96668 5.51136 5.96181C5.51891 5.95232 5.5261 5.94305 5.53519 5.93132C5.54085 5.92403 5.54724 5.91579 5.55491 5.90596C5.58833 5.86312 5.64086 5.7966 5.6997 5.73793C5.71218 5.72549 5.72154 5.71395 5.73351 5.694C5.72214 5.66963 5.71015 5.64276 5.6981 5.61519C5.66378 5.53661 5.62159 5.43511 5.57845 5.32996C5.54953 5.25948 5.52024 5.18755 5.49197 5.11812C5.43926 4.98865 5.38972 4.8679 5.3531 4.78154ZM5.73686 3.98858C5.92674 4.07462 6.04129 4.24278 6.11791 4.42102C6.15865 4.51578 6.21831 4.6623 6.27877 4.81077C6.30615 4.87803 6.3337 4.94568 6.35972 5.0091C6.40265 5.11371 6.44175 5.20766 6.47198 5.27686C6.48022 5.29572 6.48727 5.31153 6.49317 5.32444L6.49746 5.32872L6.52822 5.39006C6.62627 5.58556 6.62627 5.8023 6.52822 5.99779C6.52693 6.00037 6.52561 6.003 6.52426 6.0057C6.48547 6.0832 6.42138 6.21125 6.29585 6.33641C6.27818 6.35402 6.25419 6.38285 6.22068 6.42581C6.21657 6.43108 6.21187 6.43713 6.2069 6.44353C6.19943 6.45315 6.19134 6.46358 6.18366 6.47339C6.29089 6.64065 6.49298 6.91352 6.77407 7.16923C7.17726 7.51279 7.49286 7.65674 7.68977 7.74656L7.6928 7.74793C7.72292 7.71376 7.75822 7.6726 7.79454 7.62833C7.88275 7.52086 7.93954 7.43998 7.95388 7.41138C7.99478 7.32982 8.05482 7.24578 8.14386 7.17978C8.23629 7.11125 8.3373 7.07903 8.43188 7.07046C8.578 7.05722 8.71524 7.10461 8.76125 7.1205C8.76491 7.12176 8.768 7.12283 8.77046 7.12365C8.82783 7.14271 8.91706 7.18358 8.9925 7.21901C9.07877 7.25952 9.18228 7.3099 9.28472 7.36097C9.45761 7.44715 9.66259 7.55253 9.76218 7.61327C9.82804 7.64611 9.88842 7.67635 9.93691 7.7032C9.98556 7.73015 10.0581 7.77254 10.1213 7.83553L10.192 7.90604L10.2237 8.00076C10.2679 8.13306 10.2752 8.29182 10.2633 8.44031C10.2506 8.59849 10.2133 8.78023 10.1419 8.97004C10.0355 9.25303 9.7765 9.46771 9.57658 9.59884C9.36963 9.73458 9.11158 9.85465 8.8935 9.88706C8.61142 9.93331 8.24876 9.93207 7.88494 9.84139L7.8572 9.83448L7.83066 9.82389C7.79418 9.80934 7.74401 9.79147 7.684 9.77008C7.51928 9.71137 7.28038 9.62622 7.04666 9.51095C5.61816 8.91148 4.70099 7.54945 4.55394 7.32682C4.46742 7.22747 4.32532 7.0296 4.19819 6.78517C4.04876 6.49786 3.8923 6.09441 3.8923 5.65579C3.8923 5.23627 3.9989 4.91832 4.13177 4.67861C4.23278 4.4964 4.37446 4.33031 4.42132 4.27539C4.42915 4.26621 4.43433 4.26013 4.43623 4.25761C4.67903 3.93487 5.02221 3.93615 5.14418 3.93661C5.14846 3.93662 5.15246 3.93664 5.15617 3.93664H5.42395C5.36859 3.93664 5.57433 3.91493 5.73686 3.98858Z" fill="black"/>
</svg>
