<svg xmlns="http://www.w3.org/2000/svg" version="1.1" xmlns:xlink="http://www.w3.org/1999/xlink" width="1000" height="1000"><style>
    #light-icon {
      display: inline;
    }
    #dark-icon {
      display: none;
    }

    @media (prefers-color-scheme: dark) {
      #light-icon {
        display: none;
      }
      #dark-icon {
        display: inline;
      }
    }
  </style><g id="light-icon"><svg xmlns="http://www.w3.org/2000/svg" version="1.1" xmlns:xlink="http://www.w3.org/1999/xlink" width="1000" height="1000"><g><g transform="matrix(0.5030181086519114,0,0,0.5030181086519114,5.684341886080802e-14,5.684341886080802e-14)"><svg xmlns="http://www.w3.org/2000/svg" version="1.1" xmlns:xlink="http://www.w3.org/1999/xlink" width="1988" height="1988"><svg width="1988" height="1988" viewBox="0 0 1988 1988" fill="none" xmlns="http://www.w3.org/2000/svg">
<path d="M874.272 10.7517C851.652 15.278 800.391 34.1647 761.205 53.0189C630.041 115.671 529.049 241.756 492.857 387.477C483.809 423.72 481.563 458.433 483.809 523.364C489.082 661.531 532.043 764.203 623.272 863.847L665.485 908.394L660.212 952.191C637.592 1156.04 563.744 1988 563.744 1988H1434.34L1429.06 1951.76C1425.29 1918.54 1377.8 1445.92 1340.86 1070.72L1325.04 904.616L1363.48 863.847C1485.6 736.264 1533.08 552.053 1488.62 379.923C1465.25 288.582 1378.71 121.467 1221.02 53.0189C1128.3 7.72322 1003.87 -14.8757 874.304 10.7517H874.272ZM1111.7 83.2377C1340.08 139.865 1479.54 374.647 1428.28 615.486C1410.93 700.053 1381.19 761.826 1319.45 827.376C1288.56 858.344 1257.18 889.572 1257.18 889.572L1363.45 1920.11L632.385 1915.64C632.385 1915.64 666.949 1538.1 708.414 1108.53L730.285 882.05L677.527 829.948C565.208 717.475 519.253 556.644 557.69 407.927C578.78 322.611 614.972 255.433 666.982 202.583C780.798 85.5498 945.126 41.7846 1111.7 83.3029V83.2377Z" fill="black"></path>
<path d="M1351 508.097C1351 304.885 1188.03 140.156 986.996 140.156C785.961 140.156 622.997 304.885 622.997 508.097C622.997 646.216 698.268 766.543 809.614 829.455C810.194 829.78 810.773 830.073 811.352 830.398L716.225 1834.16H1263.27L1168.11 827.308C1277.4 763.81 1351 644.655 1351 508.097Z" fill="black"></path>
</svg></svg></g></g></svg></g><g id="dark-icon"><svg xmlns="http://www.w3.org/2000/svg" version="1.1" xmlns:xlink="http://www.w3.org/1999/xlink" width="1000" height="1000"><g clip-path="url(#SvgjsClipPath1021)"><rect width="1000" height="1000" fill="#ffffff"></rect><g transform="matrix(0.4024144869215292,0,0,0.4024144869215292,100,100)"><svg xmlns="http://www.w3.org/2000/svg" version="1.1" xmlns:xlink="http://www.w3.org/1999/xlink" width="1988" height="1988"><svg width="1988" height="1988" viewBox="0 0 1988 1988" fill="none" xmlns="http://www.w3.org/2000/svg">
<path d="M874.272 10.7517C851.652 15.278 800.391 34.1647 761.205 53.0189C630.041 115.671 529.049 241.756 492.857 387.477C483.809 423.72 481.563 458.433 483.809 523.364C489.082 661.531 532.043 764.203 623.272 863.847L665.485 908.394L660.212 952.191C637.592 1156.04 563.744 1988 563.744 1988H1434.34L1429.06 1951.76C1425.29 1918.54 1377.8 1445.92 1340.86 1070.72L1325.04 904.616L1363.48 863.847C1485.6 736.264 1533.08 552.053 1488.62 379.923C1465.25 288.582 1378.71 121.467 1221.02 53.0189C1128.3 7.72322 1003.87 -14.8757 874.304 10.7517H874.272ZM1111.7 83.2377C1340.08 139.865 1479.54 374.647 1428.28 615.486C1410.93 700.053 1381.19 761.826 1319.45 827.376C1288.56 858.344 1257.18 889.572 1257.18 889.572L1363.45 1920.11L632.385 1915.64C632.385 1915.64 666.949 1538.1 708.414 1108.53L730.285 882.05L677.527 829.948C565.208 717.475 519.253 556.644 557.69 407.927C578.78 322.611 614.972 255.433 666.982 202.583C780.798 85.5498 945.126 41.7846 1111.7 83.3029V83.2377Z" fill="black"></path>
<path d="M1351 508.097C1351 304.885 1188.03 140.156 986.996 140.156C785.961 140.156 622.997 304.885 622.997 508.097C622.997 646.216 698.268 766.543 809.614 829.455C810.194 829.78 810.773 830.073 811.352 830.398L716.225 1834.16H1263.27L1168.11 827.308C1277.4 763.81 1351 644.655 1351 508.097Z" fill="black"></path>
</svg></svg></g></g><defs><clipPath id="SvgjsClipPath1021"><rect width="1000" height="1000" x="0" y="0" rx="300" ry="300"></rect></clipPath></defs></svg></g></svg>