<svg xmlns="http://www.w3.org/2000/svg" version="1.1" xmlns:xlink="http://www.w3.org/1999/xlink" width="11" height="20"><svg width="11" height="20" viewBox="0 0 11 20" fill="none" xmlns="http://www.w3.org/2000/svg">
<path d="M3.93634 0.108166C3.70877 0.153702 3.19307 0.343709 2.79884 0.533389C1.47929 1.16369 0.463271 2.43215 0.099167 3.89816C0.00814099 4.26278 -0.0144528 4.612 0.00814003 5.26524C0.061184 6.65524 0.493393 7.68816 1.41118 8.69061L1.83586 9.13877L1.78282 9.57939C1.55525 11.6302 0.812312 20 0.812312 20H9.57078L9.51774 19.6354C9.47975 19.3012 9.00203 14.5465 8.6304 10.7719L8.47126 9.10077L8.85796 8.69061C10.0865 7.40708 10.5642 5.55385 10.1169 3.82216C9.88184 2.90324 9.0112 1.222 7.42479 0.533389C6.49194 0.0776984 5.24017 -0.149655 3.93666 0.108166H3.93634ZM6.32495 0.837401C8.62254 1.4071 10.0256 3.76909 9.50988 6.19201C9.33536 7.04279 9.03609 7.66425 8.41495 8.3237C8.10421 8.63525 7.78857 8.94942 7.78857 8.94942L8.85764 19.317L1.50287 19.2721C1.50287 19.2721 1.8506 15.4739 2.26775 11.1522L2.48778 8.87374L1.95701 8.34958C0.827047 7.21805 0.364713 5.60004 0.75141 4.1039C0.963586 3.24558 1.32769 2.56975 1.85093 2.03805C2.99595 0.860662 4.64916 0.420368 6.32495 0.838057V0.837401Z" fill="black"></path>
<path d="M8.7341 5.11176C8.7341 3.06739 7.09461 1.41016 5.07213 1.41016C3.04964 1.41016 1.41016 3.06739 1.41016 5.11176C1.41016 6.5013 2.16741 7.71182 3.2876 8.34474C3.29343 8.34801 3.29926 8.35096 3.30508 8.35423L2.34807 18.4524H7.85155L6.89421 8.32314C7.99368 7.68433 8.7341 6.48559 8.7341 5.11176Z" fill="black"></path>
</svg><style>@media (prefers-color-scheme: light) { :root { filter: none; } }
@media (prefers-color-scheme: dark) { :root { filter: none; } }
</style></svg>