<?xml version="1.0" encoding="utf-8"?><svg viewBox="0 0 50 50" xmlns="http://www.w3.org/2000/svg" xmlns:xlink="http://www.w3.org/1999/xlink"><style>:root>svg{display:none}:root>svg:target{display:block}</style><svg viewBox="0 0 12 18" id="arrow" xmlns="http://www.w3.org/2000/svg"><path fill-rule="evenodd" clip-rule="evenodd" d="M9.722 9.667 4.344 15 3 13.667 7.705 9 3 4.333 4.344 3l5.378 5.333a.939.939 0 0 1 0 1.334Z"/></svg><svg viewBox="0 0 12 12" id="arrow-btn" xmlns="http://www.w3.org/2000/svg"><g clip-path="url(#aba)"><path d="M1.5 6h9m0 0-4.25 4.25M10.5 6 6.25 1.75"/></g><defs><clipPath id="aba"><path transform="rotate(90 6 6)" d="M0 0h12v12H0z"/></clipPath></defs></svg><svg viewBox="0 0 20 20" id="arrow-btn-light" xmlns="http://www.w3.org/2000/svg"><path d="M2.5 10h15m0 0-7.083 7.083M17.5 10l-7.083-7.083"/></svg><svg viewBox="0 0 18 14" id="by" xmlns="http://www.w3.org/2000/svg"><mask id="ada" style="mask-type:luminance" maskUnits="userSpaceOnUse" x="0" y="0" width="18" height="14"><path d="M16.714 0H1.286C.576 0 0 .627 0 1.4v11.2c0 .773.576 1.4 1.286 1.4h15.428c.71 0 1.286-.627 1.286-1.4V1.4c0-.773-.576-1.4-1.286-1.4Z"/></mask><g mask="url(#ada)"><path d="M16.714 0H1.286C.576 0 0 .627 0 1.4v11.2c0 .773.576 1.4 1.286 1.4h15.428c.71 0 1.286-.627 1.286-1.4V1.4c0-.773-.576-1.4-1.286-1.4Z"/><mask id="adb" style="mask-type:alpha" maskUnits="userSpaceOnUse" x="0" y="0" width="18" height="14"><path d="M16.714 0H1.286C.576 0 0 .627 0 1.4v11.2c0 .773.576 1.4 1.286 1.4h15.428c.71 0 1.286-.627 1.286-1.4V1.4c0-.773-.576-1.4-1.286-1.4Z"/></mask><g mask="url(#adb)" fill-rule="evenodd" clip-rule="evenodd"><path d="M0 9.333h18V0H0v9.333ZM0 14h18V9.335H0v4.667Z"/><path d="M0 0h2.571v2.1l-.428.7.428.7v1.4l-.428.7.428.7v1.4l-.428.7.428.7v1.4l-.428.7.428.7V14H0V0Z"/><path d="m-.428 1.398-.857 1.4.857 1.4-.857 1.4.857 1.4-.857 1.4.857 1.4-.857 1.4.857 1.4.857-1.4-.857-1.4.857-1.4-.857-1.4.857-1.4-.857-1.4.857-1.4-.857-1.4ZM.43 1.4 1.287 0l.857 1.4-.857 1.4L.43 1.4Zm.857 4.2L.43 4.2l.857-1.4.857 1.4-.857 1.4Zm0 2.8L.43 7l.857-1.4.857 1.4-.857 1.4Zm0 2.8.857-1.4-.857-1.4L.43 9.8l.857 1.4Zm0 0 .857 1.4-.857 1.4-.857-1.4.857-1.4Z"/></g></g></svg><svg viewBox="0 0 14 14" id="check" xmlns="http://www.w3.org/2000/svg"><g clip-path="url(#aea)"><path d="M11.957.82 5.543 9.278 1.75 5.488 0 7.238l5.832 5.832L14 2.57 11.957.82Z"/></g><defs><clipPath id="aea"><path d="M0 0h14v14H0z"/></clipPath></defs></svg><svg viewBox="0 0 16 16" id="clock" xmlns="http://www.w3.org/2000/svg"><g clip-path="url(#afa)"><path d="M7.998 15a7 7 0 1 1 0-14 7 7 0 0 1 0 14Zm0-1.4a5.6 5.6 0 1 0 0-11.2 5.6 5.6 0 0 0 0 11.2Zm-.7-5.313V3.8h1.4v3.913l2.765 2.765-.987.987-3.178-3.178Z"/><path fill-rule="evenodd" clip-rule="evenodd" d="M7.998 1.1a6.9 6.9 0 1 0 0 13.8 6.9 6.9 0 0 0 0-13.8Zm-5.02 1.88a7.1 7.1 0 1 1 10.04 10.04A7.1 7.1 0 0 1 2.979 2.98Zm.99.99a5.7 5.7 0 1 1 8.06 8.06 5.7 5.7 0 0 1-8.06-8.06Zm4.03-1.47a5.5 5.5 0 1 0 0 11 5.5 5.5 0 0 0 0-11Zm-.8 1.2h1.6v3.972l2.807 2.806-1.129 1.129-3.278-3.278V3.7Zm.2.2v4.346l3.078 3.078.846-.846-2.724-2.723V3.9h-1.2Z"/></g><defs><clipPath id="afa"><path d="M0 0h16v16H0z"/></clipPath></defs></svg><svg viewBox="0 0 24 24" id="close" xmlns="http://www.w3.org/2000/svg"><path d="M4.348 4.379 19.54 19.573m-15.192-.001L19.54 4.38"/></svg><svg viewBox="0 0 24 24" id="close-light" xmlns="http://www.w3.org/2000/svg"><path d="M4.346 4.378 19.54 19.572m-15.193-.001L19.54 4.378"/></svg><svg viewBox="0 0 14 14" id="date" xmlns="http://www.w3.org/2000/svg"><path fill-rule="evenodd" clip-rule="evenodd" d="M4.594 5.81a.656.656 0 0 1-.657-.657V4.5a1.313 1.313 0 0 0-1.312 1.312v.875h8.75v-.875A1.313 1.313 0 0 0 10.062 4.5v.656a.656.656 0 0 1-1.312 0V4.5h-3.5v.653a.656.656 0 0 1-.656.657ZM8.75 3.187h-3.5V2.53a.656.656 0 1 0-1.313 0v.658a2.625 2.625 0 0 0-2.624 2.625v5.25a2.625 2.625 0 0 0 2.625 2.625h6.124a2.625 2.625 0 0 0 2.626-2.625v-5.25a2.625 2.625 0 0 0-2.626-2.625v-.656a.656.656 0 1 0-1.312 0v.656ZM2.625 8v3.062a1.313 1.313 0 0 0 1.313 1.313h6.124a1.313 1.313 0 0 0 1.313-1.313V8h-8.75Z"/></svg><svg viewBox="0 0 12 12" id="email" xmlns="http://www.w3.org/2000/svg"><path fill-rule="evenodd" clip-rule="evenodd" d="M2.5 3.775a.475.475 0 0 0-.475.475v5a.475.475 0 0 0 .475.475h7a.475.475 0 0 0 .475-.475v-5a.475.475 0 0 0-.475-.475h-7ZM1.42 3.17a1.525 1.525 0 0 1 1.08-.445h7a1.525 1.525 0 0 1 1.525 1.525v5A1.525 1.525 0 0 1 9.5 10.775h-7A1.525 1.525 0 0 1 .975 9.25v-5c0-.405.16-.793.446-1.079Z"/><path fill-rule="evenodd" clip-rule="evenodd" d="M1.063 3.958a.525.525 0 0 1 .728-.145L6 6.619l4.208-2.806a.525.525 0 0 1 .583.873l-4.5 3a.525.525 0 0 1-.583 0l-4.5-3a.525.525 0 0 1-.145-.728Z"/></svg><svg viewBox="0 0 24 24" id="filter" xmlns="http://www.w3.org/2000/svg"><g clip-path="url(#aka)"><path d="M.75 4.23h11.419a3.499 3.499 0 0 0 3.412 2.743 3.499 3.499 0 0 0 3.41-2.742h4.259a.75.75 0 0 0 0-1.5h-4.259a3.502 3.502 0 0 0-3.41-2.743 3.501 3.501 0 0 0-3.412 2.743H.75a.75.75 0 0 0 0 1.5Zm12.838-.747v-.008a1.996 1.996 0 0 1 1.993-1.987c1.093 0 1.987.89 1.992 1.985v.011a1.995 1.995 0 0 1-1.992 1.99 1.995 1.995 0 0 1-1.993-1.988v-.003Zm9.662 16.286h-4.259a3.502 3.502 0 0 0-3.41-2.742 3.501 3.501 0 0 0-3.412 2.742H.75a.75.75 0 1 0 0 1.5h11.419a3.499 3.499 0 0 0 3.412 2.743 3.499 3.499 0 0 0 3.41-2.743h4.259a.75.75 0 0 0 0-1.5Zm-7.67 2.743a1.995 1.995 0 0 1-1.992-1.988v-.011a1.996 1.996 0 0 1 1.993-1.987c1.093 0 1.987.89 1.992 1.985v.011a1.995 1.995 0 0 1-1.992 1.99Zm7.67-11.262H11.831A3.499 3.499 0 0 0 8.42 8.507a3.499 3.499 0 0 0-3.412 2.743H.75a.75.75 0 0 0 0 1.5h4.258a3.502 3.502 0 0 0 3.412 2.742 3.501 3.501 0 0 0 3.41-2.742h11.42a.75.75 0 0 0 0-1.5Zm-12.838.748v.008a1.996 1.996 0 0 1-1.992 1.986 1.997 1.997 0 0 1-1.993-1.984v-.011a1.995 1.995 0 0 1 1.993-1.99c1.097 0 1.99.892 1.992 1.988v.003Z"/></g><defs><clipPath id="aka"><path d="M0 0h24v24H0z"/></clipPath></defs></svg><svg viewBox="0 0 24 24" id="grid-1x1" xmlns="http://www.w3.org/2000/svg"><g clip-path="url(#ala)"><path d="M23.13 0H.92A.92.92 0 0 0 0 .92v9.21a.92.92 0 0 0 .92.92h22.21a.92.92 0 0 0 .92-.92V.92a.92.92 0 0 0-.92-.92Zm-.921 9.209H1.842V1.842h20.367v7.367Zm.92 3.684H.922a.92.92 0 0 0-.921.92v9.21a.921.921 0 0 0 .92.92h22.21a.92.92 0 0 0 .92-.92v-9.21a.92.92 0 0 0-.92-.92Zm-.92 9.209H1.842v-7.367h20.367v7.367Z"/></g><defs><clipPath id="ala"><path d="M0 0h24v24H0z"/></clipPath></defs></svg><svg viewBox="0 0 24 24" id="grid-2x2" xmlns="http://www.w3.org/2000/svg"><g clip-path="url(#ama)"><path d="M10.13 0H.92A.92.92 0 0 0 0 .92v9.21a.92.92 0 0 0 .92.92h9.21a.92.92 0 0 0 .92-.92V.92a.92.92 0 0 0-.92-.92Zm-.921 9.209H1.842V1.842h7.367v7.367Zm.92 3.684H.922a.92.92 0 0 0-.921.92v9.21a.921.921 0 0 0 .92.92h9.21a.92.92 0 0 0 .92-.92v-9.21a.92.92 0 0 0-.92-.92Zm-.92 9.209H1.842v-7.367h7.367v7.367Zm13.814-9.21h-9.21a.92.92 0 0 0-.92.922v9.209a.921.921 0 0 0 .92.92h9.21a.921.921 0 0 0 .92-.92v-9.21a.92.92 0 0 0-.92-.92Zm-.921 9.21h-7.367v-7.367h7.367v7.367Z"/><path fill-rule="evenodd" clip-rule="evenodd" d="M14.8 1.8v7.4h7.4V1.8h-7.4Zm-1-1.8a.8.8 0 0 0-.8.8v9.4a.8.8 0 0 0 .8.8h9.4a.8.8 0 0 0 .8-.8V.8a.8.8 0 0 0-.8-.8h-9.4Z"/></g><defs><clipPath id="ama"><path d="M0 0h24v24H0z"/></clipPath></defs></svg><svg viewBox="0 0 24 24" id="grid-3x3" xmlns="http://www.w3.org/2000/svg"><g clip-path="url(#ana)" fill-rule="evenodd" clip-rule="evenodd"><path d="M1.8 1.8v2.4h2.4V1.8H1.8ZM.8 0a.8.8 0 0 0-.8.8v4.4a.8.8 0 0 0 .8.8h4.4a.8.8 0 0 0 .8-.8V.8a.8.8 0 0 0-.8-.8H.8Zm1 10.8v2.4h2.4v-2.4H1.8ZM.8 9a.8.8 0 0 0-.8.8v4.4a.8.8 0 0 0 .8.8h4.4a.8.8 0 0 0 .8-.8V9.8a.8.8 0 0 0-.8-.8H.8Zm1 10.8v2.4h2.4v-2.4H1.8ZM.8 18a.8.8 0 0 0-.8.8v4.4a.8.8 0 0 0 .8.8h4.4a.8.8 0 0 0 .8-.8v-4.4a.8.8 0 0 0-.8-.8H.8Zm10-16.2v2.4h2.4V1.8h-2.4ZM9.8 0a.8.8 0 0 0-.8.8v4.4a.8.8 0 0 0 .8.8h4.4a.8.8 0 0 0 .8-.8V.8a.8.8 0 0 0-.8-.8H9.8Zm1 10.8v2.4h2.4v-2.4h-2.4ZM9.8 9a.8.8 0 0 0-.8.8v4.4a.8.8 0 0 0 .8.8h4.4a.8.8 0 0 0 .8-.8V9.8a.8.8 0 0 0-.8-.8H9.8Zm1 10.8v2.4h2.4v-2.4h-2.4Zm-1-1.8a.8.8 0 0 0-.8.8v4.4a.8.8 0 0 0 .8.8h4.4a.8.8 0 0 0 .8-.8v-4.4a.8.8 0 0 0-.8-.8H9.8Zm10-16.2v2.4h2.4V1.8h-2.4Zm-1-1.8a.8.8 0 0 0-.8.8v4.4a.8.8 0 0 0 .8.8h4.4a.8.8 0 0 0 .8-.8V.8a.8.8 0 0 0-.8-.8h-4.4Zm1 10.8v2.4h2.4v-2.4h-2.4Zm-1-1.8a.8.8 0 0 0-.8.8v4.4a.8.8 0 0 0 .8.8h4.4a.8.8 0 0 0 .8-.8V9.8a.8.8 0 0 0-.8-.8h-4.4Zm1 10.8v2.4h2.4v-2.4h-2.4Zm-1-1.8a.8.8 0 0 0-.8.8v4.4a.8.8 0 0 0 .8.8h4.4a.8.8 0 0 0 .8-.8v-4.4a.8.8 0 0 0-.8-.8h-4.4Z"/></g><defs><clipPath id="ana"><path d="M0 0h24v24H0z"/></clipPath></defs></svg><svg viewBox="0 0 24 24" id="grid-4x4" xmlns="http://www.w3.org/2000/svg"><path fill-rule="evenodd" clip-rule="evenodd" d="M1.5 1.5v2h2v-2h-2ZM.667 0A.667.667 0 0 0 0 .667v3.666C0 4.702.298 5 .667 5h3.666A.667.667 0 0 0 5 4.333V.667A.667.667 0 0 0 4.333 0H.667ZM1.5 7.5v2h2v-2h-2ZM.667 6A.667.667 0 0 0 0 6.667v3.666c0 .368.298.667.667.667h3.666A.667.667 0 0 0 5 10.333V6.667A.667.667 0 0 0 4.333 6H.667Zm.833 7.5v2h2v-2h-2ZM.667 12a.667.667 0 0 0-.667.667v3.666c0 .369.298.667.667.667h3.666A.667.667 0 0 0 5 16.333v-3.666A.667.667 0 0 0 4.333 12H.667Zm.833 7.5v2h2v-2h-2ZM.667 18a.667.667 0 0 0-.667.667v3.666c0 .369.298.667.667.667h3.666A.667.667 0 0 0 5 22.333v-3.666A.667.667 0 0 0 4.333 18H.667ZM7.5 1.5v2h2v-2h-2ZM6.667 0A.667.667 0 0 0 6 .667v3.666c0 .369.298.667.667.667h3.666A.667.667 0 0 0 11 4.333V.667A.667.667 0 0 0 10.333 0H6.667ZM7.5 7.5v2h2v-2h-2ZM6.667 6A.667.667 0 0 0 6 6.667v3.666c0 .368.298.667.667.667h3.666a.667.667 0 0 0 .667-.667V6.667A.667.667 0 0 0 10.333 6H6.667Zm.833 7.5v2h2v-2h-2ZM6.667 12a.667.667 0 0 0-.667.667v3.666c0 .369.298.667.667.667h3.666a.667.667 0 0 0 .667-.667v-3.666a.667.667 0 0 0-.667-.667H6.667Zm.833 7.5v2h2v-2h-2ZM6.667 18a.667.667 0 0 0-.667.667v3.666c0 .369.298.667.667.667h3.666a.667.667 0 0 0 .667-.667v-3.666a.667.667 0 0 0-.667-.667H6.667ZM13.5 1.5v2h2v-2h-2ZM12.667 0A.667.667 0 0 0 12 .667v3.666c0 .369.299.667.667.667h3.666A.667.667 0 0 0 17 4.333V.667A.667.667 0 0 0 16.333 0h-3.666Zm.833 7.5v2h2v-2h-2ZM12.667 6a.667.667 0 0 0-.667.667v3.666c0 .368.299.667.667.667h3.666a.667.667 0 0 0 .667-.667V6.667A.667.667 0 0 0 16.333 6h-3.666Zm.833 7.5v2h2v-2h-2Zm-.833-1.5a.667.667 0 0 0-.667.667v3.666c0 .369.299.667.667.667h3.666a.667.667 0 0 0 .667-.667v-3.666a.667.667 0 0 0-.667-.667h-3.666Zm.833 7.5v2h2v-2h-2Zm-.833-1.5a.667.667 0 0 0-.667.667v3.666c0 .369.299.667.667.667h3.666a.667.667 0 0 0 .667-.667v-3.666a.667.667 0 0 0-.667-.667h-3.666ZM19.5 1.5v2h2v-2h-2ZM18.667 0A.667.667 0 0 0 18 .667v3.666c0 .369.299.667.667.667h3.666A.667.667 0 0 0 23 4.333V.667A.667.667 0 0 0 22.333 0h-3.666Zm.833 7.5v2h2v-2h-2ZM18.667 6a.667.667 0 0 0-.667.667v3.666c0 .368.299.667.667.667h3.666a.667.667 0 0 0 .667-.667V6.667A.667.667 0 0 0 22.333 6h-3.666Zm.833 7.5v2h2v-2h-2Zm-.833-1.5a.667.667 0 0 0-.667.667v3.666c0 .369.299.667.667.667h3.666a.667.667 0 0 0 .667-.667v-3.666a.667.667 0 0 0-.667-.667h-3.666Zm.833 7.5v2h2v-2h-2Zm-.833-1.5a.667.667 0 0 0-.667.667v3.666c0 .369.299.667.667.667h3.666a.667.667 0 0 0 .667-.667v-3.666a.667.667 0 0 0-.667-.667h-3.666Z"/></svg><svg viewBox="0 0 12 12" id="home-line" xmlns="http://www.w3.org/2000/svg"><path d="M11 10.413a.604.604 0 0 1-.163.415.541.541 0 0 1-.393.172H1.556a.54.54 0 0 1-.393-.172.604.604 0 0 1-.163-.415V4.242c0-.09.02-.178.056-.259a.582.582 0 0 1 .158-.205L5.66.124a.537.537 0 0 1 .682 0l4.445 3.654a.603.603 0 0 1 .214.464v6.17Zm-1.111-.587V4.528L6 1.332 2.111 4.528v5.298H9.89Z"/></svg><svg viewBox="0 0 12 12" id="home-line-light" xmlns="http://www.w3.org/2000/svg"><path d="M11 10.413a.604.604 0 0 1-.163.415.541.541 0 0 1-.393.172H1.556a.54.54 0 0 1-.393-.172.604.604 0 0 1-.163-.415V4.242c0-.09.02-.178.056-.259a.582.582 0 0 1 .158-.205L5.66.124a.537.537 0 0 1 .682 0l4.445 3.654a.603.603 0 0 1 .214.464v6.17Zm-1.111-.587V4.528L6 1.332 2.111 4.528v5.298H9.89Z"/></svg><svg viewBox="0 0 24 24" id="icon-bag" xmlns="http://www.w3.org/2000/svg"><path fill-rule="evenodd" clip-rule="evenodd" d="M6.066 2.539a.866.866 0 0 1 .698-.357h10.473c.275 0 .533.132.698.357l2.618 3.57a.906.906 0 0 1 .175.535V19.14a2.71 2.71 0 0 1-.767 1.894 2.589 2.589 0 0 1-1.851.784H5.892c-.695 0-1.36-.282-1.852-.784a2.709 2.709 0 0 1-.767-1.894V6.644c0-.193.062-.38.175-.535l2.618-3.57Zm1.135 1.428L5.019 6.942V19.14a.9.9 0 0 0 .256.631.863.863 0 0 0 .617.262H18.11a.863.863 0 0 0 .617-.262.903.903 0 0 0 .256-.63v-12.2L16.8 3.967H7.2Z"/><path fill-rule="evenodd" clip-rule="evenodd" d="M3.273 6.644c0-.492.391-.892.873-.892h15.71c.481 0 .872.4.872.892 0 .493-.39.893-.873.893H4.146a.883.883 0 0 1-.873-.893ZM8.51 9.322c.482 0 .873.4.873.893 0 .71.275 1.39.766 1.893a2.589 2.589 0 0 0 1.852.784 2.59 2.59 0 0 0 1.851-.784 2.709 2.709 0 0 0 .767-1.893c0-.493.39-.893.873-.893.482 0 .872.4.872.893 0 1.183-.46 2.318-1.278 3.155a4.315 4.315 0 0 1-3.085 1.308 4.315 4.315 0 0 1-3.086-1.308 4.515 4.515 0 0 1-1.278-3.155c0-.493.39-.893.873-.893Z"/></svg><svg viewBox="0 0 24 24" id="icon-heart" xmlns="http://www.w3.org/2000/svg"><path fill-rule="evenodd" clip-rule="evenodd" d="M14.32 2.87a6.098 6.098 0 0 1 6.683 1.337 6.174 6.174 0 0 1 1.796 4.363 6.201 6.201 0 0 1-1.796 4.363l-8.337 8.389a.939.939 0 0 1-1.334 0l-8.337-8.39A6.19 6.19 0 0 1 1.2 8.57a6.19 6.19 0 0 1 1.796-4.363A6.112 6.112 0 0 1 7.331 2.4c1.626 0 3.185.65 4.335 1.807l.333.335.333-.334A6.13 6.13 0 0 1 14.32 2.87Zm2.347 1.428a4.22 4.22 0 0 0-3.001 1.251l-1 1.007a.939.939 0 0 1-1.334 0l-1-1.006a4.232 4.232 0 0 0-3.001-1.252c-1.126 0-2.206.45-3.002 1.252a4.285 4.285 0 0 0-1.244 3.02c0 1.133.448 2.22 1.244 3.02l7.67 7.719 7.67-7.718a4.273 4.273 0 0 0 1.244-3.02 4.294 4.294 0 0 0-1.244-3.021 4.245 4.245 0 0 0-3.002-1.252Z"/></svg><svg viewBox="0 0 14 14" id="icon-minus" xmlns="http://www.w3.org/2000/svg"><path d="M0 6h14v2H0z"/></svg><svg viewBox="0 0 14 14" id="icon-minus-accent" xmlns="http://www.w3.org/2000/svg"><path d="M14 6H0v2h14V6Z"/></svg><svg viewBox="0 0 24 24" id="icon-phone" xmlns="http://www.w3.org/2000/svg"><path d="M21.347 2.651a.81.81 0 0 0-1.174 0L15.73 7.095V4.077c0-.503-.335-.839-.838-.839-.503 0-.838.336-.838.839v5.03c0 .084 0 .252.083.336.084.167.252.335.42.419.084.084.251.084.335.084h5.03c.504 0 .839-.336.839-.839 0-.503-.335-.838-.838-.838h-3.019l4.444-4.444a.81.81 0 0 0 0-1.174Z"/><path d="M18.245 21.6h-.252c-2.683-.335-5.366-1.258-7.63-2.683a17.63 17.63 0 0 1-5.282-5.282C3.572 11.37 2.65 8.688 2.398 6.005c0-.67.168-1.341.587-1.844a2.59 2.59 0 0 1 1.677-.923H7.43c1.258 0 2.348.923 2.515 2.18.084.755.252 1.51.503 2.18.336.922.084 1.929-.587 2.683l-.586.587c1.006 1.51 2.263 2.85 3.856 3.857l.587-.587c.671-.67 1.76-.922 2.683-.587a9.19 9.19 0 0 0 2.18.503c1.258.168 2.18 1.258 2.18 2.515v2.516c0 .67-.252 1.341-.755 1.76-.503.42-1.09.755-1.76.755ZM7.429 4.915H4.914c-.252 0-.503.168-.671.336-.084.167-.168.335-.168.586.252 2.432 1.09 4.78 2.432 6.876 1.257 1.928 2.85 3.605 4.779 4.779 2.096 1.341 4.443 2.18 6.875 2.431.335 0 .503-.084.67-.251a.761.761 0 0 0 .252-.587v-2.516c0-.419-.335-.754-.754-.838-.839-.084-1.677-.335-2.516-.67-.335-.085-.67-.085-.922.167l-1.09 1.09a.892.892 0 0 1-1.006.167 13.759 13.759 0 0 1-5.366-5.365c-.084-.336 0-.755.252-1.007l1.09-1.09c.167-.167.251-.586.167-.838-.335-.838-.503-1.677-.67-2.515 0-.42-.42-.755-.839-.755Z"/></svg><svg viewBox="0 0 14 14" id="icon-plus" xmlns="http://www.w3.org/2000/svg"><path fill-rule="evenodd" clip-rule="evenodd" d="M8 6V0H6v6H0v2h6v6h2V8h6V6H8Z"/></svg><svg viewBox="0 0 14 14" id="icon-plus-accent" xmlns="http://www.w3.org/2000/svg"><g clip-path="url(#awa)"><path fill-rule="evenodd" clip-rule="evenodd" d="M8 6V0H6v6H0v2h6v6h2V8h6V6H8Z"/></g><defs><clipPath id="awa"><path d="M0 0h14v14H0z"/></clipPath></defs></svg><svg viewBox="0 0 24 24" id="icon-search" xmlns="http://www.w3.org/2000/svg"><path fill-rule="evenodd" clip-rule="evenodd" d="M10.795 1.09a9.706 9.706 0 1 0 6.008 17.329l4.17 4.17a1.142 1.142 0 0 0 1.614-1.615l-4.17-4.17a9.705 9.705 0 0 0-7.622-15.713Zm-7.422 9.706a7.422 7.422 0 1 1 14.843 0 7.422 7.422 0 0 1-14.843 0Z"/></svg><svg viewBox="0 0 24 24" id="icon-user" xmlns="http://www.w3.org/2000/svg"><path fill-rule="evenodd" clip-rule="evenodd" d="M4.968 15.718a4.756 4.756 0 0 1 3.3-1.318h7.467c1.238 0 2.425.474 3.3 1.318a4.42 4.42 0 0 1 1.367 3.182v1.8c0 .497-.418.9-.934.9-.515 0-.933-.403-.933-.9v-1.8c0-.716-.295-1.403-.82-1.91a2.854 2.854 0 0 0-1.98-.79H8.268c-.742 0-1.455.284-1.98.79a2.652 2.652 0 0 0-.82 1.91v1.8c0 .497-.418.9-.933.9-.516 0-.933-.403-.933-.9v-1.8a4.42 4.42 0 0 1 1.366-3.182ZM12.003 4.32a2.88 2.88 0 1 0 0 5.76 2.88 2.88 0 0 0 0-5.76Zm-4.8 2.88a4.8 4.8 0 1 1 9.6 0 4.8 4.8 0 0 1-9.6 0Z"/></svg><svg viewBox="0 0 20 20" id="info" xmlns="http://www.w3.org/2000/svg"><g clip-path="url(#baa)"><path d="M9 5h2v2H9V5Zm0 4h2v6H9V9Zm1-9C4.48 0 0 4.48 0 10s4.48 10 10 10 10-4.48 10-10S15.52 0 10 0Zm0 18c-4.41 0-8-3.59-8-8s3.59-8 8-8 8 3.59 8 8-3.59 8-8 8Z"/></g><defs><clipPath id="baa"><path d="M0 0h20v20H0z"/></clipPath></defs></svg><svg viewBox="0 0 18 14" id="kz" xmlns="http://www.w3.org/2000/svg"><mask id="bba" style="mask-type:luminance" maskUnits="userSpaceOnUse" x="0" y="0" width="18" height="14"><path d="M16.714 0H1.286C.576 0 0 .627 0 1.4v11.2c0 .773.576 1.4 1.286 1.4h15.428c.71 0 1.286-.627 1.286-1.4V1.4c0-.773-.576-1.4-1.286-1.4Z"/></mask><g mask="url(#bba)"><path d="M16.714 0H1.286C.576 0 0 .627 0 1.4v11.2c0 .773.576 1.4 1.286 1.4h15.428c.71 0 1.286-.627 1.286-1.4V1.4c0-.773-.576-1.4-1.286-1.4Z"/><mask id="bbb" style="mask-type:alpha" maskUnits="userSpaceOnUse" x="0" y="0" width="18" height="14"><path d="M16.714 0H1.286C.576 0 0 .627 0 1.4v11.2c0 .773.576 1.4 1.286 1.4h15.428c.71 0 1.286-.627 1.286-1.4V1.4c0-.773-.576-1.4-1.286-1.4Z"/></mask><g mask="url(#bbb)"><path d="M18 0H0v14h18V0Z"/><path fill-rule="evenodd" clip-rule="evenodd" d="M9.001 9.801c1.42 0 2.572-1.253 2.572-2.8 0-1.546-1.152-2.8-2.572-2.8-1.42 0-2.571 1.254-2.571 2.8 0 1.547 1.151 2.8 2.571 2.8Z"/><path fill-rule="evenodd" clip-rule="evenodd" d="M7.95 12.003 9 10.298l1.049 1.705.265-2.031 1.625 1.04-.57-1.956 1.878.17-1.293-1.493 1.76-.734-1.76-.734 1.293-1.494-1.878.17.57-1.956-1.625 1.041-.265-2.032L8.998 3.7 7.95 1.994l-.265 2.032-1.625-1.04.57 1.956-1.878-.17 1.293 1.493-1.76.734 1.76.734-1.293 1.493 1.878-.17-.57 1.956 1.625-1.04.265 2.031ZM12 7c0 1.804-1.344 3.266-3 3.266-1.657 0-3-1.462-3-3.266s1.343-3.267 3-3.267c1.656 0 3 1.463 3 3.267ZM.855 1.167c0-.129.096-.233.215-.233h.428c.119 0 .215.104.215.233v.467c0 .128-.096.233-.215.233H1.07c-.119 0-.215-.105-.215-.233v-.467Zm0 1.867c0-.13.096-.234.215-.234h.428c.119 0 .215.105.215.234V3.5c0 .13-.096.234-.215.234H1.07c-.119 0-.215-.105-.215-.234v-.466Zm.215 1.633c-.119 0-.215.104-.215.233v.467c0 .129.096.233.215.233h.428c.119 0 .215-.104.215-.233V4.9c0-.129-.096-.233-.215-.233H1.07Zm-.215 2.1c0-.129.096-.233.215-.233h.428c.119 0 .215.104.215.233v.467c0 .128-.096.233-.215.233H1.07c-.119 0-.215-.105-.215-.233v-.467ZM1.07 8.4c-.119 0-.215.105-.215.234V9.1c0 .13.096.234.215.234h.428c.119 0 .215-.105.215-.234v-.466c0-.13-.096-.234-.215-.234H1.07Zm-.215 2.1c0-.129.096-.233.215-.233h.428c.119 0 .215.104.215.233v.467c0 .129-.096.233-.215.233H1.07c-.119 0-.215-.104-.215-.233V10.5Zm.215 1.634c-.119 0-.215.104-.215.233v.467c0 .128.096.233.215.233h.428c.119 0 .215-.105.215-.233v-.467c0-.129-.096-.233-.215-.233H1.07Zm.643-.7c0-.13.096-.234.214-.234h.428c.119 0 .215.105.215.234v.466c0 .13-.096.234-.215.234h-.428c-.118 0-.214-.105-.214-.234v-.466Zm.214-2.1c-.118 0-.214.104-.214.233v.467c0 .128.096.233.214.233h.428c.119 0 .215-.105.215-.233v-.467c0-.129-.096-.233-.215-.233h-.428ZM1.713 7.7c0-.129.096-.233.214-.233h.428c.119 0 .215.104.215.233v.467c0 .129-.096.233-.215.233h-.428c-.118 0-.214-.104-.214-.233V7.7Zm.214-2.1c-.118 0-.214.105-.214.234V6.3c0 .13.096.234.214.234h.428c.119 0 .215-.105.215-.234v-.466c0-.13-.096-.234-.215-.234h-.428Zm-.214-1.633c0-.129.096-.233.214-.233h.428c.119 0 .215.104.215.233v.467c0 .128-.096.233-.215.233h-.428c-.118 0-.214-.105-.214-.233v-.467Zm.214-2.1c-.118 0-.214.104-.214.233v.467c0 .129.096.233.214.233h.428c.119 0 .215-.104.215-.233V2.1c0-.129-.096-.233-.215-.233h-.428Z"/></g></g></svg><svg viewBox="0 0 12 12" id="list" xmlns="http://www.w3.org/2000/svg"><path fill-rule="evenodd" clip-rule="evenodd" d="M1.867 1.869A1.6 1.6 0 0 1 2.998 1.4h6a1.6 1.6 0 0 1 1.6 1.6v6a1.6 1.6 0 0 1-1.6 1.6h-6a1.6 1.6 0 0 1-1.6-1.6V3a1.6 1.6 0 0 1 .47-1.131Zm1.131.731a.4.4 0 0 0-.4.4v6a.4.4 0 0 0 .4.4h6a.4.4 0 0 0 .4-.4V3a.4.4 0 0 0-.4-.4h-6Zm1.9 1.4a.6.6 0 0 1 .6-.6h2.5a.6.6 0 0 1 0 1.2h-2.5a.6.6 0 0 1-.6-.6Zm0 2a.6.6 0 0 1 .6-.6h2.5a.6.6 0 0 1 0 1.2h-2.5a.6.6 0 0 1-.6-.6Zm0 2a.6.6 0 0 1 .6-.6h2.5a.6.6 0 0 1 0 1.2h-2.5a.6.6 0 0 1-.6-.6Z"/></svg><svg viewBox="0 0 16 16" id="location" xmlns="http://www.w3.org/2000/svg"><g clip-path="url(#bda)"><path d="m8.002 13.934 3.3-3.3a4.666 4.666 0 1 0-6.6 0l3.3 3.3Zm0 1.885-4.243-4.243a6 6 0 1 1 8.485 0L8.002 15.82Zm0-7.152a1.333 1.333 0 1 0 0-2.667 1.333 1.333 0 0 0 0 2.667Zm0 1.333a2.667 2.667 0 1 1 0-5.333 2.667 2.667 0 0 1 0 5.333Z"/><path fill-rule="evenodd" clip-rule="evenodd" d="M8.002 1.484a5.85 5.85 0 0 0-4.137 9.986l4.137 4.137 4.136-4.137a5.85 5.85 0 0 0-4.136-9.986Zm-3.417.736a6.15 6.15 0 0 1 7.765 9.462l-4.348 4.349-4.35-4.349a6.15 6.15 0 0 1 .933-9.462Zm.74 1.109a4.817 4.817 0 0 1 6.083 7.41l-3.406 3.407-3.407-3.406a4.817 4.817 0 0 1 .73-7.411Zm2.677-.512a4.517 4.517 0 0 0-3.194 7.71l3.194 3.194 3.193-3.194a4.517 4.517 0 0 0-3.193-7.71Zm0 2a2.517 2.517 0 1 0 0 5.033 2.517 2.517 0 0 0 0-5.033Zm-1.992.525a2.817 2.817 0 1 1 3.983 3.983A2.817 2.817 0 0 1 6.01 5.342Zm.943.943A1.483 1.483 0 1 1 9.05 8.382a1.483 1.483 0 0 1-2.097-2.097Zm1.049-.135a1.183 1.183 0 1 0 0 2.367 1.183 1.183 0 0 0 0-2.367Z"/></g><defs><clipPath id="bda"><path d="M0 0h16v16H0z"/></clipPath></defs></svg><svg viewBox="0 0 14 14" id="lock" xmlns="http://www.w3.org/2000/svg"><path fill-rule="evenodd" clip-rule="evenodd" d="M2.917 7.072a.51.51 0 0 0-.51.51v4.084c0 .282.228.51.51.51h8.166a.51.51 0 0 0 .51-.51V7.583a.51.51 0 0 0-.51-.51H2.917Zm-1.823.51c0-1.006.816-1.822 1.823-1.822h8.166c1.007 0 1.823.816 1.823 1.823v4.083a1.823 1.823 0 0 1-1.823 1.823H2.917a1.823 1.823 0 0 1-1.823-1.823V7.583Z"/><path fill-rule="evenodd" clip-rule="evenodd" d="M7 1.822a2.26 2.26 0 0 0-2.26 2.26v2.334a.656.656 0 0 1-1.313 0V4.083a3.573 3.573 0 1 1 7.146 0v2.333a.656.656 0 1 1-1.313 0V4.083A2.26 2.26 0 0 0 7 1.823Z"/></svg><svg viewBox="0 0 14 14" id="lock-alert" xmlns="http://www.w3.org/2000/svg"><path fill-rule="evenodd" clip-rule="evenodd" d="M2.917 7.072a.51.51 0 0 0-.51.51v4.084c0 .282.228.51.51.51h8.166a.51.51 0 0 0 .51-.51V7.583a.51.51 0 0 0-.51-.51H2.917Zm-1.823.51c0-1.006.816-1.822 1.823-1.822h8.166c1.007 0 1.823.816 1.823 1.823v4.083a1.823 1.823 0 0 1-1.823 1.823H2.917a1.823 1.823 0 0 1-1.823-1.823V7.583Z"/><path fill-rule="evenodd" clip-rule="evenodd" d="M7 1.822a2.26 2.26 0 0 0-2.26 2.26v2.334a.656.656 0 0 1-1.313 0V4.083a3.573 3.573 0 1 1 7.146 0v2.333a.656.656 0 1 1-1.313 0V4.083A2.26 2.26 0 0 0 7 1.823Z"/></svg><svg viewBox="0 0 16 16" id="mail" xmlns="http://www.w3.org/2000/svg"><path fill-rule="evenodd" clip-rule="evenodd" d="M3.334 5.033a.633.633 0 0 0-.633.633v6.667a.633.633 0 0 0 .633.633h9.334a.633.633 0 0 0 .633-.633V5.666a.634.634 0 0 0-.633-.633H3.334Zm-1.438-.805a2.033 2.033 0 0 1 1.438-.595h9.334A2.033 2.033 0 0 1 14.7 5.666v6.667a2.033 2.033 0 0 1-2.034 2.033H3.335a2.033 2.033 0 0 1-2.033-2.033V5.666c0-.54.214-1.056.595-1.438Z"/><path fill-rule="evenodd" clip-rule="evenodd" d="M1.418 5.278a.7.7 0 0 1 .971-.194l5.612 3.74 5.612-3.74a.7.7 0 1 1 .776 1.165l-6 4a.7.7 0 0 1-.776 0l-6-4a.7.7 0 0 1-.195-.971Z"/></svg><svg viewBox="0 0 12 12" id="pencil" xmlns="http://www.w3.org/2000/svg"><path d="M10.788 3.306 8.693 1.212a.937.937 0 0 0-1.325 0l-5.78 5.78a.931.931 0 0 0-.276.663V9.75a.937.937 0 0 0 .938.937h2.095a.929.929 0 0 0 .663-.274l3.724-3.725.195.651L7.29 8.977a.563.563 0 0 0 .797.797l1.875-1.875a.562.562 0 0 0 .14-.56l-.465-1.553 1.152-1.153a.938.938 0 0 0 0-1.327ZM3.047 7.125l3.328-3.328 1.828 1.828-3.328 3.328-1.828-1.828Zm-.61.984 1.454 1.453H2.437V8.11ZM9 4.828 7.172 3l.86-.86L9.86 3.968l-.86.86Z"/></svg><svg viewBox="0 0 18 18" id="phone" xmlns="http://www.w3.org/2000/svg"><path fill-rule="evenodd" clip-rule="evenodd" d="M11.302 3.844a8.343 8.343 0 0 1-.346 1.676l.764.764a.844.844 0 0 1 .164.961 9.881 9.881 0 0 1-4.639 4.64.844.844 0 0 1-.961-.165l-.764-.764a8.347 8.347 0 0 1-1.676.345V12c0 1.27.992 2.047 1.917 1.812a11.177 11.177 0 0 0 8.05-8.05c.236-.925-.543-1.918-1.811-1.918h-.698Zm4.154 2.294a12.866 12.866 0 0 1-9.277 9.308v.001C3.891 16.03 2.155 14.046 2.155 12v-.75c0-.899.719-1.548 1.51-1.627a6.66 6.66 0 0 0 1.768-.425.844.844 0 0 1 .904.189l.7.701a8.195 8.195 0 0 0 3.05-3.05l-.701-.7a.844.844 0 0 1-.19-.905 6.657 6.657 0 0 0 .427-1.768c.078-.793.729-1.509 1.626-1.509H12c2.032 0 4.005 1.716 3.456 3.982Z"/></svg><svg viewBox="0 0 50 50" id="play" xmlns="http://www.w3.org/2000/svg"><path d="M10.938 10.84v28.32c0 1.703 1.66 2.785 3.027 1.969l24.209-14.49c1.183-.708 1.183-2.57 0-3.279L13.964 8.87c-1.366-.816-3.027.267-3.027 1.97Z"/></svg><svg viewBox="0 0 50 50" id="play-light" xmlns="http://www.w3.org/2000/svg"><path d="M10.938 10.84v28.32c0 1.703 1.66 2.785 3.027 1.969l24.209-14.49c1.183-.708 1.183-2.57 0-3.279L13.964 8.87c-1.366-.816-3.027.267-3.027 1.97Z"/></svg><svg viewBox="0 0 16 16" id="remove" xmlns="http://www.w3.org/2000/svg"><path d="M6.667 4h2.666a1.333 1.333 0 1 0-2.666 0ZM5.333 4a2.667 2.667 0 1 1 5.334 0H14a.667.667 0 1 1 0 1.333h-.588l-.59 6.893a2.667 2.667 0 0 1-2.658 2.44H5.836a2.667 2.667 0 0 1-2.657-2.44l-.591-6.893H2A.667.667 0 0 1 2 4h3.333ZM10 8a.667.667 0 0 0-1.333 0v2.666a.666.666 0 1 0 1.333 0V8Zm-3.333-.667A.667.667 0 0 1 7.333 8v2.666a.666.666 0 1 1-1.333 0V8a.667.667 0 0 1 .667-.667Zm-2.16 4.78a1.333 1.333 0 0 0 1.329 1.22h4.328a1.333 1.333 0 0 0 1.328-1.22l.581-6.78H3.927l.58 6.78Z"/></svg><svg viewBox="0 0 16 16" id="remove-accent" xmlns="http://www.w3.org/2000/svg"><path d="M6.667 4h2.666a1.333 1.333 0 1 0-2.666 0ZM5.333 4a2.667 2.667 0 1 1 5.334 0H14a.667.667 0 1 1 0 1.333h-.588l-.59 6.893a2.667 2.667 0 0 1-2.658 2.44H5.836a2.667 2.667 0 0 1-2.657-2.44l-.591-6.893H2A.667.667 0 0 1 2 4h3.333ZM10 8a.667.667 0 0 0-1.333 0v2.666a.666.666 0 1 0 1.333 0V8Zm-3.333-.667A.667.667 0 0 1 7.333 8v2.666a.666.666 0 1 1-1.333 0V8a.667.667 0 0 1 .667-.667Zm-2.16 4.78a1.333 1.333 0 0 0 1.329 1.22h4.328a1.333 1.333 0 0 0 1.328-1.22l.581-6.78H3.927l.58 6.78Z"/></svg><svg viewBox="0 0 18 14" id="ru" xmlns="http://www.w3.org/2000/svg"><rect x=".25" y=".25" width="17.5" height="13.5" rx="1.75"/><mask id="bna" style="mask-type:luminance" maskUnits="userSpaceOnUse" x="0" y="0" width="18" height="14"><rect x=".25" y=".25" width="17.5" height="13.5" rx="1.75" stroke-width=".5"/></mask><g mask="url(#bna)" fill-rule="evenodd" clip-rule="evenodd"><path d="M0 9.333h18V4.666H0v4.667ZM0 14h18V9.335H0v4.667Z"/></g></svg><svg viewBox="0 0 14 14" id="rutube" xmlns="http://www.w3.org/2000/svg"><path d="M12 1.484c0 .82-.662 1.484-1.48 1.484-.817 0-1.48-.664-1.48-1.484S9.703 0 10.52 0C11.338 0 12 .664 12 1.484ZM1.148 2.968h5.038c.694 0 1.296.122 1.807.366.51.245.903.606 1.179 1.084.28.474.42 1.057.42 1.75 0 .513-.1.979-.303 1.397a2.98 2.98 0 0 1-.82 1.054c-.35.28-.755.471-1.214.576l-.297.12H1.7l-.014-.786h4.693c.524 0 .96-.11 1.31-.328.35-.22.612-.509.786-.867.18-.364.27-.753.27-1.167 0-.493-.1-.919-.297-1.278a1.95 1.95 0 0 0-.862-.837c-.382-.194-.849-.291-1.4-.291h-4.19v10.09h-.848V2.969Zm7.975 10.884-2.6-4.867.91-.007 2.594 4.776v.098h-.903Z"/><path fill-rule="evenodd" clip-rule="evenodd" d="M1 2.82h5.186c.711 0 1.336.125 1.87.38.537.257.952.639 1.243 1.143.297.502.441 1.112.441 1.824 0 .534-.105 1.022-.318 1.462a3.125 3.125 0 0 1-.86 1.105l-.001.001a3.07 3.07 0 0 1-.834.473l2.448 4.509V14h-1.14L6.61 9.463H2.144V14H1V2.82Zm1.144 6.346h4.308l-.174-.327 1.243-.01.063.115c.292-.105.555-.252.792-.44.331-.27.59-.603.78-1.002V7.5c.191-.397.288-.84.288-1.334 0-.672-.136-1.228-.4-1.673v-.001a2.497 2.497 0 0 0-1.115-1.025c-.487-.232-1.066-.351-1.743-.351h-4.89v10.586h.552v-4.24h-.294L1.535 8.38h.313V3.612h4.338c.568 0 1.06.1 1.467.308.407.207.717.507.925.898.211.385.314.837.314 1.35 0 .435-.094.846-.284 1.23a2.236 2.236 0 0 1-.84.928c-.379.238-.845.352-1.39.352H2.145v.488Zm-.296-.488v.488h-.003l-.008-.488h.011Zm.296-.297H6.38c.504 0 .911-.105 1.232-.306a1.94 1.94 0 0 0 .731-.807c.17-.343.254-.71.254-1.1 0-.474-.095-.874-.278-1.207l-.001-.002a1.803 1.803 0 0 0-.798-.775c-.356-.18-.798-.275-1.333-.275H2.144V8.38Zm4.875.749-.25.002.019.034h.141l.09-.036Zm-.072.333 2.265 4.24h.619L7.44 9.301a3.487 3.487 0 0 1-.142.036l-.312.126h-.04Z"/></svg><svg viewBox="0 0 24 24" id="sorting" xmlns="http://www.w3.org/2000/svg"><path d="M5.62 18.366 4.463 19.55V3.398a.927.927 0 0 0-.262-.648.884.884 0 0 0-.633-.269.884.884 0 0 0-.633.269.927.927 0 0 0-.262.648V19.55l-1.157-1.184a.884.884 0 0 0-1.254.01.927.927 0 0 0-.01 1.285l2.684 2.749a.885.885 0 0 0 .632.268.885.885 0 0 0 .633-.268l2.684-2.749a.928.928 0 0 0-.01-1.284.884.884 0 0 0-1.254-.011Zm4.063-2.101h10.738a.884.884 0 0 0 .633-.268.927.927 0 0 0 0-1.296.884.884 0 0 0-.633-.268H9.683a.884.884 0 0 0-.633.268.927.927 0 0 0 0 1.296.884.884 0 0 0 .633.268Zm13.422 3.665H9.683a.884.884 0 0 0-.633.268.927.927 0 0 0 0 1.296.884.884 0 0 0 .633.268h13.422a.884.884 0 0 0 .633-.268.927.927 0 0 0 0-1.296.884.884 0 0 0-.633-.268ZM9.683 10.768h8.053a.884.884 0 0 0 .633-.268.927.927 0 0 0 0-1.296.884.884 0 0 0-.633-.268H9.683a.884.884 0 0 0-.633.268.927.927 0 0 0 0 1.296.884.884 0 0 0 .633.268Zm0-5.497h4.474a.884.884 0 0 0 .633-.268.927.927 0 0 0 0-1.296.884.884 0 0 0-.633-.268H9.683a.884.884 0 0 0-.633.268.927.927 0 0 0 0 1.296.884.884 0 0 0 .633.268Z"/></svg><svg viewBox="0 0 14 14" id="tel" xmlns="http://www.w3.org/2000/svg"><path fill-rule="evenodd" clip-rule="evenodd" d="M8.79 2.99a6.49 6.49 0 0 1-.269 1.303l.595.594a.656.656 0 0 1 .127.748 7.685 7.685 0 0 1-3.608 3.608.656.656 0 0 1-.748-.128l-.593-.594a6.49 6.49 0 0 1-1.304.268v.544c0 .987.772 1.592 1.491 1.41a8.695 8.695 0 0 0 6.261-6.262c.183-.72-.422-1.492-1.409-1.492H8.79Zm3.232 1.784a10.006 10.006 0 0 1-7.215 7.24h-.002c-1.778.453-3.128-1.09-3.128-2.681V8.75c0-.7.559-1.204 1.174-1.266a5.18 5.18 0 0 0 1.375-.33.656.656 0 0 1 .704.147l.545.545a6.373 6.373 0 0 0 2.372-2.372L7.3 4.93a.656.656 0 0 1-.147-.704c.173-.441.284-.904.331-1.375.061-.617.567-1.173 1.265-1.173h.584c1.58 0 3.115 1.334 2.688 3.097Z"/></svg><svg viewBox="0 0 14 14" id="telegram" xmlns="http://www.w3.org/2000/svg"><path d="M12.112 2.001a1.362 1.362 0 0 0-.431.105h-.002c-.132.053-.757.322-1.708.729L6.563 4.3C4.118 5.35 1.714 6.385 1.714 6.385l.029-.011s-.166.055-.34.176a.953.953 0 0 0-.27.267.795.795 0 0 0-.128.523.95.95 0 0 0 .413.657c.157.114.307.167.307.167h.003l2.255.775c.1.331.686 2.297.827 2.75.083.27.164.44.265.568a.66.66 0 0 0 .175.166.453.453 0 0 0 .114.05l-.023-.006c.007.002.012.008.017.01.019.005.031.006.055.01a.752.752 0 0 0 .643-.116l.016-.013 1.331-1.237 2.231 1.747.05.022c.466.208.937.092 1.185-.112.251-.206.348-.47.348-.47l.017-.042 1.723-9.012c.05-.222.062-.43.008-.632a.847.847 0 0 0-.36-.494.85.85 0 0 0-.493-.127Zm-.047.966c-.002.03.004.026-.01.083v.006l-1.707 8.918c-.007.012-.02.04-.054.068-.036.03-.065.048-.215-.013L7.351 9.894l-1.648 1.533.346-2.256 4.458-4.24c.184-.175.122-.212.122-.212.013-.213-.277-.062-.277-.062L4.73 8.21l-.002-.009-2.694-.926v-.002l-.007-.001.014-.006.015-.007.014-.005 4.85-2.086a2357.33 2357.33 0 0 0 3.407-1.465 367.01 367.01 0 0 1 1.69-.72c.038-.016.02-.016.047-.016Z"/></svg><svg viewBox="0 0 12 12" id="update" xmlns="http://www.w3.org/2000/svg"><path d="M3.133 5.314C3.4 3.942 4.6 2.914 6 2.914c1 0 1.8.48 2.333 1.234l1.134-1.372C8.667 1.816 7.4 1.2 6 1.2c-2.333 0-4.267 1.783-4.6 4.115H0l2.333 2.742 2.334-2.742H3.133Zm6.534-1.372L7.333 6.685h1.534C8.533 8.056 7.4 9.085 6 9.085c-1 0-1.8-.48-2.333-1.234L2.533 9.153C3.333 10.183 4.6 10.8 6 10.8c2.333 0 4.267-1.783 4.6-4.114H12L9.667 3.942Z"/></svg><svg viewBox="0 0 14 14" id="whatsapp" xmlns="http://www.w3.org/2000/svg"><path fill-rule="evenodd" clip-rule="evenodd" d="M1.214 6.876C1.214 3.63 3.854 1 7.107 1c1.566 0 3.05.617 4.162 1.725 1.116 1.113 1.69 2.592 1.73 4.102l.001.011c0 3.248-2.639 5.876-5.893 5.876a6.01 6.01 0 0 1-2.649-.621L1 13l.911-3.361a5.937 5.937 0 0 1-.697-2.763Zm5.893-5.031c-2.79 0-5.048 2.253-5.048 5.031 0 .877.247 1.758.67 2.498l.088.152-.62 2.287 2.36-.62.144.076c.747.39 1.56.6 2.406.6 2.789 0 5.045-2.25 5.048-5.025-.037-1.31-.534-2.575-1.482-3.52a5.029 5.029 0 0 0-3.566-1.48ZM5.353 4.782h-.197a1.956 1.956 0 0 0-.058 0c-.03.04-.056.07-.08.1-.051.06-.094.11-.148.206-.068.123-.133.3-.133.568 0 .248.092.512.21.74.114.218.227.356.239.37v.002l.03.03.023.034.008.01c.114.173.922 1.39 2.137 1.894l.013.006.013.006c.191.096.344.15.495.203.069.024.137.049.21.077.237.055.474.053.644.025l.01-.002c.049-.007.19-.057.345-.159.071-.047.132-.096.177-.142a.454.454 0 0 0 .048-.056l.013-.022c.04-.108.06-.207.068-.285a40.49 40.49 0 0 0-.053-.027l-.023-.011-.022-.015a14.107 14.107 0 0 0-.723-.366 4.262 4.262 0 0 1-.39.466.664.664 0 0 1-.34.191.7.7 0 0 1-.453-.074 4.464 4.464 0 0 1-1.195-.743l-.005-.004-.004-.005a4.225 4.225 0 0 1-.85-1.057.556.556 0 0 1-.038-.53c.054-.118.147-.209.178-.24h.001a.665.665 0 0 0 .032-.04l.02-.026c.033-.043.086-.11.145-.168a.205.205 0 0 0 .034-.044 14.802 14.802 0 0 1-.242-.576 27.92 27.92 0 0 0-.139-.336Zm.384-.793c.19.086.304.254.38.432.042.095.101.241.162.39a79.67 79.67 0 0 0 .193.466l.021.047.004.005.031.061a.665.665 0 0 1 0 .608l-.004.008c-.039.077-.103.205-.228.33a1.047 1.047 0 0 0-.09.108l-.022.03c.107.167.309.44.59.695.403.344.719.488.916.578h.003c.03-.033.065-.074.102-.119.088-.107.145-.188.159-.217.04-.081.1-.165.19-.231a.566.566 0 0 1 .288-.11.815.815 0 0 1 .33.05l.008.004c.058.019.147.06.223.095a14.434 14.434 0 0 1 .77.394c.065.033.125.063.174.09a.82.82 0 0 1 .184.133l.071.07.032.095c.044.132.051.29.04.44-.013.157-.05.34-.122.529-.106.283-.365.498-.565.629-.207.136-.465.256-.684.288a2.567 2.567 0 0 1-1.008-.046l-.028-.007-.026-.01a3.511 3.511 0 0 0-.147-.054 5.929 5.929 0 0 1-.637-.26C5.618 8.912 4.7 7.55 4.554 7.328a2.987 2.987 0 0 1-.356-.542c-.15-.287-.306-.69-.306-1.13 0-.419.107-.737.24-.976a2.608 2.608 0 0 1 .304-.421c.243-.323.586-.322.708-.321h.28c-.055 0 .15-.022.313.052Z"/></svg><svg viewBox="0 0 14 14" id="youtube" xmlns="http://www.w3.org/2000/svg"><path fill-rule="evenodd" clip-rule="evenodd" d="M13.955 5.383v.049a6.853 6.853 0 0 0 .024.513c.01.145.021.313.021.474v2.173c0 .269 0 .62-.045 1.025a4.73 4.73 0 0 1-.16 1.235 2.74 2.74 0 0 1-.697 1.264 2.364 2.364 0 0 1-1.359.686h-.006C10.677 12.955 9.05 13 7 13c-2.054 0-3.631-.046-4.728-.196l-.011-.002a2.372 2.372 0 0 1-1.332-.658c-.426-.385-.617-.839-.728-1.305l-.01-.04-.005-.04c-.045-.335-.09-.716-.135-1.089l-.006-.053v-.049a6.896 6.896 0 0 0-.023-.513A7.057 7.057 0 0 1 0 8.581V6.408c0-.269 0-.62.045-1.025.003-.461.055-.847.16-1.235.129-.534.39-.94.697-1.264a2.365 2.365 0 0 1 1.359-.686h.006C3.323 2.045 4.95 2 7 2c2.054 0 3.63.046 4.728.196l.011.002c.465.07.957.278 1.332.658.425.385.617.839.728 1.305l.01.04.005.04c.045.336.09.718.135 1.091l.006.051Zm-1.5-1.926a1.481 1.481 0 0 0-.85-.423c-1.028-.14-2.548-.188-4.605-.188-2.057 0-3.621.047-4.605.188a1.48 1.48 0 0 0-.85.423 1.9 1.9 0 0 0-.491.893A3.95 3.95 0 0 0 .92 5.432a8.02 8.02 0 0 0-.045.987V8.58c0 .131.01.272.02.423.012.175.025.363.025.564v.001c.044.376.09.752.134 1.08.09.377.223.659.492.894.223.235.536.376.85.423 1.027.14 2.547.188 4.604.188s3.621-.047 4.605-.188a1.48 1.48 0 0 0 .85-.423 1.9 1.9 0 0 0 .491-.893c.09-.33.134-.659.134-1.082.045-.376.045-.705.045-.987V6.42c0-.131-.01-.272-.02-.423a8.06 8.06 0 0 1-.025-.564c-.044-.376-.09-.753-.134-1.082-.09-.376-.223-.658-.492-.893Z"/><path fill-rule="evenodd" clip-rule="evenodd" d="M8.1 7.5 6.124 6.164v2.672L8.099 7.5Zm1.013.347a.415.415 0 0 0 0-.694L5.938 5.004c-.29-.196-.688.005-.688.347v4.298c0 .342.398.543.688.347l3.175-2.15Z"/></svg></svg>