<?xml version="1.0" encoding="utf-8"?><svg viewBox="0 0 368 474" xmlns="http://www.w3.org/2000/svg" xmlns:xlink="http://www.w3.org/1999/xlink"><style>:root>svg{display:none}:root>svg:target{display:block}</style><svg viewBox="0 0 12 18" id="arrow" xmlns="http://www.w3.org/2000/svg"><path fill-rule="evenodd" clip-rule="evenodd" d="M9.722 9.667 4.344 15 3 13.667 7.705 9 3 4.333 4.344 3l5.378 5.333a.939.939 0 0 1 0 1.334Z"/></svg><svg viewBox="0 0 12 12" id="arrow-btn" xmlns="http://www.w3.org/2000/svg"><g clip-path="url(#aba)"><path d="M1.5 6h9m0 0-4.25 4.25M10.5 6 6.25 1.75"/></g><defs><clipPath id="aba"><path transform="rotate(90 6 6)" d="M0 0h12v12H0z"/></clipPath></defs></svg><svg viewBox="0 0 20 20" id="arrow-btn-light" xmlns="http://www.w3.org/2000/svg"><path d="M2.5 10h15m0 0-7.083 7.083M17.5 10l-7.083-7.083"/></svg><svg viewBox="0 0 18 14" id="by" xmlns="http://www.w3.org/2000/svg"><mask id="ada" style="mask-type:luminance" maskUnits="userSpaceOnUse" x="0" y="0" width="18" height="14"><path d="M16.714 0H1.286C.576 0 0 .627 0 1.4v11.2c0 .773.576 1.4 1.286 1.4h15.428c.71 0 1.286-.627 1.286-1.4V1.4c0-.773-.576-1.4-1.286-1.4Z"/></mask><g mask="url(#ada)"><path d="M16.714 0H1.286C.576 0 0 .627 0 1.4v11.2c0 .773.576 1.4 1.286 1.4h15.428c.71 0 1.286-.627 1.286-1.4V1.4c0-.773-.576-1.4-1.286-1.4Z"/><mask id="adb" style="mask-type:alpha" maskUnits="userSpaceOnUse" x="0" y="0" width="18" height="14"><path d="M16.714 0H1.286C.576 0 0 .627 0 1.4v11.2c0 .773.576 1.4 1.286 1.4h15.428c.71 0 1.286-.627 1.286-1.4V1.4c0-.773-.576-1.4-1.286-1.4Z"/></mask><g mask="url(#adb)" fill-rule="evenodd" clip-rule="evenodd"><path d="M0 9.333h18V0H0v9.333ZM0 14h18V9.335H0v4.667Z"/><path d="M0 0h2.571v2.1l-.428.7.428.7v1.4l-.428.7.428.7v1.4l-.428.7.428.7v1.4l-.428.7.428.7V14H0V0Z"/><path d="m-.428 1.398-.857 1.4.857 1.4-.857 1.4.857 1.4-.857 1.4.857 1.4-.857 1.4.857 1.4.857-1.4-.857-1.4.857-1.4-.857-1.4.857-1.4-.857-1.4.857-1.4-.857-1.4ZM.43 1.4 1.287 0l.857 1.4-.857 1.4L.43 1.4Zm.857 4.2L.43 4.2l.857-1.4.857 1.4-.857 1.4Zm0 2.8L.43 7l.857-1.4.857 1.4-.857 1.4Zm0 2.8.857-1.4-.857-1.4L.43 9.8l.857 1.4Zm0 0 .857 1.4-.857 1.4-.857-1.4.857-1.4Z"/></g></g></svg><svg viewBox="0 0 16 16" id="calendar" xmlns="http://www.w3.org/2000/svg"><path d="M4 7.332a.667.667 0 1 1 1.334 0 .667.667 0 0 1-1.333 0Zm.667 2a.667.667 0 1 0 0 1.333.667.667 0 0 0 0-1.333Zm2-2a.667.667 0 1 1 1.334 0 .667.667 0 0 1-1.334 0Zm.667 2a.667.667 0 1 0 0 1.333.667.667 0 0 0 0-1.333Zm2-2a.667.667 0 1 1 1.333 0 .667.667 0 0 1-1.333 0Zm-8-2.667a3.333 3.333 0 0 1 3.333-3.333h6.667a3.333 3.333 0 0 1 3.333 3.333v6.667a3.334 3.334 0 0 1-3.333 3.333H4.667a3.333 3.333 0 0 1-3.333-3.333V4.665Zm3.333-2A2 2 0 0 0 2.781 4h10.44a2 2 0 0 0-1.887-1.334H4.667Zm8.667 2.667H2.667v6a2 2 0 0 0 2 2h6.667a2 2 0 0 0 2-2v-6Z"/></svg><svg viewBox="0 0 14 14" id="check" xmlns="http://www.w3.org/2000/svg"><g clip-path="url(#afa)"><path d="M11.957.82 5.543 9.278 1.75 5.488 0 7.238l5.832 5.832L14 2.57 11.957.82Z"/></g><defs><clipPath id="afa"><path d="M0 0h14v14H0z"/></clipPath></defs></svg><svg viewBox="0 0 16 16" id="clock" xmlns="http://www.w3.org/2000/svg"><g clip-path="url(#aga)"><path d="M7.998 15a7 7 0 1 1 0-14 7 7 0 0 1 0 14Zm0-1.4a5.6 5.6 0 1 0 0-11.2 5.6 5.6 0 0 0 0 11.2Zm-.7-5.313V3.8h1.4v3.913l2.765 2.765-.987.987-3.178-3.178Z"/><path fill-rule="evenodd" clip-rule="evenodd" d="M7.998 1.1a6.9 6.9 0 1 0 0 13.8 6.9 6.9 0 0 0 0-13.8Zm-5.02 1.88a7.1 7.1 0 1 1 10.04 10.04A7.1 7.1 0 0 1 2.979 2.98Zm.99.99a5.7 5.7 0 1 1 8.06 8.06 5.7 5.7 0 0 1-8.06-8.06Zm4.03-1.47a5.5 5.5 0 1 0 0 11 5.5 5.5 0 0 0 0-11Zm-.8 1.2h1.6v3.972l2.807 2.806-1.129 1.129-3.278-3.278V3.7Zm.2.2v4.346l3.078 3.078.846-.846-2.724-2.723V3.9h-1.2Z"/></g><defs><clipPath id="aga"><path d="M0 0h16v16H0z"/></clipPath></defs></svg><svg viewBox="0 0 24 24" id="close" xmlns="http://www.w3.org/2000/svg"><path d="M4.348 4.379 19.54 19.573m-15.192-.001L19.54 4.38"/></svg><svg viewBox="0 0 24 24" id="close-light" xmlns="http://www.w3.org/2000/svg"><path d="M4.346 4.378 19.54 19.572m-15.193-.001L19.54 4.378"/></svg><svg viewBox="0 0 14 14" id="date" xmlns="http://www.w3.org/2000/svg"><path fill-rule="evenodd" clip-rule="evenodd" d="M4.594 5.81a.656.656 0 0 1-.657-.657V4.5a1.313 1.313 0 0 0-1.312 1.312v.875h8.75v-.875A1.313 1.313 0 0 0 10.062 4.5v.656a.656.656 0 0 1-1.312 0V4.5h-3.5v.653a.656.656 0 0 1-.656.657ZM8.75 3.187h-3.5V2.53a.656.656 0 1 0-1.313 0v.658a2.625 2.625 0 0 0-2.624 2.625v5.25a2.625 2.625 0 0 0 2.625 2.625h6.124a2.625 2.625 0 0 0 2.626-2.625v-5.25a2.625 2.625 0 0 0-2.626-2.625v-.656a.656.656 0 1 0-1.312 0v.656ZM2.625 8v3.062a1.313 1.313 0 0 0 1.313 1.313h6.124a1.313 1.313 0 0 0 1.313-1.313V8h-8.75Z"/></svg><svg viewBox="0 0 12 12" id="email" xmlns="http://www.w3.org/2000/svg"><path fill-rule="evenodd" clip-rule="evenodd" d="M2.5 3.775a.475.475 0 0 0-.475.475v5a.475.475 0 0 0 .475.475h7a.475.475 0 0 0 .475-.475v-5a.475.475 0 0 0-.475-.475h-7ZM1.42 3.17a1.525 1.525 0 0 1 1.08-.445h7a1.525 1.525 0 0 1 1.525 1.525v5A1.525 1.525 0 0 1 9.5 10.775h-7A1.525 1.525 0 0 1 .975 9.25v-5c0-.405.16-.793.446-1.079Z"/><path fill-rule="evenodd" clip-rule="evenodd" d="M1.063 3.958a.525.525 0 0 1 .728-.145L6 6.619l4.208-2.806a.525.525 0 0 1 .583.873l-4.5 3a.525.525 0 0 1-.583 0l-4.5-3a.525.525 0 0 1-.145-.728Z"/></svg><svg viewBox="0 0 24 24" id="filter" xmlns="http://www.w3.org/2000/svg"><g clip-path="url(#ala)"><path d="M.75 4.23h11.419a3.499 3.499 0 0 0 3.412 2.743 3.499 3.499 0 0 0 3.41-2.742h4.259a.75.75 0 0 0 0-1.5h-4.259a3.502 3.502 0 0 0-3.41-2.743 3.501 3.501 0 0 0-3.412 2.743H.75a.75.75 0 0 0 0 1.5Zm12.838-.747v-.008a1.996 1.996 0 0 1 1.993-1.987c1.093 0 1.987.89 1.992 1.985v.011a1.995 1.995 0 0 1-1.992 1.99 1.995 1.995 0 0 1-1.993-1.988v-.003Zm9.662 16.286h-4.259a3.502 3.502 0 0 0-3.41-2.742 3.501 3.501 0 0 0-3.412 2.742H.75a.75.75 0 1 0 0 1.5h11.419a3.499 3.499 0 0 0 3.412 2.743 3.499 3.499 0 0 0 3.41-2.743h4.259a.75.75 0 0 0 0-1.5Zm-7.67 2.743a1.995 1.995 0 0 1-1.992-1.988v-.011a1.996 1.996 0 0 1 1.993-1.987c1.093 0 1.987.89 1.992 1.985v.011a1.995 1.995 0 0 1-1.992 1.99Zm7.67-11.262H11.831A3.499 3.499 0 0 0 8.42 8.507a3.499 3.499 0 0 0-3.412 2.743H.75a.75.75 0 0 0 0 1.5h4.258a3.502 3.502 0 0 0 3.412 2.742 3.501 3.501 0 0 0 3.41-2.742h11.42a.75.75 0 0 0 0-1.5Zm-12.838.748v.008a1.996 1.996 0 0 1-1.992 1.986 1.997 1.997 0 0 1-1.993-1.984v-.011a1.995 1.995 0 0 1 1.993-1.99c1.097 0 1.99.892 1.992 1.988v.003Z"/></g><defs><clipPath id="ala"><path d="M0 0h24v24H0z"/></clipPath></defs></svg><svg viewBox="0 0 24 24" id="grid-1x1" xmlns="http://www.w3.org/2000/svg"><g clip-path="url(#ama)"><path d="M23.13 0H.92A.92.92 0 0 0 0 .92v9.21a.92.92 0 0 0 .92.92h22.21a.92.92 0 0 0 .92-.92V.92a.92.92 0 0 0-.92-.92Zm-.921 9.209H1.842V1.842h20.367v7.367Zm.92 3.684H.922a.92.92 0 0 0-.921.92v9.21a.921.921 0 0 0 .92.92h22.21a.92.92 0 0 0 .92-.92v-9.21a.92.92 0 0 0-.92-.92Zm-.92 9.209H1.842v-7.367h20.367v7.367Z"/></g><defs><clipPath id="ama"><path d="M0 0h24v24H0z"/></clipPath></defs></svg><svg viewBox="0 0 24 24" id="grid-2x2" xmlns="http://www.w3.org/2000/svg"><g clip-path="url(#ana)"><path d="M10.13 0H.92A.92.92 0 0 0 0 .92v9.21a.92.92 0 0 0 .92.92h9.21a.92.92 0 0 0 .92-.92V.92a.92.92 0 0 0-.92-.92Zm-.921 9.209H1.842V1.842h7.367v7.367Zm.92 3.684H.922a.92.92 0 0 0-.921.92v9.21a.921.921 0 0 0 .92.92h9.21a.92.92 0 0 0 .92-.92v-9.21a.92.92 0 0 0-.92-.92Zm-.92 9.209H1.842v-7.367h7.367v7.367Zm13.814-9.21h-9.21a.92.92 0 0 0-.92.922v9.209a.921.921 0 0 0 .92.92h9.21a.921.921 0 0 0 .92-.92v-9.21a.92.92 0 0 0-.92-.92Zm-.921 9.21h-7.367v-7.367h7.367v7.367Z"/><path fill-rule="evenodd" clip-rule="evenodd" d="M14.8 1.8v7.4h7.4V1.8h-7.4Zm-1-1.8a.8.8 0 0 0-.8.8v9.4a.8.8 0 0 0 .8.8h9.4a.8.8 0 0 0 .8-.8V.8a.8.8 0 0 0-.8-.8h-9.4Z"/></g><defs><clipPath id="ana"><path d="M0 0h24v24H0z"/></clipPath></defs></svg><svg viewBox="0 0 24 24" id="grid-3x3" xmlns="http://www.w3.org/2000/svg"><g clip-path="url(#aoa)" fill-rule="evenodd" clip-rule="evenodd"><path d="M1.8 1.8v2.4h2.4V1.8H1.8ZM.8 0a.8.8 0 0 0-.8.8v4.4a.8.8 0 0 0 .8.8h4.4a.8.8 0 0 0 .8-.8V.8a.8.8 0 0 0-.8-.8H.8Zm1 10.8v2.4h2.4v-2.4H1.8ZM.8 9a.8.8 0 0 0-.8.8v4.4a.8.8 0 0 0 .8.8h4.4a.8.8 0 0 0 .8-.8V9.8a.8.8 0 0 0-.8-.8H.8Zm1 10.8v2.4h2.4v-2.4H1.8ZM.8 18a.8.8 0 0 0-.8.8v4.4a.8.8 0 0 0 .8.8h4.4a.8.8 0 0 0 .8-.8v-4.4a.8.8 0 0 0-.8-.8H.8Zm10-16.2v2.4h2.4V1.8h-2.4ZM9.8 0a.8.8 0 0 0-.8.8v4.4a.8.8 0 0 0 .8.8h4.4a.8.8 0 0 0 .8-.8V.8a.8.8 0 0 0-.8-.8H9.8Zm1 10.8v2.4h2.4v-2.4h-2.4ZM9.8 9a.8.8 0 0 0-.8.8v4.4a.8.8 0 0 0 .8.8h4.4a.8.8 0 0 0 .8-.8V9.8a.8.8 0 0 0-.8-.8H9.8Zm1 10.8v2.4h2.4v-2.4h-2.4Zm-1-1.8a.8.8 0 0 0-.8.8v4.4a.8.8 0 0 0 .8.8h4.4a.8.8 0 0 0 .8-.8v-4.4a.8.8 0 0 0-.8-.8H9.8Zm10-16.2v2.4h2.4V1.8h-2.4Zm-1-1.8a.8.8 0 0 0-.8.8v4.4a.8.8 0 0 0 .8.8h4.4a.8.8 0 0 0 .8-.8V.8a.8.8 0 0 0-.8-.8h-4.4Zm1 10.8v2.4h2.4v-2.4h-2.4Zm-1-1.8a.8.8 0 0 0-.8.8v4.4a.8.8 0 0 0 .8.8h4.4a.8.8 0 0 0 .8-.8V9.8a.8.8 0 0 0-.8-.8h-4.4Zm1 10.8v2.4h2.4v-2.4h-2.4Zm-1-1.8a.8.8 0 0 0-.8.8v4.4a.8.8 0 0 0 .8.8h4.4a.8.8 0 0 0 .8-.8v-4.4a.8.8 0 0 0-.8-.8h-4.4Z"/></g><defs><clipPath id="aoa"><path d="M0 0h24v24H0z"/></clipPath></defs></svg><svg viewBox="0 0 24 24" id="grid-4x4" xmlns="http://www.w3.org/2000/svg"><path fill-rule="evenodd" clip-rule="evenodd" d="M1.5 1.5v2h2v-2h-2ZM.667 0A.667.667 0 0 0 0 .667v3.666C0 4.702.298 5 .667 5h3.666A.667.667 0 0 0 5 4.333V.667A.667.667 0 0 0 4.333 0H.667ZM1.5 7.5v2h2v-2h-2ZM.667 6A.667.667 0 0 0 0 6.667v3.666c0 .368.298.667.667.667h3.666A.667.667 0 0 0 5 10.333V6.667A.667.667 0 0 0 4.333 6H.667Zm.833 7.5v2h2v-2h-2ZM.667 12a.667.667 0 0 0-.667.667v3.666c0 .369.298.667.667.667h3.666A.667.667 0 0 0 5 16.333v-3.666A.667.667 0 0 0 4.333 12H.667Zm.833 7.5v2h2v-2h-2ZM.667 18a.667.667 0 0 0-.667.667v3.666c0 .369.298.667.667.667h3.666A.667.667 0 0 0 5 22.333v-3.666A.667.667 0 0 0 4.333 18H.667ZM7.5 1.5v2h2v-2h-2ZM6.667 0A.667.667 0 0 0 6 .667v3.666c0 .369.298.667.667.667h3.666A.667.667 0 0 0 11 4.333V.667A.667.667 0 0 0 10.333 0H6.667ZM7.5 7.5v2h2v-2h-2ZM6.667 6A.667.667 0 0 0 6 6.667v3.666c0 .368.298.667.667.667h3.666a.667.667 0 0 0 .667-.667V6.667A.667.667 0 0 0 10.333 6H6.667Zm.833 7.5v2h2v-2h-2ZM6.667 12a.667.667 0 0 0-.667.667v3.666c0 .369.298.667.667.667h3.666a.667.667 0 0 0 .667-.667v-3.666a.667.667 0 0 0-.667-.667H6.667Zm.833 7.5v2h2v-2h-2ZM6.667 18a.667.667 0 0 0-.667.667v3.666c0 .369.298.667.667.667h3.666a.667.667 0 0 0 .667-.667v-3.666a.667.667 0 0 0-.667-.667H6.667ZM13.5 1.5v2h2v-2h-2ZM12.667 0A.667.667 0 0 0 12 .667v3.666c0 .369.299.667.667.667h3.666A.667.667 0 0 0 17 4.333V.667A.667.667 0 0 0 16.333 0h-3.666Zm.833 7.5v2h2v-2h-2ZM12.667 6a.667.667 0 0 0-.667.667v3.666c0 .368.299.667.667.667h3.666a.667.667 0 0 0 .667-.667V6.667A.667.667 0 0 0 16.333 6h-3.666Zm.833 7.5v2h2v-2h-2Zm-.833-1.5a.667.667 0 0 0-.667.667v3.666c0 .369.299.667.667.667h3.666a.667.667 0 0 0 .667-.667v-3.666a.667.667 0 0 0-.667-.667h-3.666Zm.833 7.5v2h2v-2h-2Zm-.833-1.5a.667.667 0 0 0-.667.667v3.666c0 .369.299.667.667.667h3.666a.667.667 0 0 0 .667-.667v-3.666a.667.667 0 0 0-.667-.667h-3.666ZM19.5 1.5v2h2v-2h-2ZM18.667 0A.667.667 0 0 0 18 .667v3.666c0 .369.299.667.667.667h3.666A.667.667 0 0 0 23 4.333V.667A.667.667 0 0 0 22.333 0h-3.666Zm.833 7.5v2h2v-2h-2ZM18.667 6a.667.667 0 0 0-.667.667v3.666c0 .368.299.667.667.667h3.666a.667.667 0 0 0 .667-.667V6.667A.667.667 0 0 0 22.333 6h-3.666Zm.833 7.5v2h2v-2h-2Zm-.833-1.5a.667.667 0 0 0-.667.667v3.666c0 .369.299.667.667.667h3.666a.667.667 0 0 0 .667-.667v-3.666a.667.667 0 0 0-.667-.667h-3.666Zm.833 7.5v2h2v-2h-2Zm-.833-1.5a.667.667 0 0 0-.667.667v3.666c0 .369.299.667.667.667h3.666a.667.667 0 0 0 .667-.667v-3.666a.667.667 0 0 0-.667-.667h-3.666Z"/></svg><svg viewBox="0 0 12 12" id="home-line" xmlns="http://www.w3.org/2000/svg"><path d="M11 10.413a.604.604 0 0 1-.163.415.541.541 0 0 1-.393.172H1.556a.54.54 0 0 1-.393-.172.604.604 0 0 1-.163-.415V4.242c0-.09.02-.178.056-.259a.582.582 0 0 1 .158-.205L5.66.124a.537.537 0 0 1 .682 0l4.445 3.654a.603.603 0 0 1 .214.464v6.17Zm-1.111-.587V4.528L6 1.332 2.111 4.528v5.298H9.89Z"/></svg><svg viewBox="0 0 12 12" id="home-line-light" xmlns="http://www.w3.org/2000/svg"><path d="M11 10.413a.604.604 0 0 1-.163.415.541.541 0 0 1-.393.172H1.556a.54.54 0 0 1-.393-.172.604.604 0 0 1-.163-.415V4.242c0-.09.02-.178.056-.259a.582.582 0 0 1 .158-.205L5.66.124a.537.537 0 0 1 .682 0l4.445 3.654a.603.603 0 0 1 .214.464v6.17Zm-1.111-.587V4.528L6 1.332 2.111 4.528v5.298H9.89Z"/></svg><svg viewBox="0 0 24 24" id="icon-bag" xmlns="http://www.w3.org/2000/svg"><g clip-path="url(#asa)"><mask id="asb" style="mask-type:luminance" maskUnits="userSpaceOnUse" x="0" y="0" width="24" height="24"><path d="M24 0H0v24h24V0Z"/></mask><g mask="url(#asb)"><path d="M5 21V7h3.5v-.5c0-.972.34-1.798 1.021-2.479C10.201 3.341 11.028 3 12 3c.972 0 1.798.34 2.479 1.021.68.68 1.021 1.507 1.021 2.479V7H19v14H5Zm1-1h12V8h-2.5v3h-1V8h-5v3h-1V8H6v12ZM9.5 7h5v-.5c0-.704-.24-1.297-.722-1.778C13.297 4.241 12.704 4 12 4s-1.297.24-1.778.722C9.741 5.203 9.5 5.796 9.5 6.5V7Z"/></g></g><defs><clipPath id="asa"><path d="M0 0h24v24H0z"/></clipPath></defs></svg><svg viewBox="0 0 24 24" id="icon-heart" xmlns="http://www.w3.org/2000/svg"><path d="M4.24 12.25a4.2 4.2 0 0 1-1.24-3 4.25 4.25 0 0 1 7.94-2.11h1.12A4.24 4.24 0 0 1 15.75 5 4.25 4.25 0 0 1 20 9.25c0 1.17-.5 2.25-1.24 3L11.5 19.5l-7.26-7.25Zm15.22.71A5.247 5.247 0 0 0 15.75 4c-1.75 0-3.3.85-4.25 2.17A5.22 5.22 0 0 0 7.25 4 5.25 5.25 0 0 0 2 9.25c0 1.45.59 2.75 1.54 3.71l7.96 7.96 7.96-7.96Z"/></svg><svg viewBox="0 0 14 14" id="icon-minus" xmlns="http://www.w3.org/2000/svg"><path d="M0 6h14v2H0z"/></svg><svg viewBox="0 0 14 14" id="icon-minus-accent" xmlns="http://www.w3.org/2000/svg"><path d="M14 6H0v2h14V6Z"/></svg><svg viewBox="0 0 24 24" id="icon-phone" xmlns="http://www.w3.org/2000/svg"><path d="M19.5 22a1.5 1.5 0 0 0 1.5-1.5V17a1.5 1.5 0 0 0-1.5-1.5c-1.17 0-2.32-.18-3.42-.55a1.51 1.51 0 0 0-1.52.37l-1.44 1.44a14.77 14.77 0 0 1-5.89-5.89l1.43-1.43c.41-.39.56-.97.38-1.53-.36-1.09-.54-2.24-.54-3.41A1.5 1.5 0 0 0 7 3H3.5A1.5 1.5 0 0 0 2 4.5C2 14.15 9.85 22 19.5 22ZM3.5 4H7a.5.5 0 0 1 .5.5c0 1.28.2 2.53.59 3.72.05.14.04.34-.12.5L6 10.68c1.65 3.23 4.07 5.65 7.31 7.32l1.95-1.97c.14-.14.33-.18.51-.13 1.2.4 2.45.6 3.73.6a.5.5 0 0 1 .5.5v3.5a.5.5 0 0 1-.5.5C10.4 21 3 13.6 3 4.5a.5.5 0 0 1 .5-.5Z"/></svg><svg viewBox="0 0 14 14" id="icon-plus" xmlns="http://www.w3.org/2000/svg"><path fill-rule="evenodd" clip-rule="evenodd" d="M8 6V0H6v6H0v2h6v6h2V8h6V6H8Z"/></svg><svg viewBox="0 0 14 14" id="icon-plus-accent" xmlns="http://www.w3.org/2000/svg"><g clip-path="url(#axa)"><path fill-rule="evenodd" clip-rule="evenodd" d="M8 6V0H6v6H0v2h6v6h2V8h6V6H8Z"/></g><defs><clipPath id="axa"><path d="M0 0h14v14H0z"/></clipPath></defs></svg><svg viewBox="0 0 24 24" id="icon-search" xmlns="http://www.w3.org/2000/svg"><path d="m19.486 20.154-6.262-6.261c-.5.425-1.075.755-1.725.989-.65.233-1.304.35-1.96.35-1.602 0-2.957-.555-4.066-1.663-1.11-1.11-1.664-2.464-1.664-4.065 0-1.602.554-2.957 1.662-4.067C6.579 4.327 7.933 3.77 9.535 3.77c1.6-.002 2.957.553 4.068 1.664 1.11 1.11 1.666 2.466 1.666 4.067 0 .694-.123 1.367-.37 2.017a5.474 5.474 0 0 1-.97 1.667l6.263 6.261-.706.708ZM9.54 14.23c1.326 0 2.446-.456 3.36-1.37.913-.913 1.37-2.033 1.37-3.36 0-1.328-.457-2.448-1.37-3.36-.914-.913-2.034-1.37-3.36-1.37-1.327-.001-2.447.456-3.361 1.37-.914.914-1.371 2.034-1.37 3.36 0 1.325.457 2.445 1.37 3.36.912.914 2.032 1.37 3.36 1.37"/></svg><svg viewBox="0 0 24 24" id="icon-user" xmlns="http://www.w3.org/2000/svg"><path fill-rule="evenodd" clip-rule="evenodd" d="M8 14.5A3.5 3.5 0 0 0 4.5 18 1.5 1.5 0 0 0 6 19.5h12a1.5 1.5 0 0 0 1.5-1.5 3.5 3.5 0 0 0-3.5-3.5H8Zm-3.182.318A4.5 4.5 0 0 1 8 13.5h8a4.5 4.5 0 0 1 4.5 4.5 2.5 2.5 0 0 1-2.5 2.5H6a2.5 2.5 0 0 1-1.768-.732l.354-.354-.354.354A2.5 2.5 0 0 1 3.5 18a4.5 4.5 0 0 1 1.318-3.182l.354.354-.354-.354Zm0 0ZM8.5 7a3.5 3.5 0 1 1 7 0 3.5 3.5 0 0 1-7 0ZM12 4.5a2.5 2.5 0 1 0 0 5 2.5 2.5 0 0 0 0-5Z"/></svg><svg viewBox="0 0 20 20" id="info" xmlns="http://www.w3.org/2000/svg"><g clip-path="url(#bba)"><path d="M9 5h2v2H9V5Zm0 4h2v6H9V9Zm1-9C4.48 0 0 4.48 0 10s4.48 10 10 10 10-4.48 10-10S15.52 0 10 0Zm0 18c-4.41 0-8-3.59-8-8s3.59-8 8-8 8 3.59 8 8-3.59 8-8 8Z"/></g><defs><clipPath id="bba"><path d="M0 0h20v20H0z"/></clipPath></defs></svg><svg viewBox="0 0 18 14" id="kz" xmlns="http://www.w3.org/2000/svg"><mask id="bca" style="mask-type:luminance" maskUnits="userSpaceOnUse" x="0" y="0" width="18" height="14"><path d="M16.714 0H1.286C.576 0 0 .627 0 1.4v11.2c0 .773.576 1.4 1.286 1.4h15.428c.71 0 1.286-.627 1.286-1.4V1.4c0-.773-.576-1.4-1.286-1.4Z"/></mask><g mask="url(#bca)"><path d="M16.714 0H1.286C.576 0 0 .627 0 1.4v11.2c0 .773.576 1.4 1.286 1.4h15.428c.71 0 1.286-.627 1.286-1.4V1.4c0-.773-.576-1.4-1.286-1.4Z"/><mask id="bcb" style="mask-type:alpha" maskUnits="userSpaceOnUse" x="0" y="0" width="18" height="14"><path d="M16.714 0H1.286C.576 0 0 .627 0 1.4v11.2c0 .773.576 1.4 1.286 1.4h15.428c.71 0 1.286-.627 1.286-1.4V1.4c0-.773-.576-1.4-1.286-1.4Z"/></mask><g mask="url(#bcb)"><path d="M18 0H0v14h18V0Z"/><path fill-rule="evenodd" clip-rule="evenodd" d="M9.001 9.801c1.42 0 2.572-1.253 2.572-2.8 0-1.546-1.152-2.8-2.572-2.8-1.42 0-2.571 1.254-2.571 2.8 0 1.547 1.151 2.8 2.571 2.8Z"/><path fill-rule="evenodd" clip-rule="evenodd" d="M7.95 12.003 9 10.298l1.049 1.705.265-2.031 1.625 1.04-.57-1.956 1.878.17-1.293-1.493 1.76-.734-1.76-.734 1.293-1.494-1.878.17.57-1.956-1.625 1.041-.265-2.032L8.998 3.7 7.95 1.994l-.265 2.032-1.625-1.04.57 1.956-1.878-.17 1.293 1.493-1.76.734 1.76.734-1.293 1.493 1.878-.17-.57 1.956 1.625-1.04.265 2.031ZM12 7c0 1.804-1.344 3.266-3 3.266-1.657 0-3-1.462-3-3.266s1.343-3.267 3-3.267c1.656 0 3 1.463 3 3.267ZM.855 1.167c0-.129.096-.233.215-.233h.428c.119 0 .215.104.215.233v.467c0 .128-.096.233-.215.233H1.07c-.119 0-.215-.105-.215-.233v-.467Zm0 1.867c0-.13.096-.234.215-.234h.428c.119 0 .215.105.215.234V3.5c0 .13-.096.234-.215.234H1.07c-.119 0-.215-.105-.215-.234v-.466Zm.215 1.633c-.119 0-.215.104-.215.233v.467c0 .129.096.233.215.233h.428c.119 0 .215-.104.215-.233V4.9c0-.129-.096-.233-.215-.233H1.07Zm-.215 2.1c0-.129.096-.233.215-.233h.428c.119 0 .215.104.215.233v.467c0 .128-.096.233-.215.233H1.07c-.119 0-.215-.105-.215-.233v-.467ZM1.07 8.4c-.119 0-.215.105-.215.234V9.1c0 .13.096.234.215.234h.428c.119 0 .215-.105.215-.234v-.466c0-.13-.096-.234-.215-.234H1.07Zm-.215 2.1c0-.129.096-.233.215-.233h.428c.119 0 .215.104.215.233v.467c0 .129-.096.233-.215.233H1.07c-.119 0-.215-.104-.215-.233V10.5Zm.215 1.634c-.119 0-.215.104-.215.233v.467c0 .128.096.233.215.233h.428c.119 0 .215-.105.215-.233v-.467c0-.129-.096-.233-.215-.233H1.07Zm.643-.7c0-.13.096-.234.214-.234h.428c.119 0 .215.105.215.234v.466c0 .13-.096.234-.215.234h-.428c-.118 0-.214-.105-.214-.234v-.466Zm.214-2.1c-.118 0-.214.104-.214.233v.467c0 .128.096.233.214.233h.428c.119 0 .215-.105.215-.233v-.467c0-.129-.096-.233-.215-.233h-.428ZM1.713 7.7c0-.129.096-.233.214-.233h.428c.119 0 .215.104.215.233v.467c0 .129-.096.233-.215.233h-.428c-.118 0-.214-.104-.214-.233V7.7Zm.214-2.1c-.118 0-.214.105-.214.234V6.3c0 .13.096.234.214.234h.428c.119 0 .215-.105.215-.234v-.466c0-.13-.096-.234-.215-.234h-.428Zm-.214-1.633c0-.129.096-.233.214-.233h.428c.119 0 .215.104.215.233v.467c0 .128-.096.233-.215.233h-.428c-.118 0-.214-.105-.214-.233v-.467Zm.214-2.1c-.118 0-.214.104-.214.233v.467c0 .129.096.233.214.233h.428c.119 0 .215-.104.215-.233V2.1c0-.129-.096-.233-.215-.233h-.428Z"/></g></g></svg><svg viewBox="0 0 12 12" id="list" xmlns="http://www.w3.org/2000/svg"><path fill-rule="evenodd" clip-rule="evenodd" d="M1.867 1.869A1.6 1.6 0 0 1 2.998 1.4h6a1.6 1.6 0 0 1 1.6 1.6v6a1.6 1.6 0 0 1-1.6 1.6h-6a1.6 1.6 0 0 1-1.6-1.6V3a1.6 1.6 0 0 1 .47-1.131Zm1.131.731a.4.4 0 0 0-.4.4v6a.4.4 0 0 0 .4.4h6a.4.4 0 0 0 .4-.4V3a.4.4 0 0 0-.4-.4h-6Zm1.9 1.4a.6.6 0 0 1 .6-.6h2.5a.6.6 0 0 1 0 1.2h-2.5a.6.6 0 0 1-.6-.6Zm0 2a.6.6 0 0 1 .6-.6h2.5a.6.6 0 0 1 0 1.2h-2.5a.6.6 0 0 1-.6-.6Zm0 2a.6.6 0 0 1 .6-.6h2.5a.6.6 0 0 1 0 1.2h-2.5a.6.6 0 0 1-.6-.6Z"/></svg><svg viewBox="0 0 16 16" id="location" xmlns="http://www.w3.org/2000/svg"><g clip-path="url(#bea)"><path d="m8.002 13.934 3.3-3.3a4.666 4.666 0 1 0-6.6 0l3.3 3.3Zm0 1.885-4.243-4.243a6 6 0 1 1 8.485 0L8.002 15.82Zm0-7.152a1.333 1.333 0 1 0 0-2.667 1.333 1.333 0 0 0 0 2.667Zm0 1.333a2.667 2.667 0 1 1 0-5.333 2.667 2.667 0 0 1 0 5.333Z"/><path fill-rule="evenodd" clip-rule="evenodd" d="M8.002 1.484a5.85 5.85 0 0 0-4.137 9.986l4.137 4.137 4.136-4.137a5.85 5.85 0 0 0-4.136-9.986Zm-3.417.736a6.15 6.15 0 0 1 7.765 9.462l-4.348 4.349-4.35-4.349a6.15 6.15 0 0 1 .933-9.462Zm.74 1.109a4.817 4.817 0 0 1 6.083 7.41l-3.406 3.407-3.407-3.406a4.817 4.817 0 0 1 .73-7.411Zm2.677-.512a4.517 4.517 0 0 0-3.194 7.71l3.194 3.194 3.193-3.194a4.517 4.517 0 0 0-3.193-7.71Zm0 2a2.517 2.517 0 1 0 0 5.033 2.517 2.517 0 0 0 0-5.033Zm-1.992.525a2.817 2.817 0 1 1 3.983 3.983A2.817 2.817 0 0 1 6.01 5.342Zm.943.943A1.483 1.483 0 1 1 9.05 8.382a1.483 1.483 0 0 1-2.097-2.097Zm1.049-.135a1.183 1.183 0 1 0 0 2.367 1.183 1.183 0 0 0 0-2.367Z"/></g><defs><clipPath id="bea"><path d="M0 0h16v16H0z"/></clipPath></defs></svg><svg viewBox="0 0 14 14" id="lock" xmlns="http://www.w3.org/2000/svg"><path fill-rule="evenodd" clip-rule="evenodd" d="M2.917 7.072a.51.51 0 0 0-.51.51v4.084c0 .282.228.51.51.51h8.166a.51.51 0 0 0 .51-.51V7.583a.51.51 0 0 0-.51-.51H2.917Zm-1.823.51c0-1.006.816-1.822 1.823-1.822h8.166c1.007 0 1.823.816 1.823 1.823v4.083a1.823 1.823 0 0 1-1.823 1.823H2.917a1.823 1.823 0 0 1-1.823-1.823V7.583Z"/><path fill-rule="evenodd" clip-rule="evenodd" d="M7 1.822a2.26 2.26 0 0 0-2.26 2.26v2.334a.656.656 0 0 1-1.313 0V4.083a3.573 3.573 0 1 1 7.146 0v2.333a.656.656 0 1 1-1.313 0V4.083A2.26 2.26 0 0 0 7 1.823Z"/></svg><svg viewBox="0 0 14 14" id="lock-alert" xmlns="http://www.w3.org/2000/svg"><path fill-rule="evenodd" clip-rule="evenodd" d="M2.917 7.072a.51.51 0 0 0-.51.51v4.084c0 .282.228.51.51.51h8.166a.51.51 0 0 0 .51-.51V7.583a.51.51 0 0 0-.51-.51H2.917Zm-1.823.51c0-1.006.816-1.822 1.823-1.822h8.166c1.007 0 1.823.816 1.823 1.823v4.083a1.823 1.823 0 0 1-1.823 1.823H2.917a1.823 1.823 0 0 1-1.823-1.823V7.583Z"/><path fill-rule="evenodd" clip-rule="evenodd" d="M7 1.822a2.26 2.26 0 0 0-2.26 2.26v2.334a.656.656 0 0 1-1.313 0V4.083a3.573 3.573 0 1 1 7.146 0v2.333a.656.656 0 1 1-1.313 0V4.083A2.26 2.26 0 0 0 7 1.823Z"/></svg><svg viewBox="0 0 81 32" id="logo" xmlns="http://www.w3.org/2000/svg"><path d="M4.272 30.87a.738.738 0 0 1-.188.02c-.111 0-.188-.043-.229-.128a.939.939 0 0 1-.072-.343 10.027 10.027 0 0 1-.014-.466 2.882 2.882 0 0 0-.052-.508 1.292 1.292 0 0 0-.185-.468.949.949 0 0 0-.413-.343 1.632 1.632 0 0 0-.606-.124c.231-.016.439-.051.617-.107.253-.08.446-.208.58-.383.131-.175.199-.405.199-.69 0-.285-.071-.52-.213-.706a1.247 1.247 0 0 0-.595-.413 2.683 2.683 0 0 0-.892-.135H0v.128h.706v4.675H0v.129h2.15v-.129h-.706v-2.304h.696c.2 0 .358.035.473.104a.612.612 0 0 1 .247.282c.052.117.084.249.098.395.015.147.023.298.024.454.002.156.01.307.023.453.013.147.045.279.096.396a.61.61 0 0 0 .246.28c.113.069.269.103.468.103.147 0 .278-.012.394-.034a.863.863 0 0 0 .253-.076l-.047-.12a.483.483 0 0 1-.143.058Zm-2.11-4.664c.211 0 .39.043.534.129a.812.812 0 0 1 .331.377c.076.166.113.374.113.618 0 .246-.037.45-.113.616a.813.813 0 0 1-.33.375.945.945 0 0 1-.369.115h-.886v-2.232h.72v.002Zm4.615 0h.727v4.675h-.727v.128h2.248v-.128h-.79v-4.675h.79v-.127H6.777v.127Zm8.436 3.929a1.366 1.366 0 0 1-.76.683 1.635 1.635 0 0 1-.585.098c-.273 0-.505-.066-.693-.2a1.439 1.439 0 0 1-.453-.538 2.826 2.826 0 0 1-.248-.764 4.86 4.86 0 0 1-.077-.872c0-.297.026-.588.077-.871.052-.283.136-.537.248-.764.113-.227.265-.407.453-.539.188-.132.42-.2.693-.2a1.422 1.422 0 0 1 1.174.605c.137.194.22.42.254.68h.132v-1.377h-.114l-.394.355a1.555 1.555 0 0 0-.505-.31 1.683 1.683 0 0 0-.61-.11c-.457 0-.856.11-1.195.328-.34.219-.603.52-.791.9a2.912 2.912 0 0 0-.282 1.302c0 .487.093.92.281 1.302a2.2 2.2 0 0 0 .792.901c.339.219.738.328 1.196.328.247 0 .474-.04.681-.119a1.6 1.6 0 0 0 .53-.325l.363.378h.114v-1.378h-.132c-.024.183-.072.35-.15.507Zm5.597-3.929h.642v2.227h-2.058v-2.227h.638v-.127h-1.97v.127h.595v4.675h-.595v.128h1.97v-.128h-.638v-2.239h2.058v2.239h-.642v.128h1.966v-.128h-.591v-4.675h.591v-.127H20.81v.127ZM27.665 26h-.288l-1.725 4.88h-.53v.13h1.45v-.13h-.697l.492-1.41h1.691l.456 1.41h-.648v.13h2.008v-.13h-.513L27.665 26Zm-1.235 3.289.815-2.335.754 2.335h-1.57Zm39.578-3.287h-.287l-1.726 4.884h-.53v.128h1.45v-.128h-.696l.511-1.467h1.653l.474 1.466h-.648v.13h2.008v-.13h-.512l-1.697-4.884Zm-1.236 3.29.815-2.335.754 2.335h-1.569ZM36.493 30.87a.734.734 0 0 1-.186.02c-.113 0-.188-.043-.229-.128a.938.938 0 0 1-.072-.343 10.067 10.067 0 0 1-.014-.466 2.887 2.887 0 0 0-.052-.508 1.293 1.293 0 0 0-.185-.468.944.944 0 0 0-.411-.343 1.624 1.624 0 0 0-.606-.124 2.68 2.68 0 0 0 .615-.107c.253-.08.446-.208.58-.383.131-.175.199-.405.199-.69 0-.285-.071-.52-.213-.706a1.247 1.247 0 0 0-.595-.413 2.682 2.682 0 0 0-.892-.135h-2.207v.128h.705v4.675h-.705v.129h2.15v-.129h-.707v-2.304h.697c.2 0 .358.035.472.104a.62.62 0 0 1 .25.282c.05.117.083.249.097.395.015.147.023.298.025.454.001.156.01.307.022.453.013.147.045.279.097.396a.61.61 0 0 0 .246.28c.112.069.268.103.468.103.146 0 .278-.012.393-.034a.872.872 0 0 0 .253-.076l-.047-.12a.578.578 0 0 1-.148.058Zm-2.11-4.664c.211 0 .388.043.535.129a.812.812 0 0 1 .33.377c.076.166.113.374.113.618 0 .246-.037.45-.112.616a.813.813 0 0 1-.331.375.945.945 0 0 1-.354.114h-.9v-2.23h.72Zm7.814.193c-.358-.214-.786-.32-1.283-.32h-1.916v.128h.595v4.675h-.595v.129h1.916c.357 0 .684-.061.976-.183a2.244 2.244 0 0 0 1.255-1.3c.115-.3.171-.627.171-.982 0-.473-.096-.896-.29-1.268a2.18 2.18 0 0 0-.829-.88Zm.176 3.023c-.053.28-.14.53-.26.75a1.41 1.41 0 0 1-.473.519c-.197.127-.44.191-.729.191h-.585v-4.675h.585c.275 0 .508.065.703.192.193.127.352.3.474.52.122.218.214.469.272.748.06.28.09.573.09.878.002.303-.024.596-.077.877Zm18.631 1.443a.738.738 0 0 1-.188.02c-.111 0-.188-.043-.229-.128a.937.937 0 0 1-.072-.343 9.938 9.938 0 0 1-.014-.466 2.887 2.887 0 0 0-.052-.508 1.293 1.293 0 0 0-.185-.468.95.95 0 0 0-.413-.343 1.64 1.64 0 0 0-.608-.123 2.75 2.75 0 0 0 .618-.108c.252-.08.445-.208.579-.383.131-.175.199-.405.199-.69 0-.284-.07-.52-.212-.706a1.247 1.247 0 0 0-.595-.413 2.683 2.683 0 0 0-.892-.135h-2.21v.128h.708v4.675h-.708v.129h2.15v-.129h-.707V28.57h.696c.2 0 .36.035.473.104a.612.612 0 0 1 .247.282c.052.117.085.25.098.396.015.146.023.297.024.453.002.156.01.307.023.454.013.146.045.278.096.395a.61.61 0 0 0 .246.28c.113.069.269.103.468.103.146 0 .278-.011.394-.034a.866.866 0 0 0 .252-.076l-.046-.12a.428.428 0 0 1-.14.058Zm-2.11-4.664c.211 0 .39.043.534.129a.804.804 0 0 1 .332.378c.075.165.114.373.114.617 0 .246-.039.45-.114.616a.813.813 0 0 1-.332.375.97.97 0 0 1-.387.119h-.867V26.2h.72Zm21.973 3.324c-.006.21-.029.396-.066.563-.037.166-.1.309-.19.426a.838.838 0 0 1-.372.27 1.721 1.721 0 0 1-.62.094h-.91v-4.675h.588v-.129h-1.92v.129h.595v4.675h-.595v.128h3.622v-1.48h-.132Zm-7.203-3.453v.129h.532l-.003.486v2.584c0 .405-.022.687-.069.847a.945.945 0 0 1-.233.41.934.934 0 0 1-.349.234c-.058.022-.077.025-.14.048a3.72 3.72 0 0 1-.146.037c-.1.026-.214.035-.294.038-.23.013-.352.018-.497-.059a.83.83 0 0 1-.335-.318 1.42 1.42 0 0 1-.164-.48 3.674 3.674 0 0 1-.046-.601v-3.224h.657v-.13h-1.985v.13h.591v3.29c0 .568.135.978.404 1.229.269.252.695.377 1.277.377.173 0 .254.012.398-.017.024-.005.057-.012.071-.013a1.66 1.66 0 0 0 .363-.11 1.21 1.21 0 0 0 .701-.889c.021-.106.034-.262.042-.458.002-.042.01-.077.01-.12V26.2h.564v-.129h-1.349Zm-22.076 1.909a.592.592 0 0 0-.36.113 1.236 1.236 0 0 0-.312.378c-.065.106-.163.3-.282.59-.115.28-.226.492-.313.677a5.11 5.11 0 0 1-.375-.746c-.12-.29-.235-.616-.342-.976.44-.142.788-.323 1.038-.546.251-.221.377-.455.377-.7a.613.613 0 0 0-.26-.52c-.171-.127-.408-.191-.707-.191-.384 0-.686.112-.907.336-.22.223-.33.529-.33.916 0 .122.009.253.03.391.02.138.051.286.093.444-.495.196-.884.445-1.166.748-.28.304-.422.619-.422.945 0 .35.119.632.356.85.238.217.547.324.927.324.233 0 .46-.041.678-.127.219-.085.444-.217.675-.395.123.172.26.302.414.39a1.026 1.026 0 0 0 1.072-.043c.177-.117.336-.291.477-.523l-.144-.1a.806.806 0 0 1-.264.28.624.624 0 0 1-.337.095c-.132 0-.269-.06-.409-.178-.14-.12-.29-.336-.404-.547.124-.296.245-.592.419-.989.223-.51.408-.725.512-.757.037-.012.08-.023.126.02.042.04.032.136.032.155l-.006.058a.573.573 0 0 0-.007.087c0 .11.026.196.077.255.052.06.127.09.227.09.101 0 .18-.032.235-.098a.42.42 0 0 0 .083-.278.396.396 0 0 0-.143-.307.545.545 0 0 0-.358-.12Zm-2.114-1.66c.106-.126.34-.183.532-.163.252.024.292.088.373.177.08.088.101.254.101.42 0 .216-.08.424-.241.62-.161.196-.426.359-.719.494-.051-.201-.095-.364-.12-.51a2.504 2.504 0 0 1-.049-.397c.002-.232.016-.515.123-.64Zm-.013 4.352c-.148.066-.42.134-.545.134a.923.923 0 0 1-.706-.352c-.174-.214-.278-.53-.278-.877 0-.283.051-.542.209-.764.156-.222.554-.389.839-.506.108.39.238.76.387 1.106.15.346.362.705.547.983a1.94 1.94 0 0 1-.453.276Z"/><g clip-path="url(#bia)"><path d="M43.387.331c1.291 0 2.341 1.557 2.341 2.794v6.819H42.09c-.652 0-.952-.019-1.493-.106a2.414 2.414 0 0 1-.352-.088l-.32-.106.502-.131c.483-.138.646-.194.933-.282.998-.312 1.76-.812 2.276-1.493.515-.675.776-1.588.776-2.707 0-1.118-.28-2.05-.828-2.775-.554-.725-1.344-1.275-2.355-1.63-1.03-.363-2.256-.55-3.639-.55h-5.263v.13l-.117 19.238v.65h3.646l-.007-.063c-1.128 0-2.035-1.456-2.035-2.537v-7.219h3.64c.625 0 1.036-.012 1.558.031.163.013.326.05.49.094l.28.075-.587.119c-.437.081-.73.181-1.018.275-.998.313-1.76.875-2.276 1.556-.515.675-.776 1.588-.776 2.706 0 1.12.28 2.05.828 2.775.555.725 1.344 1.276 2.355 1.632 1.03.362 2.25.55 3.639.55h5.093V.244h-3.652m-5.576 9.612c-.072 0-.15.007-.222.007h-3.776V.33h.255c.756 0 1.082.27 1.232.57.19.38.3.88.333 1.493.032.587.059 1.231.072 1.931.013.675.09 1.363.228 2.044a4.98 4.98 0 0 0 .782 1.837c.32.47.803.87 1.429 1.188l.75.381-1.083.081Zm1.735-.337-.117-.106a2.7 2.7 0 0 1-.685-.9 5.301 5.301 0 0 1-.457-1.694c-.065-.6-.104-1.238-.117-1.881a23.762 23.762 0 0 0-.092-1.844 5.126 5.126 0 0 0-.371-1.556c-.17-.394-.444-.62-.815-.875L36.278.33h1.26c.925 0 1.721.063 2.595.307.724.206 1.643.462 2.367 1.25.73.793.855 1.7.946 2.356.098.719.333 2.362-.77 3.675-.776.931-1.884 1.294-2.19 1.394a5.304 5.304 0 0 1-.94.206Zm2.4 10.312a6.813 6.813 0 0 1-2.543-.325c-.679-.225-1.944-.643-2.74-1.843-.508-.769-.593-1.513-.658-2.044-.072-.619-.203-1.731.463-2.862a4.327 4.327 0 0 1 1.571-1.526 4.659 4.659 0 0 1 1.95-.593l.118.106c.3.262.528.563.685.9.234.506.39 1.075.456 1.694.065.6.104 1.237.117 1.881.007.625.04 1.244.092 1.844.052.575.176 1.1.371 1.556.17.394.418.563.835.881l.594.331h-1.311Zm3.776.07-.235.006h-.019c-.757 0-1.083-.357-1.233-.663-.19-.381-.3-.881-.332-1.494a52.293 52.293 0 0 1-.072-1.931 11.407 11.407 0 0 0-.229-2.044 4.983 4.983 0 0 0-.782-1.837c-.32-.469-.802-.869-1.428-1.188l-.75-.381.92-.063c.143-.012.377-.018.514-.018h3.64V19.9h.006Z"/></g><defs><clipPath id="bia"><path transform="translate(32)" d="M0 0h15v20H0z"/></clipPath></defs></svg><svg viewBox="0 0 368 474" id="logo-short" xmlns="http://www.w3.org/2000/svg"><path d="m357.58 429.02 6.25 33.15c-4.65 0-11.05 6.88-13.38 11.21-1.75-1.85-5.81-3.09-10.47-4.32-4.65-1.23-9.31-1.95-13.38-1.95-7.56 0-19.2 1.95-23.85 6.27-3.49-5.56-12.81-11.21-20.37-10.59l-2.65-33.76h6.33l.39 1.67c1.75 6.17 4.08 7.4 6.99 6.17 2.32-1.23 2.32-3.08 1.16-10.49L270.16 256.7H269l-13.38 46.28v125.88c0 6.17.58 8.02 3.49 8.02 2.33 0 4.07-1.23 4.07-7.4v-.44h5.96l3.35 33.15c-6.98 0-15.13 6.28-17.45 11.21-2.33-1.85-6.98-3.7-11.64-4.32-4.08-1.23-9.32-1.95-13.39-1.95-8.72 0-18.04 2.57-22.69 6.27-2.32-5.56-12.21-12.44-17.45-12.44l3.38-31.91h6.07c.33 3.92 1.86 6 3.93 6 2.91 0 3.49-4.32 3.49-10.5v-68.53c18.7-8.25 34.21-23.07 44.01-42.94 2.1-4.24 1.6-9.29-1.27-13.04-8.38-10.93-8.35-22.66.08-38.04.85-1.54 1.21-3.2 1.36-4.88 2.35-2.54 3.67-5.94 3.33-9.53-.78-8.16-3.99-13.78-7.42-17.61.18-.2.36-.41.53-.63 6.06-7.74 8-18.94 4.8-27.89a12.398 12.398 0 0 0-7.81-7.62c-3.91-1.28-7.37-2.18-10.56-2.78-2.12-22.27-12.88-38.7-27.06-48.73V41.96c0-8.02-.42-9.26-3.33-9.26s-4.23 1.85-4.23 10.49v.66h-6l-2.74-35.21c6.4 0 16.87-4.32 19.78-8.64 2.32 1.85 5.81 3.09 9.89 4.32 4.66 1.23 9.31 1.85 13.38 1.85 7.57 0 20.36-2.47 25.6-6.17 2.33 4.93 10.47 9.26 16.29 8.64l-3.77 35.21h-6.76c-.16-3.92-1.8-6.21-4.01-6.21-3.49 0-5.24 4.32-5.24 12.34V209.8h1.75l49.45-164.14c1.16-4.94 1.16-8.02-1.16-9.25-2.32-1.24-4.66-.62-6.4 4.94l-.72 2.5h-5.66l7.54-35.21c8.15 0 17.46-4.32 19.78-8.64 1.75 1.24 4.07 2.47 6.4 3.71 2.91 1.23 5.82 2.47 8.15 2.47 5.23 0 12.21-3.71 15.12-6.17 2.91 3.71 11.06 8.64 17.46 8.64l-11.19 35.21h-6.01c.67-3 .05-5.04-1.99-5.59-2.33-.62-4.66.62-6.98 8.64l-35.49 119.7c1.75 19.74 6.4 38.87 18.61 55.53-5.23 3.09-7.56 10.49-6.4 14.81 1.75 6.79 5.24 9.25 9.89 11.72-4.65 5.55-8.14 16.04-4.65 38.25l20.94 145.01c.59 5.56 2.33 7.41 4.66 7.41 1.75 0 2.33-1.85 2.33-6.17v-4.14h6.55l.01-.01Zm-199.82 0 3.39 33.15c-4.65 0-11.05 4.94-12.21 11.21-2.33-2.46-6.98-3.7-11.05-4.93-4.66-.63-9.31-1.34-13.39-1.34-8.14 0-18.61 1.95-23.85 6.27-1.74-6.27-11.05-10.59-16.87-10.59L83 429.03h5.17l.26 2.91c.58 2.47 1.74 5.56 4.07 5.56s2.91-4.32 2.33-8.64l-4.07-62.32c-1.16-6.17-4.65-12.96-11.06-12.96H61.09c-5.82 0-9.31 6.17-9.31 12.96l-4.07 63.55c0 4.94 1.74 8.02 4.07 8.02s4.07-3.7 4.65-6.78l.12-2.3h5.11v34.38c-5.24 0-11.63 3.7-13.38 9.98-2.33-2.46-5.24-3.7-8.73-4.93-3.49-.63-6.98-1.34-9.89-1.34-5.82 0-11.64 1.95-16.29 6.27-1.75-6.27-9.31-11.21-13.38-11.21l2.26-33.15h5.3v1.05c0 4.32 1.16 6.79 4.66 6.79s4.07-4.32 4.07-6.79l8.73-134.51c2.32-31.47-2.33-41.34-6.4-48.13 2.91-2.46 6.4-7.4 6.4-12.34 0-4.32-2.33-9.26-5.81-12.96 6.4-7.4 12.21-15.42 15.12-55.53l12.8-156.12C52.36 9.25 55.85 5.55 57.01 0c1.75 1.85 5.82 3.09 9.89 4.32 4.65 1.23 9.89 1.85 13.38 1.85 8.15 0 18.62-2.47 22.11-6.17 1.75 6.17 5.24 9.26 9.31 10.49l11.4 145.59c-6.82 9.23-11.59 20.85-12.94 34.8-2.54.44-5.57 1.09-9.22 2.08-3.59.98-6.55 3.5-8.06 6.9-4.29 9.55-2.84 21.1 3.68 29.45.18.22.36.45.56.66-4.29 4.75-6.79 10.63-7.44 17.59-.33 3.58.98 6.98 3.32 9.52.15 1.68.51 3.35 1.37 4.9 8.45 15.36 8.47 27.09.09 38.03a12.396 12.396 0 0 0-1.27 13.04c9.83 19.93 25.41 34.78 44.22 43.02l5.13 73.4c0 4.94 1.75 8.02 4.65 8.02 2.33 0 4.08-4.32 4.08-7.41v-1.05h6.5l-.01-.01ZM83.77 287.55c-1.16-17.9-6.98-33.94-10.47-40.11 3.49-3.7 5.23-7.4 4.66-12.34 0-4.93-1.75-9.26-5.24-12.96 2.9-3.7 3.49-24.06 3.49-31.47l-2.32-59.85c0-6.17-1.16-8.64-2.91-8.64-1.75 0-2.33 2.46-2.33 8.64l-2.9 59.85c0 12.34 2.32 27.77 5.23 31.47-2.91 3.09-5.23 6.79-5.23 12.96 0 5.55 1.16 9.88 4.65 12.34-4.65 4.94-10.47 24.07-11.63 40.11-.58 16.04 2.91 20.98 12.22 20.98 10.47 0 13.96-4.32 12.8-20.98h-.02Zm110.77-56.33c.27-.51-.35-2.25-.76-3.4-.47-1.32-.96-2.67-1.09-3.99-.19-2.07.22-3.67 1.24-4.79 1.49-1.64 3.93-1.83 5.64-1.83 1.48 0 3.13.17 4.8.35l1.87.18c1.03.09 2.05.16 3.01.16 1.53 0 2.68-.18 3.54-.53 1.65-.69 3.25-2.7 4.78-5.98 1.49-3.19 2.5-6.78 2.99-8.73-3.49.12-7.3 1.52-11.67 3.14-2.13.79-4.39 1.61-6.79 2.36-4.27 1.33-9.59 2.25-15.81 2.76-4.23.34-9.15.5-14.68.5-4.9 0-9.75-.16-13.93-.5-6.24-.51-11.55-1.44-15.81-2.76-2.39-.75-4.63-1.58-6.76-2.36-4.08-1.5-7.68-2.83-11.67-3.07.5 1.96 1.5 5.5 2.98 8.67 1.53 3.27 3.13 5.28 4.78 5.98.85.36 2.01.53 3.53.53.96 0 1.98-.07 3.01-.16l1.87-.18c1.67-.18 3.32-.35 4.8-.35 1.71 0 4.15.19 5.64 1.83 1.02 1.11 1.43 2.72 1.24 4.79-.12 1.33-.62 2.7-1.09 4.02-.4 1.15-1.02 2.88-.76 3.38.22.42 1.2.87 3.32.87 1.1 0 2.46-.12 4.15-.39 5.42-.89 10.17-1.33 15.01-1.36 4.81.03 9.79.48 15.2 1.36 1.68.28 3.04.39 4.15.39 2.12 0 3.1-.45 3.32-.88l-.05-.01ZM142 204.45c.39-3.39.81-6.67 1.42-9.51 1.96-9.19 5.15-15.65 9.06-19.87 5.44-5.9 12.44-8.93 19.48-9.09 7.04.15 14.06 3.18 19.52 9.09 3.91 4.23 7.08 10.68 9.05 19.87.61 2.85 1.04 6.12 1.41 9.51 16.67-7.18 19.83-3.81 19.83-5.37-.06-35.48-24.93-55.56-49.67-55.85-24.74-.29-.13 0-.13 0h-.12c-24.75.28-49.62 20.36-49.68 55.85 0 1.56 3.16-1.81 19.82 5.37h.01ZM172.11 351c29.07-.32 54.26-16.54 67.53-43.43-15.99-20.87-6.34-41.73-.95-51.56-4.65 2.71-11.48 8.01-13.26 16.46-1.25 6.01-2.28 15.76-.16 28.72-8.36 21.58-33.08 29.35-53.42 29.42-20.27-.14-44.85-7.93-53.24-30.09 2.19-12.33 1.15-22.06-.11-28.06-1.76-8.46-8.59-13.76-13.26-16.47 5.41 9.83 15.05 30.7-.93 51.56 13.27 26.9 38.47 43.12 67.67 43.43h.12l.01.02Zm-.01-26.32c23.73-.22 42.72-10.13 48.32-24.42-1.12-3.61-3.16-28.33 3.9-37.81 6.13-8.27 9.05-9.66 15.47-12.7l2.12-1.01c-.9-9.56-6.91-13.02-10.24-14.96-1.83-1.18-3.05-3.93-2.9-6.56.15-2.45 1.41-4.36 3.54-5.4.75-.37 1.62-.56 2.58-.56.85 0 1.75.14 2.73.42 3.64-4.64 4.56-11.36 2.88-16.05-7.6-2.5-11.95-3.03-14.96-3.04-.51 1.82-1.81 6.12-4.05 10.87-1.94 4.11-3.75 6.9-6.78 8.11-1.13.44-2.46.65-4.06.65-1.14 0-2.38-.11-3.68-.3-2.12-.3-3.92-.44-5.39-.44-2.81 0-3.68.52-3.89.67-.79.62-.18 2.15.75 4.25.58 1.33 1.14 2.59 1.14 3.72 0 2.58-1.07 6.91-8.22 6.91-2.38 0-4.87-.46-6.67-.81a69.99 69.99 0 0 0-12.82-1.25c-4.15.03-8.39.45-12.59 1.25-1.79.35-4.29.81-6.68.81-2.39 0-4.17-.44-5.54-1.33-1.78-1.18-2.68-3.05-2.68-5.58 0-1.13.56-2.39 1.15-3.72.93-2.09 1.53-3.62.75-4.24-.21-.16-1.08-.67-3.89-.67-1.48 0-3.27.14-5.38.44-1.33.19-2.57.3-3.71.3-1.6 0-2.92-.21-4.05-.66-3.03-1.2-4.78-3.88-6.79-8.1-2.75-5.84-4.08-10.98-4.42-10.98-.01 0-.04.01-.05.05-1.9 0-6.32.4-13.78 2.43-2.39 5.32-1.49 12.07 2.15 16.72.69-.2 1.68-.42 2.72-.42.96 0 1.83.19 2.59.56 2.15 1.04 3.41 2.96 3.54 5.42.16 2.63-1.07 5.38-3.66 7-2.61 1.49-8.59 4.94-9.49 14.5l2.12 1.01c6.41 3.04 9.33 4.42 15.48 12.7 7.09 9.53 5.02 34.22 3.87 37.01 5.62 15.1 24.61 25 48.47 25.22h.11l-.01-.01Zm-.25-67.76h.12c4.85.45 8.16 3.94 8.05 8.5-.1 4.12-1.72 5.58-3.79 7.67l.82 1.21c.62.51 2.51 2.06 0 5.52-.53.58-.87.96-1.05 2.73-.1.89.1 1.83.29 2.74.25 1.16.51 2.38.15 3.55-.4 1.27-1.16 2.61-3.77 2.87h-1.35c-2.61-.27-3.37-1.6-3.77-2.87-.36-1.18-.11-2.4.15-3.58.18-.9.39-1.84.29-2.72-.18-1.76-.53-2.15-1.76-3.58-1.83-2.61.08-4.17.87-4.81v-1.87c-1.43-1.28-3.04-2.75-3.14-6.85-.11-4.59 3.02-8 7.78-8.49h.11v-.02Z"/></svg><svg viewBox="0 0 16 16" id="mail" xmlns="http://www.w3.org/2000/svg"><path fill-rule="evenodd" clip-rule="evenodd" d="M3.334 5.033a.633.633 0 0 0-.633.633v6.667a.633.633 0 0 0 .633.633h9.334a.633.633 0 0 0 .633-.633V5.666a.634.634 0 0 0-.633-.633H3.334Zm-1.438-.805a2.033 2.033 0 0 1 1.438-.595h9.334A2.033 2.033 0 0 1 14.7 5.666v6.667a2.033 2.033 0 0 1-2.034 2.033H3.335a2.033 2.033 0 0 1-2.033-2.033V5.666c0-.54.214-1.056.595-1.438Z"/><path fill-rule="evenodd" clip-rule="evenodd" d="M1.418 5.278a.7.7 0 0 1 .971-.194l5.612 3.74 5.612-3.74a.7.7 0 1 1 .776 1.165l-6 4a.7.7 0 0 1-.776 0l-6-4a.7.7 0 0 1-.195-.971Z"/></svg><svg viewBox="0 0 12 12" id="pencil" xmlns="http://www.w3.org/2000/svg"><path d="M10.788 3.306 8.693 1.212a.937.937 0 0 0-1.325 0l-5.78 5.78a.931.931 0 0 0-.276.663V9.75a.937.937 0 0 0 .938.937h2.095a.929.929 0 0 0 .663-.274l3.724-3.725.195.651L7.29 8.977a.563.563 0 0 0 .797.797l1.875-1.875a.562.562 0 0 0 .14-.56l-.465-1.553 1.152-1.153a.938.938 0 0 0 0-1.327ZM3.047 7.125l3.328-3.328 1.828 1.828-3.328 3.328-1.828-1.828Zm-.61.984 1.454 1.453H2.437V8.11ZM9 4.828 7.172 3l.86-.86L9.86 3.968l-.86.86Z"/></svg><svg viewBox="0 0 18 18" id="phone" xmlns="http://www.w3.org/2000/svg"><path fill-rule="evenodd" clip-rule="evenodd" d="M11.302 3.844a8.343 8.343 0 0 1-.346 1.676l.764.764a.844.844 0 0 1 .164.961 9.881 9.881 0 0 1-4.639 4.64.844.844 0 0 1-.961-.165l-.764-.764a8.347 8.347 0 0 1-1.676.345V12c0 1.27.992 2.047 1.917 1.812a11.177 11.177 0 0 0 8.05-8.05c.236-.925-.543-1.918-1.811-1.918h-.698Zm4.154 2.294a12.866 12.866 0 0 1-9.277 9.308v.001C3.891 16.03 2.155 14.046 2.155 12v-.75c0-.899.719-1.548 1.51-1.627a6.66 6.66 0 0 0 1.768-.425.844.844 0 0 1 .904.189l.7.701a8.195 8.195 0 0 0 3.05-3.05l-.701-.7a.844.844 0 0 1-.19-.905 6.657 6.657 0 0 0 .427-1.768c.078-.793.729-1.509 1.626-1.509H12c2.032 0 4.005 1.716 3.456 3.982Z"/></svg><svg viewBox="0 0 50 50" id="play" xmlns="http://www.w3.org/2000/svg"><path d="M10.938 10.84v28.32c0 1.703 1.66 2.785 3.027 1.969l24.209-14.49c1.183-.708 1.183-2.57 0-3.279L13.964 8.87c-1.366-.816-3.027.267-3.027 1.97Z"/></svg><svg viewBox="0 0 50 50" id="play-light" xmlns="http://www.w3.org/2000/svg"><path d="M10.938 10.84v28.32c0 1.703 1.66 2.785 3.027 1.969l24.209-14.49c1.183-.708 1.183-2.57 0-3.279L13.964 8.87c-1.366-.816-3.027.267-3.027 1.97Z"/></svg><svg viewBox="0 0 16 16" id="remove" xmlns="http://www.w3.org/2000/svg"><path d="M6.667 4h2.666a1.333 1.333 0 1 0-2.666 0ZM5.333 4a2.667 2.667 0 1 1 5.334 0H14a.667.667 0 1 1 0 1.333h-.588l-.59 6.893a2.667 2.667 0 0 1-2.658 2.44H5.836a2.667 2.667 0 0 1-2.657-2.44l-.591-6.893H2A.667.667 0 0 1 2 4h3.333ZM10 8a.667.667 0 0 0-1.333 0v2.666a.666.666 0 1 0 1.333 0V8Zm-3.333-.667A.667.667 0 0 1 7.333 8v2.666a.666.666 0 1 1-1.333 0V8a.667.667 0 0 1 .667-.667Zm-2.16 4.78a1.333 1.333 0 0 0 1.329 1.22h4.328a1.333 1.333 0 0 0 1.328-1.22l.581-6.78H3.927l.58 6.78Z"/></svg><svg viewBox="0 0 16 16" id="remove-accent" xmlns="http://www.w3.org/2000/svg"><path d="M6.667 4h2.666a1.333 1.333 0 1 0-2.666 0ZM5.333 4a2.667 2.667 0 1 1 5.334 0H14a.667.667 0 1 1 0 1.333h-.588l-.59 6.893a2.667 2.667 0 0 1-2.658 2.44H5.836a2.667 2.667 0 0 1-2.657-2.44l-.591-6.893H2A.667.667 0 0 1 2 4h3.333ZM10 8a.667.667 0 0 0-1.333 0v2.666a.666.666 0 1 0 1.333 0V8Zm-3.333-.667A.667.667 0 0 1 7.333 8v2.666a.666.666 0 1 1-1.333 0V8a.667.667 0 0 1 .667-.667Zm-2.16 4.78a1.333 1.333 0 0 0 1.329 1.22h4.328a1.333 1.333 0 0 0 1.328-1.22l.581-6.78H3.927l.58 6.78Z"/></svg><svg viewBox="0 0 18 14" id="ru" xmlns="http://www.w3.org/2000/svg"><rect x=".25" y=".25" width="17.5" height="13.5" rx="1.75"/><mask id="bqa" style="mask-type:luminance" maskUnits="userSpaceOnUse" x="0" y="0" width="18" height="14"><rect x=".25" y=".25" width="17.5" height="13.5" rx="1.75" stroke-width=".5"/></mask><g mask="url(#bqa)" fill-rule="evenodd" clip-rule="evenodd"><path d="M0 9.333h18V4.666H0v4.667ZM0 14h18V9.335H0v4.667Z"/></g></svg><svg viewBox="0 0 14 14" id="rutube" xmlns="http://www.w3.org/2000/svg"><path d="M12 1.484c0 .82-.662 1.484-1.48 1.484-.817 0-1.48-.664-1.48-1.484S9.703 0 10.52 0C11.338 0 12 .664 12 1.484ZM1.148 2.968h5.038c.694 0 1.296.122 1.807.366.51.245.903.606 1.179 1.084.28.474.42 1.057.42 1.75 0 .513-.1.979-.303 1.397a2.98 2.98 0 0 1-.82 1.054c-.35.28-.755.471-1.214.576l-.297.12H1.7l-.014-.786h4.693c.524 0 .96-.11 1.31-.328.35-.22.612-.509.786-.867.18-.364.27-.753.27-1.167 0-.493-.1-.919-.297-1.278a1.95 1.95 0 0 0-.862-.837c-.382-.194-.849-.291-1.4-.291h-4.19v10.09h-.848V2.969Zm7.975 10.884-2.6-4.867.91-.007 2.594 4.776v.098h-.903Z"/><path fill-rule="evenodd" clip-rule="evenodd" d="M1 2.82h5.186c.711 0 1.336.125 1.87.38.537.257.952.639 1.243 1.143.297.502.441 1.112.441 1.824 0 .534-.105 1.022-.318 1.462a3.125 3.125 0 0 1-.86 1.105l-.001.001a3.07 3.07 0 0 1-.834.473l2.448 4.509V14h-1.14L6.61 9.463H2.144V14H1V2.82Zm1.144 6.346h4.308l-.174-.327 1.243-.01.063.115c.292-.105.555-.252.792-.44.331-.27.59-.603.78-1.002V7.5c.191-.397.288-.84.288-1.334 0-.672-.136-1.228-.4-1.673v-.001a2.497 2.497 0 0 0-1.115-1.025c-.487-.232-1.066-.351-1.743-.351h-4.89v10.586h.552v-4.24h-.294L1.535 8.38h.313V3.612h4.338c.568 0 1.06.1 1.467.308.407.207.717.507.925.898.211.385.314.837.314 1.35 0 .435-.094.846-.284 1.23a2.236 2.236 0 0 1-.84.928c-.379.238-.845.352-1.39.352H2.145v.488Zm-.296-.488v.488h-.003l-.008-.488h.011Zm.296-.297H6.38c.504 0 .911-.105 1.232-.306a1.94 1.94 0 0 0 .731-.807c.17-.343.254-.71.254-1.1 0-.474-.095-.874-.278-1.207l-.001-.002a1.803 1.803 0 0 0-.798-.775c-.356-.18-.798-.275-1.333-.275H2.144V8.38Zm4.875.749-.25.002.019.034h.141l.09-.036Zm-.072.333 2.265 4.24h.619L7.44 9.301a3.487 3.487 0 0 1-.142.036l-.312.126h-.04Z"/></svg><svg viewBox="0 0 12 12" id="sale" xmlns="http://www.w3.org/2000/svg"><path d="M9.976 8.556c0 .782-.638 1.42-1.42 1.42a1.416 1.416 0 1 1 1.42-1.42ZM3.196 10 2 8.804 8.804 2 10 3.196 3.196 10ZM2.04 3.46c0-.79.63-1.42 1.42-1.42.781 0 1.411.63 1.411 1.42A1.41 1.41 0 0 1 3.46 4.87c-.79 0-1.42-.63-1.42-1.411Z"/></svg><svg viewBox="0 0 12 12" id="sale-accent" xmlns="http://www.w3.org/2000/svg"><path d="M9.976 8.556c0 .782-.638 1.42-1.42 1.42a1.416 1.416 0 1 1 1.42-1.42ZM3.196 10 2 8.804 8.804 2 10 3.196 3.196 10ZM2.04 3.46c0-.79.63-1.42 1.42-1.42.781 0 1.411.63 1.411 1.42A1.41 1.41 0 0 1 3.46 4.87c-.79 0-1.42-.63-1.42-1.411Z"/></svg><svg viewBox="0 0 24 24" id="sorting" xmlns="http://www.w3.org/2000/svg"><path d="M5.62 18.366 4.463 19.55V3.398a.927.927 0 0 0-.262-.648.884.884 0 0 0-.633-.269.884.884 0 0 0-.633.269.927.927 0 0 0-.262.648V19.55l-1.157-1.184a.884.884 0 0 0-1.254.01.927.927 0 0 0-.01 1.285l2.684 2.749a.885.885 0 0 0 .632.268.885.885 0 0 0 .633-.268l2.684-2.749a.928.928 0 0 0-.01-1.284.884.884 0 0 0-1.254-.011Zm4.063-2.101h10.738a.884.884 0 0 0 .633-.268.927.927 0 0 0 0-1.296.884.884 0 0 0-.633-.268H9.683a.884.884 0 0 0-.633.268.927.927 0 0 0 0 1.296.884.884 0 0 0 .633.268Zm13.422 3.665H9.683a.884.884 0 0 0-.633.268.927.927 0 0 0 0 1.296.884.884 0 0 0 .633.268h13.422a.884.884 0 0 0 .633-.268.927.927 0 0 0 0-1.296.884.884 0 0 0-.633-.268ZM9.683 10.768h8.053a.884.884 0 0 0 .633-.268.927.927 0 0 0 0-1.296.884.884 0 0 0-.633-.268H9.683a.884.884 0 0 0-.633.268.927.927 0 0 0 0 1.296.884.884 0 0 0 .633.268Zm0-5.497h4.474a.884.884 0 0 0 .633-.268.927.927 0 0 0 0-1.296.884.884 0 0 0-.633-.268H9.683a.884.884 0 0 0-.633.268.927.927 0 0 0 0 1.296.884.884 0 0 0 .633.268Z"/></svg><svg viewBox="0 0 14 14" id="tel" xmlns="http://www.w3.org/2000/svg"><path fill-rule="evenodd" clip-rule="evenodd" d="M8.79 2.99a6.49 6.49 0 0 1-.269 1.303l.595.594a.656.656 0 0 1 .127.748 7.685 7.685 0 0 1-3.608 3.608.656.656 0 0 1-.748-.128l-.593-.594a6.49 6.49 0 0 1-1.304.268v.544c0 .987.772 1.592 1.491 1.41a8.695 8.695 0 0 0 6.261-6.262c.183-.72-.422-1.492-1.409-1.492H8.79Zm3.232 1.784a10.006 10.006 0 0 1-7.215 7.24h-.002c-1.778.453-3.128-1.09-3.128-2.681V8.75c0-.7.559-1.204 1.174-1.266a5.18 5.18 0 0 0 1.375-.33.656.656 0 0 1 .704.147l.545.545a6.373 6.373 0 0 0 2.372-2.372L7.3 4.93a.656.656 0 0 1-.147-.704c.173-.441.284-.904.331-1.375.061-.617.567-1.173 1.265-1.173h.584c1.58 0 3.115 1.334 2.688 3.097Z"/></svg><svg viewBox="0 0 14 14" id="telegram" xmlns="http://www.w3.org/2000/svg"><path d="M12.112 2.001a1.362 1.362 0 0 0-.431.105h-.002c-.132.053-.757.322-1.708.729L6.563 4.3C4.118 5.35 1.714 6.385 1.714 6.385l.029-.011s-.166.055-.34.176a.953.953 0 0 0-.27.267.795.795 0 0 0-.128.523.95.95 0 0 0 .413.657c.157.114.307.167.307.167h.003l2.255.775c.1.331.686 2.297.827 2.75.083.27.164.44.265.568a.66.66 0 0 0 .175.166.453.453 0 0 0 .114.05l-.023-.006c.007.002.012.008.017.01.019.005.031.006.055.01a.752.752 0 0 0 .643-.116l.016-.013 1.331-1.237 2.231 1.747.05.022c.466.208.937.092 1.185-.112.251-.206.348-.47.348-.47l.017-.042 1.723-9.012c.05-.222.062-.43.008-.632a.847.847 0 0 0-.36-.494.85.85 0 0 0-.493-.127Zm-.047.966c-.002.03.004.026-.01.083v.006l-1.707 8.918c-.007.012-.02.04-.054.068-.036.03-.065.048-.215-.013L7.351 9.894l-1.648 1.533.346-2.256 4.458-4.24c.184-.175.122-.212.122-.212.013-.213-.277-.062-.277-.062L4.73 8.21l-.002-.009-2.694-.926v-.002l-.007-.001.014-.006.015-.007.014-.005 4.85-2.086a2357.33 2357.33 0 0 0 3.407-1.465 367.01 367.01 0 0 1 1.69-.72c.038-.016.02-.016.047-.016Z"/></svg><svg viewBox="0 0 12 12" id="update" xmlns="http://www.w3.org/2000/svg"><path d="M3.133 5.314C3.4 3.942 4.6 2.914 6 2.914c1 0 1.8.48 2.333 1.234l1.134-1.372C8.667 1.816 7.4 1.2 6 1.2c-2.333 0-4.267 1.783-4.6 4.115H0l2.333 2.742 2.334-2.742H3.133Zm6.534-1.372L7.333 6.685h1.534C8.533 8.056 7.4 9.085 6 9.085c-1 0-1.8-.48-2.333-1.234L2.533 9.153C3.333 10.183 4.6 10.8 6 10.8c2.333 0 4.267-1.783 4.6-4.114H12L9.667 3.942Z"/></svg><svg viewBox="0 0 14 14" id="whatsapp" xmlns="http://www.w3.org/2000/svg"><path fill-rule="evenodd" clip-rule="evenodd" d="M1.214 6.876C1.214 3.63 3.854 1 7.107 1c1.566 0 3.05.617 4.162 1.725 1.116 1.113 1.69 2.592 1.73 4.102l.001.011c0 3.248-2.639 5.876-5.893 5.876a6.01 6.01 0 0 1-2.649-.621L1 13l.911-3.361a5.937 5.937 0 0 1-.697-2.763Zm5.893-5.031c-2.79 0-5.048 2.253-5.048 5.031 0 .877.247 1.758.67 2.498l.088.152-.62 2.287 2.36-.62.144.076c.747.39 1.56.6 2.406.6 2.789 0 5.045-2.25 5.048-5.025-.037-1.31-.534-2.575-1.482-3.52a5.029 5.029 0 0 0-3.566-1.48ZM5.353 4.782h-.197a1.956 1.956 0 0 0-.058 0c-.03.04-.056.07-.08.1-.051.06-.094.11-.148.206-.068.123-.133.3-.133.568 0 .248.092.512.21.74.114.218.227.356.239.37v.002l.03.03.023.034.008.01c.114.173.922 1.39 2.137 1.894l.013.006.013.006c.191.096.344.15.495.203.069.024.137.049.21.077.237.055.474.053.644.025l.01-.002c.049-.007.19-.057.345-.159.071-.047.132-.096.177-.142a.454.454 0 0 0 .048-.056l.013-.022c.04-.108.06-.207.068-.285a40.49 40.49 0 0 0-.053-.027l-.023-.011-.022-.015a14.107 14.107 0 0 0-.723-.366 4.262 4.262 0 0 1-.39.466.664.664 0 0 1-.34.191.7.7 0 0 1-.453-.074 4.464 4.464 0 0 1-1.195-.743l-.005-.004-.004-.005a4.225 4.225 0 0 1-.85-1.057.556.556 0 0 1-.038-.53c.054-.118.147-.209.178-.24h.001a.665.665 0 0 0 .032-.04l.02-.026c.033-.043.086-.11.145-.168a.205.205 0 0 0 .034-.044 14.802 14.802 0 0 1-.242-.576 27.92 27.92 0 0 0-.139-.336Zm.384-.793c.19.086.304.254.38.432.042.095.101.241.162.39a79.67 79.67 0 0 0 .193.466l.021.047.004.005.031.061a.665.665 0 0 1 0 .608l-.004.008c-.039.077-.103.205-.228.33a1.047 1.047 0 0 0-.09.108l-.022.03c.107.167.309.44.59.695.403.344.719.488.916.578h.003c.03-.033.065-.074.102-.119.088-.107.145-.188.159-.217.04-.081.1-.165.19-.231a.566.566 0 0 1 .288-.11.815.815 0 0 1 .33.05l.008.004c.058.019.147.06.223.095a14.434 14.434 0 0 1 .77.394c.065.033.125.063.174.09a.82.82 0 0 1 .184.133l.071.07.032.095c.044.132.051.29.04.44-.013.157-.05.34-.122.529-.106.283-.365.498-.565.629-.207.136-.465.256-.684.288a2.567 2.567 0 0 1-1.008-.046l-.028-.007-.026-.01a3.511 3.511 0 0 0-.147-.054 5.929 5.929 0 0 1-.637-.26C5.618 8.912 4.7 7.55 4.554 7.328a2.987 2.987 0 0 1-.356-.542c-.15-.287-.306-.69-.306-1.13 0-.419.107-.737.24-.976a2.608 2.608 0 0 1 .304-.421c.243-.323.586-.322.708-.321h.28c-.055 0 .15-.022.313.052Z"/></svg><svg viewBox="0 0 14 14" id="youtube" xmlns="http://www.w3.org/2000/svg"><path fill-rule="evenodd" clip-rule="evenodd" d="M13.955 5.383v.049a6.853 6.853 0 0 0 .024.513c.01.145.021.313.021.474v2.173c0 .269 0 .62-.045 1.025a4.73 4.73 0 0 1-.16 1.235 2.74 2.74 0 0 1-.697 1.264 2.364 2.364 0 0 1-1.359.686h-.006C10.677 12.955 9.05 13 7 13c-2.054 0-3.631-.046-4.728-.196l-.011-.002a2.372 2.372 0 0 1-1.332-.658c-.426-.385-.617-.839-.728-1.305l-.01-.04-.005-.04c-.045-.335-.09-.716-.135-1.089l-.006-.053v-.049a6.896 6.896 0 0 0-.023-.513A7.057 7.057 0 0 1 0 8.581V6.408c0-.269 0-.62.045-1.025.003-.461.055-.847.16-1.235.129-.534.39-.94.697-1.264a2.365 2.365 0 0 1 1.359-.686h.006C3.323 2.045 4.95 2 7 2c2.054 0 3.63.046 4.728.196l.011.002c.465.07.957.278 1.332.658.425.385.617.839.728 1.305l.01.04.005.04c.045.336.09.718.135 1.091l.006.051Zm-1.5-1.926a1.481 1.481 0 0 0-.85-.423c-1.028-.14-2.548-.188-4.605-.188-2.057 0-3.621.047-4.605.188a1.48 1.48 0 0 0-.85.423 1.9 1.9 0 0 0-.491.893A3.95 3.95 0 0 0 .92 5.432a8.02 8.02 0 0 0-.045.987V8.58c0 .131.01.272.02.423.012.175.025.363.025.564v.001c.044.376.09.752.134 1.08.09.377.223.659.492.894.223.235.536.376.85.423 1.027.14 2.547.188 4.604.188s3.621-.047 4.605-.188a1.48 1.48 0 0 0 .85-.423 1.9 1.9 0 0 0 .491-.893c.09-.33.134-.659.134-1.082.045-.376.045-.705.045-.987V6.42c0-.131-.01-.272-.02-.423a8.06 8.06 0 0 1-.025-.564c-.044-.376-.09-.753-.134-1.082-.09-.376-.223-.658-.492-.893Z"/><path fill-rule="evenodd" clip-rule="evenodd" d="M8.1 7.5 6.124 6.164v2.672L8.099 7.5Zm1.013.347a.415.415 0 0 0 0-.694L5.938 5.004c-.29-.196-.688.005-.688.347v4.298c0 .342.398.543.688.347l3.175-2.15Z"/></svg></svg>