<svg width="18" height="14" viewBox="0 0 18 14" fill="none" xmlns="http://www.w3.org/2000/svg">
<mask id="mask0_4888_16518" style="mask-type:luminance" maskUnits="userSpaceOnUse" x="0" y="0" width="18" height="14">
<path d="M16.7143 0H1.28571C0.575634 0 0 0.626801 0 1.4V12.6C0 13.3732 0.575634 14 1.28571 14H16.7143C17.4244 14 18 13.3732 18 12.6V1.4C18 0.626801 17.4244 0 16.7143 0Z" fill="white"/>
</mask>
<g mask="url(#mask0_4888_16518)">
<path d="M16.7143 0H1.28571C0.575634 0 0 0.626801 0 1.4V12.6C0 13.3732 0.575634 14 1.28571 14H16.7143C17.4244 14 18 13.3732 18 12.6V1.4C18 0.626801 17.4244 0 16.7143 0Z" fill="white"/>
<mask id="mask1_4888_16518" style="mask-type:alpha" maskUnits="userSpaceOnUse" x="0" y="0" width="18" height="14">
<path d="M16.7143 0H1.28571C0.575634 0 0 0.626801 0 1.4V12.6C0 13.3732 0.575634 14 1.28571 14H16.7143C17.4244 14 18 13.3732 18 12.6V1.4C18 0.626801 17.4244 0 16.7143 0Z" fill="white"/>
</mask>
<g mask="url(#mask1_4888_16518)">
<path fill-rule="evenodd" clip-rule="evenodd" d="M0 9.33331H18V0H0V9.33331Z" fill="#E54252"/>
<path fill-rule="evenodd" clip-rule="evenodd" d="M0 14.0007H18V9.33398H0V14.0007Z" fill="#5CBE6B"/>
<path fill-rule="evenodd" clip-rule="evenodd" d="M0 0H2.57143V2.10017L2.14296 2.8L2.57143 3.49983V4.90017L2.14296 5.6L2.57143 6.29983V7.70014L2.14296 8.4L2.57143 9.09986V10.5001L2.14296 11.2L2.57143 11.8999V14H0V0Z" fill="white"/>
<path fill-rule="evenodd" clip-rule="evenodd" d="M-0.428014 1.39844L-1.28516 2.79844L-0.428014 4.19844L-1.28516 5.59844L-0.428014 6.99844L-1.28516 8.39844L-0.428014 9.79844L-1.28516 11.1984L-0.428014 12.5984L0.42913 11.1984L-0.428014 9.79844L0.42913 8.39844L-0.428014 6.99844L0.42913 5.59844L-0.428014 4.19844L0.42913 2.79844L-0.428014 1.39844Z" fill="#E54252"/>
<path fill-rule="evenodd" clip-rule="evenodd" d="M0.429688 1.4L1.28683 0L2.14397 1.4L1.28683 2.8L0.429688 1.4ZM1.28683 5.6L0.429688 4.2L1.28683 2.8L2.14397 4.2L1.28683 5.6ZM1.28683 8.4L0.429688 7L1.28683 5.6L2.14397 7L1.28683 8.4ZM1.28683 11.2L2.14397 9.8L1.28683 8.4L0.429688 9.8L1.28683 11.2ZM1.28683 11.2L2.14397 12.6L1.28683 14L0.429688 12.6L1.28683 11.2Z" fill="#E54252"/>
</g>
</g>
</svg>
