<svg width="16" height="16" viewBox="0 0 16 16" fill="none" xmlns="http://www.w3.org/2000/svg">
<g clip-path="url(#clip0_4720_8714)">
<path d="M7.99844 15.0004C6.14192 15.0004 4.36144 14.2629 3.04869 12.9501C1.73594 11.6374 0.998438 9.85691 0.998438 8.00039C0.998438 6.14388 1.73594 4.3634 3.04869 3.05064C4.36144 1.73789 6.14192 1.00039 7.99844 1.00039C9.85495 1.00039 11.6354 1.73789 12.9482 3.05064C14.2609 4.3634 14.9984 6.14388 14.9984 8.00039C14.9984 9.85691 14.2609 11.6374 12.9482 12.9501C11.6354 14.2629 9.85495 15.0004 7.99844 15.0004ZM7.99844 13.6004C9.48365 13.6004 10.908 13.0104 11.9582 11.9602C13.0084 10.91 13.5984 9.4856 13.5984 8.00039C13.5984 6.51518 13.0084 5.0908 11.9582 4.04059C10.908 2.99039 9.48365 2.40039 7.99844 2.40039C6.51323 2.40039 5.08884 2.99039 4.03864 4.04059C2.98844 5.0908 2.39844 6.51518 2.39844 8.00039C2.39844 9.4856 2.98844 10.91 4.03864 11.9602C5.08884 13.0104 6.51323 13.6004 7.99844 13.6004ZM7.29844 8.28739V3.80039H8.69844V7.71339L11.4634 10.4784L10.4764 11.4654L7.29844 8.28739Z" fill="black"/>
<path fill-rule="evenodd" clip-rule="evenodd" d="M7.99844 1.10039C6.16844 1.10039 4.4134 1.82735 3.1194 3.12135C1.8254 4.41535 1.09844 6.1704 1.09844 8.00039C1.09844 9.83038 1.8254 11.5854 3.1194 12.8794C4.4134 14.1734 6.16844 14.9004 7.99844 14.9004C9.82843 14.9004 11.5835 14.1734 12.8775 12.8794C14.1715 11.5854 14.8984 9.83038 14.8984 8.00039C14.8984 6.1704 14.1715 4.41535 12.8775 3.12135C11.5835 1.82735 9.82843 1.10039 7.99844 1.10039ZM2.97798 2.97993C4.30949 1.64842 6.1154 0.900391 7.99844 0.900391C9.88147 0.900391 11.6874 1.64842 13.0189 2.97993C14.3504 4.31144 15.0984 6.11735 15.0984 8.00039C15.0984 9.88343 14.3504 11.6893 13.0189 13.0208C11.6874 14.3524 9.88147 15.1004 7.99844 15.1004C6.1154 15.1004 4.30949 14.3524 2.97798 13.0208C1.64647 11.6893 0.898438 9.88343 0.898438 8.00039C0.898438 6.11735 1.64647 4.31144 2.97798 2.97993ZM3.96793 3.96988C5.03689 2.90092 6.4867 2.30039 7.99844 2.30039C9.51017 2.30039 10.96 2.90092 12.0289 3.96988C13.0979 5.03884 13.6984 6.48866 13.6984 8.00039C13.6984 9.51212 13.0979 10.9619 12.0289 12.0309C10.96 13.0999 9.51017 13.7004 7.99844 13.7004C6.4867 13.7004 5.03689 13.0999 3.96793 12.0309C2.89897 10.9619 2.29844 9.51212 2.29844 8.00039C2.29844 6.48866 2.89897 5.03884 3.96793 3.96988ZM7.99844 2.50039C6.53975 2.50039 5.1408 3.07985 4.10935 4.1113C3.0779 5.14275 2.49844 6.5417 2.49844 8.00039C2.49844 9.45908 3.0779 10.858 4.10935 11.8895C5.1408 12.9209 6.53975 13.5004 7.99844 13.5004C9.45713 13.5004 10.8561 12.9209 11.8875 11.8895C12.919 10.858 13.4984 9.45908 13.4984 8.00039C13.4984 6.5417 12.919 5.14275 11.8875 4.1113C10.8561 3.07985 9.45713 2.50039 7.99844 2.50039ZM7.19844 3.70039H8.79844V7.67197L11.6049 10.4784L10.4764 11.6068L7.19844 8.32881V3.70039ZM7.39844 3.90039V8.24597L10.4764 11.324L11.322 10.4784L8.59844 7.75481V3.90039H7.39844Z" fill="black"/>
</g>
<defs>
<clipPath id="clip0_4720_8714">
<rect width="16" height="16" fill="white"/>
</clipPath>
</defs>
</svg>
