<svg width="12" height="12" viewBox="0 0 12 12" fill="none" xmlns="http://www.w3.org/2000/svg">
<path fill-rule="evenodd" clip-rule="evenodd" d="M2.49967 3.77461C2.37369 3.77461 2.25287 3.82465 2.16379 3.91373C2.07471 4.00281 2.02467 4.12363 2.02467 4.24961V9.24961C2.02467 9.37559 2.07471 9.49641 2.16379 9.58548C2.25287 9.67456 2.37369 9.72461 2.49967 9.72461H9.49967C9.62564 9.72461 9.74646 9.67456 9.83554 9.58548C9.92462 9.49641 9.97467 9.37559 9.97467 9.24961V4.24961C9.97467 4.12363 9.92462 4.00281 9.83554 3.91373C9.74646 3.82465 9.62564 3.77461 9.49967 3.77461H2.49967ZM1.42133 3.17127C1.70732 2.88528 2.09521 2.72461 2.49967 2.72461H9.49967C9.90412 2.72461 10.292 2.88528 10.578 3.17127C10.864 3.45726 11.0247 3.84515 11.0247 4.24961V9.24961C11.0247 9.65407 10.864 10.042 10.578 10.3279C10.292 10.6139 9.90412 10.7746 9.49967 10.7746H2.49967C2.09521 10.7746 1.70732 10.6139 1.42133 10.3279C1.13533 10.042 0.974665 9.65407 0.974665 9.24961V4.24961C0.974665 3.84515 1.13533 3.45726 1.42133 3.17127Z" fill="black"/>
<path fill-rule="evenodd" clip-rule="evenodd" d="M1.06284 3.95839C1.22367 3.71714 1.54963 3.65195 1.79088 3.81278L5.99967 6.61864L10.2084 3.81278C10.4497 3.65195 10.7757 3.71714 10.9365 3.95839C11.0973 4.19964 11.0321 4.5256 10.7909 4.68644L6.29088 7.68644C6.11454 7.804 5.8848 7.804 5.70845 7.68644L1.20845 4.68644C0.967195 4.5256 0.902004 4.19964 1.06284 3.95839Z" fill="black"/>
</svg>
