<svg width="24" height="24" viewBox="0 0 24 24" fill="none" xmlns="http://www.w3.org/2000/svg">
<g clip-path="url(#clip0_4816_15502)">
<path fill-rule="evenodd" clip-rule="evenodd" d="M1.8 1.8V4.2H4.2V1.8H1.8ZM0.8 0C0.358172 0 0 0.358172 0 0.8V5.2C0 5.64183 0.358172 6 0.8 6H5.2C5.64183 6 6 5.64183 6 5.2V0.8C6 0.358172 5.64183 0 5.2 0H0.8Z" fill="black"/>
<path fill-rule="evenodd" clip-rule="evenodd" d="M1.8 10.8V13.2H4.2V10.8H1.8ZM0.8 9C0.358172 9 0 9.35817 0 9.8V14.2C0 14.6418 0.358172 15 0.8 15H5.2C5.64183 15 6 14.6418 6 14.2V9.8C6 9.35817 5.64183 9 5.2 9H0.8Z" fill="black"/>
<path fill-rule="evenodd" clip-rule="evenodd" d="M1.8 19.8V22.2H4.2V19.8H1.8ZM0.8 18C0.358172 18 0 18.3582 0 18.8V23.2C0 23.6418 0.358172 24 0.8 24H5.2C5.64183 24 6 23.6418 6 23.2V18.8C6 18.3582 5.64183 18 5.2 18H0.8Z" fill="black"/>
<path fill-rule="evenodd" clip-rule="evenodd" d="M10.8 1.8V4.2H13.2V1.8H10.8ZM9.8 0C9.35817 0 9 0.358172 9 0.8V5.2C9 5.64183 9.35817 6 9.8 6H14.2C14.6418 6 15 5.64183 15 5.2V0.8C15 0.358172 14.6418 0 14.2 0H9.8Z" fill="black"/>
<path fill-rule="evenodd" clip-rule="evenodd" d="M10.8 10.8V13.2H13.2V10.8H10.8ZM9.8 9C9.35817 9 9 9.35817 9 9.8V14.2C9 14.6418 9.35817 15 9.8 15H14.2C14.6418 15 15 14.6418 15 14.2V9.8C15 9.35817 14.6418 9 14.2 9H9.8Z" fill="black"/>
<path fill-rule="evenodd" clip-rule="evenodd" d="M10.8 19.8V22.2H13.2V19.8H10.8ZM9.8 18C9.35817 18 9 18.3582 9 18.8V23.2C9 23.6418 9.35817 24 9.8 24H14.2C14.6418 24 15 23.6418 15 23.2V18.8C15 18.3582 14.6418 18 14.2 18H9.8Z" fill="black"/>
<path fill-rule="evenodd" clip-rule="evenodd" d="M19.8 1.8V4.2H22.2V1.8H19.8ZM18.8 0C18.3582 0 18 0.358172 18 0.8V5.2C18 5.64183 18.3582 6 18.8 6H23.2C23.6418 6 24 5.64183 24 5.2V0.8C24 0.358172 23.6418 0 23.2 0H18.8Z" fill="black"/>
<path fill-rule="evenodd" clip-rule="evenodd" d="M19.8 10.8V13.2H22.2V10.8H19.8ZM18.8 9C18.3582 9 18 9.35817 18 9.8V14.2C18 14.6418 18.3582 15 18.8 15H23.2C23.6418 15 24 14.6418 24 14.2V9.8C24 9.35817 23.6418 9 23.2 9H18.8Z" fill="black"/>
<path fill-rule="evenodd" clip-rule="evenodd" d="M19.8 19.8V22.2H22.2V19.8H19.8ZM18.8 18C18.3582 18 18 18.3582 18 18.8V23.2C18 23.6418 18.3582 24 18.8 24H23.2C23.6418 24 24 23.6418 24 23.2V18.8C24 18.3582 23.6418 18 23.2 18H18.8Z" fill="black"/>
</g>
<defs>
<clipPath id="clip0_4816_15502">
<rect width="24" height="24" fill="white"/>
</clipPath>
</defs>
</svg>
