<svg width="23" height="22" viewBox="0 0 23 22" fill="none" xmlns="http://www.w3.org/2000/svg">
<path d="M10.999 6.57508C10.8986 6.59518 10.671 6.67904 10.497 6.76276C9.91461 7.04094 9.46618 7.60078 9.30549 8.2478C9.26531 8.40873 9.25534 8.56286 9.26531 8.85116C9.28872 9.46464 9.47948 9.92052 9.88455 10.363L10.072 10.5608L10.0486 10.7552C9.94813 11.6603 9.62023 15.3544 9.62023 15.3544H13.4858L13.4624 15.1934C13.4456 15.046 13.2348 12.9474 13.0708 11.2815L13.0005 10.544L13.1712 10.363C13.7134 9.79647 13.9242 8.97854 13.7268 8.21426C13.6231 7.80869 13.2388 7.06668 12.5387 6.76276C12.1269 6.56164 11.5745 6.46129 10.9992 6.57508H10.999ZM12.0532 6.89693C13.0673 7.14837 13.6865 8.19084 13.4589 9.2602C13.3819 9.63569 13.2498 9.90997 12.9757 10.201C12.8385 10.3385 12.6992 10.4772 12.6992 10.4772L13.171 15.0529L9.92501 15.0331C9.92501 15.0331 10.0785 13.3568 10.2626 11.4494L10.3597 10.4438L10.1254 10.2124C9.62674 9.71304 9.42269 8.99893 9.59335 8.3386C9.687 7.95979 9.8477 7.66151 10.0786 7.42684C10.584 6.9072 11.3136 6.71287 12.0532 6.89722V6.89693Z" fill="black"/>
<path d="M22.7644 11.6127L22.8334 11.4803C22.954 11.2514 23 11.073 23 10.8412C23 10.6095 22.9339 10.3447 22.7903 10.0166C22.7429 9.91011 22.7358 9.87987 22.7371 9.78626C22.7371 9.72723 22.7458 9.62943 22.7572 9.5704C22.7874 9.40489 22.7845 9.00905 22.7514 8.90257C22.7184 8.79609 22.6337 8.60757 22.513 8.3758C22.4626 8.27655 22.4038 8.16428 22.3851 8.12681C22.3507 8.062 22.3478 8.03755 22.3377 7.74544C22.3205 7.23603 22.2788 7.10785 22.0203 6.76974C21.812 6.4963 21.8077 6.48762 21.7545 6.28333C21.6353 5.82717 21.5032 5.57239 21.1886 5.20245C20.8812 4.83974 20.8008 4.70881 20.7591 4.49874C20.7132 4.26986 20.6628 4.17061 20.4805 3.94318C20.3483 3.77767 20.166 3.60203 19.9878 3.47109C19.8714 3.38472 19.8241 3.33872 19.8125 3.30703C19.8039 3.28113 19.7867 3.18044 19.7738 3.08104C19.735 2.75726 19.6542 2.39441 19.5454 2.20748C18.8976 1.09463 17.9213 1.06337 17.611 1.06337C17.2304 1.06337 17.0375 1.12515 16.7661 1.249L16.6727 1.29081L16.292 1.0994C15.6974 0.801509 15.3871 0.669129 14.9103 0.512154C14.1648 0.264611 13.1967 0.0804369 12.3636 0.0286424C12.2215 0.018515 11.784 0.00853225 11.7797 0.00419193C11.7758 -0.000148393 11.6605 -0.000727102 11.4999 0.00100903C11.3392 -0.000871779 11.2239 -0.00029307 11.22 0.00419193C11.2157 0.00853225 10.7784 0.018515 10.6361 0.0286424C9.80302 0.0804369 8.83501 0.264611 8.08955 0.512154C7.61263 0.668984 7.30245 0.801364 6.70782 1.0994L6.32721 1.29081L6.23379 1.249C5.96236 1.1253 5.76945 1.06337 5.38884 1.06337C5.07865 1.06337 4.10226 1.09463 3.45441 2.20748C3.34566 2.39441 3.26483 2.75726 3.22607 3.08104C3.2132 3.18029 3.19585 3.28113 3.18732 3.30703C3.17589 3.33872 3.12846 3.38472 3.01205 3.47109C2.83389 3.60203 2.65154 3.77767 2.51937 3.94318C2.33702 4.17061 2.2867 4.26986 2.24071 4.49874C2.19906 4.70881 2.11866 4.83989 1.81122 5.20245C1.4967 5.57239 1.36453 5.82702 1.24537 6.28333C1.19215 6.48776 1.18796 6.4963 0.979579 6.76974C0.721019 7.10799 0.679371 7.23603 0.662163 7.74544C0.65204 8.03755 0.649293 8.06214 0.614731 8.12681C0.596077 8.16428 0.537221 8.27655 0.486897 8.3758C0.366294 8.60757 0.281553 8.79609 0.248438 8.90257C0.215467 9.00905 0.212575 9.40489 0.242653 9.5704C0.254077 9.62943 0.262754 9.72723 0.262754 9.78626C0.2642 9.87987 0.25697 9.90996 0.209682 10.0166C0.0660861 10.3447 0 10.6024 0 10.8412C0 11.0801 0.0459855 11.2514 0.166589 11.4803L0.235567 11.6127L0.189582 11.8041C0.12205 12.0876 0.110626 12.1898 0.119157 12.3769C0.136366 12.6892 0.215322 12.9123 0.416473 13.2116L0.501213 13.3382L0.479667 13.5296C0.465351 13.6477 0.459566 13.7859 0.463904 13.888C0.481113 14.2924 0.672141 14.7329 0.914939 14.93L1.00113 15.0004L1.0098 15.2322C1.01992 15.4783 1.03713 15.5761 1.10741 15.7733C1.21804 16.0828 1.45925 16.4339 1.65172 16.5648C1.69771 16.5965 1.73935 16.634 1.74369 16.6469C1.74803 16.6613 1.7609 16.7376 1.77247 16.8167C1.81556 17.1117 1.92619 17.3679 2.09567 17.5666C2.20196 17.6903 2.31692 17.7868 2.52805 17.9235C2.6702 18.0155 2.68755 18.0372 2.73339 18.1767C2.8109 18.407 2.86701 18.5207 2.97894 18.6718C3.05789 18.7784 3.32932 19.0245 3.50748 19.1511C3.57501 19.1985 3.62245 19.2418 3.62519 19.2605C3.62953 19.2777 3.63532 19.38 3.63951 19.4879C3.6625 20.0895 3.91239 20.5932 4.37354 20.9645C4.62632 21.166 5.13115 21.5328 5.89887 21.3674C6.14861 21.3136 6.39445 21.1991 6.61845 21.0307C6.69466 20.9717 6.79082 20.9098 6.82958 20.8911C7.03926 20.7929 7.69752 21.0482 8.14277 21.1957C8.34782 21.2637 8.56531 21.2856 8.78006 21.2615L8.87347 21.2509L8.96544 21.3272C9.0833 21.425 9.31164 21.5358 9.45379 21.5646C9.61459 21.5977 9.72666 21.5934 9.84597 21.5503C9.90193 21.5315 9.95804 21.5113 9.97091 21.5056C9.98667 21.5014 10.0254 21.5171 10.0671 21.543C10.2337 21.651 10.4663 21.7085 10.6919 21.6999C10.8198 21.6955 10.8498 21.6884 10.9404 21.6466L11.0438 21.5992L11.1745 21.674C11.3688 21.7829 11.6216 21.7858 11.8245 21.674L11.9552 21.5992L12.0586 21.6466C12.1491 21.6884 12.1792 21.6955 12.3071 21.6999C12.5327 21.7085 12.7652 21.651 12.9319 21.543C12.9736 21.5171 13.0123 21.5014 13.0281 21.5056C13.0409 21.5113 13.0971 21.5315 13.153 21.5503C13.2722 21.5934 13.3843 21.5977 13.5452 21.5646C13.6874 21.5358 13.9158 21.425 14.0335 21.3272L14.1255 21.2509L14.2189 21.2615C14.4337 21.2858 14.6512 21.2637 14.8562 21.1957C15.3015 21.0481 15.9597 20.7929 16.1694 20.8911C16.2082 20.9098 16.3045 20.9717 16.3805 21.0307C16.6045 21.1991 16.8504 21.3136 17.1001 21.3674C17.8678 21.5328 18.3727 21.166 18.6254 20.9645C19.0865 20.5932 19.3365 20.0895 19.3595 19.4879C19.3638 19.38 19.3696 19.2777 19.3738 19.2605C19.3767 19.2418 19.4241 19.1985 19.4915 19.1511C19.6697 19.0245 19.9411 18.7784 20.0201 18.6718C20.1321 18.5207 20.1881 18.407 20.2657 18.1767C20.3117 18.0372 20.3289 18.0155 20.4711 17.9235C20.6822 17.7868 20.7972 17.6903 20.9035 17.5666C21.0729 17.3679 21.1836 17.1117 21.2267 16.8167C21.2381 16.7376 21.2511 16.6613 21.2554 16.6469C21.2598 16.634 21.3014 16.5965 21.3474 16.5648C21.5399 16.4339 21.7812 16.0828 21.8917 15.7733C21.9621 15.5761 21.9794 15.4783 21.9893 15.2322L21.998 15.0004L22.0842 14.93C22.327 14.7328 22.518 14.2924 22.5352 13.888C22.5396 13.7859 22.5338 13.6477 22.5195 13.5296L22.4979 13.3382L22.5827 13.2116C22.7838 12.9123 22.8628 12.6892 22.88 12.3769C22.8887 12.1898 22.8771 12.0876 22.8096 11.8041L22.7636 11.6127H22.7644ZM22.0749 8.45219C22.277 8.71637 22.3824 9.46826 22.3824 9.46826L22.131 9.28973C21.9243 9.14288 21.6807 8.94207 21.104 8.7903C20.2589 8.56779 19.8688 7.88795 19.8688 7.88795C19.8688 7.88795 20.1065 7.93699 20.2673 7.96868C20.4598 8.0076 20.7477 8.0089 21.0609 8.04492C21.6355 8.10974 21.8563 8.16616 22.0749 8.45219ZM21.8365 7.4001C21.8667 7.51237 21.8799 7.75774 21.8799 7.75774C21.8799 7.75774 21.8479 7.74125 21.8106 7.72258C21.69 7.66211 21.1944 7.51107 20.7521 7.3988C20.1833 7.25484 19.9764 7.16283 19.6791 6.92093C19.5527 6.81734 19.3492 6.58354 19.3492 6.58354C19.3492 6.58354 19.6977 6.62304 19.9548 6.62723C20.8784 6.6417 21.0306 6.65168 21.2174 6.71505C21.5033 6.81155 21.7503 7.08499 21.8365 7.4001ZM20.9905 5.70187C21.1084 5.87462 21.2123 6.26901 21.2123 6.26901C21.2123 6.26901 21.17 6.26033 20.8957 6.19696C20.7477 6.16238 20.5509 6.12925 20.054 6.06024C19.9391 6.04302 19.7882 6.01134 19.7165 5.98834C19.524 5.92497 19.3258 5.85162 19.2296 5.80561C19.119 5.75526 18.8483 5.57774 18.8483 5.57774C18.8483 5.57774 18.9437 5.57528 19.0616 5.57239C19.3259 5.56805 19.5546 5.53651 19.8516 5.44435C20.5351 5.23211 20.9045 5.57384 20.9907 5.70202L20.9905 5.70187ZM19.6577 4.03678C19.6966 3.9575 19.7266 3.88994 19.7266 3.88994C19.7266 3.88994 19.9599 4.03563 20.0347 4.11621C20.1754 4.27015 20.2624 4.54489 20.2351 4.80097C20.2222 4.9319 20.217 4.94724 20.217 4.94724C20.161 4.95303 19.853 4.99657 19.7237 5.01683C19.402 5.06718 18.849 5.02102 18.849 5.02102C18.849 5.02102 18.9151 4.99382 18.9611 4.96793C19.2598 4.79663 19.451 4.45722 19.6577 4.03678ZM7.86917 1.00087C8.0735 0.922459 9.13709 0.624424 9.34822 0.584059C9.91263 0.473236 10.9002 0.344039 11.5003 0.34375C12.1374 0.343316 13.0878 0.473236 13.6524 0.584059C13.8635 0.624424 14.9271 0.922459 15.1314 1.00087C15.4802 1.1347 16.275 1.54124 16.275 1.54124L16.1098 1.71254C16.1098 1.71254 15.9992 1.65785 15.8772 1.59159C15.2337 1.24335 14.6175 1.02171 13.8146 0.85041C13.3161 0.745374 13.0174 0.703562 12.3854 0.653215C12.2097 0.639325 11.8494 0.629487 11.5007 0.62616C11.5007 0.62616 11.5004 0.62616 11.5001 0.62616C11.5 0.62616 11.4999 0.62616 11.4996 0.62616C11.1511 0.629487 10.7906 0.639325 10.6149 0.653215C9.98291 0.703562 9.68415 0.745374 9.18568 0.85041C8.38282 1.02171 7.76664 1.24335 7.12313 1.59159C7.00108 1.65785 6.89046 1.71254 6.89046 1.71254L6.72531 1.54124C6.72531 1.54124 7.52023 1.1347 7.86902 1.00087H7.86917ZM15.962 3.7849C16.0453 3.90006 16.0524 3.90976 16.0524 3.90976C16.0524 3.90976 15.955 3.87113 15.8688 3.81933C15.4939 3.5919 15.1003 3.38328 14.7987 3.25234C14.7398 3.22645 14.6493 3.18608 14.599 3.16308C14.2988 3.02636 13.6898 2.86519 13.118 2.77013C12.5658 2.68029 12.1664 2.6473 11.5009 2.63746C11.5007 2.63746 11.5006 2.63746 11.5003 2.63746C11.5001 2.63746 11.5 2.63746 11.4997 2.63746C10.8342 2.6473 10.4347 2.68029 9.88255 2.77013C9.31091 2.86504 8.70182 3.02636 8.40162 3.16308C8.35129 3.18608 8.26091 3.22645 8.20191 3.25234C7.90026 3.38328 7.50678 3.59205 7.13181 3.81933C7.04562 3.87113 6.94815 3.90976 6.94815 3.90976C6.94815 3.90976 6.9551 3.89992 7.03854 3.7849C7.33585 3.36606 7.40628 2.86663 7.23824 2.36012C7.18647 2.20329 7.04562 1.92247 6.99964 1.87357L7.23824 1.74336C8.20206 1.249 8.964 1.09289 9.79853 0.953275C10.1588 0.892945 11.1586 0.854895 11.4999 0.855618C11.4999 0.855618 11.5003 0.855618 11.5004 0.855618H11.501C11.8423 0.854895 12.8421 0.892945 13.2023 0.953275C14.0369 1.09289 14.7988 1.249 15.7626 1.74336L16.0012 1.87357C15.9552 1.92247 15.8143 2.20329 15.7626 2.36012C15.5946 2.86678 15.665 3.36606 15.9623 3.7849H15.962ZM3.692 2.73425C4.06278 1.42 5.42297 1.4106 5.65694 1.4501C5.92114 1.49466 6.4922 1.66263 6.79313 2.15569C6.9363 2.39021 6.98127 2.55572 6.98127 2.82352C6.98127 3.28403 6.65735 3.76566 6.23191 3.93363C5.11148 4.37605 4.86044 3.60593 4.89124 3.24193C4.91872 2.91785 5.11929 2.80384 5.19347 2.76782C5.44726 2.64455 5.70727 2.74438 5.80343 2.96603C5.82831 3.03099 5.84378 3.28591 5.60807 3.31861C5.52723 3.32989 5.45377 3.33626 5.45377 3.33626C5.45377 3.33626 5.76974 3.49048 6.03755 3.39196C6.14095 3.35391 6.25259 3.24236 6.29322 3.14152C6.4212 2.82352 6.32764 2.54632 6.23046 2.39325C5.9398 1.91089 5.34257 1.91885 5.1096 1.99741C4.78192 2.10795 4.52075 2.3212 4.37282 2.63934C4.16169 3.09841 4.24209 3.69578 4.56529 4.08149C4.67158 4.20808 5.05075 4.68147 5.96279 4.53346C6.29872 4.47892 6.8893 4.20823 7.4164 3.90165C7.48682 3.86143 7.54568 3.8283 7.54712 3.8283C7.55002 3.8283 7.60887 3.79517 7.6793 3.75495C8.00973 3.56499 8.41897 3.38082 8.80536 3.25263C9.56485 2.99858 10.5428 2.85274 11.5003 2.83842C12.4579 2.85274 13.4359 2.99872 14.1952 3.25263C14.5816 3.38067 14.991 3.56499 15.3213 3.75495C15.3917 3.79532 15.4506 3.8283 15.4535 3.8283C15.4549 3.8283 15.5138 3.86143 15.5842 3.90165C16.1113 4.20823 16.7019 4.47892 17.0378 4.53346C17.95 4.68147 18.329 4.20823 18.4353 4.08149C18.7585 3.69578 18.8389 3.09855 18.6278 2.63934C18.4798 2.32134 18.2185 2.10795 17.891 1.99741C17.6582 1.91885 17.0608 1.91089 16.7701 2.39325C16.6729 2.54632 16.5794 2.82352 16.7074 3.14152C16.748 3.24236 16.8596 3.35391 16.963 3.39196C17.2308 3.49048 17.5468 3.33626 17.5468 3.33626C17.5468 3.33626 17.4733 3.32989 17.3925 3.31861C17.1568 3.28591 17.1723 3.03099 17.1971 2.96603C17.2933 2.74438 17.5533 2.64455 17.8071 2.76782C17.8814 2.80384 18.082 2.91785 18.1093 3.24193C18.1401 3.60593 17.8891 4.37605 16.7687 3.93363C16.3432 3.76566 16.0193 3.28403 16.0193 2.82352C16.0193 2.55587 16.0643 2.39036 16.2074 2.15569C16.5084 1.66263 17.0793 1.49466 17.3436 1.4501C17.5775 1.4106 18.9378 1.42 19.3086 2.73425C19.389 3.01956 19.3732 3.31571 19.3086 3.61939C19.2066 4.08713 19.0142 4.38647 18.6808 4.59524C18.3203 4.82122 17.8018 4.94203 17.3911 4.89458C16.8998 4.83699 16.2103 4.55487 15.5597 4.14471C15.1259 3.87127 14.7884 3.70142 14.3374 3.53157C13.6824 3.28547 12.7201 3.1055 11.9185 3.0783C11.8145 3.07497 11.4067 3.05153 11.0816 3.0783C10.2824 3.14398 9.31786 3.28547 8.66278 3.53157C8.21174 3.70142 7.87423 3.87127 7.4404 4.14471C6.78981 4.55487 6.10031 4.83699 5.60908 4.89458C5.19825 4.94203 4.67982 4.82122 4.31931 4.59524C3.98614 4.38661 3.79366 4.08728 3.69157 3.61939C3.62693 3.31571 3.61117 3.01956 3.69157 2.73425H3.692ZM2.96607 4.11621C3.04069 4.03563 3.27408 3.88994 3.27408 3.88994C3.27408 3.88994 3.30416 3.9575 3.34306 4.03678C3.54971 4.45736 3.74088 4.79663 4.03964 4.96793C4.08563 4.99382 4.15171 5.02102 4.15171 5.02102C4.15171 5.02102 3.59873 5.06718 3.27698 5.01683C3.1477 4.99672 2.83968 4.95303 2.78372 4.94724C2.78372 4.94724 2.77851 4.9319 2.76564 4.80097C2.73831 4.54475 2.82536 4.27015 2.96607 4.11621ZM2.01006 5.70202C2.09625 5.57398 2.46543 5.23211 3.149 5.44435C3.44602 5.53665 3.67465 5.56819 3.93899 5.57239C4.05685 5.57528 4.15229 5.57774 4.15229 5.57774C4.15229 5.57774 3.88158 5.75526 3.77096 5.80561C3.67465 5.85162 3.47654 5.92511 3.28406 5.98834C3.21219 6.01134 3.06136 6.04302 2.94655 6.06024C2.44953 6.12925 2.25286 6.16238 2.10492 6.19696C1.8306 6.26033 1.78823 6.26901 1.78823 6.26901C1.78823 6.26901 1.89235 5.87462 2.01006 5.70187V5.70202ZM1.1641 7.40024C1.25029 7.08499 1.49728 6.81155 1.78317 6.7152C1.96986 6.65183 2.12213 6.64184 3.04575 6.62738C3.30286 6.62304 3.65137 6.58368 3.65137 6.58368C3.65137 6.58368 3.4479 6.81748 3.32152 6.92107C3.0242 7.16283 2.81741 7.25499 2.24852 7.39894C1.80616 7.51121 1.31059 7.66225 1.18998 7.72273C1.15268 7.74139 1.12072 7.75788 1.12072 7.75788C1.12072 7.75788 1.13402 7.51251 1.1641 7.40024ZM0.92564 8.45234C1.14443 8.16616 1.36511 8.10988 1.93964 8.04507C2.25271 8.00904 2.54077 8.00774 2.73325 7.96882C2.89405 7.93714 3.13179 7.88809 3.13179 7.88809C3.13179 7.88809 2.74163 8.56808 1.89654 8.79045C1.31999 8.94221 1.07647 9.14303 0.869532 9.28987L0.618202 9.46841C0.618202 9.46841 0.723622 8.71652 0.92564 8.45234ZM0.496152 10.355C0.582194 10.1287 0.807784 9.87292 0.991726 9.74184C1.21442 9.58212 1.39099 9.5202 2.14079 9.34181C2.31027 9.30145 2.50766 9.24531 2.57881 9.2252C2.65198 9.20451 2.7266 9.18339 2.7266 9.18339C2.7266 9.18339 2.45806 9.8505 1.91086 10.0857C1.0555 10.4535 0.872424 10.7981 0.62254 11.0442C0.523483 11.142 0.467086 11.1974 0.467086 11.1974C0.467086 11.1974 0.396228 10.6179 0.496152 10.355ZM0.640327 12.8405C0.640327 12.8405 0.393335 12.578 0.529123 11.9871C0.56542 11.829 0.674165 11.6186 0.769029 11.492C0.94574 11.256 1.31623 11.0199 1.83479 10.8113C2.05026 10.7235 2.30737 10.5853 2.41366 10.4989C2.51417 10.4169 2.53456 10.3988 2.53456 10.3988C2.53456 10.3988 2.31894 11.4919 1.51145 11.9864C1.02441 12.2847 0.640327 12.8407 0.640327 12.8407V12.8405ZM1.09859 14.5703C1.09859 14.5703 0.82962 14.2731 0.875171 13.5571C0.938944 12.5536 1.90218 12.487 2.29566 11.9352L2.5548 11.5717C2.5548 11.5717 2.58097 11.9389 2.57345 12.1467C2.53427 13.2294 1.53444 13.0927 1.18521 14.23C1.13171 14.4045 1.09845 14.5703 1.09845 14.5703H1.09859ZM1.6925 16.0657C1.6925 16.0657 1.31131 15.2802 1.42815 14.7086C1.48947 14.4087 1.63205 14.3012 2.24837 13.6723C2.43073 13.4867 2.62031 13.2837 2.67063 13.2218C2.71951 13.1613 2.76535 13.1109 2.77113 13.1109C2.77837 13.1109 2.79095 13.1494 2.807 13.1944C3.00179 13.7373 2.77128 14.1778 2.45227 14.5645C1.60284 15.5943 1.6925 16.0655 1.6925 16.0655V16.0657ZM2.61742 17.5288C2.61742 17.5288 2.01642 17.2018 2.17708 16.0537C2.26761 15.4063 2.80121 15.2532 3.10301 14.6007C3.16837 14.4592 3.19498 14.3757 3.19498 14.3757C3.19498 14.3757 3.72338 15.4097 3.01032 16.2351C2.6352 16.6691 2.61756 17.5288 2.61756 17.5288H2.61742ZM3.65599 18.3124C3.65166 18.5109 3.64067 18.6978 3.64067 18.6978C3.64067 18.6978 3.4722 18.5612 3.34003 18.3857C3.1461 18.1281 3.08913 17.9313 3.05312 17.7043C2.94307 17.008 3.54031 16.2859 3.66525 16.0478C3.81767 15.7569 3.77718 15.6632 3.77718 15.6632C3.77718 15.6632 3.80957 15.6988 3.83849 15.7276C4.15779 16.0466 4.12988 16.5861 3.99828 16.896C3.75708 17.4643 3.66467 17.8604 3.65599 18.3124ZM8.42605 20.7576C8.06265 20.5388 7.97502 20.4266 7.6174 19.7169C7.45371 19.3917 7.38617 19.2838 7.23679 19.1054C6.92227 18.7311 6.53298 18.4579 6.06937 18.3548C5.51986 18.2325 4.74924 18.5648 4.62964 19.1816C4.59682 19.3509 4.44888 20.0181 5.12334 20.3683C5.28588 20.4526 5.41603 20.4742 5.61877 20.4704C5.99938 20.4634 6.33415 20.1019 6.16495 19.8251C6.14428 19.7914 6.1142 19.7717 6.1142 19.7717C6.1142 19.7717 6.13068 19.8159 6.1236 19.8499C6.09641 19.9799 5.95021 20.0336 5.8137 20.0452C5.74328 20.0524 5.64812 20.0465 5.58204 20.0135C5.33215 19.8911 5.29904 19.5051 5.52463 19.2982C5.8539 18.9961 6.22974 19.1703 6.31462 19.2133C6.64882 19.3826 6.70246 19.6608 6.71678 19.8638C6.7311 20.0667 6.7081 20.1861 6.62062 20.3603C6.44289 20.7324 6.14384 20.9564 5.65102 20.9964C4.74548 21.0701 4.23819 20.3178 4.10125 19.9257C4.03501 19.7362 4.02229 19.5586 4.02229 19.3413C4.02229 18.9643 4.11281 18.6807 4.31237 18.426C4.48475 18.2072 4.76775 18.0115 5.02052 17.9352C5.16556 17.8907 5.36527 17.8446 5.473 17.8316C5.62238 17.8115 5.96568 17.8273 6.11217 17.859C6.65373 17.9785 7.28856 18.3569 7.62753 18.7642C7.90908 19.101 8.01681 19.3227 8.25672 20.0624C8.31991 20.2567 8.39178 20.4595 8.41752 20.5157C8.53249 20.7661 8.56112 20.8295 8.56112 20.8295C8.56112 20.8295 8.47493 20.7864 8.42605 20.7576ZM4.57195 16.7409C4.5718 16.7351 4.57166 16.7321 4.57166 16.7321C4.57166 16.7321 4.62545 16.7638 4.6658 16.7954C4.74765 16.8601 4.99189 17.1237 4.94157 17.479C4.93593 17.5188 4.93 17.5279 4.75921 17.6158C4.66016 17.6676 4.50788 17.7568 4.4217 17.813C4.2823 17.9064 4.23833 17.9299 4.23833 17.9299C4.23833 17.9299 4.31859 17.8109 4.40116 17.6231C4.52321 17.3457 4.58033 17.0439 4.57195 16.7409ZM9.61965 21.1216C9.60245 21.1389 9.37266 21.0555 9.29935 21.0066C9.1974 20.9374 9.03211 20.7791 8.95749 20.6797C8.80811 20.4812 8.73479 20.3056 8.62576 19.8897C8.54536 19.5874 8.5108 19.4882 8.38007 19.2118C8.25079 18.9355 8.2343 18.8938 8.2343 18.8938C8.2343 18.8938 8.49069 18.8995 8.53668 18.9038C8.83978 18.937 9.07245 19.1327 9.21171 19.4723C9.26348 19.6004 9.28922 19.7084 9.3381 20.0164C9.40419 20.4394 9.47172 20.7 9.60389 21.0439C9.61821 21.0814 9.62544 21.1159 9.61965 21.1216ZM10.3838 21.2324C10.0222 21.042 9.8062 20.5042 9.73867 20.235C9.67113 19.9659 9.72753 19.7269 9.6613 19.4795C9.61199 19.2953 9.59044 19.2398 9.59044 19.2398C9.59044 19.2398 9.7618 19.1654 9.95283 19.1697C10.1267 19.1726 10.1732 19.1883 10.2538 19.2272C10.3644 19.2833 10.6457 19.4247 10.6367 20.3159C10.6308 20.9007 10.6769 21.021 10.7243 21.152C10.7459 21.2095 10.7745 21.2906 10.7745 21.2906C10.7745 21.2906 10.5268 21.3078 10.3839 21.2326L10.3838 21.2324ZM11.9889 20.6538C11.933 20.9519 11.818 21.1533 11.6356 21.2757L11.6341 21.2767C11.5526 21.3296 11.4477 21.3296 11.3662 21.2767L11.3646 21.2757C11.1823 21.1533 11.0673 20.9519 11.0114 20.6538C10.9496 20.3228 10.9525 19.6839 11.0186 19.5083C11.0503 19.4234 11.1307 19.3399 11.2154 19.3039C11.2504 19.2892 11.2984 19.2742 11.3474 19.2615C11.4477 19.2354 11.5528 19.2354 11.653 19.2615C11.7022 19.2742 11.75 19.2892 11.785 19.3039C11.8698 19.3399 11.9502 19.4234 11.9818 19.5083C12.0479 19.6839 12.0508 20.3228 11.9891 20.6538H11.9889ZM12.1225 19.0708C11.9539 18.9561 11.7424 18.8923 11.5007 18.8844C11.5007 18.8844 11.5004 18.8844 11.5001 18.8844C11.5 18.8844 11.4999 18.8844 11.4996 18.8844C11.2579 18.8924 11.0464 18.9561 10.8777 19.0709C10.8446 19.0939 10.8146 19.1126 10.8088 19.1126C10.8044 19.1126 10.7412 19.0738 10.671 19.0249C10.5991 18.9773 10.4799 18.9083 10.4066 18.8723C10.2846 18.8133 10.1846 18.7881 10.0338 18.7751C9.77959 18.7521 9.6065 18.7931 9.4629 18.8536L9.35227 18.9011L9.23442 18.7903C9.09371 18.6579 8.92842 18.5701 8.71021 18.5139C8.5134 18.4636 8.26062 18.4607 8.09548 18.5067L7.98341 18.5398L7.81537 18.3743C7.50793 18.0721 7.27092 17.9095 6.87889 17.7311C6.55135 17.5813 6.28281 17.5051 5.91652 17.4591C5.79302 17.4432 5.67661 17.4231 5.65651 17.4144C5.61197 17.3928 5.58753 17.3439 5.51291 17.1208C5.4354 16.8847 5.37496 16.7625 5.28169 16.6516C5.15964 16.5033 4.9527 16.3307 4.79045 16.2415C4.54765 16.1091 4.52755 16.0874 4.49458 15.9306C4.47593 15.8399 4.37962 15.6283 4.30211 15.5061C4.23747 15.4052 4.09676 15.2556 3.96025 15.1434C3.90573 15.1001 3.85396 15.0469 3.84254 15.0253C3.83112 15.0038 3.81232 14.9087 3.80089 14.8138C3.75635 14.4496 3.67884 14.2769 3.44038 14.0179L3.36143 13.9316L3.38326 13.6478C3.41262 13.2519 3.24357 12.9731 3.10865 12.7657C3.01104 12.616 3.01104 12.6133 3.01249 12.5211C3.01249 12.4693 3.01972 12.3728 3.02825 12.3052C3.05977 12.0318 3.02391 11.6389 2.95074 11.4648C2.93064 11.4159 2.9062 11.3598 2.89767 11.3382C2.8848 11.3051 2.88899 11.2806 2.92211 11.187C3.03273 10.8776 3.13179 10.4071 3.04126 10.0904C3.01191 9.9878 3.00974 9.94787 3.10157 9.75646C3.24661 9.45278 3.29259 9.27714 3.3098 8.95914C3.32031 8.78167 3.36148 8.63916 3.4333 8.53162C3.61001 8.26397 3.70907 8.03509 3.77081 7.75022C3.80523 7.59339 3.83835 7.52423 3.93307 7.39909C4.11686 7.16167 4.19596 7.04361 4.26335 6.91123C4.35243 6.73704 4.39119 6.61913 4.42141 6.43047L4.44585 6.28218L4.58944 6.18568C4.88965 5.98125 5.06058 5.76828 5.19275 5.43292L5.23729 5.31776L5.56049 5.30908C5.7602 5.30329 5.93257 5.29186 6.01442 5.27595C6.45822 5.19536 6.86182 5.00829 7.56274 4.55777C7.67337 4.48586 7.82564 4.38936 7.90026 4.34046C8.49344 3.96199 9.3825 3.66684 10.3564 3.52737C10.523 3.50292 10.8559 3.46024 11.053 3.44968C11.32 3.43536 11.6111 3.42407 11.9473 3.44968C12.1441 3.46473 12.4773 3.50292 12.6439 3.52737C13.6176 3.66699 14.5067 3.96199 15.1 4.34046C15.1747 4.38936 15.3269 4.48586 15.4375 4.55777C16.1385 5.00829 16.5421 5.19536 16.9859 5.27595C17.0677 5.29172 17.2401 5.30329 17.4398 5.30908L17.763 5.31776L17.8075 5.43292C17.9397 5.76828 18.1106 5.98125 18.4108 6.18568L18.5544 6.28218L18.5789 6.43047C18.6091 6.61898 18.6479 6.73704 18.7369 6.91123C18.8045 7.04361 18.8834 7.16167 19.0672 7.39909C19.1619 7.52423 19.1951 7.59339 19.2295 7.75022C19.2912 8.03523 19.3903 8.26397 19.567 8.53162C19.6388 8.63907 19.68 8.78157 19.6905 8.95914C19.7077 9.27714 19.7537 9.45278 19.8987 9.75646C19.9907 9.94787 19.9884 9.9878 19.959 10.0904C19.8685 10.4071 19.9677 10.8776 20.0782 11.187C20.1112 11.2806 20.1155 11.3051 20.1026 11.3382C20.0939 11.3598 20.0695 11.4159 20.0494 11.4648C19.9761 11.639 19.9402 12.0318 19.9719 12.3052C19.9806 12.3728 19.9877 12.4693 19.9877 12.5211C19.9891 12.6133 19.9891 12.6161 19.8913 12.7657C19.7563 12.9731 19.5874 13.2519 19.6167 13.6478L19.6386 13.9316L19.5596 14.0179C19.3212 14.277 19.2436 14.4496 19.1991 14.8138C19.1877 14.9087 19.1689 15.0038 19.1575 15.0253C19.146 15.0469 19.0943 15.1001 19.0397 15.1434C18.9032 15.2556 18.7625 15.4052 18.6979 15.5061C18.6204 15.6283 18.5241 15.8399 18.5054 15.9306C18.4725 16.0874 18.4523 16.1091 18.2096 16.2415C18.0473 16.3307 17.8404 16.5033 17.7183 16.6516C17.6249 16.7625 17.5646 16.8847 17.4871 17.1208C17.4123 17.3439 17.388 17.3928 17.3435 17.4144C17.3234 17.4231 17.207 17.4432 17.0835 17.4591C16.7172 17.5051 16.4487 17.5813 16.1211 17.7311C15.7289 17.9095 15.4919 18.0721 15.1846 18.3743L15.0166 18.5398L14.9045 18.5067C14.7394 18.4607 14.4866 18.4636 14.2898 18.5139C14.0714 18.5701 13.9063 18.6579 13.7656 18.7903L13.6477 18.9011L13.5371 18.8536C13.3935 18.7931 13.2204 18.7521 12.9662 18.7751C12.8154 18.7881 12.7156 18.8133 12.5934 18.8723C12.5201 18.9083 12.4009 18.9773 12.329 19.0249C12.2586 19.0738 12.1954 19.1126 12.1912 19.1126C12.1854 19.1126 12.1554 19.0939 12.1223 19.0709L12.1225 19.0708ZM18.5994 17.6231C18.682 17.8109 18.7622 17.9299 18.7622 17.9299C18.7622 17.9299 18.7183 17.9064 18.5789 17.813C18.4927 17.7568 18.3404 17.6676 18.2414 17.6158C18.0704 17.5279 18.0647 17.5188 18.059 17.479C18.0087 17.1237 18.2529 16.8601 18.3348 16.7954C18.375 16.7638 18.4289 16.7321 18.4289 16.7321C18.4289 16.7321 18.4289 16.7351 18.4286 16.7409C18.4204 17.0439 18.4774 17.3458 18.5994 17.6231ZM13.3391 19.4795C13.2729 19.7269 13.3292 19.9659 13.2618 20.235C13.1942 20.5042 12.9782 21.042 12.6167 21.2324C12.4738 21.3076 12.2261 21.2904 12.2261 21.2904C12.2261 21.2904 12.2547 21.2094 12.2763 21.1518C12.3237 21.0209 12.3698 20.9005 12.3639 20.3157C12.3549 19.4245 12.6362 19.2832 12.7468 19.227C12.8272 19.1881 12.8739 19.1725 13.0477 19.1696C13.2388 19.1653 13.4101 19.2396 13.4101 19.2396C13.4101 19.2396 13.3884 19.2952 13.3393 19.4794L13.3391 19.4795ZM14.3747 19.8897C14.2655 20.3056 14.1923 20.4812 14.0429 20.6797C13.9683 20.7791 13.803 20.9374 13.7011 21.0066C13.6278 21.0555 13.398 21.1389 13.3808 21.1216C13.375 21.1159 13.3822 21.0814 13.3965 21.0439C13.5287 20.7 13.5962 20.4394 13.6623 20.0164C13.7112 19.7084 13.7299 19.0297 14.4638 18.9038C14.5093 18.896 14.7661 18.8938 14.7661 18.8938C14.7661 18.8938 14.7496 18.9355 14.6204 19.2118C14.4896 19.4882 14.4552 19.5874 14.3747 19.8897ZM18.8992 19.9257C18.7622 20.3178 18.255 21.0701 17.3494 20.9964C16.8566 20.9564 16.5577 20.7324 16.3798 20.3603C16.2922 20.1861 16.2692 20.0667 16.2837 19.8638C16.298 19.6608 16.3518 19.3826 16.6858 19.2133C16.7707 19.1703 17.1465 18.9961 17.4758 19.2982C17.7014 19.5051 17.6683 19.8911 17.4184 20.0135C17.3523 20.0465 17.2572 20.0524 17.1867 20.0452C17.0502 20.0336 16.904 19.9799 16.8768 19.8499C16.8698 19.8159 16.8862 19.7717 16.8862 19.7717C16.8862 19.7717 16.8562 19.7913 16.8355 19.8251C16.6661 20.1019 17.0009 20.4634 17.3817 20.4704C17.5844 20.4742 17.7146 20.4526 17.8771 20.3683C18.5517 20.0183 18.4036 19.3509 18.3708 19.1816C18.2512 18.5648 17.4806 18.2325 16.9311 18.3548C16.4675 18.4579 16.0783 18.7311 15.7636 19.1054C15.6143 19.2838 15.5467 19.3917 15.383 19.7169C15.0254 20.4266 14.9378 20.5388 14.5744 20.7576C14.5255 20.7864 14.4393 20.8295 14.4393 20.8295C14.4393 20.8295 14.4681 20.7661 14.5829 20.5157C14.6088 20.4595 14.6805 20.2567 14.7437 20.0624C14.9836 19.3227 15.0914 19.101 15.3728 18.7642C15.7117 18.3569 16.3466 17.9785 16.8881 17.859C17.0346 17.8273 17.3779 17.8115 17.5273 17.8316C17.635 17.8446 17.8347 17.8907 17.9798 17.9352C18.2325 18.0115 18.5155 18.2072 18.6879 18.426C18.8876 18.6807 18.978 18.9643 18.978 19.3413C18.978 19.5586 18.9653 19.7362 18.899 19.9257H18.8992ZM19.9473 17.7043C19.9115 17.9313 19.8543 18.1281 19.6604 18.3857C19.5282 18.5612 19.3598 18.6978 19.3598 18.6978C19.3598 18.6978 19.3488 18.5109 19.3444 18.3124C19.3358 17.8604 19.2435 17.4643 19.0022 16.896C18.8706 16.5861 18.8426 16.0466 19.1619 15.7276C19.1907 15.6988 19.2233 15.6632 19.2233 15.6632C19.2233 15.6632 19.1826 15.7569 19.3352 16.0478C19.4601 16.2859 20.0574 17.008 19.9473 17.7043ZM20.383 17.5288C20.383 17.5288 20.3652 16.6691 19.9903 16.2351C19.2771 15.4097 19.8056 14.3757 19.8056 14.3757C19.8056 14.3757 19.8321 14.4592 19.8976 14.6007C20.1994 15.2532 20.733 15.4063 20.8235 16.0537C20.984 17.2018 20.3832 17.5288 20.3832 17.5288H20.383ZM21.3079 16.0657C21.3079 16.0657 21.3976 15.5945 20.5482 14.5647C20.2292 14.1778 19.9986 13.7373 20.1934 13.1946C20.2096 13.1496 20.2222 13.1111 20.2293 13.1111C20.2351 13.1111 20.2811 13.1614 20.3298 13.2219C20.3801 13.2838 20.5697 13.4867 20.7521 13.6724C21.3682 14.3014 21.5108 14.4088 21.5723 14.7088C21.6891 15.2804 21.3079 16.0658 21.3079 16.0658V16.0657ZM21.9018 14.5703C21.9018 14.5703 21.8686 14.4045 21.8151 14.23C21.4658 13.0927 20.466 13.2294 20.4268 12.1467C20.4193 11.9389 20.4455 11.5717 20.4455 11.5717L20.7046 11.9352C21.0981 12.487 22.0613 12.5536 22.1251 13.5571C22.1707 14.2731 21.9017 14.5703 21.9017 14.5703H21.9018ZM22.3601 12.8405C22.3601 12.8405 21.976 12.2845 21.489 11.9862C20.6815 11.4917 20.4659 10.3987 20.4659 10.3987C20.4659 10.3987 20.4863 10.4168 20.5868 10.4988C20.6931 10.5852 20.9502 10.7233 21.1656 10.8112C21.6842 11.0198 22.0547 11.2559 22.2314 11.4919C22.3263 11.6185 22.4349 11.8288 22.4713 11.9869C22.6071 12.578 22.3601 12.8404 22.3601 12.8404V12.8405ZM22.5333 11.1976C22.5333 11.1976 22.477 11.1423 22.3779 11.0444C22.128 10.7983 21.9448 10.4537 21.0896 10.0859C20.5425 9.85064 20.2738 9.18354 20.2738 9.18354C20.2738 9.18354 20.3485 9.20466 20.4216 9.22535C20.4929 9.24546 20.6902 9.30159 20.8596 9.34196C21.6094 9.52034 21.786 9.58227 22.0087 9.74199C22.1925 9.87292 22.4182 10.1289 22.5043 10.3551C22.6042 10.618 22.5333 11.1976 22.5333 11.1976Z" fill="black"/>
<path d="M13.1152 8.78215C13.1152 7.87986 12.3917 7.14844 11.499 7.14844C10.6064 7.14844 9.88281 7.87986 9.88281 8.78215C9.88281 9.39542 10.217 9.92969 10.7114 10.209C10.714 10.2105 10.7166 10.2118 10.7191 10.2132L10.2968 14.6701H12.7257L12.3032 10.1995C12.7885 9.91755 13.1152 9.38849 13.1152 8.78215Z" fill="black"/>
</svg>
