<svg width="16" height="16" viewBox="0 0 16 16" fill="none" xmlns="http://www.w3.org/2000/svg">
<g clip-path="url(#clip0_4720_8570)">
<path d="M8.00156 13.9335L11.3016 10.6335C11.9542 9.98088 12.3986 9.14936 12.5786 8.24412C12.7586 7.33889 12.6662 6.40061 12.313 5.54791C11.9597 4.69522 11.3616 3.96641 10.5942 3.45365C9.82676 2.9409 8.92452 2.66721 8.00156 2.66721C7.07861 2.66721 6.17637 2.9409 5.40895 3.45365C4.64153 3.96641 4.0434 4.69522 3.69017 5.54791C3.33695 6.40061 3.24451 7.33889 3.42453 8.24412C3.60456 9.14936 4.04897 9.98088 4.70157 10.6335L8.00156 13.9335ZM8.00156 15.8189L3.7589 11.5762C2.91979 10.7371 2.34835 9.66799 2.11685 8.50411C1.88534 7.34022 2.00417 6.13383 2.4583 5.03748C2.91242 3.94112 3.68146 3.00406 4.66815 2.34477C5.65484 1.68549 6.81488 1.33359 8.00156 1.33359C9.18825 1.33359 10.3483 1.68549 11.335 2.34477C12.3217 3.00406 13.0907 3.94112 13.5448 5.03748C13.999 6.13383 14.1178 7.34022 13.8863 8.50411C13.6548 9.66799 13.0833 10.7371 12.2442 11.5762L8.00156 15.8189ZM8.00156 8.66688C8.35519 8.66688 8.69432 8.5264 8.94437 8.27635C9.19442 8.0263 9.3349 7.68716 9.3349 7.33354C9.3349 6.97992 9.19442 6.64078 8.94437 6.39073C8.69432 6.14068 8.35519 6.00021 8.00156 6.00021C7.64794 6.00021 7.3088 6.14068 7.05876 6.39073C6.80871 6.64078 6.66823 6.97992 6.66823 7.33354C6.66823 7.68716 6.80871 8.0263 7.05876 8.27635C7.3088 8.5264 7.64794 8.66688 8.00156 8.66688ZM8.00156 10.0002C7.29432 10.0002 6.61604 9.71926 6.11595 9.21916C5.61585 8.71906 5.3349 8.04079 5.3349 7.33354C5.3349 6.6263 5.61585 5.94802 6.11595 5.44792C6.61604 4.94783 7.29432 4.66688 8.00156 4.66688C8.70881 4.66688 9.38709 4.94783 9.88718 5.44792C10.3873 5.94802 10.6682 6.6263 10.6682 7.33354C10.6682 8.04079 10.3873 8.71906 9.88718 9.21916C9.38709 9.71926 8.70881 10.0002 8.00156 10.0002Z" fill="black"/>
<path fill-rule="evenodd" clip-rule="evenodd" d="M8.00156 1.48359C6.84455 1.48359 5.71351 1.82669 4.75149 2.46949C3.78946 3.11229 3.03965 4.02594 2.59688 5.09488C2.1541 6.16382 2.03825 7.34006 2.26397 8.47485C2.48968 9.60963 3.04684 10.652 3.86497 11.4701L8.00156 15.6067L12.1382 11.4701C12.9563 10.652 13.5134 9.60963 13.7392 8.47485C13.9649 7.34006 13.849 6.16382 13.4063 5.09488C12.9635 4.02594 12.2137 3.11229 11.2516 2.46949C10.2896 1.82669 9.15858 1.48359 8.00156 1.48359ZM4.58482 2.22005C5.59618 1.54428 6.78521 1.18359 8.00156 1.18359C9.21792 1.18359 10.407 1.54428 11.4183 2.22005C12.4297 2.89582 13.2179 3.85631 13.6834 4.98007C14.1489 6.10383 14.2707 7.34039 14.0334 8.53337C13.7961 9.72635 13.2104 10.8222 12.3503 11.6823L8.00156 16.031L3.65283 11.6823C2.79275 10.8222 2.20702 9.72635 1.96973 8.53337C1.73244 7.34039 1.85423 6.10383 2.31971 4.98007C2.78519 3.85631 3.57346 2.89582 4.58482 2.22005ZM5.32562 3.32893C6.11771 2.79969 7.04894 2.51721 8.00156 2.51721C8.95419 2.51721 9.88542 2.79969 10.6775 3.32893C11.4696 3.85817 12.087 4.6104 12.4515 5.49051C12.8161 6.37061 12.9115 7.33905 12.7257 8.27338C12.5399 9.20771 12.0812 10.066 11.4076 10.7396L8.00156 14.1457L4.5955 10.7396C3.92193 10.066 3.46323 9.20771 3.27741 8.27338C3.0916 7.33905 3.18702 6.37061 3.55159 5.49051C3.91617 4.6104 4.53353 3.85817 5.32562 3.32893ZM8.00156 2.81721C7.10827 2.81721 6.23504 3.0821 5.49229 3.57838C4.74954 4.07465 4.17062 4.78003 3.82875 5.60532C3.48688 6.4306 3.39741 7.33873 3.57165 8.21487C3.74589 9.091 4.17601 9.89579 4.80763 10.5275C4.80763 10.5275 4.80763 10.5275 4.80763 10.5275L8.00156 13.7214L11.1955 10.5275C11.1955 10.5275 11.1955 10.5275 11.1955 10.5275C11.8271 9.8958 12.2572 9.091 12.4315 8.21487C12.6057 7.33873 12.5162 6.4306 12.1744 5.60532C11.8325 4.78003 11.2536 4.07465 10.5108 3.57838C9.76809 3.0821 8.89486 2.81721 8.00156 2.81721ZM8.00156 4.81688C7.3341 4.81688 6.69398 5.08202 6.22201 5.55399C5.75005 6.02596 5.4849 6.66608 5.4849 7.33354C5.4849 8.001 5.75005 8.64113 6.22201 9.11309C6.69398 9.58506 7.3341 9.85021 8.00156 9.85021C8.66903 9.85021 9.30915 9.58506 9.78112 9.11309C10.2531 8.64113 10.5182 8.001 10.5182 7.33354C10.5182 6.66608 10.2531 6.02596 9.78112 5.55399C9.30915 5.08202 8.66903 4.81688 8.00156 4.81688ZM6.00988 5.34186C6.53811 4.81363 7.25454 4.51688 8.00156 4.51688C8.74859 4.51688 9.46502 4.81363 9.99325 5.34186C10.5215 5.87009 10.8182 6.58652 10.8182 7.33354C10.8182 8.08057 10.5215 8.797 9.99325 9.32523C9.46502 9.85345 8.74859 10.1502 8.00156 10.1502C7.25454 10.1502 6.53811 9.85345 6.00988 9.32523C5.48165 8.797 5.1849 8.08057 5.1849 7.33354C5.1849 6.58652 5.48165 5.87009 6.00988 5.34186ZM6.95269 6.28467C7.23087 6.00649 7.60816 5.85021 8.00156 5.85021C8.39497 5.85021 8.77226 6.00649 9.05044 6.28467C9.32862 6.56285 9.4849 6.94014 9.4849 7.33354C9.4849 7.72695 9.32862 8.10424 9.05044 8.38242C8.77226 8.6606 8.39497 8.81688 8.00156 8.81688C7.60816 8.81688 7.23087 8.6606 6.95269 8.38242C6.67451 8.10424 6.51823 7.72695 6.51823 7.33354C6.51823 6.94014 6.67451 6.56285 6.95269 6.28467ZM8.00156 6.15021C7.68773 6.15021 7.38674 6.27488 7.16482 6.4968C6.9429 6.71872 6.81823 7.0197 6.81823 7.33354C6.81823 7.64738 6.9429 7.94837 7.16482 8.17028C7.38674 8.3922 7.68773 8.51688 8.00156 8.51688C8.3154 8.51688 8.61639 8.3922 8.83831 8.17028C9.06023 7.94837 9.1849 7.64738 9.1849 7.33354C9.1849 7.0197 9.06023 6.71872 8.83831 6.4968C8.61639 6.27488 8.3154 6.15021 8.00156 6.15021Z" fill="black"/>
</g>
<defs>
<clipPath id="clip0_4720_8570">
<rect width="16" height="16" fill="white"/>
</clipPath>
</defs>
</svg>
