<svg width="14" height="14" viewBox="0 0 14 14" fill="none" xmlns="http://www.w3.org/2000/svg">
<path fill-rule="evenodd" clip-rule="evenodd" d="M2.91667 7.07227C2.63477 7.07227 2.40625 7.30079 2.40625 7.58268V11.666C2.40625 11.9479 2.63477 12.1764 2.91667 12.1764H11.0833C11.3652 12.1764 11.5938 11.9479 11.5938 11.666V7.58268C11.5938 7.30079 11.3652 7.07227 11.0833 7.07227H2.91667ZM1.09375 7.58268C1.09375 6.57591 1.9099 5.75977 2.91667 5.75977H11.0833C12.0901 5.75977 12.9062 6.57591 12.9062 7.58268V11.666C12.9062 12.6728 12.0901 13.4889 11.0833 13.4889H2.91667C1.9099 13.4889 1.09375 12.6728 1.09375 11.666V7.58268Z" fill="black"/>
<path fill-rule="evenodd" clip-rule="evenodd" d="M7 1.82227C6.4005 1.82227 5.82555 2.06042 5.40164 2.48433C4.97773 2.90824 4.73958 3.48318 4.73958 4.08268V6.41602C4.73958 6.77845 4.44577 7.07227 4.08333 7.07227C3.7209 7.07227 3.42708 6.77845 3.42708 6.41602V4.08268C3.42708 3.13509 3.80351 2.2263 4.47357 1.55625C5.14362 0.886197 6.0524 0.509766 7 0.509766C7.9476 0.509766 8.85638 0.886197 9.52643 1.55625C10.1965 2.2263 10.5729 3.13509 10.5729 4.08268V6.41602C10.5729 6.77845 10.2791 7.07227 9.91667 7.07227C9.55423 7.07227 9.26042 6.77845 9.26042 6.41602V4.08268C9.26042 3.48318 9.02227 2.90824 8.59836 2.48433C8.17445 2.06042 7.5995 1.82227 7 1.82227Z" fill="black"/>
</svg>
