<svg width="81" height="32" viewBox="0 0 81 32" fill="none" xmlns="http://www.w3.org/2000/svg">
<path d="M4.27186 30.8696C4.2172 30.8841 4.15449 30.8905 4.08375 30.8905C3.97282 30.8905 3.89564 30.8471 3.85545 30.7619C3.81525 30.6766 3.79114 30.5625 3.7831 30.4193C3.77506 30.2762 3.77024 30.1218 3.76863 29.953C3.76702 29.7841 3.74934 29.6153 3.71718 29.4448C3.68502 29.2743 3.62393 29.1183 3.53229 28.9768C3.44064 28.8337 3.30237 28.7195 3.11909 28.6343C2.96474 28.5619 2.75895 28.5217 2.51296 28.5104C2.74448 28.4944 2.95188 28.459 3.13034 28.4027C3.38276 28.3223 3.5757 28.1952 3.70914 28.02C3.84098 27.8447 3.90851 27.6147 3.90851 27.3301C3.90851 27.0454 3.83776 26.8106 3.69628 26.6241C3.55479 26.4391 3.35704 26.3008 3.1014 26.2108C2.84576 26.1207 2.54833 26.0757 2.20909 26.0757H0V26.2043H0.705814V30.8793H0V31.0079H2.1496V30.8793H1.44378V28.5748H2.13995C2.34092 28.5748 2.49849 28.6101 2.61264 28.6793C2.72679 28.7501 2.80879 28.8433 2.86023 28.9607C2.91168 29.0781 2.94384 29.21 2.95831 29.3563C2.97278 29.5027 2.98082 29.6538 2.98243 29.8098C2.98403 29.9658 2.99207 30.117 3.00493 30.2633C3.0178 30.4097 3.04995 30.5416 3.1014 30.6589C3.15285 30.7763 3.23485 30.8696 3.34739 30.9388C3.45994 31.0079 3.61589 31.0417 3.81525 31.0417C3.96156 31.0417 4.0934 31.0304 4.20916 31.0079C4.32492 30.987 4.41013 30.9613 4.46158 30.9323L4.41496 30.8117C4.37637 30.8375 4.32653 30.8551 4.27186 30.8696ZM2.16246 26.2059C2.37308 26.2059 2.55154 26.2494 2.69624 26.3346C2.84255 26.4198 2.95188 26.5469 3.02744 26.7125C3.10301 26.8782 3.13999 27.0856 3.13999 27.3301C3.13999 27.5761 3.10301 27.7803 3.02744 27.946C2.95188 28.1116 2.84094 28.2355 2.69624 28.3207C2.59013 28.3818 2.46794 28.4204 2.32806 28.4365H1.44218V26.2043H2.16246V26.2059Z" fill="black"/>
<path d="M6.77734 26.2057H7.50406V30.8806H6.77734V31.0092H9.02502V30.8806H8.2356V26.2057H9.02502V26.0786H6.77734V26.2057Z" fill="black"/>
<path d="M15.2125 30.1346C15.1353 30.2906 15.034 30.4256 14.9054 30.543C14.7768 30.6604 14.6273 30.7521 14.4536 30.818C14.28 30.884 14.0854 30.9161 13.8684 30.9161C13.5951 30.9161 13.3635 30.8502 13.1754 30.7167C12.9873 30.5832 12.8362 30.4047 12.722 30.178C12.6079 29.9512 12.5259 29.6955 12.4744 29.4141C12.423 29.1311 12.3973 28.8416 12.3973 28.5425C12.3973 28.245 12.423 27.9539 12.4744 27.6709C12.5259 27.3878 12.6095 27.1337 12.722 26.907C12.8346 26.6802 12.9873 26.5001 13.1754 26.3682C13.3635 26.2364 13.5951 26.1688 13.8684 26.1688C14.1047 26.1688 14.3266 26.2219 14.5308 26.3264C14.735 26.431 14.9054 26.5805 15.0421 26.7735C15.1787 26.9665 15.2623 27.1932 15.2961 27.4538H15.4279V26.0756H15.3138L14.9199 26.431C14.7752 26.2975 14.608 26.1946 14.415 26.1206C14.2221 26.0466 14.0195 26.0112 13.8057 26.0112C13.3475 26.0112 12.9487 26.1206 12.6095 26.3393C12.2703 26.558 12.0066 26.8587 11.8185 27.2383C11.632 27.6178 11.5371 28.0536 11.5371 28.5409C11.5371 29.0281 11.6304 29.4607 11.8185 29.8435C12.0066 30.2246 12.2686 30.5253 12.6095 30.7441C12.9487 30.9628 13.3475 31.0721 13.8057 31.0721C14.0533 31.0721 14.28 31.0319 14.4874 30.9531C14.6948 30.8743 14.8716 30.765 15.0179 30.6283L15.3797 31.0062H15.4938V29.628H15.362C15.3379 29.8113 15.2897 29.9786 15.2125 30.1346Z" fill="black"/>
<path d="M20.8102 26.2057H21.4517V28.433H19.3937V26.2057H20.032V26.0786H18.0625V26.2057H18.6574V30.8806H18.0625V31.0092H20.032V30.8806H19.3937V28.642H21.4517V30.8806H20.8102V31.0092H22.7765V30.8806H22.1848V26.2057H22.7765V26.0786H20.8102V26.2057Z" fill="black"/>
<path d="M27.6646 26H27.3768L25.6517 30.8808H25.1211V31.0094H26.5713V30.8808H25.8751L26.3671 29.4704H28.0585L28.5135 30.8808H27.8656V31.0094H29.8737V30.8808H29.3608L27.6646 26ZM26.4298 29.2887L27.245 26.9536L27.999 29.2887H26.4298Z" fill="black"/>
<path d="M66.0083 26.0015H65.7206L63.9954 30.8855H63.4648V31.0141H64.9151V30.8855H64.2189L64.7302 29.4188H66.383L66.8573 30.8855H66.2093V31.0141H68.2174V30.8855H67.7046L66.0083 26.0015ZM64.772 29.2918L65.5871 26.9567L66.3412 29.2918H64.772Z" fill="black"/>
<path d="M36.4933 30.8696C36.4386 30.8841 36.3759 30.8905 36.3068 30.8905C36.1942 30.8905 36.1186 30.8471 36.0785 30.7619C36.0383 30.6766 36.0141 30.5625 36.0061 30.4193C35.9981 30.2762 35.9932 30.1218 35.9916 29.953C35.99 29.7841 35.9723 29.6153 35.9402 29.4448C35.908 29.2743 35.8469 29.1183 35.7553 28.9768C35.6636 28.8337 35.527 28.7195 35.3437 28.6343C35.1894 28.5619 34.9852 28.5217 34.7376 28.5104C34.9691 28.4944 35.1749 28.459 35.3533 28.4027C35.6058 28.3223 35.7987 28.1952 35.9321 28.02C36.064 27.8447 36.1315 27.6147 36.1315 27.3301C36.1315 27.0454 36.0608 26.8106 35.9193 26.6241C35.7778 26.4391 35.58 26.3008 35.3244 26.2108C35.0688 26.1207 34.7713 26.0757 34.4321 26.0757H32.2246V26.2043H32.9304V30.8793H32.2246V31.0079H34.3742V30.8793H33.6684V28.5748H34.3646C34.5655 28.5748 34.7231 28.6101 34.8372 28.6793C34.9514 28.7485 35.0334 28.8433 35.0865 28.9607C35.1379 29.0781 35.1701 29.21 35.1845 29.3563C35.199 29.5027 35.207 29.6538 35.2086 29.8098C35.2103 29.9658 35.2183 30.117 35.2312 30.2633C35.244 30.4097 35.2762 30.5416 35.3276 30.6589C35.3791 30.7763 35.4611 30.8696 35.5736 30.9388C35.6862 31.0079 35.8421 31.0417 36.0415 31.0417C36.1878 31.0417 36.3196 31.0304 36.4354 31.0079C36.5511 30.987 36.6363 30.9613 36.6878 30.9323L36.6412 30.8117C36.5978 30.8375 36.5479 30.8551 36.4933 30.8696ZM34.3839 26.2059C34.5945 26.2059 34.7713 26.2494 34.9176 26.3346C35.0639 26.4198 35.1733 26.5469 35.2488 26.7125C35.3244 26.8782 35.3614 27.0856 35.3614 27.3301C35.3614 27.5761 35.3244 27.7803 35.2488 27.946C35.1733 28.1116 35.0623 28.2355 34.9176 28.3207C34.8147 28.3802 34.6974 28.4172 34.5639 28.4349H33.6636V26.2059H34.3839Z" fill="black"/>
<path d="M42.1975 26.3986C41.839 26.1848 41.4113 26.0786 40.9145 26.0786H38.998V26.2073H39.5929V30.8822H38.998V31.0108H40.9145C41.2714 31.0108 41.5978 30.9497 41.8904 30.8275C42.1831 30.7053 42.4371 30.5332 42.6509 30.3113C42.8648 30.0894 43.0287 29.8288 43.1445 29.5281C43.2603 29.2274 43.3165 28.9009 43.3165 28.5455C43.3165 28.0727 43.2201 27.6498 43.0255 27.2783C42.831 26.9068 42.5561 26.6125 42.1975 26.3986ZM42.3728 29.422C42.3197 29.7018 42.2329 29.9527 42.1139 30.1714C41.9949 30.3901 41.8358 30.5638 41.6396 30.6908C41.4435 30.8179 41.2007 30.8822 40.9113 30.8822H40.3261V26.2073H40.9113C41.1862 26.2073 41.4194 26.2716 41.6139 26.3986C41.8068 26.5257 41.966 26.6994 42.0882 26.9181C42.2104 27.1368 42.302 27.3877 42.3599 27.6675C42.4194 27.9473 42.4499 28.24 42.4499 28.5455C42.4516 28.8479 42.4258 29.1406 42.3728 29.422Z" fill="black"/>
<path d="M61.0039 30.8647C60.9493 30.8792 60.8866 30.8856 60.8158 30.8856C60.7049 30.8856 60.6277 30.8422 60.5875 30.757C60.5473 30.6718 60.5232 30.5576 60.5152 30.4145C60.5071 30.2713 60.5023 30.1169 60.5007 29.9481C60.4991 29.7792 60.4814 29.6104 60.4493 29.4399C60.4171 29.2694 60.356 29.1134 60.2644 28.9719C60.1727 28.8288 60.0345 28.7146 59.8512 28.6294C59.6952 28.557 59.491 28.5168 59.2434 28.5056C59.4749 28.4895 59.6823 28.4541 59.8608 28.3978C60.1132 28.3174 60.3062 28.1904 60.4396 28.0151C60.5714 27.8398 60.639 27.6098 60.639 27.3252C60.639 27.0405 60.5682 26.8057 60.4268 26.6192C60.2853 26.4342 60.0875 26.2959 59.8319 26.2059C59.5762 26.1158 59.2788 26.0708 58.9396 26.0708H56.7305V26.1995H57.4379V30.8744H56.7305V31.003H58.8801V30.8744H58.1726V28.5699H58.8688C59.0698 28.5699 59.229 28.6053 59.3415 28.6744C59.4557 28.7452 59.5376 28.8384 59.5891 28.9558C59.6405 29.0732 59.6743 29.2051 59.6872 29.3515C59.7016 29.4978 59.7097 29.649 59.7113 29.805C59.7129 29.9609 59.7209 30.1121 59.7338 30.2585C59.7467 30.4048 59.7788 30.5367 59.8303 30.6541C59.8817 30.7715 59.9637 30.8647 60.0763 30.9339C60.1888 31.003 60.3448 31.0368 60.5441 31.0368C60.6904 31.0368 60.8223 31.0256 60.938 31.003C61.0538 30.9821 61.139 30.9564 61.1904 30.9275L61.1438 30.8068C61.1084 30.8326 61.0586 30.8503 61.0039 30.8647ZM58.8945 26.2011C59.1052 26.2011 59.2836 26.2445 59.4283 26.3297C59.5746 26.415 59.6856 26.542 59.7595 26.7076C59.8351 26.8733 59.8737 27.0807 59.8737 27.3252C59.8737 27.5712 59.8351 27.7755 59.7595 27.9411C59.684 28.1067 59.573 28.2306 59.4283 28.3158C59.3174 28.3801 59.1888 28.4187 59.0408 28.4348H58.1743V26.2011H58.8945Z" fill="black"/>
<path d="M80.8674 29.5253C80.861 29.7344 80.8385 29.9209 80.8015 30.0882C80.7645 30.2538 80.7018 30.397 80.6118 30.5144C80.5234 30.6318 80.398 30.7218 80.2388 30.7845C80.078 30.8472 79.8722 30.8778 79.6182 30.8778H78.7082V26.2029H79.2966V26.0742H77.377V26.2029H77.9718V30.8778H77.377V31.0065H80.9993V29.5269H80.8674V29.5253Z" fill="black"/>
<path d="M73.6643 26.0723V26.2009H74.1964C74.1948 26.3183 74.1932 26.5611 74.1932 26.6866V29.2709C74.1932 29.6762 74.1707 29.9576 74.1241 30.1184C74.0791 30.2792 74.0003 30.4159 73.891 30.5285C73.7929 30.633 73.6755 30.7102 73.5421 30.7617C73.4842 30.7842 73.4649 30.7874 73.4022 30.8099C73.3733 30.818 73.2864 30.8405 73.2559 30.8469C73.1562 30.8726 73.0421 30.8823 72.9617 30.8855C72.7318 30.8984 72.6096 30.9032 72.4649 30.826C72.3202 30.7488 72.2092 30.6427 72.1304 30.5076C72.0517 30.3709 71.997 30.2117 71.9664 30.0283C71.9359 29.845 71.9198 29.644 71.9198 29.4269V26.2025H72.5774V26.0739H70.5918V26.2025H71.1835V29.4928C71.1835 30.0605 71.3185 30.4706 71.587 30.7215C71.8555 30.9739 72.2816 31.0994 72.8636 31.0994C73.0372 31.0994 73.1176 31.1106 73.2623 31.0817C73.2864 31.0769 73.3186 31.0704 73.3331 31.0688C73.4665 31.0431 73.5887 31.0077 73.6964 30.9595C73.9247 30.8566 74.1032 30.7006 74.235 30.4915C74.3122 30.3725 74.3669 30.2326 74.3974 30.0702C74.4183 29.964 74.4312 29.808 74.4392 29.6118C74.4408 29.57 74.4489 29.5346 74.4489 29.4912V26.2009H75.0132V26.1318V26.0739V26.0723H73.6643Z" fill="black"/>
<path d="M51.5877 27.9813C51.4511 27.9813 51.3305 28.0183 51.2276 28.0939C51.1231 28.1695 51.0202 28.2949 50.9157 28.4718C50.8513 28.578 50.7533 28.7725 50.6343 29.062C50.5185 29.3418 50.4076 29.5541 50.3208 29.739C50.1906 29.5316 50.0668 29.2823 49.9462 28.9929C49.8256 28.7034 49.7114 28.3769 49.6037 28.0167C50.0442 27.8752 50.3915 27.6935 50.6423 27.4715C50.8932 27.2496 51.0186 27.0164 51.0186 26.7704C51.0186 26.5517 50.9317 26.378 50.7597 26.2509C50.5877 26.1239 50.3513 26.0596 50.0523 26.0596C49.668 26.0596 49.3658 26.1721 49.1455 26.3957C48.9252 26.6192 48.8143 26.9248 48.8143 27.3123C48.8143 27.4345 48.8239 27.5648 48.8448 27.7031C48.8641 27.8414 48.8963 27.9894 48.9381 28.147C48.4429 28.3432 48.0538 28.5924 47.7725 28.8948C47.4911 29.1987 47.3496 29.5139 47.3496 29.8404C47.3496 30.1893 47.4686 30.4724 47.7065 30.6895C47.9445 30.9066 48.2532 31.0143 48.6326 31.0143C48.8657 31.0143 49.0924 30.9725 49.3111 30.8873C49.5298 30.802 49.7548 30.6702 49.9864 30.4917C50.1086 30.6637 50.2468 30.794 50.3996 30.8824C50.5523 30.9709 50.7163 31.0143 50.8915 31.0143C51.1022 31.0143 51.2951 30.9564 51.472 30.839C51.6488 30.7216 51.808 30.548 51.9495 30.3164L51.8048 30.2167C51.7324 30.3389 51.644 30.4322 51.5411 30.4965C51.4382 30.5608 51.3256 30.5914 51.2035 30.5914C51.0716 30.5914 50.935 30.5319 50.7951 30.4129C50.6552 30.2939 50.5057 30.0768 50.3915 29.8661C50.5153 29.5702 50.6359 29.2743 50.8095 28.8771C51.033 28.3673 51.2179 28.1518 51.3224 28.1196C51.3594 28.1084 51.4012 28.0971 51.4478 28.1405C51.4896 28.1791 51.48 28.2756 51.48 28.2949C51.48 28.3013 51.4768 28.3206 51.4736 28.3528C51.4687 28.385 51.4671 28.4139 51.4671 28.4396C51.4671 28.5506 51.4928 28.6358 51.5443 28.6953C51.5957 28.7548 51.6713 28.7854 51.771 28.7854C51.8723 28.7854 51.9511 28.7532 52.0057 28.6873C52.0604 28.623 52.0893 28.5297 52.0893 28.4091C52.0893 28.2885 52.0411 28.1856 51.9462 28.1019C51.8514 28.0231 51.7308 27.9813 51.5877 27.9813ZM49.4735 26.3217C49.5796 26.1947 49.8143 26.1384 50.0057 26.1577C50.2581 26.1818 50.2983 26.2461 50.3787 26.3346C50.459 26.423 50.48 26.5887 50.48 26.7543C50.48 26.9714 50.3996 27.1789 50.2388 27.375C50.078 27.5712 49.8127 27.7337 49.5201 27.8688C49.4687 27.6677 49.4252 27.5053 49.3995 27.359C49.3738 27.2126 49.3513 27.0727 49.3513 26.9617C49.3529 26.7302 49.3674 26.4471 49.4735 26.3217ZM49.4606 30.6734C49.3127 30.7393 49.041 30.8069 48.9156 30.8069C48.639 30.8069 48.3834 30.667 48.2098 30.4547C48.0361 30.2408 47.9316 29.9256 47.9316 29.5782C47.9316 29.2952 47.9831 29.0363 48.1406 28.8143C48.2966 28.5924 48.6953 28.4252 48.9799 28.3078C49.0876 28.6986 49.2178 29.0684 49.3674 29.4142C49.5169 29.76 49.7291 30.1186 49.914 30.3968C49.7645 30.5206 49.6085 30.6075 49.4606 30.6734Z" fill="black"/>
<g clip-path="url(#clip0_1749_1236)">
<path d="M43.3872 0.331448C44.6785 0.331448 45.7285 1.8877 45.7285 3.1252V9.94395H42.0894C41.4372 9.94395 41.1372 9.92519 40.5959 9.83769C40.4785 9.81894 40.3612 9.7877 40.2438 9.7502L39.9242 9.64394L40.4264 9.5127C40.909 9.3752 41.072 9.31894 41.359 9.23144C42.3568 8.91894 43.1198 8.41895 43.6351 7.7377C44.1503 7.0627 44.4112 6.15019 44.4112 5.03144C44.4112 3.91269 44.1307 2.98144 43.5829 2.25644C43.0286 1.53144 42.2394 0.981448 41.2285 0.625198C40.1981 0.262698 38.972 0.0751953 37.5894 0.0751953H32.3264V0.20644L32.209 19.4439V19.5877V19.9252V20.0939H35.8546L35.8481 20.0314C34.7198 20.0314 33.8133 18.5752 33.8133 17.4939V10.2752H37.4524C38.0785 10.2752 38.4894 10.2627 39.0112 10.3064C39.1742 10.3189 39.3372 10.3565 39.5003 10.4002L39.7807 10.4752L39.1938 10.594C38.7568 10.6752 38.4633 10.7752 38.1764 10.869C37.1785 11.1815 36.4155 11.744 35.9003 12.4252C35.3851 13.1002 35.1242 14.0127 35.1242 15.1314C35.1242 16.2502 35.4046 17.1814 35.9525 17.9064C36.5068 18.6314 37.2959 19.1815 38.3068 19.5377C39.3372 19.9002 40.5568 20.0877 41.9459 20.0877H47.0394V0.243958H45.722H43.3872M37.8112 9.85644C37.7394 9.85644 37.6612 9.8627 37.5894 9.8627H33.8133V0.331448H34.0612H34.0677C34.8242 0.331448 35.1503 0.6002 35.3003 0.9002C35.4894 1.28145 35.6003 1.78144 35.6329 2.39394C35.6655 2.98144 35.6916 3.62521 35.7046 4.32521C35.7177 5.00021 35.7959 5.6877 35.9329 6.36895C36.0698 7.03145 36.3307 7.6502 36.7155 8.20645C37.0351 8.6752 37.5177 9.0752 38.1438 9.39395L38.8938 9.77521L37.8112 9.85644ZM39.5459 9.51896L39.4286 9.4127C39.1286 9.1502 38.9003 8.8502 38.7438 8.5127C38.509 8.0127 38.3525 7.4377 38.2873 6.81895C38.222 6.21895 38.1829 5.58144 38.1698 4.93769C38.1633 4.30644 38.1307 3.68146 38.0785 3.09396C38.0264 2.51896 37.9025 1.99394 37.7068 1.53769C37.5372 1.14394 37.2633 0.918947 36.8916 0.662697L36.2785 0.331448C36.6959 0.331448 37.1198 0.331448 37.5372 0.331448C38.4633 0.331448 39.259 0.393942 40.1329 0.637691C40.8568 0.843942 41.7764 1.10019 42.5003 1.88769C43.2307 2.68144 43.3546 3.5877 43.4459 4.24395C43.5438 4.9627 43.7785 6.60646 42.6764 7.91896C41.9003 8.85021 40.7916 9.21269 40.4851 9.31269C40.1133 9.43144 39.7872 9.48771 39.5459 9.51896ZM41.9459 19.8315C40.8046 19.9002 39.9177 19.6752 39.4025 19.5064C38.7242 19.2814 37.459 18.8627 36.6633 17.6627C36.1546 16.894 36.0699 16.1502 36.0046 15.6189C35.9329 15.0002 35.8025 13.8877 36.4677 12.7565C36.5916 12.5502 37.0612 11.7877 38.0394 11.2314C38.8351 10.7752 39.5916 10.6689 39.9894 10.6377L40.1068 10.7439C40.4068 11.0064 40.6351 11.3065 40.7916 11.644C41.0264 12.1502 41.1829 12.7189 41.2481 13.3377C41.3133 13.9377 41.3524 14.5752 41.3655 15.219C41.372 15.844 41.4046 16.4627 41.4568 17.0627C41.509 17.6377 41.6329 18.1627 41.8285 18.619C41.9981 19.0127 42.2459 19.1815 42.6633 19.5002L43.2568 19.8315H41.9459ZM45.722 19.9002L45.4872 19.9065H45.4742H45.4677C44.7111 19.9065 44.3851 19.5502 44.2351 19.244C44.0459 18.8627 43.9351 18.3627 43.9025 17.7502C43.8698 17.1627 43.8438 16.5189 43.8307 15.8189C43.8177 15.1377 43.7394 14.4502 43.6025 13.7752C43.4655 13.1127 43.2046 12.494 42.8198 11.9377C42.5003 11.469 42.0177 11.069 41.3916 10.7502L40.6416 10.3689L41.5612 10.3064C41.7046 10.2939 41.9394 10.2877 42.0764 10.2877H45.7155V19.9002H45.722Z" fill="black"/>
</g>
<defs>
<clipPath id="clip0_1749_1236">
<rect width="15" height="20" fill="white" transform="translate(32)"/>
</clipPath>
</defs>
</svg>
