<svg width="404" height="124" viewBox="0 0 404 124" fill="none" xmlns="http://www.w3.org/2000/svg">
<path d="M187.26 59.3801C187.02 59.3801 186.72 59.3501 186.36 59.2901C185.18 59.1001 184.1 59.0001 183.05 58.9901C182 59.0001 180.97 59.0901 179.79 59.2901C179.42 59.3501 179.13 59.3801 178.89 59.3801C178.43 59.3801 178.22 59.2801 178.17 59.1901C178.11 59.0801 178.25 58.7001 178.34 58.4501C178.44 58.1601 178.55 57.8601 178.58 57.5801C178.62 57.1301 178.53 56.7801 178.31 56.5401C177.99 56.1801 177.46 56.1401 177.08 56.1401C176.76 56.1401 176.4 56.1801 176.04 56.2201L175.63 56.2601C175.41 56.2801 175.18 56.2901 174.98 56.2901C174.65 56.2901 174.4 56.2501 174.21 56.1701C173.85 56.0201 173.5 55.5801 173.17 54.8701C172.85 54.1801 172.63 53.4101 172.52 52.9901C173.39 53.0401 174.17 53.3301 175.06 53.6601C175.52 53.8301 176.01 54.0101 176.53 54.1701C177.46 54.4601 178.61 54.6601 179.97 54.7701C180.88 54.8401 181.93 54.8801 183 54.8801C184.2 54.8801 185.27 54.8401 186.19 54.7701C187.54 54.6601 188.7 54.4601 189.63 54.1701C190.15 54.0101 190.64 53.8301 191.11 53.6601C192.06 53.3101 192.89 53.0001 193.65 52.9801C193.54 53.4001 193.32 54.1801 193 54.8801C192.67 55.5901 192.32 56.0301 191.96 56.1801C191.77 56.2601 191.52 56.3001 191.19 56.3001C190.98 56.3001 190.76 56.2901 190.54 56.2701L190.13 56.2301C189.77 56.1901 189.41 56.1501 189.09 56.1501C188.72 56.1501 188.19 56.1901 187.86 56.5501C187.64 56.7901 187.55 57.1401 187.59 57.5901C187.62 57.8801 187.72 58.1701 187.83 58.4601C187.92 58.7101 188.05 59.0901 188 59.2001C187.94 59.2801 187.72 59.3801 187.26 59.3801Z" fill="black"/>
<path d="M176.56 53.36C176.65 52.62 176.74 51.9101 176.87 51.2901C177.3 49.2901 177.99 47.8901 178.84 46.9701C180.02 45.6901 181.55 45.0301 183.08 44.9901C184.61 45.0201 186.14 45.6801 187.32 46.9701C188.17 47.8901 188.86 49.2901 189.29 51.2901C189.42 51.9101 189.52 52.62 189.6 53.36C193.22 51.8 193.91 52.5301 193.91 52.1901C193.9 44.4701 188.49 40.11 183.11 40.05H183.08H183.05C177.67 40.11 172.26 44.4801 172.25 52.1901C172.25 52.5301 172.93 51.8 176.56 53.36Z" fill="black"/>
<path d="M183.08 85.2301C176.73 85.1601 171.25 81.6401 168.36 75.7901C171.84 71.2501 169.74 66.71 168.56 64.58C169.57 65.17 171.06 66.3201 171.44 68.1601C171.71 69.4601 171.94 71.5801 171.46 74.2601C173.28 79.0801 178.63 80.77 183.04 80.8C187.46 80.78 192.84 79.0901 194.66 74.4001C194.2 71.5801 194.42 69.4601 194.69 68.1501C195.08 66.3101 196.56 65.1601 197.57 64.5701C196.4 66.7101 194.3 71.2401 197.78 75.7801C194.89 81.6301 189.42 85.1501 183.1 85.2201H183.08V85.2301Z" fill="black"/>
<path d="M183.08 79.5101C177.89 79.4601 173.76 77.3101 172.54 74.0201C172.79 73.4101 173.24 68.0401 171.7 65.9701C170.36 64.1701 169.73 63.8701 168.33 63.2101L167.87 62.9901C168.07 60.9101 169.37 60.1601 169.93 59.8401C170.49 59.4901 170.76 58.8901 170.73 58.3201C170.7 57.7901 170.43 57.37 169.96 57.14C169.79 57.06 169.6 57.0201 169.4 57.0201C169.18 57.0201 168.96 57.07 168.81 57.11C168.02 56.1 167.82 54.6301 168.34 53.4701C169.96 53.0301 170.92 52.9401 171.34 52.9401C171.34 52.9301 171.35 52.9301 171.35 52.9301C171.42 52.9301 171.71 54.0501 172.31 55.3201C172.75 56.2401 173.13 56.82 173.79 57.08C174.04 57.18 174.32 57.2201 174.67 57.2201C174.92 57.2201 175.19 57.2001 175.48 57.1601C175.94 57.0901 176.33 57.0601 176.65 57.0601C177.26 57.0601 177.45 57.1701 177.5 57.2101C177.67 57.3401 177.54 57.6801 177.34 58.1301C177.21 58.4201 177.09 58.6901 177.09 58.9401C177.09 59.4901 177.29 59.9001 177.67 60.1501C177.97 60.3501 178.36 60.4401 178.87 60.4401C179.39 60.4401 179.93 60.3401 180.32 60.2601C181.23 60.0801 182.16 59.9901 183.06 59.9901C184.01 60.0001 184.93 60.0901 185.85 60.2601C186.24 60.3401 186.78 60.4401 187.3 60.4401C188.86 60.4401 189.09 59.5001 189.09 58.9401C189.09 58.6901 188.97 58.4201 188.84 58.1301C188.64 57.6701 188.51 57.3401 188.68 57.2101C188.72 57.1801 188.91 57.0601 189.53 57.0601C189.85 57.0601 190.24 57.0901 190.7 57.1601C190.98 57.2001 191.25 57.2201 191.5 57.2201C191.85 57.2201 192.14 57.17 192.38 57.08C193.04 56.82 193.43 56.2101 193.85 55.3201C194.34 54.2901 194.62 53.3501 194.73 52.9601C195.38 52.9601 196.33 53.0801 197.98 53.6201C198.34 54.6401 198.14 56.1 197.35 57.11C197.14 57.05 196.94 57.0201 196.76 57.0201C196.55 57.0201 196.36 57.06 196.2 57.14C195.74 57.37 195.46 57.7801 195.43 58.3101C195.4 58.8801 195.66 59.4801 196.06 59.7401C196.78 60.1601 198.09 60.9101 198.29 62.9901L197.83 63.2101C196.44 63.8701 195.8 64.1701 194.47 65.9701C192.93 68.0301 193.38 73.4101 193.62 74.1901C192.4 77.3001 188.27 79.4501 183.11 79.5001H183.08V79.5101ZM183.02 64.7801C181.98 64.8901 181.3 65.6301 181.33 66.6301C181.35 67.5201 181.7 67.8401 182.01 68.1201V68.5301C181.84 68.6701 181.42 69.01 181.82 69.58C182.09 69.89 182.16 69.98 182.2 70.36C182.22 70.55 182.18 70.7601 182.14 70.9501C182.08 71.2101 182.03 71.4701 182.11 71.7301C182.2 72.0101 182.36 72.3001 182.93 72.3501H183.22C183.79 72.2901 183.95 72.0001 184.04 71.7301C184.12 71.4701 184.06 71.2101 184.01 70.9601C183.97 70.7601 183.93 70.56 183.95 70.36C183.99 69.98 184.06 69.8901 184.18 69.7701C184.73 69.0201 184.31 68.6801 184.18 68.5701L184 68.3101C184.45 67.8601 184.8 67.54 184.83 66.64C184.85 65.65 184.13 64.8901 183.08 64.7901H183.05L183.02 64.7801Z" fill="black"/>
<path d="M125.63 26.77V2.92004C124.11 2.92004 121.98 1.47002 121.22 0.0200195C120.46 0.99002 118.64 1.63004 117.12 1.63004C116.36 1.63004 115.6 1.47002 114.84 1.15002C114.23 0.830024 113.63 0.34002 113.17 0.0200195C112.11 0.99002 109.52 1.63004 106.03 1.63004C104.66 1.63004 103.3 1.47002 102.23 1.15002C101.17 0.830024 100.25 0.50002 99.65 0.0200195C98.89 0.83002 97.22 1.63004 95.7 1.63004C94.94 1.63004 94.18 1.47002 93.42 1.15002C92.66 0.830024 92.05 0.50002 91.6 0.0200195C90.84 1.47002 88.71 2.92004 87.19 2.92004V26.77C87.19 32.25 86.1 34.67 85.34 35.47C88.05 36.69 89.41 38.38 90.04 41.62H92.03C92.66 37.99 94.07 36.65 96.91 35.47C96 33.86 95.54 32.89 95.54 26.77V11.94C95.54 9.04003 96.45 8.23004 97.97 8.23004C99.34 8.23004 100.1 9.04003 100.1 11.94V47.72C100.1 54.97 98.88 57.87 97.52 59.32C98.58 60.13 99.19 61.41 99.19 62.54C99.19 63.67 98.58 64.96 97.67 65.6C99.04 66.89 100.1 70.6 100.1 76.72V112.17C100.1 112.98 100.1 113.94 99.49 113.94C98.88 113.94 98.43 113.46 98.43 112.17V112.05H96.63L95.39 120.71C96.91 120.71 99.95 122.19 100.56 123.64C101.78 122.51 104.51 122 106.49 122C107.55 122 108.92 122.19 109.98 122.35C111.2 122.67 112.41 122.99 113.02 123.64C113.78 122.19 115.91 120.55 117.43 120.55L116.73 112.06H115C114.99 113.01 114.84 113.79 114.09 113.79C113.33 113.79 112.72 113.31 112.72 111.86V76.73C112.72 69.48 113.63 66.25 115 65.29C113.94 64.81 113.33 63.52 113.33 62.23C113.33 61.1 114.09 59.65 115 59.17C114.09 58.2 112.72 54.98 112.72 47.73V11.95C112.72 9.05004 113.48 8.24002 114.85 8.24002C116.37 8.24002 117.28 9.05004 117.28 11.95V26.78C117.28 32.9 116.82 33.87 115.91 35.48C118.75 36.66 120.16 38 120.79 41.63H122.78C123.41 38.39 124.76 36.7 127.45 35.48C126.69 34.66 125.63 32.25 125.63 26.77Z" fill="black"/>
<path d="M39.48 112.06V112.34C39.48 113.15 39.02 114.28 38.41 114.28C37.65 114.28 37.2 113.47 37.2 112.18L34.77 77.37C34.31 70.28 35.38 66.09 36.44 64.64C35.23 64 34.46 62.38 34.46 61.26C34.46 60.29 35.07 58.84 36.44 58.04C34.62 56.59 33.25 56.11 32.34 43.54L29.15 2.77002C28.09 2.45002 27.18 1.64003 26.72 0.0300293C25.81 1.00003 23.07 1.64001 20.95 1.64001C20.04 1.64001 18.67 1.48003 17.46 1.16003C16.4 0.840034 15.33 0.510029 14.88 0.0300293C14.58 1.48003 13.67 2.45002 12.3 2.77002L8.96 43.54C8.2 54.01 6.68 56.11 5.01 58.04C5.92 59.01 6.53 60.3 6.53 61.42C6.53 62.71 5.62 64 4.86 64.64C5.92 66.41 7.14 68.99 6.53 77.21L4.25 112.34C4.25 112.99 4.09999 114.11 3.18999 114.11C2.27999 114.11 1.97 113.47 1.97 112.34V112.06H0.589996L0 120.72C1.06 120.72 3.04 122.01 3.5 123.65C4.72 122.52 6.23 122.01 7.75 122.01C8.51 122.01 9.42 122.2 10.33 122.36C11.24 122.68 12 123 12.61 123.65C13.07 122.01 14.74 121.04 16.1 121.04V112.06H14.76L14.73 112.66C14.58 113.46 14.12 114.43 13.52 114.43C12.91 114.43 12.46 113.63 12.46 112.33L13.52 95.73C13.52 93.96 14.43 92.35 15.95 92.35H20.81C22.48 92.35 23.39 94.12 23.7 95.73L24.76 112.01C24.91 113.14 24.76 114.27 24.15 114.27C23.54 114.27 23.24 113.46 23.09 112.82L23.02 112.06H21.67L21.87 120.88C23.39 120.88 25.82 122.01 26.28 123.65C27.65 122.52 30.38 122.01 32.51 122.01C33.57 122.01 34.79 122.2 36.01 122.36C37.07 122.68 38.29 123 38.9 123.65C39.2 122.01 40.87 120.72 42.09 120.72L41.21 112.06H39.48ZM18.51 80.59C16.08 80.59 15.17 79.3 15.32 75.11C15.62 70.92 17.14 65.92 18.36 64.63C17.45 63.99 17.15 62.86 17.15 61.41C17.15 59.8 17.76 58.83 18.52 58.03C17.76 57.06 17.15 53.03 17.15 49.81L17.91 34.18C17.91 32.57 18.06 31.92 18.52 31.92C18.98 31.92 19.28 32.56 19.28 34.18L19.89 49.81C19.89 51.74 19.74 57.06 18.98 58.03C19.89 59 20.35 60.13 20.35 61.41C20.5 62.7 20.05 63.67 19.13 64.63C20.04 66.24 21.56 70.43 21.86 75.11C22.15 79.47 21.24 80.59 18.51 80.59Z" fill="black"/>
<path d="M82.48 61.9C82.48 60.77 82.63 59.64 84.3 58.35C83.24 57.22 81.56 53.84 81.56 45.62V12.91C81.56 10.33 81.86 9.85004 82.62 9.85004C83.29 9.85004 83.7 10.28 83.8 11.47H85.33L86.12 2.44003C84.45 2.44003 82.47 1.15002 82.17 0.0200195C81.26 0.66002 79.44 1.63004 77.61 1.63004C76.85 1.63004 75.94 1.31002 75.18 0.990021C74.42 0.670021 73.81 0.18002 73.36 0.0200195C72.75 0.99002 70.32 2.44003 68.35 2.44003L69.22 11.47H71C71.19 10.14 71.77 9.69003 72.14 9.69003C72.75 9.69003 73.36 9.85004 73.36 11.63V58.36H72.6L62.42 2.44003C60.6 2.76003 58.17 1.31002 57.4 0.0200195C56.18 0.66002 54.67 1.63004 52.69 1.63004C51.78 1.63004 50.87 1.31002 50.11 0.990021C49.35 0.670021 48.74 0.35002 47.98 0.0200195C46.92 1.31002 44.79 2.28003 42.66 2.28003L43.65 11.48H45.26C45.29 10 45.73 9.38004 46.46 9.38004C47.37 9.38004 47.52 9.70003 47.52 12.12V45.48C47.52 54.83 46.61 56.76 44.94 58.37C46 59.5 46.61 60.95 46.61 62.08C46.61 63.21 46 64.5 44.94 65.3C46.31 66.75 47.52 69.33 47.52 77.71V111.23C47.52 113.81 47.22 114.61 46.46 114.61C45.85 114.61 45.25 114.29 45.25 113V112.08H43.69L42.82 120.74C44.49 120.74 46.62 122.03 47.38 123.67C48.14 122.54 49.66 122.03 51.18 122.03C51.94 122.03 52.85 122.22 53.61 122.54C54.37 122.7 54.98 123.19 55.28 123.67C56.19 122.03 58.77 120.9 60.75 120.9L59.97 112.08H58.47V112.2C58.47 114.13 57.86 114.62 57.41 114.62C56.8 114.62 56.19 114.3 56.19 112.2V78.36C56.19 70.62 56.8 66.92 57.86 65.31C56.8 64.51 56.19 63.05 56.19 61.93C56.19 60.64 56.8 59.35 57.86 58.38C56.95 57.41 56.19 54.19 56.19 49.68V34.69H56.95L58.92 49.68C59.38 52.58 59.53 56.61 58.77 58.22C60.29 59.67 60.44 60.64 60.44 61.93C60.59 63.06 60.14 64.51 59.38 65.31C60.75 66.6 62.27 70.15 63.33 76.75L70.02 121.23C71.84 121.23 74.27 121.87 75.49 123.67C76.55 121.87 79.44 120.9 81.11 120.9L81.56 82.22C81.71 73.19 83.23 66.43 84.6 65.3C83.23 64.48 82.48 63.03 82.48 61.9Z" fill="black"/>
<path d="M163.61 87.36C160.46 85.81 159.06 84.96 158.55 80.3H156.92C156.34 84.62 154.89 85.75 151.92 87.04C152.83 88.97 152.98 92.2 152.98 95.9V107.5C152.98 114.59 152.07 115.72 149.18 115.72C145.99 115.72 144.77 114.59 144.77 110.72V77.68C144.77 68.66 144.77 66.56 147.2 66.56C148.11 66.56 149.33 67.53 149.33 68.98C149.33 70.27 149.18 71.07 148.72 72.04C148.26 73.17 147.81 74.62 147.81 76.23C147.81 79.13 149.79 80.74 151.61 80.42C151 79.61 150.7 78.65 150.7 77.68C150.7 76.55 151.61 75.59 153.59 73.65C154.65 72.36 155.41 71.07 155.41 69.14C155.41 66.88 154.35 65.27 152.83 63.98L156.32 61.24L152.98 58.18C154.65 57.05 155.41 55.44 155.41 53.67C155.41 52.06 154.35 50.13 153.59 49.32C152.07 47.71 151.46 46.74 151.46 45.77C151.46 44.8 151.61 44 152.07 43.19C150.7 43.03 148.12 44.96 148.12 47.54C148.12 48.83 148.42 50.12 148.73 51.09C149.03 51.9 149.34 52.38 149.34 53.67C149.34 54.64 148.58 56.09 147.52 56.09C145.85 56.09 144.79 55.45 144.79 48.35V16.28C144.79 9.83 146.31 8.06 148.89 8.06C151.78 8.06 152.99 10.48 152.99 16.12V25.95C152.99 31.27 152.53 33.36 151.47 34.81C154.44 36.16 155.85 37.75 156.44 41.61H158.28C158.76 37.64 160.02 36.18 163.02 34.81C162.11 33.04 161.96 30.3 161.96 26.11V10.64C161.96 5.96998 162.42 3.71 163.33 2.91C161.81 2.75 159.84 1.30001 159.38 0.0100098C158.32 0.82001 156.8 1.62 155.73 1.62C153.91 1.62 152.69 0.979994 151.48 0.649994C150.27 0.329994 149.05 0.0100098 147.23 0.0100098C146.17 0.0100098 145.1 0.169994 143.74 0.649994C142.37 1.12999 140.7 1.62 138.27 1.62C137.05 1.62 135.69 1.45998 134.62 1.13998C133.56 0.819984 132.8 0.49001 132.19 0.0100098C131.13 1.62001 129.46 2.75 127.48 2.91L128.32 11.46H130.06V11.45C130.21 10.16 130.51 9.67999 131.27 9.67999C131.88 9.67999 132.03 10.16 132.03 11.45V44.81C132.03 52.22 130.66 56.25 129.29 57.7C130.36 58.67 131.12 59.96 131.12 60.92C131.12 62.05 130.36 63.5 129.29 64.14C130.36 65.75 132.03 69.62 132.03 80.09V111.03C132.03 112.8 131.73 113.45 130.97 113.45C130.39 113.45 130.17 113.07 130.09 112.05H128.09L127.32 120.22C128.84 120.54 131.27 122.18 131.88 123.63C132.94 122.5 134.31 121.99 135.68 121.99C137.5 121.99 139.33 122.34 140.85 122.66C142.37 122.98 143.89 123.63 145.71 123.63C147.99 123.63 149.2 123.15 150.42 122.82C151.48 122.5 152.7 121.99 154.67 121.99C155.58 121.99 156.34 122.18 157.1 122.34C157.86 122.5 158.47 122.82 159.23 123.14C159.68 122.17 162.12 120.7 163.33 120.37C162.27 119.08 161.96 118.11 161.96 110.22V95.88C161.94 91.87 162.55 88.81 163.61 87.36Z" fill="black"/>
<path d="M367.51 112.06V112.34C367.51 113.15 367.06 114.28 366.45 114.28C365.69 114.28 365.24 113.47 365.24 112.18L362.81 77.37C362.35 70.28 363.42 66.09 364.48 64.64C363.27 64 362.51 62.38 362.51 61.26C362.51 60.29 363.12 58.84 364.48 58.04C362.66 56.59 361.29 56.11 360.38 43.54L357.19 2.77002C356.13 2.45002 355.22 1.64003 354.76 0.0300293C353.85 1.00003 351.11 1.64001 348.99 1.64001C348.08 1.64001 346.71 1.48003 345.5 1.16003C344.44 0.840034 343.37 0.510029 342.92 0.0300293C342.62 1.48003 341.71 2.45002 340.34 2.77002L337 43.54C336.24 54.01 334.72 56.11 333.05 58.04C333.96 59.01 334.57 60.3 334.57 61.42C334.57 62.71 333.66 64 332.9 64.64C333.96 66.41 335.18 68.99 334.57 77.21L332.29 112.34C332.29 112.99 332.14 114.11 331.23 114.11C330.32 114.11 330.01 113.47 330.01 112.34V112.06H328.62L328.03 120.72C329.09 120.72 331.07 122.01 331.52 123.65C332.74 122.52 334.25 122.01 335.78 122.01C336.54 122.01 337.45 122.2 338.36 122.36C339.27 122.68 340.03 123 340.64 123.65C341.1 122.01 342.77 121.04 344.13 121.04V112.06H342.8L342.77 112.66C342.62 113.46 342.16 114.43 341.55 114.43C340.94 114.43 340.49 113.63 340.49 112.33L341.55 95.73C341.55 93.96 342.46 92.35 343.98 92.35H348.84C350.51 92.35 351.42 94.12 351.73 95.73L352.79 112.01C352.94 113.14 352.79 114.27 352.18 114.27C351.57 114.27 351.27 113.46 351.12 112.82L351.05 112.06H349.7L349.9 120.88C351.42 120.88 353.85 122.01 354.31 123.65C355.68 122.52 358.41 122.01 360.54 122.01C361.6 122.01 362.82 122.2 364.03 122.36C365.09 122.68 366.31 123 366.92 123.65C367.22 122.01 368.9 120.72 370.11 120.72L369.23 112.06H367.51ZM346.55 80.59C344.12 80.59 343.21 79.3 343.36 75.11C343.66 70.92 345.18 65.92 346.4 64.63C345.49 63.99 345.18 62.86 345.18 61.41C345.18 59.8 345.79 58.83 346.55 58.03C345.79 57.06 345.18 53.03 345.18 49.81L345.94 34.18C345.94 32.57 346.09 31.92 346.55 31.92C347 31.92 347.31 32.56 347.31 34.18L347.92 49.81C347.92 51.74 347.77 57.06 347.01 58.03C347.92 59 348.38 60.13 348.38 61.41C348.53 62.7 348.08 63.67 347.16 64.63C348.07 66.24 349.59 70.43 349.89 75.11C350.19 79.47 349.28 80.59 346.55 80.59Z" fill="black"/>
<path d="M398.3 80.69H396.54C395.98 85.12 394.59 85.91 391.83 87.2C392.59 88.17 393.04 90.26 393.04 94.29V109.6C393.04 113.79 391.67 115.72 389.24 115.72C386.81 115.72 385.29 113.79 385.29 109.6V79.79C385.29 71.89 385.9 66.9 387.72 65.12C386.35 63.99 385.74 62.7 385.74 61.41C385.74 60.12 386.35 58.67 387.72 57.86C386.51 56.57 385.29 54.48 385.29 45.13L385.44 14.83C385.44 10.8 386.35 8.38998 389.09 8.38998C392.28 8.38998 393.04 11.13 393.04 14.83V26.43C393.04 29.49 392.59 33.2 391.67 35.29C394 36.35 395.67 37.5 396.41 41.6H398.37C398.92 37.85 400.27 36.36 403.06 35.45C402.15 34.48 401.39 31.74 401.39 26.43V13.54C401.39 9.03001 402 4.99999 402.76 3.70999C401.09 3.70999 399.42 2.74 398.96 0.970001C398.2 1.78 397.59 2.10001 396.07 2.10001C394.7 2.10001 393.18 1.62 391.82 0.970001C390.45 0.330001 388.78 0 387.11 0C379.67 0 373.13 3.70999 373.13 22.08V45.13C373.13 52.06 372.37 56.41 370.7 57.86C372.07 58.83 372.68 60.44 372.68 61.41C372.68 62.54 372.22 63.99 370.7 65.12C372.52 67.22 373.13 72.37 373.13 79.79V104.45C373.13 119.11 378.6 123.65 387.87 123.65C398.51 123.65 402 117.02 402 106.06V94.29C402 89.94 402.3 88.33 403.06 87.2C400.4 85.84 398.94 84.63 398.3 80.69Z" fill="black"/>
<path d="M291.7 57.23C290.03 55.46 288.97 54.33 288.97 43.53V14.2C288.97 2.76004 280.31 0.0200195 276.81 0.0200195C276.2 0.99002 274.23 1.63004 271.95 1.63004C270.89 1.63004 269.67 1.47002 268.76 1.15002C268 0.830024 267.24 0.50002 266.94 0.0200195C260.41 0.0200195 254.33 7.27001 254.33 16.14V46.28C254.33 55.14 253.11 56.91 251.6 58.53C252.81 59.17 253.57 60.46 253.57 61.59C253.57 62.72 252.81 63.85 251.6 64.65C252.81 66.26 254.33 68.84 254.33 75.45V109.45C254.33 118.96 263.14 123.82 267.09 123.66C267.85 122.21 269.52 122.02 271.65 122.02C272.71 122.02 273.62 122.02 274.54 122.37C275.3 122.53 275.91 123.01 276.36 123.66C280.31 123.82 288.97 118.48 288.97 103.65V78.18C288.97 68.99 290.19 65.45 291.7 64C290.18 63.03 289.72 61.91 289.72 60.78C289.72 59.64 290.48 58.03 291.7 57.23ZM275.9 45.14C275.9 51.26 275.44 55.94 273.32 57.87C274.54 58.68 275.3 60.13 275.3 61.25C275.3 62.38 274.39 63.67 273.32 64.47C274.69 65.92 275.9 68.18 275.9 78.81V109.43C275.9 114.27 274.38 115.55 271.65 115.55C268.76 115.55 267.4 113.94 267.4 109.43V79.62C267.4 71.72 268.01 66.73 269.83 64.96C268.46 63.83 267.86 62.54 267.86 61.25C267.86 59.96 268.47 58.51 269.83 57.7C268.62 56.41 267.4 54.32 267.4 44.97V13.39C267.4 9.36001 268.62 7.75003 271.81 7.75003C275 7.75003 275.91 9.52004 275.91 13.23V45.14H275.9Z" fill="black"/>
<path d="M324.52 61.58C324.52 60.29 325.43 59.16 326.5 58.36C325.44 57.07 324.98 54.01 325.59 46.92L328.32 11.95C328.47 10.82 328.62 10.34 329.08 10.34C329.46 10.34 329.73 10.71 329.8 11.48H331.85L332.87 2.93002C331.65 2.93002 329.38 1.80003 328.62 0.0300293C327.71 1.16003 325.73 1.64001 323.91 1.64001C323 1.64001 322.09 1.48003 321.18 1.16003C320.27 0.840034 319.51 0.510029 319.05 0.0300293C318.44 1.64003 316.32 2.77002 314.95 2.77002V11.48H317.19C317.4 10.55 317.76 10.18 318.14 10.18C319.05 10.18 319.05 11.15 318.9 13.08L316.17 48.86C315.87 52.57 315.11 56.11 313.89 58.05C314.65 59.18 315.26 60.47 315.26 61.76C315.26 63.05 314.81 64.02 313.74 65.14C314.2 65.94 314.65 67.4 314.5 71.26L313.89 87.37H312.83L312.22 71.58C312.07 68.36 312.52 66.1 313.28 65.13C312.37 64.32 311.61 62.87 311.61 61.75C311.61 60.62 312.37 59.01 313.43 58.04C311.91 56.43 310.54 53.04 310.24 44.99L308.72 12.6C308.72 11.15 308.87 10.51 309.17 10.51C309.49 10.51 309.73 10.78 309.91 11.49H311.76V2.78003C309.48 2.78003 307.96 1.65004 307.35 0.0400391C306.44 1.17004 303.55 1.65002 300.97 1.65002C299.6 1.65002 298.39 1.49004 297.17 1.17004C296.11 0.850044 295.34 0.520039 294.74 0.0400391C294.29 1.49004 292.31 3.26004 290.31 3.26004L291.65 11.49H293.83V11.48C293.83 10.67 294.29 10.19 294.74 10.19C295.35 10.19 295.8 10.51 295.96 12.93L298.08 51.44C298.39 56.11 297.32 57.89 296.11 59.34C297.32 60.15 297.93 60.95 297.93 62.08C297.93 63.21 297.32 64.5 296.41 65.14C297.93 66.75 299.6 68.52 300.51 83.03L302.79 120.42C303.85 120.42 305.68 122.22 306.13 123.67C307.04 122.54 308.41 122.03 310.69 122.03C311.91 122.03 312.97 122.22 313.73 122.38C314.64 122.7 315.25 123.02 315.71 123.67C316.17 122.03 317.99 120.26 319.2 120.26L323.3 75.46C323.91 68.53 325.43 66.11 326.79 65.15C325.43 64.32 324.52 62.87 324.52 61.58Z" fill="black"/>
<path d="M246.11 0.0200195C245.35 0.66002 243.53 1.63004 242.16 1.63004C241.55 1.63004 240.79 1.31002 240.03 0.990021C239.42 0.670021 238.81 0.35002 238.36 0.0200195C237.75 1.15002 235.32 2.28003 233.19 2.28003L231.22 11.48H232.7L232.89 10.83C233.34 9.38002 233.95 9.22004 234.56 9.54004C235.17 9.86004 235.17 10.67 234.86 11.96L221.94 54.83H221.48V13.09C221.48 11 221.94 9.87003 222.85 9.87003C223.43 9.87003 223.85 10.47 223.9 11.49H225.67L226.65 2.29004C225.13 2.45004 223 1.32003 222.4 0.0300293C221.03 1.00003 217.69 1.64001 215.71 1.64001C214.65 1.64001 213.43 1.48003 212.22 1.16003C211.16 0.840034 210.24 0.510029 209.64 0.0300293C208.88 1.16003 206.15 2.29004 204.47 2.29004L205.18 11.49H206.75V11.32C206.75 9.06004 207.09 8.58002 207.85 8.58002C208.61 8.58002 208.72 8.90003 208.72 11V45C208.72 52.25 207.66 55.64 205.99 56.93C207.2 58.06 207.97 59.19 207.97 60.48C207.97 61.93 207.06 63.38 205.99 64.03C207.51 65.64 208.72 68.38 208.72 78.37V110.92C208.72 112.53 208.57 113.66 207.81 113.66C207.27 113.66 206.87 113.12 206.78 112.09H205.2L204.32 120.42C205.69 120.42 208.27 122.22 208.88 123.67C210.09 122.7 212.53 122.03 214.81 122.03C215.87 122.03 217.24 122.22 218.31 122.54C219.52 122.7 220.74 123.19 221.35 123.67C221.96 122.38 224.08 120.74 225.91 120.74L225.04 112.08H223.48V112.2C223.48 113.81 223.02 114.13 222.42 114.13C221.66 114.13 221.51 113.65 221.51 112.04V79.16L225.01 67.07H225.31L231.69 111.39C231.99 113.32 231.99 113.81 231.39 114.13C230.63 114.45 230.02 114.13 229.56 112.52L229.46 112.08H227.81L228.5 120.9C230.47 120.74 232.91 122.21 233.82 123.67C235.03 122.54 238.07 122.03 240.05 122.03C241.11 122.03 242.33 122.22 243.54 122.54C244.76 122.86 245.82 123.19 246.27 123.67C246.88 122.54 248.55 120.74 249.76 120.74L248.13 112.08H246.42V113.16C246.42 114.29 246.27 114.77 245.81 114.77C245.2 114.77 244.75 114.29 244.59 112.84L239.12 74.97C238.21 69.17 239.12 66.43 240.33 64.98C239.12 64.34 238.2 63.69 237.75 61.92C237.45 60.79 238.05 58.86 239.42 58.05C236.23 53.7 235.01 48.7 234.56 43.55L243.83 12.29C244.44 10.19 245.05 9.87003 245.65 10.03C246.18 10.17 246.34 10.71 246.17 11.49H247.74L250.66 2.29004C249 2.27004 246.87 0.98002 246.11 0.0200195Z" fill="black"/>
</svg>
