<svg width="16" height="16" viewBox="0 0 16 16" fill="none" xmlns="http://www.w3.org/2000/svg">
<path fill-rule="evenodd" clip-rule="evenodd" d="M3.33419 5.03281C3.16622 5.03281 3.00513 5.09954 2.88635 5.21831C2.76758 5.33708 2.70086 5.49818 2.70086 5.66615V12.3328C2.70086 12.5008 2.76758 12.6619 2.88635 12.7806C3.00513 12.8994 3.16622 12.9661 3.33419 12.9661H12.6675C12.8355 12.9661 12.9966 12.8994 13.1154 12.7806C13.2341 12.6619 13.3009 12.5008 13.3009 12.3328V5.66615C13.3009 5.49818 13.2341 5.33708 13.1154 5.21831C12.9966 5.09954 12.8355 5.03281 12.6675 5.03281H3.33419ZM1.89641 4.22836C2.27773 3.84704 2.79492 3.63281 3.33419 3.63281H12.6675C13.2068 3.63281 13.724 3.84704 14.1053 4.22836C14.4866 4.60969 14.7009 5.12687 14.7009 5.66615V12.3328C14.7009 12.8721 14.4866 13.3893 14.1053 13.7706C13.724 14.1519 13.2068 14.3661 12.6675 14.3661H3.33419C2.79492 14.3661 2.27773 14.1519 1.89641 13.7706C1.51508 13.3893 1.30086 12.8721 1.30086 12.3328V5.66615C1.30086 5.12687 1.51508 4.60969 1.89641 4.22836Z" fill="black"/>
<path fill-rule="evenodd" clip-rule="evenodd" d="M1.41842 5.27786C1.63287 4.95619 2.06748 4.86926 2.38915 5.08371L8.00086 8.82485L13.6126 5.08371C13.9342 4.86926 14.3688 4.95619 14.5833 5.27786C14.7977 5.59953 14.7108 6.03413 14.3891 6.24858L8.38915 10.2486C8.15402 10.4053 7.84769 10.4053 7.61257 10.2486L1.61257 6.24858C1.2909 6.03413 1.20397 5.59953 1.41842 5.27786Z" fill="black"/>
</svg>
