<svg width="12" height="12" viewBox="0 0 12 12" fill="none" xmlns="http://www.w3.org/2000/svg">
<path d="M10.7883 3.30636L8.69344 1.21199C8.51763 1.03623 8.27922 0.9375 8.03063 0.9375C7.78204 0.9375 7.54362 1.03623 7.36782 1.21199L1.58719 6.99214C1.49984 7.07896 1.43058 7.18225 1.38343 7.29602C1.33628 7.4098 1.31217 7.5318 1.3125 7.65496V9.7498C1.3125 9.99844 1.41128 10.2369 1.58709 10.4127C1.76291 10.5885 2.00136 10.6873 2.25 10.6873H4.34485C4.46801 10.6877 4.59002 10.6636 4.70379 10.6164C4.81757 10.5693 4.92086 10.5 5.00766 10.4126L8.73235 6.68839L8.92735 7.33949L7.29 8.97683C7.18433 9.0825 7.12497 9.22582 7.12497 9.37527C7.12497 9.52471 7.18433 9.66803 7.29 9.77371C7.39568 9.87938 7.539 9.93874 7.68844 9.93874C7.83788 9.93874 7.98121 9.87938 8.08688 9.77371L9.96188 7.89871C10.0337 7.82681 10.0847 7.73682 10.1094 7.63827C10.1342 7.53972 10.1318 7.43631 10.1025 7.33902L9.63657 5.78605L10.7892 4.63339C10.8764 4.54625 10.9455 4.44278 10.9927 4.32889C11.0398 4.21501 11.064 4.09294 11.0639 3.96968C11.0639 3.84643 11.0395 3.72439 10.9922 3.61057C10.9449 3.49675 10.8756 3.39338 10.7883 3.30636ZM3.04688 7.1248L6.375 3.79667L8.20313 5.6248L4.875 8.95292L3.04688 7.1248ZM2.4375 8.10917L3.89063 9.5623H2.4375V8.10917ZM9 4.82792L7.17188 2.9998L8.03157 2.14011L9.85969 3.96824L9 4.82792Z" fill="black"/>
</svg>
