<svg width="16" height="16" viewBox="0 0 16 16" fill="none" xmlns="http://www.w3.org/2000/svg">
<path d="M6.66659 3.99967H9.33325C9.33325 3.64605 9.19278 3.30691 8.94273 3.05687C8.69268 2.80682 8.35354 2.66634 7.99992 2.66634C7.6463 2.66634 7.30716 2.80682 7.05711 3.05687C6.80706 3.30691 6.66659 3.64605 6.66659 3.99967ZM5.33325 3.99967C5.33325 3.29243 5.6142 2.61415 6.1143 2.11406C6.6144 1.61396 7.29267 1.33301 7.99992 1.33301C8.70716 1.33301 9.38544 1.61396 9.88554 2.11406C10.3856 2.61415 10.6666 3.29243 10.6666 3.99967H13.9999C14.1767 3.99967 14.3463 4.06991 14.4713 4.19494C14.5963 4.31996 14.6666 4.48953 14.6666 4.66634C14.6666 4.84315 14.5963 5.01272 14.4713 5.13775C14.3463 5.26277 14.1767 5.33301 13.9999 5.33301H13.4119L12.8213 12.2263C12.7645 12.892 12.4599 13.5121 11.9678 13.9639C11.4757 14.4157 10.832 14.6664 10.1639 14.6663H5.83592C5.16786 14.6664 4.5241 14.4157 4.03202 13.9639C3.53993 13.5121 3.23537 12.892 3.17859 12.2263L2.58792 5.33301H1.99992C1.82311 5.33301 1.65354 5.26277 1.52851 5.13775C1.40349 5.01272 1.33325 4.84315 1.33325 4.66634C1.33325 4.48953 1.40349 4.31996 1.52851 4.19494C1.65354 4.06991 1.82311 3.99967 1.99992 3.99967H5.33325ZM9.99992 7.99967C9.99992 7.82286 9.92968 7.65329 9.80466 7.52827C9.67963 7.40325 9.51006 7.33301 9.33325 7.33301C9.15644 7.33301 8.98687 7.40325 8.86185 7.52827C8.73682 7.65329 8.66659 7.82286 8.66659 7.99967V10.6663C8.66659 10.8432 8.73682 11.0127 8.86185 11.1377C8.98687 11.2628 9.15644 11.333 9.33325 11.333C9.51006 11.333 9.67963 11.2628 9.80466 11.1377C9.92968 11.0127 9.99992 10.8432 9.99992 10.6663V7.99967ZM6.66659 7.33301C6.8434 7.33301 7.01297 7.40325 7.13799 7.52827C7.26301 7.65329 7.33325 7.82286 7.33325 7.99967V10.6663C7.33325 10.8432 7.26301 11.0127 7.13799 11.1377C7.01297 11.2628 6.8434 11.333 6.66659 11.333C6.48977 11.333 6.32021 11.2628 6.19518 11.1377C6.07016 11.0127 5.99992 10.8432 5.99992 10.6663V7.99967C5.99992 7.82286 6.07016 7.65329 6.19518 7.52827C6.32021 7.40325 6.48977 7.33301 6.66659 7.33301ZM4.50659 12.113C4.53499 12.4459 4.68736 12.7561 4.93355 12.982C5.17973 13.208 5.50177 13.3332 5.83592 13.333H10.1639C10.4978 13.3329 10.8195 13.2075 11.0654 12.9816C11.3113 12.7557 11.4635 12.4457 11.4919 12.113L12.0733 5.33301H3.92659L4.50659 12.113Z" fill="#F45050"/>
</svg>
