<svg width="14" height="14" viewBox="0 0 14 14" fill="none" xmlns="http://www.w3.org/2000/svg">
<path d="M12 1.4841C12 2.30374 11.3375 2.9682 10.5202 2.9682C9.7029 2.9682 9.04036 2.30374 9.04036 1.4841C9.04036 0.664454 9.7029 0 10.5202 0C11.3375 0 12 0.664454 12 1.4841Z" fill="black"/>
<path d="M1.14798 2.9682H6.18569C6.87992 2.9682 7.48219 3.09029 7.99251 3.33447C8.50283 3.57864 8.89592 3.93993 9.17177 4.41832C9.45222 4.89173 9.59244 5.47477 9.59244 6.16744C9.59244 6.68071 9.4913 7.14664 9.28901 7.56524C9.09131 7.98383 8.81776 8.33515 8.46835 8.61919C8.11894 8.89825 7.71436 9.09011 7.25461 9.19476L6.95807 9.31435H1.69968L1.68589 8.52949H6.37879C6.9029 8.52949 7.33967 8.41986 7.68908 8.2006C8.03849 7.98134 8.30054 7.69231 8.47525 7.33352C8.65455 6.96974 8.7442 6.58105 8.7442 6.16744C8.7442 5.6741 8.64536 5.24803 8.44766 4.88924C8.25457 4.52546 7.96723 4.2464 7.58563 4.05205C7.20404 3.85771 6.73739 3.76053 6.18569 3.76053H1.99622V13.8516H1.14798V2.9682ZM9.1235 13.8516L6.52361 8.98546L7.43391 8.97798L10.0269 13.7544V13.8516H9.1235Z" fill="black"/>
<path fill-rule="evenodd" clip-rule="evenodd" d="M1 2.81979H6.18569C6.89705 2.81979 7.522 2.9449 8.05623 3.20052C8.59252 3.45712 9.00824 3.8386 9.29944 4.34327C9.59626 4.84469 9.74042 5.45525 9.74042 6.16744C9.74042 6.70057 9.63527 7.18879 9.42243 7.62943C9.21554 8.06726 8.92844 8.43622 8.56154 8.73448L8.56054 8.73529C8.3093 8.93595 8.03127 9.0934 7.72721 9.20788L10.1749 13.7166V14H9.0349L6.61074 9.46276H2.1442V14H1V2.81979ZM2.1442 9.16594H6.45215L6.27751 8.83906L7.52145 8.82885L7.58417 8.94438C7.8756 8.83936 8.13915 8.6923 8.37568 8.50348C8.70717 8.23388 8.96689 7.90057 9.15527 7.50171L9.15584 7.50051C9.34741 7.1041 9.44446 6.66064 9.44446 6.16744C9.44446 5.49465 9.30832 4.93938 9.04455 4.49412L9.04366 4.49262C8.78318 4.04089 8.41289 3.70004 7.92879 3.46841C7.44238 3.23567 6.86279 3.11661 6.18569 3.11661H1.29596V13.7032H1.84824V9.46276H1.55429L1.53528 8.38108H1.84824V3.61212H6.18569C6.75416 3.61212 7.24516 3.7122 7.65264 3.91973C8.05979 4.12709 8.36974 4.42711 8.57774 4.81847C8.78941 5.20308 8.89219 5.65453 8.89219 6.16744C8.89219 6.60327 8.79755 7.0144 8.60808 7.39893C8.42079 7.78344 8.13948 8.09303 7.76757 8.32641C7.38902 8.56396 6.9232 8.6779 6.37879 8.6779H2.1442V9.16594ZM1.84824 8.6779V9.16594H1.84508L1.8365 8.6779H1.84824ZM2.1442 8.38108H6.37879C6.88261 8.38108 7.29032 8.27576 7.61058 8.07479C7.9374 7.8697 8.18016 7.60134 8.34228 7.26839C8.5113 6.92547 8.59622 6.55869 8.59622 6.16744C8.59622 5.69411 8.50149 5.29377 8.31814 4.96102L8.31702 4.95898C8.13884 4.62329 7.8743 4.36552 7.51863 4.18438C7.16292 4.00321 6.72063 3.90894 6.18569 3.90894H2.1442V8.38108ZM7.01903 9.12981L6.76971 9.13185L6.78793 9.16594H6.92943L7.01903 9.12981ZM6.94651 9.46276L9.21209 13.7032H9.8306L7.44074 9.30093C7.39404 9.31381 7.34679 9.32577 7.29899 9.33682L6.98671 9.46276H6.94651Z" fill="black"/>
</svg>
