<svg width="14" height="14" viewBox="0 0 14 14" fill="none" xmlns="http://www.w3.org/2000/svg">
<path fill-rule="evenodd" clip-rule="evenodd" d="M8.79036 2.98926C8.74555 3.43223 8.65531 3.86903 8.5213 4.29282L9.11562 4.88714C9.31252 5.08404 9.36372 5.38376 9.24335 5.63486C8.48666 7.21332 7.2138 8.48617 5.63535 9.24286C5.38418 9.36326 5.08436 9.312 4.88747 9.11498L4.29363 8.52074C3.86972 8.65462 3.43281 8.74471 2.98975 8.78935V9.33301C2.98975 10.3201 3.76157 10.925 4.48096 10.7424C5.98998 10.3553 7.36729 9.56997 8.46887 8.46839C9.56429 7.37297 10.347 6.00488 10.7363 4.50577C10.7381 4.49755 10.74 4.48933 10.7421 4.48112C10.9253 3.76155 10.3197 2.98926 9.3335 2.98926H8.79036ZM12.0217 4.77403C12.0195 4.78469 12.0171 4.79535 12.0143 4.80601C11.5689 6.54304 10.665 8.12846 9.39695 9.39646C8.12895 10.6645 6.54352 11.5684 4.8065 12.0139L4.80538 12.0141C3.02712 12.4668 1.67725 10.924 1.67725 9.33301V8.74968C1.67725 8.05056 2.23596 7.54568 2.85095 7.48418C3.32227 7.43733 3.78531 7.32598 4.22636 7.15333C4.46925 7.05825 4.74539 7.11604 4.92977 7.30054L5.47481 7.84594C6.46289 7.28138 7.28198 6.46228 7.84651 5.47418L7.30087 4.92855C7.11643 4.7441 7.05873 4.46793 7.1539 4.22507C7.32673 3.78404 7.43822 3.32138 7.48524 2.85003C7.54627 2.23345 8.05237 1.67676 8.75016 1.67676H9.3335C10.9141 1.67676 12.4488 3.01104 12.0217 4.77403Z" fill="black"/>
</svg>
