<svg width="67" height="67" viewBox="0 0 67 67" fill="none" xmlns="http://www.w3.org/2000/svg">
<path d="M50.0782 50.363C47.9482 52.4484 48.8513 57.6437 50.1201 62.3113L53.4631 60.1031C53.505 57.8879 53.445 55.9142 54.5393 54.9023C59.5323 49.9936 62.6517 43.4935 63.3574 36.5274C64.0632 29.5612 62.3108 22.5676 58.4037 16.7573C54.4966 10.947 48.6808 6.68576 41.9631 4.71141C35.2455 2.73705 28.0489 3.17385 21.6193 5.94618C15.1898 8.71851 9.93199 13.6518 6.75631 19.892C3.58064 26.1322 2.68697 33.2865 4.23004 40.1161C5.77311 46.9458 9.65576 53.0209 15.2058 57.2896C20.7558 61.5584 27.6238 63.752 34.6208 63.4908C35.4018 63.5651 36.1592 63.7993 36.846 64.1787C37.5327 64.5581 38.1341 65.0746 38.6128 65.6962L42.5002 64.7122C39.9054 60.6294 38.0266 56.929 34.3821 57.1286C28.87 57.3332 23.4599 55.604 19.0883 52.2404C14.7167 48.8767 11.6589 44.0904 10.4442 38.7099C9.2295 33.3294 9.93439 27.6936 12.4368 22.7781C14.9393 17.8625 19.0818 13.9767 24.1471 11.7934C29.2125 9.61 34.8818 9.26655 40.1737 10.8225C45.4656 12.3784 50.0469 15.7357 53.1244 20.3132C56.202 24.8907 57.582 30.4002 57.0257 35.888C56.4694 41.3757 54.0118 46.4962 50.0782 50.363Z" fill="black"/>
<path d="M21.421 5.48675C27.9577 2.66823 35.275 2.22462 42.1046 4.23187C48.9339 6.23914 54.8463 10.5711 58.8184 16.478C62.7906 22.3851 64.572 29.4954 63.8546 36.5776C63.1371 43.6598 59.9659 50.2688 54.8897 55.2592C54.8863 55.2626 54.8825 55.2657 54.879 55.269C54.458 55.6583 54.2228 56.2657 54.1016 57.1215C53.9801 57.9793 53.9843 58.9832 53.963 60.1127C53.9598 60.2772 53.8756 60.4293 53.7383 60.52L50.3956 62.7289C50.2618 62.8172 50.0934 62.8353 49.9434 62.7787C49.7936 62.7221 49.6799 62.5973 49.6378 62.4428C49.0008 60.0996 48.4463 57.5924 48.3253 55.3959C48.2061 53.2325 48.497 51.2111 49.7286 50.0053C53.5784 46.2204 55.9839 41.2086 56.5284 35.8373C57.0729 30.4658 55.7223 25.0728 52.71 20.5922C49.6976 16.1115 45.2123 12.8252 40.0323 11.3022C34.8524 9.77931 29.3029 10.1153 24.3448 12.2524C19.3867 14.3896 15.3324 18.1938 12.8829 23.0053C10.4334 27.8168 9.74272 33.3334 10.9317 38.6C12.1208 43.8666 15.1146 48.5517 19.3936 51.8442C23.6703 55.1347 28.9623 56.8274 34.3546 56.6293L34.7305 56.6215C36.5773 56.6444 37.9867 57.6031 39.2091 58.9828C40.4935 60.4326 41.6453 62.435 42.9219 64.4438C43.008 64.5792 43.0242 64.7478 42.9649 64.8969C42.9057 65.0459 42.7785 65.1573 42.6231 65.1967L38.7354 66.1811C38.5423 66.2299 38.3385 66.1592 38.2169 66.0014C37.7801 65.4342 37.2312 64.9629 36.6046 64.6166C35.9849 64.2743 35.3019 64.062 34.5977 63.9916C27.4988 64.2469 20.5329 62.0172 14.9014 57.686C9.25892 53.3461 5.31103 47.1694 3.74225 40.226C2.17358 33.2827 3.08218 26.0095 6.31061 19.6655C9.53915 13.3214 14.8844 8.30529 21.421 5.48675ZM41.8223 5.19085C35.2166 3.24939 28.1399 3.67956 21.8174 6.4057C15.4951 9.13181 10.325 13.9825 7.20222 20.1186C4.07945 26.2548 3.20048 33.2904 4.71784 40.0063C6.23526 46.722 10.0534 52.6955 15.5108 56.893C20.9684 61.0906 27.7223 63.2475 34.6026 62.9907L34.668 62.9926C35.5173 63.0734 36.3412 63.3281 37.088 63.7407C37.7371 64.0993 38.3157 64.5712 38.7979 65.1323L41.711 64.395C40.5549 62.552 39.5606 60.8871 38.461 59.6459C37.2657 58.2968 36.0202 57.5391 34.4092 57.6274L34.4005 57.6284C28.7719 57.8372 23.2472 56.0709 18.7833 52.6362C14.3194 49.2014 11.1965 44.3139 9.95612 38.8198C8.71582 33.3256 9.43597 27.5706 11.9913 22.5512C14.5466 17.5317 18.7768 13.5639 23.9493 11.3344C29.1216 9.10494 34.9108 8.75354 40.3145 10.3422C45.7183 11.931 50.3965 15.3603 53.5391 20.0346C56.6816 24.7088 58.0914 30.3343 57.5235 35.9379C56.9554 41.5417 54.4454 46.7706 50.4288 50.7192L50.4278 50.7201C49.5295 51.5997 49.2073 53.219 49.3243 55.3412C49.4284 57.2307 49.8734 59.3944 50.4249 61.5102L52.9678 59.8305C52.9839 58.8327 52.9896 57.8411 53.1114 56.9809C53.2435 56.0484 53.5234 55.1674 54.1885 54.5453C59.0984 49.7185 62.1664 43.327 62.8604 36.477C63.5544 29.6271 61.8311 22.75 57.9893 17.0366C54.1473 11.3231 48.428 7.13232 41.8223 5.19085Z" fill="black"/>
<path d="M23.6724 36.6197C25.3954 36.6197 26.7921 35.223 26.7921 33.5001C26.7921 31.7771 25.3954 30.3804 23.6724 30.3804C21.9495 30.3804 20.5527 31.7771 20.5527 33.5001C20.5527 35.223 21.9495 36.6197 23.6724 36.6197Z" fill="black"/>
<path d="M26.542 33.5005C26.542 31.9157 25.2575 30.6306 23.6729 30.6304C22.088 30.6304 20.8027 31.9156 20.8027 33.5005C20.803 35.0852 22.0881 36.3696 23.6729 36.3696C25.2574 36.3694 26.5418 35.085 26.542 33.5005ZM27.042 33.5005C27.0418 35.3612 25.5335 36.8694 23.6729 36.8696C21.812 36.8696 20.303 35.3613 20.3027 33.5005C20.3027 31.6395 21.8118 30.1304 23.6729 30.1304C25.5337 30.1306 27.042 31.6396 27.042 33.5005Z" fill="black"/>
<path d="M33.3433 36.6197C35.0663 36.6197 36.463 35.223 36.463 33.5001C36.463 31.7771 35.0663 30.3804 33.3433 30.3804C31.6204 30.3804 30.2236 31.7771 30.2236 33.5001C30.2236 35.223 31.6204 36.6197 33.3433 36.6197Z" fill="black"/>
<path d="M36.2129 33.5005C36.2129 31.9157 34.9284 30.6306 33.3438 30.6304C31.7589 30.6304 30.4736 31.9156 30.4736 33.5005C30.4739 35.0852 31.759 36.3696 33.3438 36.3696C34.9283 36.3694 36.2127 35.085 36.2129 33.5005ZM36.7129 33.5005C36.7127 35.3612 35.2044 36.8694 33.3438 36.8696C31.4829 36.8696 29.9739 35.3613 29.9736 33.5005C29.9736 31.6395 31.4827 30.1304 33.3438 30.1304C35.2046 30.1306 36.7129 31.6396 36.7129 33.5005Z" fill="black"/>
<path d="M43.3277 36.6197C45.0507 36.6197 46.4474 35.223 46.4474 33.5001C46.4474 31.7771 45.0507 30.3804 43.3277 30.3804C41.6047 30.3804 40.208 31.7771 40.208 33.5001C40.208 35.223 41.6047 36.6197 43.3277 36.6197Z" fill="black"/>
<path d="M46.1973 33.5005C46.1973 31.9157 44.9128 30.6306 43.3281 30.6304C41.7432 30.6304 40.458 31.9156 40.458 33.5005C40.4582 35.0852 41.7434 36.3696 43.3281 36.3696C44.9127 36.3694 46.197 35.085 46.1973 33.5005ZM46.6973 33.5005C46.697 35.3612 45.1888 36.8694 43.3281 36.8696C41.4672 36.8696 39.9582 35.3613 39.958 33.5005C39.958 31.6395 41.4671 30.1304 43.3281 30.1304C45.189 30.1306 46.6973 31.6396 46.6973 33.5005Z" fill="black"/>
</svg>
