<svg width="67" height="67" viewBox="0 0 67 67" fill="none" xmlns="http://www.w3.org/2000/svg">
<path d="M50.586 49.8693C48.456 51.9547 49.3591 57.15 50.6279 61.8177L53.9709 59.6095C54.0128 57.3943 53.9528 55.4206 55.0471 54.4086C60.0401 49.4999 63.1595 42.9999 63.8652 36.0337C64.571 29.0676 62.8186 22.0739 58.9115 16.2636C55.0044 10.4533 49.1886 6.19211 42.4709 4.21771C35.7533 2.24341 28.5567 2.68021 22.1271 5.45251C15.6976 8.22481 10.4398 13.1582 7.26412 19.3984C4.08842 25.6386 3.19482 32.7928 4.73782 39.6225C6.28092 46.4521 10.1636 52.5272 15.7136 56.796C21.2636 61.0647 28.1316 63.2584 35.1286 62.9972C35.9096 63.0715 36.667 63.3056 37.3538 63.685C38.0405 64.0644 38.6419 64.581 39.1206 65.2026L43.008 64.2185C40.4132 60.1357 38.5344 56.4353 34.8899 56.6349C29.3778 56.8396 23.9677 55.1104 19.5961 51.7467C15.2245 48.3831 12.1667 43.5967 10.952 38.2162C9.73732 32.8358 10.4422 27.1999 12.9446 22.2844C15.4471 17.3688 19.5896 13.483 24.6549 11.2997C29.7203 9.11631 35.3896 8.77291 40.6815 10.3288C45.9734 11.8847 50.5547 15.242 53.6322 19.8195C56.7098 24.397 58.0898 29.9066 57.5335 35.3943C56.9772 40.8821 54.5196 46.0026 50.586 49.8693Z" fill="black"/>
<path d="M21.9288 4.99316C28.4655 2.17467 35.7828 1.73109 42.6123 3.73828C49.4417 5.7456 55.3541 10.0775 59.3262 15.9844C63.2984 21.8915 65.0799 29.0018 64.3623 36.084C63.6449 43.1663 60.4737 49.7751 55.3975 54.7656C55.394 54.769 55.3903 54.7721 55.3868 54.7754C54.9658 55.1647 54.7306 55.7721 54.6094 56.6279C54.4879 57.4857 54.4921 58.4896 54.4707 59.6191C54.4676 59.7836 54.3834 59.9357 54.2461 60.0264L50.9034 62.2354C50.7696 62.3236 50.6012 62.3417 50.4512 62.2852C50.3014 62.2285 50.1877 62.1038 50.1455 61.9492C49.5086 59.606 48.9541 57.0989 48.833 54.9023C48.7138 52.7389 49.0048 50.7175 50.2364 49.5117C54.0862 45.7269 56.4917 40.7151 57.0362 35.3438C57.5807 29.9722 56.2293 24.5793 53.2168 20.0986C50.2044 15.618 45.72 12.3316 40.5401 10.8086C35.3602 9.28573 29.8107 9.62162 24.8526 11.7588C19.8945 13.8959 15.8402 17.7001 13.3907 22.5117C10.9413 27.3232 10.2505 32.8399 11.4395 38.1064C12.6285 43.373 15.6223 48.0582 19.9014 51.3506C24.1781 54.6412 29.4701 56.3339 34.8623 56.1357L35.2383 56.1279C37.0851 56.1508 38.4945 57.1095 39.7168 58.4893C41.0012 59.939 42.1531 61.9415 43.4297 63.9502C43.5158 64.0856 43.532 64.2543 43.4727 64.4033C43.4134 64.5523 43.2863 64.6637 43.1309 64.7031L39.2432 65.6875C39.05 65.7363 38.8463 65.6656 38.7247 65.5078C38.2878 64.9406 37.7389 64.4693 37.1123 64.123C36.4927 63.7807 35.8097 63.5684 35.1055 63.498C28.0065 63.7533 21.0406 61.5236 15.4092 57.1924C9.76675 52.8525 5.81885 46.6758 4.25004 39.7324C2.68144 32.7891 3.58993 25.5159 6.8184 19.1719C10.047 12.8278 15.3923 7.81168 21.9288 4.99316ZM42.3301 4.69727C35.7244 2.75586 28.6477 3.186 22.3252 5.91211C16.003 8.63819 10.8328 13.4889 7.71 19.625C4.58722 25.7612 3.70833 32.7968 5.22563 39.5127C6.74307 46.2283 10.5612 52.2018 16.0186 56.3994C21.4761 60.597 28.23 62.7549 35.1104 62.498L35.1758 62.499C36.0251 62.5798 36.849 62.8345 37.5957 63.2471C38.2449 63.6057 38.8235 64.0776 39.3057 64.6387L42.2188 63.9014C41.0627 62.0584 40.0684 60.3936 38.9688 59.1523C37.7735 57.8032 36.528 57.0456 34.917 57.1338L34.9082 57.1348C29.2797 57.3437 23.755 55.5774 19.2911 52.1426C14.8272 48.7078 11.7043 43.8203 10.4639 38.3262C9.22359 32.8321 9.94379 27.077 12.4991 22.0576C15.0545 17.0381 19.2847 13.0703 24.4571 10.8408C29.6295 8.6113 35.4186 8.25996 40.8223 9.84863C46.2261 11.4374 50.9043 14.8667 54.0469 19.541C57.1894 24.2152 58.5992 29.8408 58.0313 35.4443C57.4632 41.0481 54.9533 46.2771 50.9366 50.2256L50.9356 50.2266C50.0373 51.1062 49.7151 52.7254 49.8321 54.8477C49.9362 56.7371 50.3812 58.9008 50.9327 61.0166L53.4756 59.3369C53.4917 58.3391 53.4973 57.3476 53.6192 56.4873C53.7513 55.5548 54.0312 54.6738 54.6963 54.0518C59.6061 49.2249 62.6743 42.8335 63.3682 35.9834C64.0622 29.1336 62.3389 22.2564 58.4971 16.543C54.6551 10.8295 48.9359 6.63878 42.3301 4.69727Z" fill="black"/>
<path d="M24.1783 36.1261C25.9012 36.1261 27.298 34.7293 27.298 33.0064C27.298 31.2834 25.9012 29.8867 24.1783 29.8867C22.4553 29.8867 21.0586 31.2834 21.0586 33.0064C21.0586 34.7293 22.4553 36.1261 24.1783 36.1261Z" fill="black"/>
<path d="M27.0479 33.0068C27.0479 31.4221 25.7634 30.1369 24.1787 30.1367C22.5938 30.1367 21.3086 31.4219 21.3086 33.0068C21.3088 34.5915 22.5939 35.876 24.1787 35.876C25.7632 35.8758 27.0476 34.5913 27.0479 33.0068ZM27.5479 33.0068C27.5476 34.8675 26.0394 36.3758 24.1787 36.376C22.3178 36.376 20.8088 34.8676 20.8086 33.0068C20.8086 31.1458 22.3176 29.6367 24.1787 29.6367C26.0395 29.6369 27.5479 31.1459 27.5479 33.0068Z" fill="black"/>
<path d="M33.8501 36.1261C35.5731 36.1261 36.9698 34.7293 36.9698 33.0064C36.9698 31.2834 35.5731 29.8867 33.8501 29.8867C32.1272 29.8867 30.7305 31.2834 30.7305 33.0064C30.7305 34.7293 32.1272 36.1261 33.8501 36.1261Z" fill="black"/>
<path d="M36.7197 33.0068C36.7197 31.4219 35.4345 30.1367 33.8496 30.1367C32.265 30.137 30.9805 31.4221 30.9805 33.0068C30.9807 34.5913 32.2651 35.8757 33.8496 35.876C35.4344 35.876 36.7195 34.5915 36.7197 33.0068ZM37.2197 33.0068C37.2195 34.8676 35.7105 36.376 33.8496 36.376C31.989 36.3757 30.4807 34.8675 30.4805 33.0068C30.4805 31.1459 31.9888 29.637 33.8496 29.6367C35.7107 29.6367 37.2197 31.1458 37.2197 33.0068Z" fill="black"/>
<path d="M43.8345 36.1261C45.5575 36.1261 46.9542 34.7293 46.9542 33.0064C46.9542 31.2834 45.5575 29.8867 43.8345 29.8867C42.1116 29.8867 40.7148 31.2834 40.7148 33.0064C40.7148 34.7293 42.1116 36.1261 43.8345 36.1261Z" fill="black"/>
<path d="M46.7041 33.0068C46.7041 31.422 45.4197 30.1369 43.835 30.1367C42.2501 30.1367 40.9648 31.4219 40.9648 33.0068C40.9651 34.5915 42.2503 35.876 43.835 35.876C45.4196 35.8757 46.7039 34.5913 46.7041 33.0068ZM47.2041 33.0068C47.2039 34.8675 45.6957 36.3757 43.835 36.376C41.9741 36.376 40.4651 34.8676 40.4648 33.0068C40.4648 31.1458 41.974 29.6367 43.835 29.6367C45.6958 29.6369 47.2041 31.1459 47.2041 33.0068Z" fill="black"/>
</svg>
