<svg width="67" height="67" viewBox="0 0 67 67" fill="none" xmlns="http://www.w3.org/2000/svg">
<mask id="mask0_7129_13086" style="mask-type:luminance" maskUnits="userSpaceOnUse" x="14" y="14" width="40" height="40">
<path d="M54 14H14V54H54V14Z" fill="white"/>
</mask>
<g mask="url(#mask0_7129_13086)">
<path d="M50.8421 54C51.6796 54 52.4829 53.6673 53.0751 53.0751C53.6673 52.4829 54 51.6796 54 50.8421V43.4737C54 42.6362 53.6673 41.8329 53.0751 41.2407C52.4829 40.6485 51.6796 40.3158 50.8421 40.3158C48.3789 40.3158 45.9579 39.9368 43.6421 39.1579C43.0884 38.9831 42.4975 38.9633 41.9334 39.1007C41.3692 39.238 40.8535 39.5272 40.4421 39.9368L37.4105 42.9684C32.1731 40.1104 27.8686 35.8058 25.0105 30.5684L28.0211 27.5579C28.8842 26.7368 29.2 25.5158 28.8211 24.3368C28.0632 22.0421 27.6842 19.6211 27.6842 17.1579C27.6842 16.3204 27.3515 15.5171 26.7593 14.9249C26.1671 14.3327 25.3638 14 24.5263 14H17.1579C16.3204 14 15.5171 14.3327 14.9249 14.9249C14.3327 15.5171 14 16.3204 14 17.1579C14 37.4737 30.5263 54 50.8421 54ZM17.1579 16.1053H24.5263C24.8055 16.1053 25.0732 16.2162 25.2706 16.4136C25.468 16.611 25.5789 16.8787 25.5789 17.1579C25.5789 19.8526 26 22.4842 26.8211 24.9895C26.9263 25.2842 26.9053 25.7053 26.5684 26.0421L22.4211 30.1684C25.8947 36.9684 30.9895 42.0632 37.8105 45.5789L41.9158 41.4316C42.2105 41.1368 42.6105 41.0526 42.9895 41.1579C45.5158 42 48.1474 42.4211 50.8421 42.4211C51.1213 42.4211 51.389 42.532 51.5864 42.7294C51.7838 42.9268 51.8947 43.1945 51.8947 43.4737V50.8421C51.8947 51.1213 51.7838 51.389 51.5864 51.5864C51.389 51.7838 51.1213 51.8947 50.8421 51.8947C31.6842 51.8947 16.1053 36.3158 16.1053 17.1579C16.1053 16.8787 16.2162 16.611 16.4136 16.4136C16.611 16.2162 16.8787 16.1053 17.1579 16.1053Z" fill="black"/>
</g>
</svg>
