<svg width="67" height="67" viewBox="0 0 67 67" fill="none" xmlns="http://www.w3.org/2000/svg">
<g clip-path="url(#clip0_7051_1289)">
<path d="M50.8421 53C51.6796 53 52.4829 52.6673 53.0751 52.0751C53.6673 51.4829 54 50.6796 54 49.8421V42.4737C54 41.6362 53.6673 40.8329 53.0751 40.2407C52.4829 39.6485 51.6796 39.3158 50.8421 39.3158C48.3789 39.3158 45.9579 38.9368 43.6421 38.1579C43.0884 37.9831 42.4975 37.9633 41.9334 38.1007C41.3692 38.238 40.8535 38.5272 40.4421 38.9368L37.4105 41.9684C32.1731 39.1104 27.8686 34.8058 25.0105 29.5684L28.0211 26.5579C28.8842 25.7368 29.2 24.5158 28.8211 23.3368C28.0632 21.0421 27.6842 18.6211 27.6842 16.1579C27.6842 15.3204 27.3515 14.5171 26.7593 13.9249C26.1671 13.3327 25.3638 13 24.5263 13H17.1579C16.3204 13 15.5171 13.3327 14.9249 13.9249C14.3327 14.5171 14 15.3204 14 16.1579C14 36.4737 30.5263 53 50.8421 53ZM17.1579 15.1053H24.5263C24.8055 15.1053 25.0732 15.2162 25.2706 15.4136C25.468 15.611 25.5789 15.8787 25.5789 16.1579C25.5789 18.8526 26 21.4842 26.8211 23.9895C26.9263 24.2842 26.9053 24.7053 26.5684 25.0421L22.4211 29.1684C25.8947 35.9684 30.9895 41.0632 37.8105 44.5789L41.9158 40.4316C42.2105 40.1368 42.6105 40.0526 42.9895 40.1579C45.5158 41 48.1474 41.4211 50.8421 41.4211C51.1213 41.4211 51.389 41.532 51.5864 41.7294C51.7838 41.9268 51.8947 42.1945 51.8947 42.4737V49.8421C51.8947 50.1213 51.7838 50.389 51.5864 50.5864C51.389 50.7838 51.1213 50.8947 50.8421 50.8947C31.6842 50.8947 16.1053 35.3158 16.1053 16.1579C16.1053 15.8787 16.2162 15.611 16.4136 15.4136C16.611 15.2162 16.8787 15.1053 17.1579 15.1053Z" fill="black"/>
</g>
<defs>
<clipPath id="clip0_7051_1289">
<rect width="40" height="40" fill="white" transform="translate(14 13)"/>
</clipPath>
</defs>
</svg>
