<svg width="67" height="67" viewBox="0 0 67 67" fill="none" xmlns="http://www.w3.org/2000/svg">
<path d="M33.5078 10.25L34.2383 10.2617C37.8889 10.3799 41.4655 11.3562 44.6738 13.1152C55.9369 19.2906 60.0564 33.4212 53.8789 44.6787C47.7434 55.8596 33.7549 59.9967 22.5313 54.0039L12.1641 55.6904C11.9262 55.729 11.6842 55.6508 11.5137 55.4805C11.3431 55.3099 11.265 55.0672 11.3037 54.8291L12.9902 44.4668C11.3109 41.321 10.3767 37.834 10.2617 34.2744L10.25 33.5439C10.236 20.6926 20.6489 10.2642 33.5059 10.25H33.5078ZM33.5059 11.75C21.4773 11.7642 11.737 21.5206 11.75 33.542V33.543C11.7532 37.1909 12.6742 40.7796 14.4287 43.9785C14.5092 44.1252 14.5386 44.2948 14.5117 44.46L12.9512 54.042L22.5401 52.4834L22.6641 52.4736C22.7881 52.4743 22.9107 52.5053 23.0205 52.5654C33.5567 58.3416 46.7856 54.4881 52.5645 43.957C58.343 33.4261 54.4889 20.2076 43.9522 14.4307C40.7508 12.6754 37.1575 11.7535 33.5059 11.75ZM28.3867 20.4736C28.8632 20.4736 29.3202 20.6632 29.6572 21C29.9942 21.3368 30.1845 21.7931 30.1846 22.2695C30.1846 22.2756 30.1838 22.2821 30.1836 22.2881C30.1517 23.5855 30.3696 24.8775 30.8252 26.0928C31.0922 26.679 31.1491 27.3399 30.9805 27.9629C30.8147 28.5754 30.4412 29.1084 29.9287 29.4795L28.2139 31.1514C29.0313 32.6374 30.0469 34.0058 31.2334 35.2188L31.499 35.4854L31.5147 35.501C32.7815 36.8213 34.2348 37.9476 35.8272 38.8457L37.5244 37.1074L37.5313 37.1006C38.0757 36.5565 38.5841 36.1649 39.1797 36.0293C39.633 35.9262 40.0595 35.9907 40.4639 36.1055L40.8613 36.2324L40.8789 36.2383C41.9443 36.6379 43.0688 36.8552 44.2041 36.8818H44.6914L44.7442 36.8828C45.2042 36.9042 45.64 37.0962 45.9658 37.4219C46.2915 37.7474 46.4843 38.1826 46.5059 38.6426C46.5064 38.6541 46.5068 38.6662 46.5069 38.6777V44.8096C46.5069 44.8211 46.5064 44.8332 46.5059 44.8447C46.4844 45.3049 46.2916 45.7408 45.9658 46.0664C45.6401 46.3919 45.2042 46.584 44.7442 46.6055C44.7218 46.6065 44.6992 46.6064 44.6768 46.6055C38.3319 46.3291 32.3172 43.7002 27.8067 39.2314L27.8027 39.2275C23.3242 34.7237 20.6921 28.7086 20.4238 22.3643C20.4233 22.3516 20.4237 22.3388 20.4238 22.3262C20.428 21.8451 20.6169 21.384 20.9522 21.0391C21.2874 20.6942 21.7431 20.4916 22.2236 20.4736H28.3867ZM22.2735 21.9736C22.1806 21.9787 22.0932 22.0184 22.0283 22.085C21.9639 22.1512 21.9267 22.2391 21.9238 22.3311C22.1832 28.2883 24.6572 33.9351 28.8623 38.166C33.0966 42.3611 38.7394 44.8333 44.6944 45.1045C44.774 45.0962 44.8485 45.0617 44.9053 45.0049C44.9653 44.9449 45.0014 44.8656 45.0069 44.7812V38.7061C45.0013 38.6219 44.9652 38.5423 44.9053 38.4824C44.8438 38.4211 44.7617 38.3849 44.6748 38.3809C43.2035 38.4103 41.7398 38.1623 40.3613 37.6465C39.8626 37.4741 39.6664 37.4563 39.5127 37.4912C39.3496 37.5283 39.0941 37.6601 38.5918 38.1621L38.5908 38.1611L36.5039 40.3008C36.2722 40.538 35.9118 40.5947 35.6182 40.4404C33.6906 39.4276 31.9389 38.1101 30.4317 36.5391V36.5381C28.8923 35.023 27.6049 33.2717 26.6201 31.3496C26.4702 31.0568 26.5291 30.7004 26.7647 30.4707L28.9102 28.3779L29.0156 28.293C29.2691 28.1224 29.4524 27.8659 29.5322 27.5713C29.612 27.2766 29.583 26.9625 29.4502 26.6875C29.4403 26.6671 29.4308 26.6462 29.4229 26.625C28.9004 25.2336 28.6503 23.7551 28.6846 22.2695L28.6787 22.2119C28.6674 22.1551 28.6393 22.1022 28.5977 22.0605C28.542 22.0049 28.4656 21.9736 28.3867 21.9736H22.2735Z" fill="black"/>
</svg>
