<svg width="14" height="14" viewBox="0 0 14 14" fill="none" xmlns="http://www.w3.org/2000/svg">
<path fill-rule="evenodd" clip-rule="evenodd" d="M13.9553 5.38314V5.43162C13.9553 5.58929 13.9646 5.74116 13.9758 5.90501C13.9767 5.91804 13.9776 5.93129 13.9785 5.94475C13.9884 6.08965 14 6.25839 14 6.4188V8.59185C14 8.86082 14 9.21269 13.9551 9.61674C13.9518 10.0784 13.9002 10.4639 13.7957 10.8524C13.6661 11.3863 13.4057 11.7924 13.0984 12.1155C12.7201 12.5133 12.2157 12.7304 11.7392 12.8019L11.7333 12.8028C10.6768 12.9543 9.05021 13 7.00001 13C4.94617 13 3.36905 12.954 2.27221 12.8036L2.26076 12.802C1.79586 12.7322 1.30438 12.5238 0.929384 12.1442C0.503493 11.7588 0.311836 11.305 0.20108 10.8392L0.191725 10.7998L0.186286 10.7598C0.140692 10.4242 0.0953648 10.0429 0.0510735 9.67037L0.0447111 9.61685V9.56838C0.0447111 9.41072 0.0353696 9.25885 0.024238 9.095C0.023354 9.08199 0.0224452 9.06874 0.0215224 9.05529C0.0115795 8.91038 4.04105e-07 8.74162 4.04105e-07 8.58119L1.95489e-07 6.40838C-7.3147e-06 6.13934 -1.73282e-05 5.78741 0.044885 5.38327C0.0482259 4.92164 0.0997654 4.53614 0.204261 4.14758C0.333874 3.61366 0.594286 3.20759 0.901588 2.88447C1.27987 2.48672 1.78428 2.26963 2.26077 2.19806L2.26674 2.19716C3.32321 2.04568 4.94981 2 7.00001 2C9.05384 2 10.6309 2.04599 11.7278 2.19641L11.7392 2.19798C12.2042 2.26782 12.6956 2.47626 13.0706 2.8558C13.4965 3.24121 13.6882 3.695 13.7989 4.16082L13.8083 4.20017L13.8137 4.2402C13.8594 4.5765 13.9048 4.95869 13.9492 5.33205L13.9553 5.38314ZM12.4544 3.45727C12.2308 3.22222 11.9179 3.08119 11.6049 3.03419C10.5766 2.89316 9.05658 2.84615 7.00001 2.84615C4.94344 2.84615 3.37865 2.89316 2.39507 3.03419C2.08211 3.08119 1.76916 3.22222 1.54562 3.45727C1.32208 3.69231 1.14325 3.97436 1.05383 4.35043C0.964414 4.67949 0.919711 5.00855 0.919711 5.43162C0.875003 5.80769 0.875 6.13675 0.875 6.4188V8.58119C0.875 8.71209 0.884631 8.85312 0.894952 9.00427C0.906871 9.17881 0.919711 9.36684 0.919711 9.56838L0.919826 9.56934C0.964496 9.94509 1.00916 10.3208 1.05383 10.6496C1.14325 11.0256 1.27737 11.3077 1.54562 11.5427C1.76916 11.7778 2.08211 11.9188 2.39507 11.9658C3.42336 12.1068 4.94344 12.1538 7.00001 12.1538C9.05658 12.1538 10.6214 12.1068 11.6049 11.9658C11.9179 11.9188 12.2308 11.7778 12.4544 11.5427C12.6779 11.3077 12.8568 11.0256 12.9462 10.6496C13.0356 10.3205 13.0803 9.99145 13.0803 9.56838C13.125 9.1924 13.125 8.86341 13.125 8.5814V6.4188C13.125 6.2879 13.1154 6.14687 13.1051 5.99572C13.0931 5.82119 13.0803 5.63316 13.0803 5.43162C13.0356 5.05556 12.9909 4.67949 12.9462 4.35043C12.8568 3.97436 12.7226 3.69231 12.4544 3.45727Z" fill="black"/>
<path fill-rule="evenodd" clip-rule="evenodd" d="M8.09918 7.5L6.125 6.16363V8.83637L8.09918 7.5ZM9.11298 7.8466C9.36179 7.67817 9.36179 7.32183 9.11298 7.1534L5.93839 5.00445C5.64843 4.80816 5.25 5.00877 5.25 5.35105L5.25 9.64895C5.25 9.99123 5.64843 10.1918 5.93839 9.99555L9.11298 7.8466Z" fill="black"/>
</svg>
